G04 ================== begin FILE IDENTIFICATION RECORD ==================*
G04 Layout Name:  c:/candencecircuits/parcial2_2025/allegro/parcial2_ks.brd*
G04 Film Name:    ASSYBT*
G04 File Format:  Gerber RS274X*
G04 File Origin:  Cadence Allegro 24.1-S006*
G04 Origin Date:  Mon Nov 10 14:52:36 2025*
G04 *
G04 Layer:  REF DES/ASSEMBLY_BOTTOM*
G04 Layer:  PACKAGE GEOMETRY/ASSEMBLY_BOTTOM*
G04 Layer:  BOARD GEOMETRY/CUTOUT*
G04 Layer:  BOARD GEOMETRY/DESIGN_OUTLINE*
G04 *
G04 Offset:    (0.0000 0.0000)*
G04 Mirror:    No*
G04 Mode:      Positive*
G04 Rotation:  0*
G04 FullContactRelief:  No*
G04 UndefLineWidth:     0.1524*
G04 ================== end FILE IDENTIFICATION RECORD ====================*
%FSLAX25Y25*MOMM*%
%IR0*IPPOS*OFA0.00000B0.00000*MIA0B0*SFA1.00000B1.00000*%
%ADD10C,.1*%
%ADD11C,.1524*%
G75*
%LPD*%
G75*
G54D10*
G01X4068000Y4194000D02*
X4360000D01*
G01X4068000Y4324000D02*
Y4194000D01*
G01X4360000Y4324000D02*
X4068000D01*
G01X4457800Y341500D02*
X4890200D01*
G01X4457800Y876500D02*
Y341500D01*
G01X4565200Y876500D02*
X4457800Y769000D01*
G01X4890200Y876500D02*
X4457800D01*
G01X4360000Y4194000D02*
Y4324000D01*
G01X4637000Y3075000D02*
X4767000D01*
G01X4637000Y3367000D02*
Y3075000D01*
G01X4767000Y3272000D02*
X4672000Y3367000D01*
G01X4767000D02*
X4637000D01*
G01X4629000Y3450000D02*
X4759000D01*
G01X4629000Y3740000D02*
Y3450000D01*
G01X4628000Y4124000D02*
Y3832000D01*
G01D02*
X4758000D01*
G01X4759000Y3645000D02*
X4664000Y3740000D01*
G01X4759000D02*
X4629000D01*
G01X4628000Y3927000D02*
X4723000Y3832000D01*
G01X4631000Y4205000D02*
X4761000D01*
G01X4631000Y4497000D02*
Y4205000D01*
G01X4758000Y4124000D02*
X4628000D01*
G01X4761000Y4402000D02*
X4666000Y4497000D01*
G01X4761000D02*
X4631000D01*
G01Y4586000D02*
X4761000D01*
G01X4631000Y4876000D02*
Y4586000D01*
G01X4761000Y4781000D02*
X4666000Y4876000D01*
G01X4761000D02*
X4631000D01*
G01X4767000Y3075000D02*
Y3367000D01*
G01X4759000Y3450000D02*
Y3740000D01*
G01X4758000Y3832000D02*
Y4124000D01*
G01X4761000Y4205000D02*
Y4497000D01*
G01Y4586000D02*
Y4876000D01*
G01X4890200Y341500D02*
Y876500D01*
G54D11*
G01X0Y0D02*
Y5000000D01*
X5000000D01*
Y0D01*
X0D01*
G01X1452300Y1779000D02*
Y1969500D01*
X1393050D01*
X1374090Y1959970D01*
X1362240Y1947270D01*
X1357500Y1921870D01*
X1362240Y1896470D01*
X1376460Y1880600D01*
X1393050Y1871070D01*
X1452300D01*
G01X1393050D02*
X1357500Y1779000D01*
G01X1185960D02*
Y1969500D01*
X1273650Y1832980D01*
X1155150D01*
G01X1068930Y1858370D02*
X1052340Y1880600D01*
X1038120Y1893300D01*
X1019160Y1899650D01*
X1002570Y1893300D01*
X990720Y1880600D01*
X981240Y1861550D01*
X978870Y1839320D01*
X981240Y1820270D01*
X990720Y1801220D01*
X1004940Y1785350D01*
X1021530Y1779000D01*
X1040490Y1785350D01*
X1057080Y1804390D01*
X1066560Y1832980D01*
X1068930Y1864720D01*
X1064190Y1906000D01*
X1057080Y1928230D01*
X1045230Y1950450D01*
X1028640Y1966330D01*
X1012050Y1969500D01*
X995460Y1963150D01*
X983610Y1947270D01*
G01X1098000Y1540700D02*
X1288500D01*
Y1599950D01*
X1278970Y1618910D01*
X1266270Y1630760D01*
X1240870Y1635500D01*
X1215470Y1630760D01*
X1199600Y1616540D01*
X1190070Y1599950D01*
Y1540700D01*
G01Y1599950D02*
X1098000Y1635500D01*
G01Y1807040D02*
X1288500D01*
X1151980Y1719350D01*
Y1837850D01*
G01X1098000Y1964360D02*
X1139270Y1969100D01*
X1174200Y1976210D01*
X1205950Y1985690D01*
X1240870Y1997540D01*
X1288500Y2016500D01*
Y1921700D01*
G01X1114500Y1485500D02*
Y1548500D01*
X1081500D01*
Y1485500D01*
X1114500D01*
G01X1507500Y1795500D02*
X1444500D01*
Y1762500D01*
X1507500D01*
Y1795500D01*
G01X2439240Y3929380D02*
X2425020Y3919850D01*
X2408430Y3913500D01*
X2389470D01*
X2368140Y3923030D01*
X2351550Y3938900D01*
X2339700Y3957950D01*
X2330220Y3989700D01*
X2327850Y4018280D01*
X2332590Y4046850D01*
X2339700Y4065900D01*
X2353920Y4084950D01*
X2370510Y4097650D01*
X2387100Y4104000D01*
X2403690D01*
X2420280Y4097650D01*
X2434500Y4088130D01*
X2446350Y4075430D01*
G01X2577600Y4104000D02*
Y3913500D01*
X2549160Y3951600D01*
G01Y4104000D02*
X2606040D01*
G01X2727810Y4081780D02*
X2744400Y4097650D01*
X2763360Y4104000D01*
X2782320Y4097650D01*
X2798910Y4078610D01*
X2810760Y4050020D01*
X2815500Y4021450D01*
Y3986530D01*
X2810760Y3957950D01*
X2798910Y3932550D01*
X2784690Y3919850D01*
X2768100Y3913500D01*
X2749140Y3919850D01*
X2734920Y3932550D01*
X2725440Y3951600D01*
X2720700Y3977000D01*
X2725440Y3999220D01*
X2737290Y4021450D01*
X2751510Y4034150D01*
X2768100Y4037330D01*
X2787060Y4030980D01*
X2801280Y4015100D01*
X2815500Y3986530D01*
G01X2284500Y4087500D02*
X2347500D01*
Y4120500D01*
X2284500D01*
Y4087500D01*
G01X3802000Y4820300D02*
X3611500D01*
Y4761050D01*
X3621030Y4742090D01*
X3633730Y4730240D01*
X3659130Y4725500D01*
X3684530Y4730240D01*
X3700400Y4744460D01*
X3709930Y4761050D01*
Y4820300D01*
G01Y4761050D02*
X3802000Y4725500D01*
G01X3722630Y4627430D02*
X3700400Y4610840D01*
X3687700Y4596620D01*
X3681350Y4577660D01*
X3687700Y4561070D01*
X3700400Y4549220D01*
X3719450Y4539740D01*
X3741680Y4537370D01*
X3760730Y4539740D01*
X3779780Y4549220D01*
X3795650Y4563440D01*
X3802000Y4580030D01*
X3795650Y4598990D01*
X3776610Y4615580D01*
X3748020Y4625060D01*
X3716280Y4627430D01*
X3675000Y4622690D01*
X3652770Y4615580D01*
X3630550Y4603730D01*
X3614670Y4587140D01*
X3611500Y4570550D01*
X3617850Y4553960D01*
X3633730Y4542110D01*
G01X3722630Y4436930D02*
X3700400Y4420340D01*
X3687700Y4406120D01*
X3681350Y4387160D01*
X3687700Y4370570D01*
X3700400Y4358720D01*
X3719450Y4349240D01*
X3741680Y4346870D01*
X3760730Y4349240D01*
X3779780Y4358720D01*
X3795650Y4372940D01*
X3802000Y4389530D01*
X3795650Y4408490D01*
X3776610Y4425080D01*
X3748020Y4434560D01*
X3716280Y4436930D01*
X3675000Y4432190D01*
X3652770Y4425080D01*
X3630550Y4413230D01*
X3614670Y4396640D01*
X3611500Y4380050D01*
X3617850Y4363460D01*
X3633730Y4351610D01*
G01X4028620Y4967240D02*
X4038150Y4953020D01*
X4044500Y4936430D01*
Y4917470D01*
X4034970Y4896140D01*
X4019100Y4879550D01*
X4000050Y4867700D01*
X3968300Y4858220D01*
X3939720Y4855850D01*
X3911150Y4860590D01*
X3892100Y4867700D01*
X3873050Y4881920D01*
X3860350Y4898510D01*
X3854000Y4915100D01*
Y4931690D01*
X3860350Y4948280D01*
X3869870Y4962500D01*
X3882570Y4974350D01*
G01X3933370Y5060570D02*
X3955600Y5077160D01*
X3968300Y5091380D01*
X3974650Y5110340D01*
X3968300Y5126930D01*
X3955600Y5138780D01*
X3936550Y5148260D01*
X3914320Y5150630D01*
X3895270Y5148260D01*
X3876220Y5138780D01*
X3860350Y5124560D01*
X3854000Y5107970D01*
X3860350Y5089010D01*
X3879390Y5072420D01*
X3907980Y5062940D01*
X3939720Y5060570D01*
X3981000Y5065310D01*
X4003230Y5072420D01*
X4025450Y5084270D01*
X4041330Y5100860D01*
X4044500Y5117450D01*
X4038150Y5134040D01*
X4022270Y5145890D01*
G01X3854000Y5296100D02*
X3857170Y5312690D01*
X3866700Y5331650D01*
X3882570Y5343500D01*
X3904800Y5348240D01*
X3927020Y5343500D01*
X3946070Y5329280D01*
X3955600Y5307950D01*
Y5284250D01*
X3961950Y5270030D01*
X3977820Y5258180D01*
X4000050Y5253440D01*
X4022270Y5260550D01*
X4038150Y5277140D01*
X4044500Y5296100D01*
X4038150Y5315060D01*
X4022270Y5331650D01*
X4000050Y5338760D01*
X3977820Y5334020D01*
X3961950Y5322170D01*
X3955600Y5307950D01*
Y5284250D01*
X3946070Y5262920D01*
X3927020Y5248700D01*
X3904800Y5243960D01*
X3882570Y5248700D01*
X3866700Y5260550D01*
X3857170Y5279510D01*
X3854000Y5296100D01*
G01X3785500Y4875500D02*
Y4812500D01*
X3818500D01*
Y4875500D01*
X3785500D01*
G01X4115000Y4590300D02*
X3924500D01*
Y4531050D01*
X3934030Y4512090D01*
X3946730Y4500240D01*
X3972130Y4495500D01*
X3997530Y4500240D01*
X4013400Y4514460D01*
X4022930Y4531050D01*
Y4590300D01*
G01Y4531050D02*
X4115000Y4495500D01*
G01X4035630Y4397430D02*
X4013400Y4380840D01*
X4000700Y4366620D01*
X3994350Y4347660D01*
X4000700Y4331070D01*
X4013400Y4319220D01*
X4032450Y4309740D01*
X4054680Y4307370D01*
X4073730Y4309740D01*
X4092780Y4319220D01*
X4108650Y4333440D01*
X4115000Y4350030D01*
X4108650Y4368990D01*
X4089610Y4385580D01*
X4061020Y4395060D01*
X4029280Y4397430D01*
X3988000Y4392690D01*
X3965770Y4385580D01*
X3943550Y4373730D01*
X3927670Y4357140D01*
X3924500Y4340550D01*
X3930850Y4323960D01*
X3946730Y4312110D01*
G01X4115000Y4166640D02*
X4073730Y4161900D01*
X4038800Y4154790D01*
X4007050Y4145310D01*
X3972130Y4133460D01*
X3924500Y4114500D01*
Y4209300D01*
G01X3870500Y4812500D02*
Y4875500D01*
X3837500D01*
Y4812500D01*
X3870500D01*
G01X4336620Y4737240D02*
X4346150Y4723020D01*
X4352500Y4706430D01*
Y4687470D01*
X4342970Y4666140D01*
X4327100Y4649550D01*
X4308050Y4637700D01*
X4276300Y4628220D01*
X4247720Y4625850D01*
X4219150Y4630590D01*
X4200100Y4637700D01*
X4181050Y4651920D01*
X4168350Y4668510D01*
X4162000Y4685100D01*
Y4701690D01*
X4168350Y4718280D01*
X4177870Y4732500D01*
X4190570Y4744350D01*
G01X4241370Y4830570D02*
X4263600Y4847160D01*
X4276300Y4861380D01*
X4282650Y4880340D01*
X4276300Y4896930D01*
X4263600Y4908780D01*
X4244550Y4918260D01*
X4222320Y4920630D01*
X4203270Y4918260D01*
X4184220Y4908780D01*
X4168350Y4894560D01*
X4162000Y4877970D01*
X4168350Y4859010D01*
X4187390Y4842420D01*
X4215980Y4832940D01*
X4247720Y4830570D01*
X4289000Y4835310D01*
X4311230Y4842420D01*
X4333450Y4854270D01*
X4349330Y4870860D01*
X4352500Y4887450D01*
X4346150Y4904040D01*
X4330270Y4915890D01*
G01X4184220Y5025810D02*
X4168350Y5042400D01*
X4162000Y5061360D01*
X4168350Y5080320D01*
X4187390Y5096910D01*
X4215980Y5108760D01*
X4244550Y5113500D01*
X4279470D01*
X4308050Y5108760D01*
X4333450Y5096910D01*
X4346150Y5082690D01*
X4352500Y5066100D01*
X4346150Y5047140D01*
X4333450Y5032920D01*
X4314400Y5023440D01*
X4289000Y5018700D01*
X4266780Y5023440D01*
X4244550Y5035290D01*
X4231850Y5049510D01*
X4228670Y5066100D01*
X4235020Y5085060D01*
X4250900Y5099280D01*
X4279470Y5113500D01*
G01X4178500Y4582500D02*
Y4645500D01*
X4145500D01*
Y4582500D01*
X4178500D01*
G01X4098500Y4645500D02*
Y4582500D01*
X4131500D01*
Y4645500D01*
X4098500D01*
G01X4661500Y1365500D02*
X4724500D01*
Y1398500D01*
X4661500D01*
Y1365500D01*
G01X4716700Y1382000D02*
Y1191500D01*
X4775950D01*
X4794910Y1201030D01*
X4806760Y1213730D01*
X4811500Y1239130D01*
X4806760Y1264530D01*
X4792540Y1280400D01*
X4775950Y1289930D01*
X4716700D01*
G01X4775950D02*
X4811500Y1382000D01*
G01X4902460Y1343900D02*
X4916680Y1366130D01*
X4935640Y1378830D01*
X4956970Y1382000D01*
X4975930Y1378830D01*
X4994890Y1362950D01*
X5006740Y1343900D01*
X5009110Y1324850D01*
X5004370Y1302630D01*
X4987780Y1286750D01*
X4971190Y1280400D01*
X4949860D01*
G01X4971190D02*
X4985410Y1270880D01*
X4997260Y1255000D01*
X5002000Y1235950D01*
X4997260Y1216900D01*
X4985410Y1201030D01*
X4964080Y1191500D01*
X4942750Y1194670D01*
X4921420Y1207380D01*
G01X5145100Y1382000D02*
X5161690Y1378830D01*
X5180650Y1369300D01*
X5192500Y1353430D01*
X5197240Y1331200D01*
X5192500Y1308980D01*
X5178280Y1289930D01*
X5156950Y1280400D01*
X5133250D01*
X5119030Y1274050D01*
X5107180Y1258180D01*
X5102440Y1235950D01*
X5109550Y1213730D01*
X5126140Y1197850D01*
X5145100Y1191500D01*
X5164060Y1197850D01*
X5180650Y1213730D01*
X5187760Y1235950D01*
X5183020Y1258180D01*
X5171170Y1274050D01*
X5156950Y1280400D01*
X5133250D01*
X5111920Y1289930D01*
X5097700Y1308980D01*
X5092960Y1331200D01*
X5097700Y1353430D01*
X5109550Y1369300D01*
X5128510Y1378830D01*
X5145100Y1382000D01*
M02*
