G04 ================== begin FILE IDENTIFICATION RECORD ==================*
G04 Layout Name:  c:/candencecircuits/parcial2_2025/allegro/parcial2_ks.brd*
G04 Film Name:    BOTTOM*
G04 File Format:  Gerber RS274X*
G04 File Origin:  Cadence Allegro 24.1-S006*
G04 Origin Date:  Mon Nov 10 14:49:31 2025*
G04 *
G04 Layer:  ETCH/BOTTOM*
G04 Layer:  PIN/BOTTOM*
G04 Layer:  VIA CLASS/BOTTOM*
G04 *
G04 Offset:    (0.0000 0.0000)*
G04 Mirror:    No*
G04 Mode:      Positive*
G04 Rotation:  0*
G04 FullContactRelief:  No*
G04 UndefLineWidth:     0.0000*
G04 ================== end FILE IDENTIFICATION RECORD ====================*
%FSLAX25Y25*MOMM*%
%IR0*IPPOS*OFA0.00000B0.00000*MIA0B0*SFA1.00000B1.00000*%
%ADD25R,1.3X.6*%
%ADD23R,.85X1.*%
%ADD15C,.2*%
%ADD12C,.4*%
%ADD20R,.3X.3*%
%ADD16C,.6096*%
%ADD24R,2.15X2.3*%
%ADD21C,1.2*%
%ADD17C,1.4*%
%ADD19C,2.7*%
%ADD22R,1.2X1.2*%
%ADD18R,1.4X1.4*%
%ADD11C,3.45*%
%ADD13C,1.238*%
%ADD10C,2.925*%
%ADD14R,1.238X1.238*%
%ADD26C,.15*%
%ADD27C,.127*%
G75*
%LPD*%
G75*
G54D10*
X236000Y229000D03*
Y1543000D03*
X1232000Y457000D03*
X2546000D03*
X2818000Y4768000D03*
X4132000D03*
G54D11*
X278000Y2015000D03*
X231500Y2704500D03*
X278000Y3329000D03*
X3017000Y336000D03*
X3641500Y289500D03*
X4331000Y336000D03*
G54D20*
X1098000Y1492000D03*
Y1542000D03*
X1501000Y1779000D03*
X1451000D03*
X2286000Y4104000D03*
X2346000D03*
X3802000Y4869000D03*
Y4819000D03*
X3854000Y4814000D03*
Y4874000D03*
X4162000Y4584000D03*
X4115000Y4589000D03*
X4162000Y4644000D03*
X4115000Y4639000D03*
X4668000Y1382000D03*
X4718000D03*
G54D21*
X1271000Y4420000D03*
X1321000Y4570000D03*
X1471000Y4420000D03*
X1571000Y4570000D03*
X1671000Y4420000D03*
X1771000Y4570000D03*
X1871000Y4420000D03*
X2071000D03*
G54D12*
X164290Y4233000D03*
X85710D03*
X353000Y3944000D03*
X648000Y1441000D03*
X702000Y1553000D03*
X619000Y3773000D03*
X538000D03*
X701000Y4040000D03*
X649110Y4236180D03*
X570530D03*
X786000Y671000D03*
X770000Y2867000D03*
X843210Y3759080D03*
X764630D03*
X873000Y4040000D03*
X864200Y4109000D03*
X1048000Y373000D03*
X1037000Y1841000D03*
X1040710Y2546000D03*
X942780Y4109000D03*
X1151000Y1934000D03*
X1119290Y2546000D03*
X1059000Y4040000D03*
X1222000Y4770000D03*
X1381000Y2915000D03*
X1383290Y3101990D03*
X1304710D03*
X1249000Y4040000D03*
X1321000Y4645000D03*
X1509000Y1748000D03*
X1562000Y2484000D03*
X1554290Y2687000D03*
X1475710D03*
X1614000Y2144000D03*
X1599000Y2445000D03*
X1664290Y3125000D03*
X1585710D03*
X1705000Y3462000D03*
X1671000Y4498000D03*
X1758000Y1774000D03*
X1853000Y3353000D03*
X1893000Y3419000D03*
X1896000Y3579000D03*
X2087000Y1858000D03*
X2040000Y2216000D03*
X2015000Y2403300D03*
X2082000Y2686000D03*
X1933000Y3321000D03*
X1996000Y3892000D03*
X2251000Y162000D03*
X2121000Y2886000D03*
X2112000Y3047000D03*
X2349000Y889000D03*
X2355000Y959000D03*
X2320000Y4152000D03*
X2491000Y4218000D03*
X2625000Y2387000D03*
X2754000Y3337000D03*
X2962000Y1208000D03*
X2887000Y1579000D03*
X2925000Y2187000D03*
X2799000Y2228000D03*
X2879000Y3365000D03*
X2928000Y3861000D03*
X3014000Y866000D03*
X3081000Y1025000D03*
X3043000Y1269000D03*
X3072000Y1341000D03*
X3132000Y1499000D03*
X3043000Y1707000D03*
X3045000Y2424000D03*
X3136000Y2333000D03*
X3099000Y2603000D03*
X3093500Y2864500D03*
X2980000Y3358000D03*
X3101000Y3291000D03*
X3132000Y3631000D03*
X3054000Y3890000D03*
X3038000Y3831000D03*
X3127710Y4369000D03*
X3228000Y607000D03*
X3286000Y1402000D03*
X3265000Y1701000D03*
X3303500Y2301500D03*
X3307000Y2645000D03*
X3301000Y3138000D03*
X3241000Y3811000D03*
X3285940Y3740000D03*
X3262000Y3950000D03*
X3206290Y4369000D03*
X3354500Y1140500D03*
X3382000Y2279000D03*
X3464000D03*
Y2679000D03*
X3432000Y2842000D03*
X3440000Y3017000D03*
X3371000Y3241000D03*
Y3376000D03*
X3552000Y1365000D03*
X3497000Y2346000D03*
X3557000Y2703000D03*
X3495000Y3441000D03*
X3827000Y866000D03*
X3760500Y1335500D03*
X3678000Y3531000D03*
X3992000Y1059000D03*
X3991000Y1196000D03*
X3980000Y1323000D03*
X3999500Y1465500D03*
X3975000Y1653000D03*
X3857000Y2573000D03*
X4030000Y954000D03*
X4166000Y1160000D03*
X4153000Y1462000D03*
X4025000Y1351000D03*
X4123000Y1640000D03*
X4079000Y2392000D03*
X4132000Y2333000D03*
X4089000Y2814000D03*
X4129000Y3133000D03*
X4053000Y4047000D03*
X4113000Y4161000D03*
X4250000Y946000D03*
X4245000Y2671000D03*
X4254000Y2526000D03*
X4292000Y2947000D03*
X4288520Y3724520D03*
X4293000Y3790000D03*
X4313000Y4148000D03*
X4286540Y4301070D03*
X4185000Y4260000D03*
X4443000Y1695000D03*
X4382000Y2451000D03*
X4668000Y1336000D03*
X4650000Y1505000D03*
X4627000Y1945000D03*
X4586000Y2324000D03*
X4665000Y2547000D03*
X4695000Y3653000D03*
X4585000Y3589000D03*
X4589000Y3893000D03*
X4588000Y4013000D03*
X4611000Y4219640D03*
X4541000Y4188000D03*
X4576000Y4283000D03*
X4626000Y4737000D03*
X4560000Y4865000D03*
X4618000Y4929000D03*
X4775000Y1087000D03*
X4725000Y994000D03*
X4772000Y1287000D03*
X4777000Y1162000D03*
X4728000Y1378000D03*
X4824000Y1881000D03*
X4741000Y2513000D03*
X4816000Y2812000D03*
X4765000Y2976000D03*
X4801000Y3129000D03*
X4707000Y3239000D03*
X4801000Y3480000D03*
X4762000Y3498000D03*
X4856000Y3592000D03*
X4817000Y3691000D03*
X4804000Y3976000D03*
X4756000Y4103000D03*
X4838000Y4206000D03*
X4801000Y4254000D03*
X4805000Y4635000D03*
Y4680000D03*
X4914000Y1267000D03*
X4919000Y3218000D03*
X4929000Y3628000D03*
G54D13*
X386000Y486000D03*
X236000Y536000D03*
X386000Y686000D03*
X236000Y786000D03*
X386000Y886000D03*
Y1086000D03*
X236000Y986000D03*
X386000Y1286000D03*
X1489000Y607000D03*
X1789000Y457000D03*
X1689000Y607000D03*
X1889000D03*
X1989000Y457000D03*
X2089000Y607000D03*
X2239000Y457000D03*
X2289000Y607000D03*
X3075000Y4618000D03*
X3125000Y4768000D03*
X3275000Y4618000D03*
X3475000D03*
X3375000Y4768000D03*
X3675000Y4618000D03*
X3575000Y4768000D03*
X3875000Y4618000D03*
G54D22*
X2021000Y4570000D03*
G54D14*
X236000Y1236000D03*
X1539000Y457000D03*
X3825000Y4768000D03*
G54D23*
X4116000Y4154000D03*
X4312000D03*
X4214000Y4364000D03*
G54D24*
X4674000Y394000D03*
Y824000D03*
G54D15*
X277000Y3773000D03*
X203000Y4172000D03*
X314000Y4469000D03*
X443000Y2322000D03*
X365000Y4474000D03*
X827000Y671000D03*
X1019000Y1580000D03*
X919000Y1585000D03*
X1018000Y1445000D03*
X1098000Y1492000D03*
X1051000Y1681000D03*
X1043000Y1759000D03*
X1262000Y1798000D03*
X1503000Y1531000D03*
X1517000Y1677000D03*
X1441000Y2103000D03*
X1531000Y2148000D03*
X1683000Y1836000D03*
X1675000Y2259000D03*
X1595000Y2321000D03*
X1735000Y1835000D03*
X1760000Y2469000D03*
X1858000Y2574000D03*
X1841000Y2689000D03*
X1837000Y3050000D03*
X1869000Y3458000D03*
X1891120Y3370120D03*
X1769000Y3697000D03*
X1789000Y4040000D03*
X2056000Y903000D03*
X2005500Y844500D03*
X1940000Y2370000D03*
X2136000Y843000D03*
X2122000Y2136000D03*
X2083000Y3601000D03*
X2289000Y843000D03*
X2321000Y2129000D03*
X2401000Y3650000D03*
X2390000Y4081000D03*
X2346000Y4066000D03*
X2602000Y2130000D03*
X2697000Y3398000D03*
X2602000Y3642000D03*
X2723000Y3641000D03*
X2941000Y1473000D03*
X2803000Y2136000D03*
X3003000Y928060D03*
X3022000Y1430000D03*
X2962000Y3639000D03*
X3010000Y3641000D03*
X3234000Y3454000D03*
X3257000Y3583000D03*
X3375000Y2489000D03*
X3378000Y2568000D03*
X3330000Y2827000D03*
X3435000Y2923000D03*
X3456000Y2968000D03*
X3409000Y3069000D03*
X3398000Y3027000D03*
X3335000Y3214000D03*
X3322000Y3324000D03*
X3339000Y3580000D03*
X3507000Y2500000D03*
X3588000D03*
X3635000Y2981000D03*
X3468000Y3334230D03*
X3702000Y3225000D03*
X3676500Y3669500D03*
X3908000Y918000D03*
X3940000Y2667000D03*
X3870000Y2957560D03*
X3908000Y3644000D03*
X4046000Y884000D03*
X4048000Y2746000D03*
X4133000Y2773000D03*
X4006000Y2751000D03*
X4024000Y2913650D03*
X4048000Y3051000D03*
X4317000Y2089000D03*
X4253000Y2069000D03*
X4244000Y2792000D03*
X4181000Y3915000D03*
X4178000Y4154000D03*
X4478000Y3067000D03*
X4380000Y4436000D03*
X4674000Y221000D03*
X4644000Y2326000D03*
X4594000Y2992000D03*
X4778000Y2088000D03*
X4749950Y2411950D03*
X4758000Y2784000D03*
X4698800Y4929000D03*
G54D16*
X321000Y4339000D03*
Y4337000D03*
X548000Y3955000D03*
X490930Y4652000D03*
X585070D03*
X1312930Y3817000D03*
X1407070D03*
X2605000Y2925000D03*
X2508000Y4770000D03*
G54D25*
X4597000Y3221000D03*
X4584000Y3595000D03*
X4588000Y3883000D03*
Y4073000D03*
X4591000Y4351000D03*
X4586000Y4731000D03*
X4807000Y3126000D03*
Y3316000D03*
X4804000Y3500000D03*
Y3690000D03*
X4798000Y3978000D03*
X4801000Y4256000D03*
Y4446000D03*
X4806000Y4636000D03*
Y4826000D03*
G54D26*
G01X164290Y4233000D02*
Y4265840D01*
X143820Y4286310D01*
Y4867000D01*
X158820Y4882000D01*
X644000D01*
X659000Y4867000D01*
Y4410570D01*
X691570Y4378000D01*
X789410D01*
X1239750Y3927660D01*
X1330000D01*
X1345000Y3912660D01*
Y3897660D01*
X1312930Y3865590D01*
Y3817000D01*
G01X85710Y4233000D02*
Y4265710D01*
X113820Y4293820D01*
Y4879430D01*
X146390Y4912000D01*
X656430D01*
X689000Y4879430D01*
Y4423000D01*
X704000Y4408000D01*
X801840D01*
X1252180Y3957660D01*
X1342430D01*
X1375000Y3925090D01*
Y3897660D01*
X1407070Y3865590D01*
Y3817000D01*
G01X321000Y4337000D02*
Y4182000D01*
X548000Y3955000D01*
G01X490930Y4652000D02*
Y4603410D01*
X523000Y4571340D01*
Y4287940D01*
X500330Y4265270D01*
Y4207090D01*
X627220Y4080200D01*
X717660D01*
X1523420Y3274440D01*
X1542560D01*
X1551340Y3265660D01*
X1593000D01*
X1608000Y3250660D01*
Y3181290D01*
X1664290Y3125000D01*
G01X585070Y4652000D02*
Y4603410D01*
X553000Y4571340D01*
Y4275510D01*
X530330Y4252840D01*
Y4219520D01*
X639650Y4110200D01*
X730090D01*
X1535850Y3304440D01*
X1572550D01*
X1591470Y3323360D01*
X1616910D01*
X1704490Y3235780D01*
Y3108340D01*
X1680950Y3084800D01*
X1625910D01*
X1585710Y3125000D01*
G01X864200Y4109000D02*
Y4147110D01*
X888490Y4171400D01*
Y4197310D01*
X880310D01*
X824000Y4141000D01*
X665710D01*
X570530Y4236180D01*
G01X942780Y4109000D02*
Y4147110D01*
X918490Y4171400D01*
Y4209740D01*
X900920Y4227310D01*
X867880D01*
X817780Y4177210D01*
X758820Y4236180D01*
X649110D01*
G01X1119290Y2546000D02*
Y2507890D01*
X1095000Y2483600D01*
Y2265570D01*
X1062430Y2233000D01*
X916000D01*
X822000Y2327000D01*
Y2748000D01*
X1002000Y2928000D01*
X1241730D01*
X1329000Y3015270D01*
Y3039590D01*
X1304710Y3063880D01*
Y3101990D01*
G01X1040710Y2546000D02*
Y2507890D01*
X1065000Y2483600D01*
Y2278000D01*
X1050000Y2263000D01*
X928430D01*
X852000Y2339430D01*
Y2735570D01*
X1014430Y2898000D01*
X1254160D01*
X1359000Y3002840D01*
Y3039590D01*
X1383290Y3063880D01*
Y3101990D01*
G01X1554290Y2687000D02*
X1529930Y2711360D01*
Y3157500D01*
X1316430Y3371000D01*
X1120280D01*
X818920Y3672360D01*
Y3696680D01*
X843210Y3720970D01*
Y3759080D01*
G01X1475710Y2687000D02*
Y3169290D01*
X1304000Y3341000D01*
X1107850D01*
X788920Y3659930D01*
Y3696680D01*
X764630Y3720970D01*
Y3759080D01*
G01X3127710Y4369000D02*
X3116160D01*
X3107710Y4377450D01*
X3101210Y4370950D01*
Y4346370D01*
X3118780Y4328800D01*
X3222950D01*
X3246490Y4352340D01*
Y4385660D01*
X3190000Y4442150D01*
Y4533000D01*
X3275000Y4618000D01*
G01X3206290Y4369000D02*
X3184570D01*
X3167910Y4385660D01*
Y4387480D01*
X3185070Y4404640D01*
Y4404650D01*
X3160000Y4429720D01*
Y4533000D01*
X3075000Y4618000D01*
G01X4116000Y4154000D02*
X4178000D01*
G01X4674000Y394000D02*
Y221000D01*
G54D17*
X549000Y2322000D03*
Y2572000D03*
Y2772000D03*
X3574000Y607000D03*
X3774000D03*
X4024000D03*
G54D27*
G01X236000Y229000D02*
Y536000D01*
G01Y229000D02*
X401300D01*
X786000Y613700D01*
Y671000D01*
G01X236000Y536000D02*
Y655040D01*
X386000Y805040D01*
Y886000D01*
G01X648000Y1441000D02*
X426510D01*
X305050Y1319540D01*
Y1292050D01*
X249000Y1236000D01*
X236000D01*
G01X702000Y1553000D02*
Y1202000D01*
X386000Y886000D01*
G01X353000Y3944000D02*
Y3747000D01*
X389000Y3711000D01*
X476000D01*
X538000Y3773000D01*
G01X549000Y2322000D02*
X770000Y2543000D01*
Y2867000D01*
G01X701000Y4040000D02*
Y3855000D01*
X619000Y3773000D01*
G01X1051000Y1681000D02*
Y1612000D01*
X1019000Y1580000D01*
G01X1451000Y1779000D02*
Y1923000D01*
X1410000Y1964000D01*
X1176230D01*
X1167180Y1973050D01*
X1134820D01*
X1125770Y1964000D01*
X1042000D01*
X1025000Y1947000D01*
Y1853000D01*
X1037000Y1841000D01*
G01X873000Y4040000D02*
X1059000D01*
G01X2349000Y889000D02*
Y681000D01*
X2558000Y472000D01*
Y271000D01*
X1150000D01*
X1048000Y373000D01*
G01X1098000Y1542000D02*
Y1636000D01*
X1093000Y1641000D01*
Y1876000D01*
X1151000Y1934000D01*
G01X1381000Y2915000D02*
Y2544700D01*
X1393700Y2532000D01*
X2103640D01*
X2162550Y2473090D01*
Y2463570D01*
X2188570Y2437550D01*
X2870450D01*
X3146020Y2161980D01*
X3163980D01*
X3303500Y2301500D01*
G01X1249000Y4040000D02*
X1373000D01*
X1490000Y3923000D01*
Y3581000D01*
X1810000Y3261000D01*
X2096560D01*
X2187950Y3169610D01*
Y2474100D01*
X2199100Y2462950D01*
X3024900D01*
X3036050Y2474100D01*
Y3169610D01*
X3127440Y3261000D01*
X3315000D01*
X3495000Y3441000D01*
G01X2005500Y844500D02*
X1974000Y813000D01*
Y719700D01*
X1961300Y707000D01*
X1835000D01*
X1791000Y663000D01*
Y583000D01*
X1665000Y457000D01*
X1539000D01*
G01X1501000Y1779000D02*
Y1756000D01*
X1509000Y1748000D01*
G01X1735000Y1835000D02*
X1467000Y2103000D01*
X1441000D01*
G01X1705000Y3462000D02*
X1551000Y3616000D01*
Y3773300D01*
X1563700Y3786000D01*
X1954000D01*
X2286000Y4118000D01*
G01X1614000Y2144000D02*
Y2298910D01*
X1624050Y2308960D01*
Y2419950D01*
X1599000Y2445000D01*
G01X2349000Y889000D02*
X2070000D01*
X2056000Y903000D01*
G01X2040000Y2216000D02*
X2787000D01*
X2799000Y2228000D01*
G01X1933000Y3321000D02*
X2388000D01*
X2693950Y3626950D01*
Y3653040D01*
X2901910Y3861000D01*
X2928000D01*
G01X2320000Y4152000D02*
Y4357000D01*
X2107000Y4570000D01*
X2021000D01*
G01X2136000Y843000D02*
X2289000D01*
G01X2087000Y1858000D02*
X2961000D01*
X3382000Y2279000D01*
G01X2355000Y959000D02*
X2394060D01*
X2668000Y1232940D01*
Y1489000D01*
X3432000Y2253000D01*
Y2255770D01*
X3424950Y2262820D01*
Y2295180D01*
X3432000Y2302230D01*
Y2655770D01*
X3424950Y2662820D01*
Y2695180D01*
X3432000Y2702230D01*
Y2842000D01*
G01X2286000Y4118000D02*
X2320000Y4152000D01*
G01X2286000Y4104000D02*
Y4118000D01*
G01X2346000Y4104000D02*
Y4066000D01*
G01X2491000Y4218000D02*
X2651000D01*
X3038000Y3831000D01*
G01X3125000Y4768000D02*
X2818000D01*
G01X3014000Y866000D02*
X3827000D01*
G01X3003000Y928060D02*
X3897940D01*
X3908000Y918000D01*
G01X3054000Y3890000D02*
X3097000Y3847000D01*
X3216000D01*
X3241000Y3822000D01*
Y3811000D01*
G01X3324000Y607000D02*
X3228000D01*
G01X3286000Y1402000D02*
Y1118000D01*
X3450000Y954000D01*
X4030000D01*
G01X3265000Y1701000D02*
X3343000D01*
X3404000Y1640000D01*
X3926070D01*
X3935950Y1649880D01*
Y1669180D01*
X3958820Y1692050D01*
X3991180D01*
X4004830Y1678400D01*
X4084600D01*
X4123000Y1640000D01*
G01X3234000Y3454000D02*
Y3560000D01*
X3257000Y3583000D01*
G01X3322000Y3324000D02*
X3198000Y3448000D01*
Y3618300D01*
X3185300Y3631000D01*
X3132000D01*
G01X3241000Y3811000D02*
Y3784940D01*
X3285940Y3740000D01*
G01X3262000Y3950000D02*
X3307000Y3905000D01*
Y3774170D01*
X3324990Y3756180D01*
Y3723820D01*
X3307000Y3705830D01*
Y3440000D01*
X3371000Y3376000D01*
G01X3475000Y4618000D02*
X3389490D01*
X3239490Y4768000D01*
X3125000D01*
G01X3324000Y607000D02*
X3452000Y479000D01*
Y458700D01*
X3464700Y446000D01*
X3527090D01*
X3599040Y517950D01*
X3610900D01*
X3617950Y525000D01*
X3676910D01*
X3755910Y446000D01*
X4156010D01*
X4316010Y606000D01*
X4838300D01*
X4851000Y618700D01*
Y1854000D01*
X4824000Y1881000D01*
G01X3354500Y1140500D02*
X3399450Y1095550D01*
X3973320D01*
X3975820Y1098050D01*
X4008180D01*
X4010680Y1095550D01*
X4710550D01*
X4777000Y1162000D01*
G01X3307000Y2645000D02*
X3360000D01*
X3387000Y2672000D01*
Y2964000D01*
X3440000Y3017000D01*
G01X4816000Y2812000D02*
X4771090D01*
X4770040Y2813050D01*
X4745960D01*
X4744910Y2812000D01*
X4571000D01*
X4341000Y2582000D01*
Y2492000D01*
X4316000Y2467000D01*
X3676000D01*
X3464000Y2679000D01*
G01X3301000Y3138000D02*
X3303020Y3135980D01*
X3320980D01*
X3371000Y3186000D01*
Y3241000D01*
G01X3464000Y2279000D02*
X4286000D01*
X4369000Y2362000D01*
X4568770D01*
X4569820Y2363050D01*
X4602180D01*
X4603230Y2362000D01*
X4637000D01*
X4741000Y2466000D01*
Y2513000D01*
G01X4132000Y2333000D02*
Y2407000D01*
X4102000Y2437000D01*
X3533000D01*
X3497000Y2401000D01*
Y2346000D01*
G01X3507000Y2500000D02*
X3588000D01*
G01X3557000Y2703000D02*
X4063000D01*
X4133000Y2773000D01*
G01X3468000Y3334230D02*
Y3289000D01*
X4006000Y2751000D01*
G01X4089000Y2814000D02*
Y2934000D01*
X4107000Y2952000D01*
Y3059000D01*
X3972000Y3194000D01*
X3700000D01*
X3698050Y3195950D01*
X3689960D01*
X3672950Y3212960D01*
Y3221050D01*
X3547000Y3347000D01*
Y4194000D01*
X3755950Y4402950D01*
Y4617990D01*
X3825000Y4687040D01*
Y4768000D01*
G01X3802000Y4869000D02*
X3726000D01*
X3655950Y4798950D01*
Y4717990D01*
X3555960Y4618000D01*
X3475000D01*
G01X4245000Y2671000D02*
X4209000Y2707000D01*
Y3135000D01*
X3813000Y3531000D01*
X3678000D01*
G01X4293000Y3790000D02*
X3937000D01*
X3678000Y3531000D01*
G01X3854000Y4874000D02*
X3807000D01*
X3802000Y4869000D01*
G01X3825000Y4768000D02*
X3802000Y4791000D01*
Y4819000D01*
G01X4046000Y884000D02*
Y902250D01*
X4033300Y914950D01*
X4013820D01*
X4010770Y918000D01*
X3908000D01*
G01X4650000Y1505000D02*
X4634000Y1521000D01*
X4447000D01*
X4324000Y1398000D01*
X4015940D01*
X3980000Y1362060D01*
Y1323000D01*
G01X3999500Y1465500D02*
Y1628500D01*
X3975000Y1653000D01*
G01X4254000Y2526000D02*
X4214940D01*
X4212940Y2524000D01*
X4174000D01*
X4031000Y2667000D01*
X3940000D01*
G01X4611000Y4219640D02*
Y4180580D01*
X4615000Y4176580D01*
Y4153700D01*
X4602300Y4141000D01*
X4534050D01*
X4468000Y4074950D01*
Y3706000D01*
X4406000Y3644000D01*
X3908000D01*
G01X3854000Y4874000D02*
X3911300D01*
X3940000Y4845300D01*
Y4726210D01*
X4077210Y4589000D01*
X4115000D01*
G01X3825000Y4768000D02*
Y4785000D01*
X3854000Y4814000D01*
G01X4166000Y1160000D02*
X4126940D01*
X4119540Y1167400D01*
X4075600D01*
X4025000Y1218000D01*
Y1351000D01*
G01X3991000Y1196000D02*
X4066050Y1120950D01*
X4193950D01*
X4314000Y1241000D01*
X4759300D01*
X4772000Y1253700D01*
Y1287000D01*
G01X4153000Y1462000D02*
X4042060D01*
X4038560Y1465500D01*
X3999500D01*
G01X4048000Y2746000D02*
Y2896560D01*
X4053050Y2901610D01*
Y2928990D01*
X4048000Y2934040D01*
Y3051000D01*
G01X4129000Y3133000D02*
X4178000Y3084000D01*
Y2669000D01*
X4254000Y2593000D01*
Y2526000D01*
G01X4286540Y4301070D02*
X4325600D01*
X4325670Y4301000D01*
X4384000D01*
X4453000Y4232000D01*
Y4175550D01*
X4324450Y4047000D01*
X4053000D01*
G01X4162000Y4584000D02*
X4120000D01*
X4115000Y4589000D01*
G01X4214000Y4364000D02*
Y4289000D01*
X4185000Y4260000D01*
G01X4541000Y4188000D02*
X4488000Y4241000D01*
Y4772300D01*
X4500700Y4785000D01*
X4534000D01*
X4574950Y4825950D01*
X4576180D01*
X4599050Y4848820D01*
Y4850050D01*
X4618000Y4869000D01*
Y4929000D01*
G01X4725000Y994000D02*
Y875000D01*
X4674000Y824000D01*
G01X4668000Y1382000D02*
Y1336000D01*
G01X4749950Y2411950D02*
X4664000Y2326000D01*
X4644000D01*
G01X4597000Y3221000D02*
X4689000D01*
X4707000Y3239000D01*
G01X4588000Y4073000D02*
Y4013000D01*
G01X4623000Y4073000D02*
X4695000Y4001000D01*
Y3653000D01*
G01X4623000Y4073000D02*
X4726000D01*
X4756000Y4103000D01*
G01X4588000Y4073000D02*
X4623000D01*
G01X4611000Y4219640D02*
X4675360Y4284000D01*
X4688060D01*
X4801000Y4396940D01*
Y4446000D01*
G01X4576000Y4283000D02*
Y4336000D01*
X4591000Y4351000D01*
G01X4806000Y4826000D02*
X4721000D01*
X4618000Y4929000D01*
G01X4718000Y1382000D02*
X4746480Y1410480D01*
X4752480D01*
X4757000Y1415000D01*
G01X4919000Y3218000D02*
Y3261300D01*
X4906300Y3274000D01*
Y3300760D01*
X4891060Y3316000D01*
X4807000D01*
G01X4838000Y4206000D02*
Y4219000D01*
X4801000Y4256000D01*
G01X4929000Y3628000D02*
X4893000Y3592000D01*
X4856000D01*
G54D18*
X549000Y3022000D03*
X3324000Y607000D03*
G54D19*
X1014000Y4770000D03*
X2328000D03*
M02*
