G04 ================== begin FILE IDENTIFICATION RECORD ==================*
G04 Layout Name:  c:/candencecircuits/parcial2_2025/allegro/parcial2_ks.brd*
G04 Film Name:    SSTP*
G04 File Format:  Gerber RS274X*
G04 File Origin:  Cadence Allegro 24.1-S006*
G04 Origin Date:  Mon Nov 10 14:52:36 2025*
G04 *
G04 Layer:  REF DES/SILKSCREEN_TOP*
G04 Layer:  PACKAGE GEOMETRY/SILKSCREEN_TOP*
G04 Layer:  BOARD GEOMETRY/SILKSCREEN_TOP*
G04 *
G04 Offset:    (0.0000 0.0000)*
G04 Mirror:    No*
G04 Mode:      Positive*
G04 Rotation:  0*
G04 FullContactRelief:  No*
G04 UndefLineWidth:     0.1524*
G04 ================== end FILE IDENTIFICATION RECORD ====================*
%FSLAX25Y25*MOMM*%
%IR0*IPPOS*OFA0.00000B0.00000*MIA0B0*SFA1.00000B1.00000*%
%ADD10C,.1*%
%ADD11C,.2*%
%ADD12C,.25*%
%ADD13C,.127*%
%ADD14C,.1524*%
G75*
%LPD*%
G75*
G54D10*
G01X882000Y1826000D02*
Y1816000D01*
G01X994000Y1826000D02*
Y1816000D01*
G01X1277000Y2305000D02*
Y2295000D01*
G01X1389000Y2305000D02*
Y2295000D01*
G01X1602000Y3907000D02*
G03X1612000I5000J0D01*
G01D02*
G03X1602000I-5000J0D01*
G01X4589000Y1299000D02*
X4599000D01*
G01X4589000Y1411000D02*
X4599000D01*
G54D11*
G01X-164000Y1236000D02*
G03I-10000J0D01*
G01X58000Y1606000D02*
X-109000D01*
Y166000D01*
X58000D01*
G01X127000Y3152000D02*
Y2192000D01*
G01X414000Y1606000D02*
X581000D01*
Y166000D01*
X414000D01*
G01X503000Y2017000D02*
X699000D01*
G01Y3327000D02*
X503000D01*
G01X699000Y2017000D02*
Y3327000D01*
G01X769000Y3022000D02*
G03X759000I-5000J0D01*
G01D02*
G03X769000I5000J0D01*
G01D02*
G03X759000I-5000J0D01*
G01X953500Y4298000D02*
Y4520000D01*
G01X2388500Y4298000D02*
X953500D01*
G01Y5948000D02*
Y5045000D01*
G01X2388500Y5948000D02*
X953500D01*
G01X1169000Y279000D02*
Y112000D01*
X2609000D01*
Y279000D01*
G01X1169000Y635000D02*
Y802000D01*
X2609000D01*
Y635000D01*
G01X1549000Y47000D02*
G03I-10000J0D01*
G01X1501000Y2191000D02*
Y2401000D01*
G01X1551000Y2191000D02*
X1501000D01*
G01X1551000Y2401000D02*
Y2191000D01*
G01X1418500Y2411000D02*
X1466000D01*
G01X1501000Y2401000D02*
X1551000D01*
G01X2388500Y4520000D02*
Y4298000D01*
G01Y5020000D02*
Y5948000D01*
G01X4195000Y4590000D02*
Y4423000D01*
X2755000D01*
Y4590000D01*
G01X4195000Y4946000D02*
Y5113000D01*
X2755000D01*
Y4946000D01*
G01X3019000Y757000D02*
Y561000D01*
G01X4329000Y757000D02*
X3019000D01*
G01X3194000Y185000D02*
X4154000D01*
G01X3184500Y1653000D02*
X3332000D01*
G01X3324000Y827000D02*
G03Y817000I0J-5000D01*
G01D02*
G03Y827000I0J5000D01*
G01D02*
G03Y817000I0J-5000D01*
G01X3583800Y2306500D02*
Y1716500D01*
G01X3835000Y5178000D02*
G03I-10000J0D01*
G01X4089000Y1251000D02*
Y1381000D01*
G01X4385000Y1416000D02*
X4093000D01*
G01Y1426000D02*
X4385000D01*
G01X4093000Y1416000D02*
Y1426000D01*
G01X4016200Y1771500D02*
Y2306500D01*
G01X4329000Y561000D02*
Y757000D01*
G01X4280000Y1191000D02*
X4410000D01*
G01X4445000Y895000D02*
Y1187000D01*
G01X4455000Y895000D02*
X4445000D01*
G01X4455000Y1187000D02*
Y895000D01*
G01X4445000Y1187000D02*
X4455000D01*
G01X4385000Y1426000D02*
Y1416000D01*
G01X4507500Y3657000D02*
Y3387000D01*
G01X4502500Y4353500D02*
Y4716000D01*
G01X4662500Y3749500D02*
Y3387000D01*
G01X4657500Y4446000D02*
Y4716000D01*
G54D12*
G01X1089500Y1907000D02*
G02I-12500J0D01*
G01X3374000Y4011000D02*
G02I-12500J0D01*
G01X3575000Y3096000D02*
G02I-12500J0D01*
G01X4354000Y2924000D02*
G02I-12500J0D01*
G01X4367000Y2213000D02*
G02I-12500J0D01*
G54D13*
G01X591370Y1573580D02*
X601020Y1567230D01*
X612270Y1563000D01*
X625140D01*
X639620Y1569350D01*
X650870Y1579930D01*
X658920Y1592630D01*
X665350Y1613800D01*
X666960Y1632850D01*
X663740Y1651900D01*
X658920Y1664600D01*
X649270Y1677300D01*
X638010Y1685770D01*
X626750Y1690000D01*
X615490D01*
X604230Y1685770D01*
X594580Y1679420D01*
X586540Y1670950D01*
G01X527810Y1637090D02*
X516550Y1622270D01*
X506900Y1613800D01*
X494030Y1609570D01*
X482770Y1613800D01*
X474730Y1622270D01*
X468300Y1634970D01*
X466690Y1649780D01*
X468300Y1662490D01*
X474730Y1675190D01*
X484380Y1685770D01*
X495640Y1690000D01*
X508510Y1685770D01*
X519770Y1673070D01*
X526200Y1654020D01*
X527810Y1632850D01*
X524590Y1605340D01*
X519770Y1590510D01*
X511730Y1575700D01*
X500470Y1565120D01*
X489210Y1563000D01*
X477950Y1567230D01*
X469910Y1577820D01*
G01X367750Y1690000D02*
Y1563000D01*
X387050Y1588400D01*
G01Y1690000D02*
X348450D01*
G01X806420Y628370D02*
X812770Y638020D01*
X817000Y649270D01*
Y662140D01*
X810650Y676620D01*
X800070Y687870D01*
X787370Y695920D01*
X766200Y702350D01*
X747150Y703960D01*
X728100Y700740D01*
X715400Y695920D01*
X702700Y686270D01*
X694230Y675010D01*
X690000Y663750D01*
Y652490D01*
X694230Y641230D01*
X700580Y631580D01*
X709050Y623540D01*
G01Y569630D02*
X698460Y559990D01*
X692120Y548730D01*
X690000Y534250D01*
X694230Y519770D01*
X702700Y508520D01*
X717510Y500470D01*
X734450Y498870D01*
X751380Y502080D01*
X761970Y510130D01*
X770430Y521380D01*
X772550Y532640D01*
X770430Y543900D01*
X761970Y558370D01*
X817000Y553550D01*
Y510130D01*
G01X690000Y404750D02*
X692120Y393490D01*
X698460Y380630D01*
X709050Y372580D01*
X723870Y369370D01*
X738680Y372580D01*
X751380Y382230D01*
X757730Y396710D01*
Y412790D01*
X761970Y422440D01*
X772550Y430490D01*
X787370Y433700D01*
X802180Y428870D01*
X812770Y417620D01*
X817000Y404750D01*
X812770Y391880D01*
X802180Y380630D01*
X787370Y375800D01*
X772550Y379020D01*
X761970Y387060D01*
X757730Y396710D01*
Y412790D01*
X751380Y427270D01*
X738680Y436920D01*
X723870Y440130D01*
X709050Y436920D01*
X698460Y428870D01*
X692120Y416010D01*
X690000Y404750D01*
G01X643000Y728080D02*
X516000D01*
Y768290D01*
X522350Y781160D01*
X530820Y789200D01*
X547750Y792420D01*
X564680Y789200D01*
X575270Y779550D01*
X581620Y768290D01*
Y728080D01*
G01Y768290D02*
X643000Y792420D01*
G01X590090Y859190D02*
X575270Y870450D01*
X566800Y880100D01*
X562570Y892970D01*
X566800Y904230D01*
X575270Y912270D01*
X587970Y918700D01*
X602780Y920310D01*
X615490Y918700D01*
X628190Y912270D01*
X638770Y902620D01*
X643000Y891360D01*
X638770Y878490D01*
X626070Y867230D01*
X607020Y860800D01*
X585850Y859190D01*
X558340Y862410D01*
X543510Y867230D01*
X528700Y875270D01*
X518120Y886530D01*
X516000Y897790D01*
X520230Y909050D01*
X530820Y917090D01*
G01X537170Y988690D02*
X524470Y998340D01*
X518120Y1009600D01*
X516000Y1022470D01*
X520230Y1038550D01*
X530820Y1049810D01*
X543510Y1053030D01*
X556220Y1051420D01*
X566800Y1044980D01*
X587970Y1012820D01*
X602780Y998340D01*
X623950Y988690D01*
X643000Y985470D01*
Y1053030D01*
G01X686080Y1644000D02*
Y1771000D01*
X726290D01*
X739160Y1764650D01*
X747200Y1756180D01*
X750420Y1739250D01*
X747200Y1722320D01*
X737550Y1711730D01*
X726290Y1705380D01*
X686080D01*
G01X726290D02*
X750420Y1644000D01*
G01X817190Y1696910D02*
X828450Y1711730D01*
X838100Y1720200D01*
X850970Y1724430D01*
X862230Y1720200D01*
X870270Y1711730D01*
X876700Y1699030D01*
X878310Y1684220D01*
X876700Y1671510D01*
X870270Y1658810D01*
X860620Y1648230D01*
X849360Y1644000D01*
X836490Y1648230D01*
X825230Y1660930D01*
X818800Y1679980D01*
X817190Y1701150D01*
X820410Y1728660D01*
X825230Y1743490D01*
X833270Y1758300D01*
X844530Y1768880D01*
X855790Y1771000D01*
X867050Y1766770D01*
X875090Y1756180D01*
G01X941870Y1669400D02*
X951510Y1654580D01*
X964380Y1646120D01*
X978860Y1644000D01*
X991730Y1646120D01*
X1004590Y1656700D01*
X1012630Y1669400D01*
X1014240Y1682100D01*
X1011030Y1696910D01*
X999770Y1707500D01*
X988510Y1711730D01*
X974030D01*
G01X988510D02*
X998160Y1718080D01*
X1006200Y1728660D01*
X1009420Y1741370D01*
X1006200Y1754070D01*
X998160Y1764650D01*
X983680Y1771000D01*
X969210Y1768880D01*
X954730Y1760420D01*
G01X879000Y2928920D02*
X1006000D01*
Y2888710D01*
X999650Y2875840D01*
X991180Y2867800D01*
X974250Y2864580D01*
X957320Y2867800D01*
X946730Y2877450D01*
X940380Y2888710D01*
Y2928920D01*
G01Y2888710D02*
X879000Y2864580D01*
G01X931910Y2797810D02*
X946730Y2786550D01*
X955200Y2776900D01*
X959430Y2764030D01*
X955200Y2752770D01*
X946730Y2744730D01*
X934030Y2738300D01*
X919220Y2736690D01*
X906510Y2738300D01*
X893810Y2744730D01*
X883230Y2754380D01*
X879000Y2765640D01*
X883230Y2778510D01*
X895930Y2789770D01*
X914980Y2796200D01*
X936150Y2797810D01*
X963660Y2794590D01*
X978490Y2789770D01*
X993300Y2781730D01*
X1003880Y2770470D01*
X1006000Y2759210D01*
X1001770Y2747950D01*
X991180Y2739910D01*
G01X893810Y2665090D02*
X883230Y2653830D01*
X879000Y2640970D01*
X883230Y2628100D01*
X895930Y2616840D01*
X914980Y2608800D01*
X934030Y2605580D01*
X957320D01*
X976370Y2608800D01*
X993300Y2616840D01*
X1001770Y2626490D01*
X1006000Y2637750D01*
X1001770Y2650620D01*
X993300Y2660270D01*
X980600Y2666700D01*
X963660Y2669920D01*
X948850Y2666700D01*
X934030Y2658660D01*
X925560Y2649010D01*
X923450Y2637750D01*
X927680Y2624880D01*
X938270Y2615230D01*
X957320Y2605580D01*
G01X1005420Y3031370D02*
X1011770Y3041020D01*
X1016000Y3052270D01*
Y3065140D01*
X1009650Y3079620D01*
X999070Y3090870D01*
X986370Y3098920D01*
X965200Y3105350D01*
X946150Y3106960D01*
X927100Y3103740D01*
X914400Y3098920D01*
X901700Y3089270D01*
X893230Y3078010D01*
X889000Y3066750D01*
Y3055490D01*
X893230Y3044230D01*
X899580Y3034580D01*
X908050Y3026540D01*
G01X889000Y2940470D02*
X916510Y2937250D01*
X939800Y2932420D01*
X960970Y2925990D01*
X984250Y2917950D01*
X1016000Y2905080D01*
Y2969420D01*
G01Y2807750D02*
X1011770Y2820620D01*
X1001180Y2830270D01*
X988490Y2836700D01*
X971550Y2841530D01*
X952500Y2843130D01*
X933450Y2841530D01*
X916510Y2836700D01*
X903810Y2830270D01*
X893230Y2820620D01*
X889000Y2807750D01*
X893230Y2794880D01*
X903810Y2785230D01*
X916510Y2778800D01*
X933450Y2773970D01*
X952500Y2772370D01*
X971550Y2773970D01*
X988490Y2778800D01*
X1001180Y2785230D01*
X1011770Y2794880D01*
X1016000Y2807750D01*
G01X714580Y3027630D02*
X708230Y3017980D01*
X704000Y3006730D01*
Y2993860D01*
X710350Y2979380D01*
X720930Y2968130D01*
X733630Y2960080D01*
X754800Y2953650D01*
X773850Y2952040D01*
X792900Y2955260D01*
X805600Y2960080D01*
X818300Y2969730D01*
X826770Y2980990D01*
X831000Y2992250D01*
Y3003510D01*
X826770Y3014770D01*
X820420Y3024420D01*
X811950Y3032460D01*
G01X831000Y3118530D02*
X803490Y3121750D01*
X780200Y3126580D01*
X759030Y3133010D01*
X735750Y3141050D01*
X704000Y3153920D01*
Y3089580D01*
G01X831000Y3251250D02*
X704000D01*
X729400Y3231950D01*
G01X831000D02*
Y3270550D01*
G01X839000Y3132080D02*
X712000D01*
Y3172290D01*
X718350Y3185160D01*
X726820Y3193200D01*
X743750Y3196420D01*
X760680Y3193200D01*
X771270Y3183550D01*
X777620Y3172290D01*
Y3132080D01*
G01Y3172290D02*
X839000Y3196420D01*
G01X786090Y3263190D02*
X771270Y3274450D01*
X762800Y3284100D01*
X758570Y3296970D01*
X762800Y3308230D01*
X771270Y3316270D01*
X783970Y3322700D01*
X798780Y3324310D01*
X811490Y3322700D01*
X824190Y3316270D01*
X834770Y3306620D01*
X839000Y3295360D01*
X834770Y3282490D01*
X822070Y3271230D01*
X803020Y3264800D01*
X781850Y3263190D01*
X754340Y3266410D01*
X739510Y3271230D01*
X724700Y3279270D01*
X714120Y3290530D01*
X712000Y3301790D01*
X716230Y3313050D01*
X726820Y3321090D01*
G01X839000Y3423250D02*
X836880Y3434510D01*
X830540Y3447370D01*
X819950Y3455420D01*
X805130Y3458630D01*
X790320Y3455420D01*
X777620Y3445770D01*
X771270Y3431290D01*
Y3415210D01*
X767030Y3405560D01*
X756450Y3397510D01*
X741630Y3394300D01*
X726820Y3399130D01*
X716230Y3410380D01*
X712000Y3423250D01*
X716230Y3436120D01*
X726820Y3447370D01*
X741630Y3452200D01*
X756450Y3448980D01*
X767030Y3440940D01*
X771270Y3431290D01*
Y3415210D01*
X777620Y3400730D01*
X790320Y3391080D01*
X805130Y3387870D01*
X819950Y3391080D01*
X830540Y3399130D01*
X836880Y3411990D01*
X839000Y3423250D01*
G01X1151420Y196370D02*
X1157770Y206020D01*
X1162000Y217270D01*
Y230140D01*
X1155650Y244620D01*
X1145070Y255870D01*
X1132370Y263920D01*
X1111200Y270350D01*
X1092150Y271960D01*
X1073100Y268740D01*
X1060400Y263920D01*
X1047700Y254270D01*
X1039230Y243010D01*
X1035000Y231750D01*
Y220490D01*
X1039230Y209230D01*
X1045580Y199580D01*
X1054050Y191540D01*
G01X1087910Y132810D02*
X1102730Y121550D01*
X1111200Y111900D01*
X1115430Y99030D01*
X1111200Y87770D01*
X1102730Y79730D01*
X1090030Y73300D01*
X1075220Y71690D01*
X1062510Y73300D01*
X1049810Y79730D01*
X1039230Y89380D01*
X1035000Y100640D01*
X1039230Y113510D01*
X1051930Y124770D01*
X1070980Y131200D01*
X1092150Y132810D01*
X1119660Y129590D01*
X1134490Y124770D01*
X1149300Y116730D01*
X1159880Y105470D01*
X1162000Y94210D01*
X1157770Y82950D01*
X1147180Y74910D01*
G01X1054050Y8130D02*
X1043460Y-1510D01*
X1037120Y-12770D01*
X1035000Y-27250D01*
X1039230Y-41730D01*
X1047700Y-52980D01*
X1062510Y-61030D01*
X1079450Y-62630D01*
X1096380Y-59420D01*
X1106970Y-51370D01*
X1115430Y-40120D01*
X1117550Y-28860D01*
X1115430Y-17600D01*
X1106970Y-3130D01*
X1162000Y-7950D01*
Y-51370D01*
G01X988000Y293080D02*
X861000D01*
Y333290D01*
X867350Y346160D01*
X875820Y354200D01*
X892750Y357420D01*
X909680Y354200D01*
X920270Y344550D01*
X926620Y333290D01*
Y293080D01*
G01Y333290D02*
X988000Y357420D01*
G01X935090Y424190D02*
X920270Y435450D01*
X911800Y445100D01*
X907570Y457970D01*
X911800Y469230D01*
X920270Y477270D01*
X932970Y483700D01*
X947780Y485310D01*
X960490Y483700D01*
X973190Y477270D01*
X983770Y467620D01*
X988000Y456360D01*
X983770Y443490D01*
X971070Y432230D01*
X952020Y425800D01*
X930850Y424190D01*
X903340Y427410D01*
X888510Y432230D01*
X873700Y440270D01*
X863120Y451530D01*
X861000Y462790D01*
X865230Y474050D01*
X875820Y482090D01*
G01X968950Y548870D02*
X979540Y558510D01*
X985880Y569770D01*
X988000Y584250D01*
X983770Y598730D01*
X975300Y609980D01*
X960490Y618030D01*
X943550Y619630D01*
X926620Y616420D01*
X916030Y608370D01*
X907570Y597120D01*
X905450Y585860D01*
X907570Y574600D01*
X916030Y560130D01*
X861000Y564950D01*
Y608370D01*
G01X1018000Y1587920D02*
X1145000D01*
Y1547710D01*
X1138650Y1534840D01*
X1130180Y1526800D01*
X1113250Y1523580D01*
X1096320Y1526800D01*
X1085730Y1536450D01*
X1079380Y1547710D01*
Y1587920D01*
G01Y1547710D02*
X1018000Y1523580D01*
G01Y1406950D02*
X1145000D01*
X1053980Y1466460D01*
Y1386040D01*
G01X1018000Y1296750D02*
X1020120Y1285490D01*
X1026460Y1272630D01*
X1037050Y1264580D01*
X1051870Y1261370D01*
X1066680Y1264580D01*
X1079380Y1274230D01*
X1085730Y1288710D01*
Y1304790D01*
X1089970Y1314440D01*
X1100550Y1322490D01*
X1115370Y1325700D01*
X1130180Y1320870D01*
X1140770Y1309620D01*
X1145000Y1296750D01*
X1140770Y1283880D01*
X1130180Y1272630D01*
X1115370Y1267800D01*
X1100550Y1271020D01*
X1089970Y1279060D01*
X1085730Y1288710D01*
Y1304790D01*
X1079380Y1319270D01*
X1066680Y1328920D01*
X1051870Y1332130D01*
X1037050Y1328920D01*
X1026460Y1320870D01*
X1020120Y1308010D01*
X1018000Y1296750D01*
G01X1017000Y1488920D02*
X1144000D01*
Y1448710D01*
X1137650Y1435840D01*
X1129180Y1427800D01*
X1112250Y1424580D01*
X1095320Y1427800D01*
X1084730Y1437450D01*
X1078380Y1448710D01*
Y1488920D01*
G01Y1448710D02*
X1017000Y1424580D01*
G01Y1307950D02*
X1144000D01*
X1052980Y1367460D01*
Y1287040D01*
G01X1031810Y1225090D02*
X1021230Y1213830D01*
X1017000Y1200970D01*
X1021230Y1188100D01*
X1033930Y1176840D01*
X1052980Y1168800D01*
X1072030Y1165580D01*
X1095320D01*
X1114370Y1168800D01*
X1131300Y1176840D01*
X1139770Y1186490D01*
X1144000Y1197750D01*
X1139770Y1210620D01*
X1131300Y1220270D01*
X1118600Y1226700D01*
X1101660Y1229920D01*
X1086850Y1226700D01*
X1072030Y1218660D01*
X1063560Y1209010D01*
X1061450Y1197750D01*
X1065680Y1184880D01*
X1076270Y1175230D01*
X1095320Y1165580D01*
G01X1082420Y1562370D02*
X1088770Y1572020D01*
X1093000Y1583270D01*
Y1596140D01*
X1086650Y1610620D01*
X1076070Y1621870D01*
X1063370Y1629920D01*
X1042200Y1636350D01*
X1023150Y1637960D01*
X1004100Y1634740D01*
X991400Y1629920D01*
X978700Y1620270D01*
X970230Y1609010D01*
X966000Y1597750D01*
Y1586490D01*
X970230Y1575230D01*
X976580Y1565580D01*
X985050Y1557540D01*
G01X966000Y1448950D02*
X1093000D01*
X1001980Y1508460D01*
Y1428040D01*
G01X991400Y1374130D02*
X976580Y1364490D01*
X968120Y1351620D01*
X966000Y1337140D01*
X968120Y1324270D01*
X978700Y1311410D01*
X991400Y1303370D01*
X1004100Y1301760D01*
X1018910Y1304970D01*
X1029500Y1316230D01*
X1033730Y1327490D01*
Y1341970D01*
G01Y1327490D02*
X1040080Y1317840D01*
X1050660Y1309800D01*
X1063370Y1306580D01*
X1076070Y1309800D01*
X1086650Y1317840D01*
X1093000Y1332320D01*
X1090880Y1346790D01*
X1082420Y1361270D01*
G01X1035420Y1562370D02*
X1041770Y1572020D01*
X1046000Y1583270D01*
Y1596140D01*
X1039650Y1610620D01*
X1029070Y1621870D01*
X1016370Y1629920D01*
X995200Y1636350D01*
X976150Y1637960D01*
X957100Y1634740D01*
X944400Y1629920D01*
X931700Y1620270D01*
X923230Y1609010D01*
X919000Y1597750D01*
Y1586490D01*
X923230Y1575230D01*
X929580Y1565580D01*
X938050Y1557540D01*
G01X919000Y1448950D02*
X1046000D01*
X954980Y1508460D01*
Y1428040D01*
G01X919000Y1319450D02*
X1046000D01*
X954980Y1378960D01*
Y1298540D01*
G01X1386580Y1891630D02*
X1380230Y1881980D01*
X1376000Y1870730D01*
Y1857860D01*
X1382350Y1843380D01*
X1392930Y1832130D01*
X1405630Y1824080D01*
X1426800Y1817650D01*
X1445850Y1816040D01*
X1464900Y1819260D01*
X1477600Y1824080D01*
X1490300Y1833730D01*
X1498770Y1844990D01*
X1503000Y1856250D01*
Y1867510D01*
X1498770Y1878770D01*
X1492420Y1888420D01*
X1483950Y1896460D01*
G01X1477600Y1950370D02*
X1492420Y1960010D01*
X1500880Y1972880D01*
X1503000Y1987360D01*
X1500880Y2000230D01*
X1490300Y2013090D01*
X1477600Y2021130D01*
X1464900Y2022740D01*
X1450090Y2019530D01*
X1439500Y2008270D01*
X1435270Y1997010D01*
Y1982530D01*
G01Y1997010D02*
X1428920Y2006660D01*
X1418340Y2014700D01*
X1405630Y2017920D01*
X1392930Y2014700D01*
X1382350Y2006660D01*
X1376000Y1992180D01*
X1378120Y1977710D01*
X1386580Y1963230D01*
G01X1503000Y2115250D02*
X1500880Y2126510D01*
X1494540Y2139370D01*
X1483950Y2147420D01*
X1469130Y2150630D01*
X1454320Y2147420D01*
X1441620Y2137770D01*
X1435270Y2123290D01*
Y2107210D01*
X1431030Y2097560D01*
X1420450Y2089510D01*
X1405630Y2086300D01*
X1390820Y2091130D01*
X1380230Y2102380D01*
X1376000Y2115250D01*
X1380230Y2128120D01*
X1390820Y2139370D01*
X1405630Y2144200D01*
X1420450Y2140980D01*
X1431030Y2132940D01*
X1435270Y2123290D01*
Y2107210D01*
X1441620Y2092730D01*
X1454320Y2083080D01*
X1469130Y2079870D01*
X1483950Y2083080D01*
X1494540Y2091130D01*
X1500880Y2103990D01*
X1503000Y2115250D01*
G01X1619420Y1508370D02*
X1625770Y1518020D01*
X1630000Y1529270D01*
Y1542140D01*
X1623650Y1556620D01*
X1613070Y1567870D01*
X1600370Y1575920D01*
X1579200Y1582350D01*
X1560150Y1583960D01*
X1541100Y1580740D01*
X1528400Y1575920D01*
X1515700Y1566270D01*
X1507230Y1555010D01*
X1503000Y1543750D01*
Y1532490D01*
X1507230Y1521230D01*
X1513580Y1511580D01*
X1522050Y1503540D01*
G01X1503000Y1394950D02*
X1630000D01*
X1538980Y1454460D01*
Y1374040D01*
G01X1608830Y1315310D02*
X1621530Y1305660D01*
X1627880Y1294400D01*
X1630000Y1281530D01*
X1625770Y1265450D01*
X1615180Y1254190D01*
X1602490Y1250970D01*
X1589780Y1252580D01*
X1579200Y1259020D01*
X1558030Y1291180D01*
X1543220Y1305660D01*
X1522050Y1315310D01*
X1503000Y1318530D01*
Y1250970D01*
G01X1440580Y1890630D02*
X1434230Y1880980D01*
X1430000Y1869730D01*
Y1856860D01*
X1436350Y1842380D01*
X1446930Y1831130D01*
X1459630Y1823080D01*
X1480800Y1816650D01*
X1499850Y1815040D01*
X1518900Y1818260D01*
X1531600Y1823080D01*
X1544300Y1832730D01*
X1552770Y1843990D01*
X1557000Y1855250D01*
Y1866510D01*
X1552770Y1877770D01*
X1546420Y1887420D01*
X1537950Y1895460D01*
G01X1531600Y1949370D02*
X1546420Y1959010D01*
X1554880Y1971880D01*
X1557000Y1986360D01*
X1554880Y1999230D01*
X1544300Y2012090D01*
X1531600Y2020130D01*
X1518900Y2021740D01*
X1504090Y2018530D01*
X1493500Y2007270D01*
X1489270Y1996010D01*
Y1981530D01*
G01Y1996010D02*
X1482920Y2005660D01*
X1472340Y2013700D01*
X1459630Y2016920D01*
X1446930Y2013700D01*
X1436350Y2005660D01*
X1430000Y1991180D01*
X1432120Y1976710D01*
X1440580Y1962230D01*
G01X1542190Y2086910D02*
X1552770Y2098170D01*
X1557000Y2111030D01*
X1552770Y2123900D01*
X1540070Y2135160D01*
X1521020Y2143200D01*
X1501970Y2146420D01*
X1478680D01*
X1459630Y2143200D01*
X1442700Y2135160D01*
X1434230Y2125510D01*
X1430000Y2114250D01*
X1434230Y2101380D01*
X1442700Y2091730D01*
X1455400Y2085300D01*
X1472340Y2082080D01*
X1487150Y2085300D01*
X1501970Y2093340D01*
X1510440Y2102990D01*
X1512550Y2114250D01*
X1508320Y2127120D01*
X1497730Y2136770D01*
X1478680Y2146420D01*
G01X1487580Y1890630D02*
X1481230Y1880980D01*
X1477000Y1869730D01*
Y1856860D01*
X1483350Y1842380D01*
X1493930Y1831130D01*
X1506630Y1823080D01*
X1527800Y1816650D01*
X1546850Y1815040D01*
X1565900Y1818260D01*
X1578600Y1823080D01*
X1591300Y1832730D01*
X1599770Y1843990D01*
X1604000Y1855250D01*
Y1866510D01*
X1599770Y1877770D01*
X1593420Y1887420D01*
X1584950Y1895460D01*
G01X1604000Y2004050D02*
X1477000D01*
X1568020Y1944540D01*
Y2024960D01*
G01X1477000Y2114250D02*
X1481230Y2101380D01*
X1491820Y2091730D01*
X1504510Y2085300D01*
X1521450Y2080470D01*
X1540500Y2078870D01*
X1559550Y2080470D01*
X1576490Y2085300D01*
X1589190Y2091730D01*
X1599770Y2101380D01*
X1604000Y2114250D01*
X1599770Y2127120D01*
X1589190Y2136770D01*
X1576490Y2143200D01*
X1559550Y2148030D01*
X1540500Y2149630D01*
X1521450Y2148030D01*
X1504510Y2143200D01*
X1491820Y2136770D01*
X1481230Y2127120D01*
X1477000Y2114250D01*
G01X1534580Y1889630D02*
X1528230Y1879980D01*
X1524000Y1868730D01*
Y1855860D01*
X1530350Y1841380D01*
X1540930Y1830130D01*
X1553630Y1822080D01*
X1574800Y1815650D01*
X1593850Y1814040D01*
X1612900Y1817260D01*
X1625600Y1822080D01*
X1638300Y1831730D01*
X1646770Y1842990D01*
X1651000Y1854250D01*
Y1865510D01*
X1646770Y1876770D01*
X1640420Y1886420D01*
X1631950Y1894460D01*
G01X1651000Y2003050D02*
X1524000D01*
X1615020Y1943540D01*
Y2023960D01*
G01X1651000Y2113250D02*
X1524000D01*
X1549400Y2093950D01*
G01X1651000D02*
Y2132550D01*
G01X1556630Y2264420D02*
X1546980Y2270770D01*
X1535730Y2275000D01*
X1522860D01*
X1508380Y2268650D01*
X1497130Y2258070D01*
X1489080Y2245370D01*
X1482650Y2224200D01*
X1481040Y2205150D01*
X1484260Y2186100D01*
X1489080Y2173400D01*
X1498730Y2160700D01*
X1509990Y2152230D01*
X1521250Y2148000D01*
X1532510D01*
X1543770Y2152230D01*
X1553420Y2158580D01*
X1561460Y2167050D01*
G01X1615370Y2173400D02*
X1625010Y2158580D01*
X1637880Y2150120D01*
X1652360Y2148000D01*
X1665230Y2150120D01*
X1678090Y2160700D01*
X1686130Y2173400D01*
X1687740Y2186100D01*
X1684530Y2200910D01*
X1673270Y2211500D01*
X1662010Y2215730D01*
X1647530D01*
G01X1662010D02*
X1671660Y2222080D01*
X1679700Y2232660D01*
X1682920Y2245370D01*
X1679700Y2258070D01*
X1671660Y2268650D01*
X1657180Y2275000D01*
X1642710Y2272880D01*
X1628230Y2264420D01*
G01X1744870Y2167050D02*
X1754510Y2156460D01*
X1765770Y2150120D01*
X1780250Y2148000D01*
X1794730Y2152230D01*
X1805980Y2160700D01*
X1814030Y2175510D01*
X1815630Y2192450D01*
X1812420Y2209380D01*
X1804370Y2219970D01*
X1793120Y2228430D01*
X1781860Y2230550D01*
X1770600Y2228430D01*
X1756130Y2219970D01*
X1760950Y2275000D01*
X1804370D01*
G01X1821370Y2572580D02*
X1831020Y2566230D01*
X1842270Y2562000D01*
X1855140D01*
X1869620Y2568350D01*
X1880870Y2578930D01*
X1888920Y2591630D01*
X1895350Y2612800D01*
X1896960Y2631850D01*
X1893740Y2650900D01*
X1888920Y2663600D01*
X1879270Y2676300D01*
X1868010Y2684770D01*
X1856750Y2689000D01*
X1845490D01*
X1834230Y2684770D01*
X1824580Y2678420D01*
X1816540Y2669950D01*
G01X1727250Y2689000D02*
Y2562000D01*
X1746550Y2587400D01*
G01Y2689000D02*
X1707950D01*
G01X1597750Y2562000D02*
X1610620Y2566230D01*
X1620270Y2576820D01*
X1626700Y2589510D01*
X1631530Y2606450D01*
X1633130Y2625500D01*
X1631530Y2644550D01*
X1626700Y2661490D01*
X1620270Y2674190D01*
X1610620Y2684770D01*
X1597750Y2689000D01*
X1584880Y2684770D01*
X1575230Y2674190D01*
X1568800Y2661490D01*
X1563970Y2644550D01*
X1562370Y2625500D01*
X1563970Y2606450D01*
X1568800Y2589510D01*
X1575230Y2576820D01*
X1584880Y2566230D01*
X1597750Y2562000D01*
G01X1814370Y2659580D02*
X1824020Y2653230D01*
X1835270Y2649000D01*
X1848140D01*
X1862620Y2655350D01*
X1873870Y2665930D01*
X1881920Y2678630D01*
X1888350Y2699800D01*
X1889960Y2718850D01*
X1886740Y2737900D01*
X1881920Y2750600D01*
X1872270Y2763300D01*
X1861010Y2771770D01*
X1849750Y2776000D01*
X1838490D01*
X1827230Y2771770D01*
X1817580Y2765420D01*
X1809540Y2756950D01*
G01X1755630D02*
X1745990Y2767540D01*
X1734730Y2773880D01*
X1720250Y2776000D01*
X1705770Y2771770D01*
X1694520Y2763300D01*
X1686470Y2748490D01*
X1684870Y2731550D01*
X1688080Y2714620D01*
X1696130Y2704030D01*
X1707380Y2695570D01*
X1718640Y2693450D01*
X1729900Y2695570D01*
X1744370Y2704030D01*
X1739550Y2649000D01*
X1696130D01*
G01X1590750Y2776000D02*
Y2649000D01*
X1610050Y2674400D01*
G01Y2776000D02*
X1571450D01*
G01X1822370Y2978580D02*
X1832020Y2972230D01*
X1843270Y2968000D01*
X1856140D01*
X1870620Y2974350D01*
X1881870Y2984930D01*
X1889920Y2997630D01*
X1896350Y3018800D01*
X1897960Y3037850D01*
X1894740Y3056900D01*
X1889920Y3069600D01*
X1880270Y3082300D01*
X1869010Y3090770D01*
X1857750Y3095000D01*
X1846490D01*
X1835230Y3090770D01*
X1825580Y3084420D01*
X1817540Y3075950D01*
G01X1708950Y3095000D02*
Y2968000D01*
X1768460Y3059020D01*
X1688040D01*
G01X1626090Y3080190D02*
X1614830Y3090770D01*
X1601970Y3095000D01*
X1589100Y3090770D01*
X1577840Y3078070D01*
X1569800Y3059020D01*
X1566580Y3039970D01*
Y3016680D01*
X1569800Y2997630D01*
X1577840Y2980700D01*
X1587490Y2972230D01*
X1598750Y2968000D01*
X1611620Y2972230D01*
X1621270Y2980700D01*
X1627700Y2993400D01*
X1630920Y3010340D01*
X1627700Y3025150D01*
X1619660Y3039970D01*
X1610010Y3048440D01*
X1598750Y3050550D01*
X1585880Y3046320D01*
X1576230Y3035730D01*
X1566580Y3016680D01*
G01X1675000Y2285920D02*
X1802000D01*
Y2245710D01*
X1795650Y2232840D01*
X1787180Y2224800D01*
X1770250Y2221580D01*
X1753320Y2224800D01*
X1742730Y2234450D01*
X1736380Y2245710D01*
Y2285920D01*
G01Y2245710D02*
X1675000Y2221580D01*
G01Y2104950D02*
X1802000D01*
X1710980Y2164460D01*
Y2084040D01*
G01X1694050Y2030130D02*
X1683460Y2020490D01*
X1677120Y2009230D01*
X1675000Y1994750D01*
X1679230Y1980270D01*
X1687700Y1969020D01*
X1702510Y1960970D01*
X1719450Y1959370D01*
X1736380Y1962580D01*
X1746970Y1970630D01*
X1755430Y1981880D01*
X1757550Y1993140D01*
X1755430Y2004400D01*
X1746970Y2018870D01*
X1802000Y2014050D01*
Y1970630D01*
G01X1675000Y2380920D02*
X1802000D01*
Y2340710D01*
X1795650Y2327840D01*
X1787180Y2319800D01*
X1770250Y2316580D01*
X1753320Y2319800D01*
X1742730Y2329450D01*
X1736380Y2340710D01*
Y2380920D01*
G01Y2340710D02*
X1675000Y2316580D01*
G01Y2199950D02*
X1802000D01*
X1710980Y2259460D01*
Y2179040D01*
G01X1675000Y2070450D02*
X1802000D01*
X1710980Y2129960D01*
Y2049540D01*
G01X1826370Y2285580D02*
X1836020Y2279230D01*
X1847270Y2275000D01*
X1860140D01*
X1874620Y2281350D01*
X1885870Y2291930D01*
X1893920Y2304630D01*
X1900350Y2325800D01*
X1901960Y2344850D01*
X1898740Y2363900D01*
X1893920Y2376600D01*
X1884270Y2389300D01*
X1873010Y2397770D01*
X1861750Y2402000D01*
X1850490D01*
X1839230Y2397770D01*
X1829580Y2391420D01*
X1821540Y2382950D01*
G01X1732250Y2402000D02*
Y2275000D01*
X1751550Y2300400D01*
G01Y2402000D02*
X1712950D01*
G01X1602750D02*
Y2275000D01*
X1622050Y2300400D01*
G01Y2402000D02*
X1583450D01*
G01X1788630Y2585420D02*
X1778980Y2591770D01*
X1767730Y2596000D01*
X1754860D01*
X1740380Y2589650D01*
X1729130Y2579070D01*
X1721080Y2566370D01*
X1714650Y2545200D01*
X1713040Y2526150D01*
X1716260Y2507100D01*
X1721080Y2494400D01*
X1730730Y2481700D01*
X1741990Y2473230D01*
X1753250Y2469000D01*
X1764510D01*
X1775770Y2473230D01*
X1785420Y2479580D01*
X1793460Y2488050D01*
G01X1847370Y2494400D02*
X1857010Y2479580D01*
X1869880Y2471120D01*
X1884360Y2469000D01*
X1897230Y2471120D01*
X1910090Y2481700D01*
X1918130Y2494400D01*
X1919740Y2507100D01*
X1916530Y2521910D01*
X1905270Y2532500D01*
X1894010Y2536730D01*
X1879530D01*
G01X1894010D02*
X1903660Y2543080D01*
X1911700Y2553660D01*
X1914920Y2566370D01*
X1911700Y2579070D01*
X1903660Y2589650D01*
X1889180Y2596000D01*
X1874710Y2593880D01*
X1860230Y2585420D01*
G01X1981690Y2521910D02*
X1992950Y2536730D01*
X2002600Y2545200D01*
X2015470Y2549430D01*
X2026730Y2545200D01*
X2034770Y2536730D01*
X2041200Y2524030D01*
X2042810Y2509220D01*
X2041200Y2496510D01*
X2034770Y2483810D01*
X2025120Y2473230D01*
X2013860Y2469000D01*
X2000990Y2473230D01*
X1989730Y2485930D01*
X1983300Y2504980D01*
X1981690Y2526150D01*
X1984910Y2553660D01*
X1989730Y2568490D01*
X1997770Y2583300D01*
X2009030Y2593880D01*
X2020290Y2596000D01*
X2031550Y2591770D01*
X2039590Y2581180D01*
G01X1896920Y2488000D02*
Y2361000D01*
X1856710D01*
X1843840Y2367350D01*
X1835800Y2375820D01*
X1832580Y2392750D01*
X1835800Y2409680D01*
X1845450Y2420270D01*
X1856710Y2426620D01*
X1896920D01*
G01X1856710D02*
X1832580Y2488000D01*
G01X1715950D02*
Y2361000D01*
X1775460Y2452020D01*
X1695040D01*
G01X1897920Y2531000D02*
Y2404000D01*
X1857710D01*
X1844840Y2410350D01*
X1836800Y2418820D01*
X1833580Y2435750D01*
X1836800Y2452680D01*
X1846450Y2463270D01*
X1857710Y2469620D01*
X1897920D01*
G01X1857710D02*
X1833580Y2531000D01*
G01X1771630Y2511950D02*
X1761990Y2522540D01*
X1750730Y2528880D01*
X1736250Y2531000D01*
X1721770Y2526770D01*
X1710520Y2518300D01*
X1702470Y2503490D01*
X1700870Y2486550D01*
X1704080Y2469620D01*
X1712130Y2459030D01*
X1723380Y2450570D01*
X1734640Y2448450D01*
X1745900Y2450570D01*
X1760370Y2459030D01*
X1755550Y2404000D01*
X1712130D01*
G01X1897920Y2574000D02*
Y2447000D01*
X1857710D01*
X1844840Y2453350D01*
X1836800Y2461820D01*
X1833580Y2478750D01*
X1836800Y2495680D01*
X1846450Y2506270D01*
X1857710Y2512620D01*
X1897920D01*
G01X1857710D02*
X1833580Y2574000D01*
G01X1736250D02*
Y2447000D01*
X1755550Y2472400D01*
G01Y2574000D02*
X1716950D01*
G01X1642130Y2548600D02*
X1632490Y2563420D01*
X1619620Y2571880D01*
X1605140Y2574000D01*
X1592270Y2571880D01*
X1579410Y2561300D01*
X1571370Y2548600D01*
X1569760Y2535900D01*
X1572970Y2521090D01*
X1584230Y2510500D01*
X1595490Y2506270D01*
X1609970D01*
G01X1595490D02*
X1585840Y2499920D01*
X1577800Y2489340D01*
X1574580Y2476630D01*
X1577800Y2463930D01*
X1585840Y2453350D01*
X1600320Y2447000D01*
X1614790Y2449120D01*
X1629270Y2457580D01*
G01X1818370Y2933580D02*
X1828020Y2927230D01*
X1839270Y2923000D01*
X1852140D01*
X1866620Y2929350D01*
X1877870Y2939930D01*
X1885920Y2952630D01*
X1892350Y2973800D01*
X1893960Y2992850D01*
X1890740Y3011900D01*
X1885920Y3024600D01*
X1876270Y3037300D01*
X1865010Y3045770D01*
X1853750Y3050000D01*
X1842490D01*
X1831230Y3045770D01*
X1821580Y3039420D01*
X1813540Y3030950D01*
G01X1751590Y3035190D02*
X1740330Y3045770D01*
X1727470Y3050000D01*
X1714600Y3045770D01*
X1703340Y3033070D01*
X1695300Y3014020D01*
X1692080Y2994970D01*
Y2971680D01*
X1695300Y2952630D01*
X1703340Y2935700D01*
X1712990Y2927230D01*
X1724250Y2923000D01*
X1737120Y2927230D01*
X1746770Y2935700D01*
X1753200Y2948400D01*
X1756420Y2965340D01*
X1753200Y2980150D01*
X1745160Y2994970D01*
X1735510Y3003440D01*
X1724250Y3005550D01*
X1711380Y3001320D01*
X1701730Y2990730D01*
X1692080Y2971680D01*
G01X1774000Y3448080D02*
X1647000D01*
Y3488290D01*
X1653350Y3501160D01*
X1661820Y3509200D01*
X1678750Y3512420D01*
X1695680Y3509200D01*
X1706270Y3499550D01*
X1712620Y3488290D01*
Y3448080D01*
G01Y3488290D02*
X1774000Y3512420D01*
G01X1668170Y3579190D02*
X1655470Y3588840D01*
X1649120Y3600100D01*
X1647000Y3612970D01*
X1651230Y3629050D01*
X1661820Y3640310D01*
X1674510Y3643530D01*
X1687220Y3641920D01*
X1697800Y3635480D01*
X1718970Y3603320D01*
X1733780Y3588840D01*
X1754950Y3579190D01*
X1774000Y3575970D01*
Y3643530D01*
G01X1647000Y3739250D02*
X1651230Y3726380D01*
X1661820Y3716730D01*
X1674510Y3710300D01*
X1691450Y3705470D01*
X1710500Y3703870D01*
X1729550Y3705470D01*
X1746490Y3710300D01*
X1759190Y3716730D01*
X1769770Y3726380D01*
X1774000Y3739250D01*
X1769770Y3752120D01*
X1759190Y3761770D01*
X1746490Y3768200D01*
X1729550Y3773030D01*
X1710500Y3774630D01*
X1691450Y3773030D01*
X1674510Y3768200D01*
X1661820Y3761770D01*
X1651230Y3752120D01*
X1647000Y3739250D01*
G01X1804630Y4156420D02*
X1794980Y4162770D01*
X1783730Y4167000D01*
X1770860D01*
X1756380Y4160650D01*
X1745130Y4150070D01*
X1737080Y4137370D01*
X1730650Y4116200D01*
X1729040Y4097150D01*
X1732260Y4078100D01*
X1737080Y4065400D01*
X1746730Y4052700D01*
X1757990Y4044230D01*
X1769250Y4040000D01*
X1780510D01*
X1791770Y4044230D01*
X1801420Y4050580D01*
X1809460Y4059050D01*
G01X1898750Y4040000D02*
Y4167000D01*
X1879450Y4141600D01*
G01Y4040000D02*
X1918050D01*
G01X2028250D02*
X2039510Y4042120D01*
X2052370Y4048460D01*
X2060420Y4059050D01*
X2063630Y4073870D01*
X2060420Y4088680D01*
X2050770Y4101380D01*
X2036290Y4107730D01*
X2020210D01*
X2010560Y4111970D01*
X2002510Y4122550D01*
X1999300Y4137370D01*
X2004130Y4152180D01*
X2015380Y4162770D01*
X2028250Y4167000D01*
X2041120Y4162770D01*
X2052370Y4152180D01*
X2057200Y4137370D01*
X2053980Y4122550D01*
X2045940Y4111970D01*
X2036290Y4107730D01*
X2020210D01*
X2005730Y4101380D01*
X1996080Y4088680D01*
X1992870Y4073870D01*
X1996080Y4059050D01*
X2004130Y4048460D01*
X2016990Y4042120D01*
X2028250Y4040000D01*
G01X1823000Y3416920D02*
X1950000D01*
Y3376710D01*
X1943650Y3363840D01*
X1935180Y3355800D01*
X1918250Y3352580D01*
X1901320Y3355800D01*
X1890730Y3365450D01*
X1884380Y3376710D01*
Y3416920D01*
G01Y3376710D02*
X1823000Y3352580D01*
G01X1928830Y3285810D02*
X1941530Y3276160D01*
X1947880Y3264900D01*
X1950000Y3252030D01*
X1945770Y3235950D01*
X1935180Y3224690D01*
X1922490Y3221470D01*
X1909780Y3223080D01*
X1899200Y3229520D01*
X1878030Y3261680D01*
X1863220Y3276160D01*
X1842050Y3285810D01*
X1823000Y3289030D01*
Y3221470D01*
G01Y3125750D02*
X1950000D01*
X1924600Y3145050D01*
G01X1823000D02*
Y3106450D01*
G01X2006000Y856920D02*
X2133000D01*
Y816710D01*
X2126650Y803840D01*
X2118180Y795800D01*
X2101250Y792580D01*
X2084320Y795800D01*
X2073730Y805450D01*
X2067380Y816710D01*
Y856920D01*
G01Y816710D02*
X2006000Y792580D01*
G01X2058910Y725810D02*
X2073730Y714550D01*
X2082200Y704900D01*
X2086430Y692030D01*
X2082200Y680770D01*
X2073730Y672730D01*
X2061030Y666300D01*
X2046220Y664690D01*
X2033510Y666300D01*
X2020810Y672730D01*
X2010230Y682380D01*
X2006000Y693640D01*
X2010230Y706510D01*
X2022930Y717770D01*
X2041980Y724200D01*
X2063150Y725810D01*
X2090660Y722590D01*
X2105490Y717770D01*
X2120300Y709730D01*
X2130880Y698470D01*
X2133000Y687210D01*
X2128770Y675950D01*
X2118180Y667910D01*
G01X2006000Y546450D02*
X2133000D01*
X2041980Y605960D01*
Y525540D01*
G01X1936580Y956630D02*
X1930230Y946980D01*
X1926000Y935730D01*
Y922860D01*
X1932350Y908380D01*
X1942930Y897130D01*
X1955630Y889080D01*
X1976800Y882650D01*
X1995850Y881040D01*
X2014900Y884260D01*
X2027600Y889080D01*
X2040300Y898730D01*
X2048770Y909990D01*
X2053000Y921250D01*
Y932510D01*
X2048770Y943770D01*
X2042420Y953420D01*
X2033950Y961460D01*
G01X2000090Y1020190D02*
X1985270Y1031450D01*
X1976800Y1041100D01*
X1972570Y1053970D01*
X1976800Y1065230D01*
X1985270Y1073270D01*
X1997970Y1079700D01*
X2012780Y1081310D01*
X2025490Y1079700D01*
X2038190Y1073270D01*
X2048770Y1063620D01*
X2053000Y1052360D01*
X2048770Y1039490D01*
X2036070Y1028230D01*
X2017020Y1021800D01*
X1995850Y1020190D01*
X1968340Y1023410D01*
X1953510Y1028230D01*
X1938700Y1036270D01*
X1928120Y1047530D01*
X1926000Y1058790D01*
X1930230Y1070050D01*
X1940820Y1078090D01*
G01X2053000Y1199550D02*
X1926000D01*
X2017020Y1140040D01*
Y1220460D01*
G01X1931080Y2445000D02*
Y2572000D01*
X1971290D01*
X1984160Y2565650D01*
X1992200Y2557180D01*
X1995420Y2540250D01*
X1992200Y2523320D01*
X1982550Y2512730D01*
X1971290Y2506380D01*
X1931080D01*
G01X1971290D02*
X1995420Y2445000D01*
G01X2062190Y2497910D02*
X2073450Y2512730D01*
X2083100Y2521200D01*
X2095970Y2525430D01*
X2107230Y2521200D01*
X2115270Y2512730D01*
X2121700Y2500030D01*
X2123310Y2485220D01*
X2121700Y2472510D01*
X2115270Y2459810D01*
X2105620Y2449230D01*
X2094360Y2445000D01*
X2081490Y2449230D01*
X2070230Y2461930D01*
X2063800Y2480980D01*
X2062190Y2502150D01*
X2065410Y2529660D01*
X2070230Y2544490D01*
X2078270Y2559300D01*
X2089530Y2569880D01*
X2100790Y2572000D01*
X2112050Y2567770D01*
X2120090Y2557180D01*
G01X1991630Y2849420D02*
X1981980Y2855770D01*
X1970730Y2860000D01*
X1957860D01*
X1943380Y2853650D01*
X1932130Y2843070D01*
X1924080Y2830370D01*
X1917650Y2809200D01*
X1916040Y2790150D01*
X1919260Y2771100D01*
X1924080Y2758400D01*
X1933730Y2745700D01*
X1944990Y2737230D01*
X1956250Y2733000D01*
X1967510D01*
X1978770Y2737230D01*
X1988420Y2743580D01*
X1996460Y2752050D01*
G01X2050370D02*
X2060010Y2741460D01*
X2071270Y2735120D01*
X2085750Y2733000D01*
X2100230Y2737230D01*
X2111480Y2745700D01*
X2119530Y2760510D01*
X2121130Y2777450D01*
X2117920Y2794380D01*
X2109870Y2804970D01*
X2098620Y2813430D01*
X2087360Y2815550D01*
X2076100Y2813430D01*
X2061630Y2804970D01*
X2066450Y2860000D01*
X2109870D01*
G01X2215250D02*
X2202380Y2855770D01*
X2192730Y2845180D01*
X2186300Y2832490D01*
X2181470Y2815550D01*
X2179870Y2796500D01*
X2181470Y2777450D01*
X2186300Y2760510D01*
X2192730Y2747810D01*
X2202380Y2737230D01*
X2215250Y2733000D01*
X2228120Y2737230D01*
X2237770Y2747810D01*
X2244200Y2760510D01*
X2249030Y2777450D01*
X2250630Y2796500D01*
X2249030Y2815550D01*
X2244200Y2832490D01*
X2237770Y2845180D01*
X2228120Y2855770D01*
X2215250Y2860000D01*
G01X1988630Y3254420D02*
X1978980Y3260770D01*
X1967730Y3265000D01*
X1954860D01*
X1940380Y3258650D01*
X1929130Y3248070D01*
X1921080Y3235370D01*
X1914650Y3214200D01*
X1913040Y3195150D01*
X1916260Y3176100D01*
X1921080Y3163400D01*
X1930730Y3150700D01*
X1941990Y3142230D01*
X1953250Y3138000D01*
X1964510D01*
X1975770Y3142230D01*
X1985420Y3148580D01*
X1993460Y3157050D01*
G01X2102050Y3138000D02*
Y3265000D01*
X2042540Y3173980D01*
X2122960D01*
G01X2212250Y3138000D02*
X2223510Y3140120D01*
X2236370Y3146460D01*
X2244420Y3157050D01*
X2247630Y3171870D01*
X2244420Y3186680D01*
X2234770Y3199380D01*
X2220290Y3205730D01*
X2204210D01*
X2194560Y3209970D01*
X2186510Y3220550D01*
X2183300Y3235370D01*
X2188130Y3250180D01*
X2199380Y3260770D01*
X2212250Y3265000D01*
X2225120Y3260770D01*
X2236370Y3250180D01*
X2241200Y3235370D01*
X2237980Y3220550D01*
X2229940Y3209970D01*
X2220290Y3205730D01*
X2204210D01*
X2189730Y3199380D01*
X2180080Y3186680D01*
X2176870Y3171870D01*
X2180080Y3157050D01*
X2188130Y3146460D01*
X2200990Y3140120D01*
X2212250Y3138000D01*
G01X1929080Y3370000D02*
Y3497000D01*
X1969290D01*
X1982160Y3490650D01*
X1990200Y3482180D01*
X1993420Y3465250D01*
X1990200Y3448320D01*
X1980550Y3437730D01*
X1969290Y3431380D01*
X1929080D01*
G01X1969290D02*
X1993420Y3370000D01*
G01X2090750D02*
Y3497000D01*
X2071450Y3471600D01*
G01Y3370000D02*
X2110050D01*
G01X2239550D02*
Y3497000D01*
X2180040Y3405980D01*
X2260460D01*
G01X2045580Y3664630D02*
X2039230Y3654980D01*
X2035000Y3643730D01*
Y3630860D01*
X2041350Y3616380D01*
X2051930Y3605130D01*
X2064630Y3597080D01*
X2085800Y3590650D01*
X2104850Y3589040D01*
X2123900Y3592260D01*
X2136600Y3597080D01*
X2149300Y3606730D01*
X2157770Y3617990D01*
X2162000Y3629250D01*
Y3640510D01*
X2157770Y3651770D01*
X2151420Y3661420D01*
X2142950Y3669460D01*
G01X2162000Y3758750D02*
X2159880Y3770010D01*
X2153540Y3782870D01*
X2142950Y3790920D01*
X2128130Y3794130D01*
X2113320Y3790920D01*
X2100620Y3781270D01*
X2094270Y3766790D01*
Y3750710D01*
X2090030Y3741060D01*
X2079450Y3733010D01*
X2064630Y3729800D01*
X2049820Y3734630D01*
X2039230Y3745880D01*
X2035000Y3758750D01*
X2039230Y3771620D01*
X2049820Y3782870D01*
X2064630Y3787700D01*
X2079450Y3784480D01*
X2090030Y3776440D01*
X2094270Y3766790D01*
Y3750710D01*
X2100620Y3736230D01*
X2113320Y3726580D01*
X2128130Y3723370D01*
X2142950Y3726580D01*
X2153540Y3734630D01*
X2159880Y3747490D01*
X2162000Y3758750D01*
G01X2397920Y4143000D02*
Y4016000D01*
X2357710D01*
X2344840Y4022350D01*
X2336800Y4030820D01*
X2333580Y4047750D01*
X2336800Y4064680D01*
X2346450Y4075270D01*
X2357710Y4081620D01*
X2397920D01*
G01X2357710D02*
X2333580Y4143000D01*
G01X2236250D02*
Y4016000D01*
X2255550Y4041400D01*
G01Y4143000D02*
X2216950D01*
G01X2137310Y4090090D02*
X2126050Y4075270D01*
X2116400Y4066800D01*
X2103530Y4062570D01*
X2092270Y4066800D01*
X2084230Y4075270D01*
X2077800Y4087970D01*
X2076190Y4102780D01*
X2077800Y4115490D01*
X2084230Y4128190D01*
X2093880Y4138770D01*
X2105140Y4143000D01*
X2118010Y4138770D01*
X2129270Y4126070D01*
X2135700Y4107020D01*
X2137310Y4085850D01*
X2134090Y4058340D01*
X2129270Y4043510D01*
X2121230Y4028700D01*
X2109970Y4018120D01*
X2098710Y4016000D01*
X2087450Y4020230D01*
X2079410Y4030820D01*
G01X2394420Y2109370D02*
X2400770Y2119020D01*
X2405000Y2130270D01*
Y2143140D01*
X2398650Y2157620D01*
X2388070Y2168870D01*
X2375370Y2176920D01*
X2354200Y2183350D01*
X2335150Y2184960D01*
X2316100Y2181740D01*
X2303400Y2176920D01*
X2290700Y2167270D01*
X2282230Y2156010D01*
X2278000Y2144750D01*
Y2133490D01*
X2282230Y2122230D01*
X2288580Y2112580D01*
X2297050Y2104540D01*
G01Y2050630D02*
X2286460Y2040990D01*
X2280120Y2029730D01*
X2278000Y2015250D01*
X2282230Y2000770D01*
X2290700Y1989520D01*
X2305510Y1981470D01*
X2322450Y1979870D01*
X2339380Y1983080D01*
X2349970Y1991130D01*
X2358430Y2002380D01*
X2360550Y2013640D01*
X2358430Y2024900D01*
X2349970Y2039370D01*
X2405000Y2034550D01*
Y1991130D01*
G01X2292810Y1913090D02*
X2282230Y1901830D01*
X2278000Y1888970D01*
X2282230Y1876100D01*
X2294930Y1864840D01*
X2313980Y1856800D01*
X2333030Y1853580D01*
X2356320D01*
X2375370Y1856800D01*
X2392300Y1864840D01*
X2400770Y1874490D01*
X2405000Y1885750D01*
X2400770Y1898620D01*
X2392300Y1908270D01*
X2379600Y1914700D01*
X2362660Y1917920D01*
X2347850Y1914700D01*
X2333030Y1906660D01*
X2324560Y1897010D01*
X2322450Y1885750D01*
X2326680Y1872880D01*
X2337270Y1863230D01*
X2356320Y1853580D01*
G01X2351420Y2108370D02*
X2357770Y2118020D01*
X2362000Y2129270D01*
Y2142140D01*
X2355650Y2156620D01*
X2345070Y2167870D01*
X2332370Y2175920D01*
X2311200Y2182350D01*
X2292150Y2183960D01*
X2273100Y2180740D01*
X2260400Y2175920D01*
X2247700Y2166270D01*
X2239230Y2155010D01*
X2235000Y2143750D01*
Y2132490D01*
X2239230Y2121230D01*
X2245580Y2111580D01*
X2254050Y2103540D01*
G01X2287910Y2044810D02*
X2302730Y2033550D01*
X2311200Y2023900D01*
X2315430Y2011030D01*
X2311200Y1999770D01*
X2302730Y1991730D01*
X2290030Y1985300D01*
X2275220Y1983690D01*
X2262510Y1985300D01*
X2249810Y1991730D01*
X2239230Y2001380D01*
X2235000Y2012640D01*
X2239230Y2025510D01*
X2251930Y2036770D01*
X2270980Y2043200D01*
X2292150Y2044810D01*
X2319660Y2041590D01*
X2334490Y2036770D01*
X2349300Y2028730D01*
X2359880Y2017470D01*
X2362000Y2006210D01*
X2357770Y1994950D01*
X2347180Y1986910D01*
G01X2362000Y1884750D02*
X2357770Y1897620D01*
X2347180Y1907270D01*
X2334490Y1913700D01*
X2317550Y1918530D01*
X2298500Y1920130D01*
X2279450Y1918530D01*
X2262510Y1913700D01*
X2249810Y1907270D01*
X2239230Y1897620D01*
X2235000Y1884750D01*
X2239230Y1871880D01*
X2249810Y1862230D01*
X2262510Y1855800D01*
X2279450Y1850970D01*
X2298500Y1849370D01*
X2317550Y1850970D01*
X2334490Y1855800D01*
X2347180Y1862230D01*
X2357770Y1871880D01*
X2362000Y1884750D01*
G01X2238420Y2112370D02*
X2244770Y2122020D01*
X2249000Y2133270D01*
Y2146140D01*
X2242650Y2160620D01*
X2232070Y2171870D01*
X2219370Y2179920D01*
X2198200Y2186350D01*
X2179150Y2187960D01*
X2160100Y2184740D01*
X2147400Y2179920D01*
X2134700Y2170270D01*
X2126230Y2159010D01*
X2122000Y2147750D01*
Y2136490D01*
X2126230Y2125230D01*
X2132580Y2115580D01*
X2141050Y2107540D01*
G01X2122000Y2018250D02*
X2249000D01*
X2223600Y2037550D01*
G01X2122000D02*
Y1998950D01*
G01X2119000Y3559920D02*
X2246000D01*
Y3519710D01*
X2239650Y3506840D01*
X2231180Y3498800D01*
X2214250Y3495580D01*
X2197320Y3498800D01*
X2186730Y3508450D01*
X2180380Y3519710D01*
Y3559920D01*
G01Y3519710D02*
X2119000Y3495580D01*
G01Y3401470D02*
X2146510Y3398250D01*
X2169800Y3393420D01*
X2190970Y3386990D01*
X2214250Y3378950D01*
X2246000Y3366080D01*
Y3430420D01*
G01X2437420Y2110370D02*
X2443770Y2120020D01*
X2448000Y2131270D01*
Y2144140D01*
X2441650Y2158620D01*
X2431070Y2169870D01*
X2418370Y2177920D01*
X2397200Y2184350D01*
X2378150Y2185960D01*
X2359100Y2182740D01*
X2346400Y2177920D01*
X2333700Y2168270D01*
X2325230Y2157010D01*
X2321000Y2145750D01*
Y2134490D01*
X2325230Y2123230D01*
X2331580Y2113580D01*
X2340050Y2105540D01*
G01X2321000Y2016250D02*
X2448000D01*
X2422600Y2035550D01*
G01X2321000D02*
Y1996950D01*
G01X2426830Y1917310D02*
X2439530Y1907660D01*
X2445880Y1896400D01*
X2448000Y1883530D01*
X2443770Y1867450D01*
X2433180Y1856190D01*
X2420490Y1852970D01*
X2407780Y1854580D01*
X2397200Y1861020D01*
X2376030Y1893180D01*
X2361220Y1907660D01*
X2340050Y1917310D01*
X2321000Y1920530D01*
Y1852970D01*
G01X2393580Y2271630D02*
X2387230Y2261980D01*
X2383000Y2250730D01*
Y2237860D01*
X2389350Y2223380D01*
X2399930Y2212130D01*
X2412630Y2204080D01*
X2433800Y2197650D01*
X2452850Y2196040D01*
X2471900Y2199260D01*
X2484600Y2204080D01*
X2497300Y2213730D01*
X2505770Y2224990D01*
X2510000Y2236250D01*
Y2247510D01*
X2505770Y2258770D01*
X2499420Y2268420D01*
X2490950Y2276460D01*
G01X2457090Y2335190D02*
X2442270Y2346450D01*
X2433800Y2356100D01*
X2429570Y2368970D01*
X2433800Y2380230D01*
X2442270Y2388270D01*
X2454970Y2394700D01*
X2469780Y2396310D01*
X2482490Y2394700D01*
X2495190Y2388270D01*
X2505770Y2378620D01*
X2510000Y2367360D01*
X2505770Y2354490D01*
X2493070Y2343230D01*
X2474020Y2336800D01*
X2452850Y2335190D01*
X2425340Y2338410D01*
X2410510Y2343230D01*
X2395700Y2351270D01*
X2385120Y2362530D01*
X2383000Y2373790D01*
X2387230Y2385050D01*
X2397820Y2393090D01*
G01X2484600Y2459870D02*
X2499420Y2469510D01*
X2507880Y2482380D01*
X2510000Y2496860D01*
X2507880Y2509730D01*
X2497300Y2522590D01*
X2484600Y2530630D01*
X2471900Y2532240D01*
X2457090Y2529030D01*
X2446500Y2517770D01*
X2442270Y2506510D01*
Y2492030D01*
G01Y2506510D02*
X2435920Y2516160D01*
X2425340Y2524200D01*
X2412630Y2527420D01*
X2399930Y2524200D01*
X2389350Y2516160D01*
X2383000Y2501680D01*
X2385120Y2487210D01*
X2393580Y2472730D01*
G01X2284580Y3666630D02*
X2278230Y3656980D01*
X2274000Y3645730D01*
Y3632860D01*
X2280350Y3618380D01*
X2290930Y3607130D01*
X2303630Y3599080D01*
X2324800Y3592650D01*
X2343850Y3591040D01*
X2362900Y3594260D01*
X2375600Y3599080D01*
X2388300Y3608730D01*
X2396770Y3619990D01*
X2401000Y3631250D01*
Y3642510D01*
X2396770Y3653770D01*
X2390420Y3663420D01*
X2381950Y3671460D01*
G01X2401000Y3760750D02*
X2398880Y3772010D01*
X2392540Y3784870D01*
X2381950Y3792920D01*
X2367130Y3796130D01*
X2352320Y3792920D01*
X2339620Y3783270D01*
X2333270Y3768790D01*
Y3752710D01*
X2329030Y3743060D01*
X2318450Y3735010D01*
X2303630Y3731800D01*
X2288820Y3736630D01*
X2278230Y3747880D01*
X2274000Y3760750D01*
X2278230Y3773620D01*
X2288820Y3784870D01*
X2303630Y3789700D01*
X2318450Y3786480D01*
X2329030Y3778440D01*
X2333270Y3768790D01*
Y3752710D01*
X2339620Y3738230D01*
X2352320Y3728580D01*
X2367130Y3725370D01*
X2381950Y3728580D01*
X2392540Y3736630D01*
X2398880Y3749490D01*
X2401000Y3760750D01*
G01X2386190Y3862910D02*
X2396770Y3874170D01*
X2401000Y3887030D01*
X2396770Y3899900D01*
X2384070Y3911160D01*
X2365020Y3919200D01*
X2345970Y3922420D01*
X2322680D01*
X2303630Y3919200D01*
X2286700Y3911160D01*
X2278230Y3901510D01*
X2274000Y3890250D01*
X2278230Y3877380D01*
X2286700Y3867730D01*
X2299400Y3861300D01*
X2316340Y3858080D01*
X2331150Y3861300D01*
X2345970Y3869340D01*
X2354440Y3878990D01*
X2356550Y3890250D01*
X2352320Y3903120D01*
X2341730Y3912770D01*
X2322680Y3922420D01*
G01X2431080Y4098000D02*
Y4225000D01*
X2471290D01*
X2484160Y4218650D01*
X2492200Y4210180D01*
X2495420Y4193250D01*
X2492200Y4176320D01*
X2482550Y4165730D01*
X2471290Y4159380D01*
X2431080D01*
G01X2471290D02*
X2495420Y4098000D01*
G01X2592750D02*
Y4225000D01*
X2573450Y4199600D01*
G01Y4098000D02*
X2612050D01*
G01X2719030D02*
X2722250Y4125510D01*
X2727080Y4148800D01*
X2733510Y4169970D01*
X2741550Y4193250D01*
X2754420Y4225000D01*
X2690080D01*
G01X2895920Y1546000D02*
Y1419000D01*
X2855710D01*
X2842840Y1425350D01*
X2834800Y1433820D01*
X2831580Y1450750D01*
X2834800Y1467680D01*
X2844450Y1478270D01*
X2855710Y1484620D01*
X2895920D01*
G01X2855710D02*
X2831580Y1546000D01*
G01X2769630Y1520600D02*
X2759990Y1535420D01*
X2747120Y1543880D01*
X2732640Y1546000D01*
X2719770Y1543880D01*
X2706910Y1533300D01*
X2698870Y1520600D01*
X2697260Y1507900D01*
X2700470Y1493090D01*
X2711730Y1482500D01*
X2722990Y1478270D01*
X2737470D01*
G01X2722990D02*
X2713340Y1471920D01*
X2705300Y1461340D01*
X2702080Y1448630D01*
X2705300Y1435930D01*
X2713340Y1425350D01*
X2727820Y1419000D01*
X2742290Y1421120D01*
X2756770Y1429580D01*
G01X2604750Y1546000D02*
Y1419000D01*
X2624050Y1444400D01*
G01Y1546000D02*
X2585450D01*
G01X2718420Y2111370D02*
X2724770Y2121020D01*
X2729000Y2132270D01*
Y2145140D01*
X2722650Y2159620D01*
X2712070Y2170870D01*
X2699370Y2178920D01*
X2678200Y2185350D01*
X2659150Y2186960D01*
X2640100Y2183740D01*
X2627400Y2178920D01*
X2614700Y2169270D01*
X2606230Y2158010D01*
X2602000Y2146750D01*
Y2135490D01*
X2606230Y2124230D01*
X2612580Y2114580D01*
X2621050Y2106540D01*
G01X2602000Y2017250D02*
X2729000D01*
X2703600Y2036550D01*
G01X2602000D02*
Y1997950D01*
G01X2627400Y1923130D02*
X2612580Y1913490D01*
X2604120Y1900620D01*
X2602000Y1886140D01*
X2604120Y1873270D01*
X2614700Y1860410D01*
X2627400Y1852370D01*
X2640100Y1850760D01*
X2654910Y1853970D01*
X2665500Y1865230D01*
X2669730Y1876490D01*
Y1890970D01*
G01Y1876490D02*
X2676080Y1866840D01*
X2686660Y1858800D01*
X2699370Y1855580D01*
X2712070Y1858800D01*
X2722650Y1866840D01*
X2729000Y1881320D01*
X2726880Y1895790D01*
X2718420Y1910270D01*
G01X2439580Y2274630D02*
X2433230Y2264980D01*
X2429000Y2253730D01*
Y2240860D01*
X2435350Y2226380D01*
X2445930Y2215130D01*
X2458630Y2207080D01*
X2479800Y2200650D01*
X2498850Y2199040D01*
X2517900Y2202260D01*
X2530600Y2207080D01*
X2543300Y2216730D01*
X2551770Y2227990D01*
X2556000Y2239250D01*
Y2250510D01*
X2551770Y2261770D01*
X2545420Y2271420D01*
X2536950Y2279460D01*
G01X2503090Y2338190D02*
X2488270Y2349450D01*
X2479800Y2359100D01*
X2475570Y2371970D01*
X2479800Y2383230D01*
X2488270Y2391270D01*
X2500970Y2397700D01*
X2515780Y2399310D01*
X2528490Y2397700D01*
X2541190Y2391270D01*
X2551770Y2381620D01*
X2556000Y2370360D01*
X2551770Y2357490D01*
X2539070Y2346230D01*
X2520020Y2339800D01*
X2498850Y2338190D01*
X2471340Y2341410D01*
X2456510Y2346230D01*
X2441700Y2354270D01*
X2431120Y2365530D01*
X2429000Y2376790D01*
X2433230Y2388050D01*
X2443820Y2396090D01*
G01X2450170Y2467690D02*
X2437470Y2477340D01*
X2431120Y2488600D01*
X2429000Y2501470D01*
X2433230Y2517550D01*
X2443820Y2528810D01*
X2456510Y2532030D01*
X2469220Y2530420D01*
X2479800Y2523980D01*
X2500970Y2491820D01*
X2515780Y2477340D01*
X2536950Y2467690D01*
X2556000Y2464470D01*
Y2532030D01*
G01X2485580Y3665630D02*
X2479230Y3655980D01*
X2475000Y3644730D01*
Y3631860D01*
X2481350Y3617380D01*
X2491930Y3606130D01*
X2504630Y3598080D01*
X2525800Y3591650D01*
X2544850Y3590040D01*
X2563900Y3593260D01*
X2576600Y3598080D01*
X2589300Y3607730D01*
X2597770Y3618990D01*
X2602000Y3630250D01*
Y3641510D01*
X2597770Y3652770D01*
X2591420Y3662420D01*
X2582950Y3670460D01*
G01X2602000Y3756530D02*
X2574490Y3759750D01*
X2551200Y3764580D01*
X2530030Y3771010D01*
X2506750Y3779050D01*
X2475000Y3791920D01*
Y3727580D01*
G01X2933920Y3693000D02*
Y3566000D01*
X2893710D01*
X2880840Y3572350D01*
X2872800Y3580820D01*
X2869580Y3597750D01*
X2872800Y3614680D01*
X2882450Y3625270D01*
X2893710Y3631620D01*
X2933920D01*
G01X2893710D02*
X2869580Y3693000D01*
G01X2772250D02*
Y3566000D01*
X2791550Y3591400D01*
G01Y3693000D02*
X2752950D01*
G01X2678130Y3673950D02*
X2668490Y3684540D01*
X2657230Y3690880D01*
X2642750Y3693000D01*
X2628270Y3688770D01*
X2617020Y3680300D01*
X2608970Y3665490D01*
X2607370Y3648550D01*
X2610580Y3631620D01*
X2618630Y3621030D01*
X2629880Y3612570D01*
X2641140Y3610450D01*
X2652400Y3612570D01*
X2666870Y3621030D01*
X2662050Y3566000D01*
X2618630D01*
G01X3089920Y995000D02*
Y868000D01*
X3049710D01*
X3036840Y874350D01*
X3028800Y882820D01*
X3025580Y899750D01*
X3028800Y916680D01*
X3038450Y927270D01*
X3049710Y933620D01*
X3089920D01*
G01X3049710D02*
X3025580Y995000D01*
G01X2958810Y889170D02*
X2949160Y876470D01*
X2937900Y870120D01*
X2925030Y868000D01*
X2908950Y872230D01*
X2897690Y882820D01*
X2894470Y895510D01*
X2896080Y908220D01*
X2902520Y918800D01*
X2934680Y939970D01*
X2949160Y954780D01*
X2958810Y975950D01*
X2962030Y995000D01*
X2894470D01*
G01X2829310Y942090D02*
X2818050Y927270D01*
X2808400Y918800D01*
X2795530Y914570D01*
X2784270Y918800D01*
X2776230Y927270D01*
X2769800Y939970D01*
X2768190Y954780D01*
X2769800Y967490D01*
X2776230Y980190D01*
X2785880Y990770D01*
X2797140Y995000D01*
X2810010Y990770D01*
X2821270Y978070D01*
X2827700Y959020D01*
X2829310Y937850D01*
X2826090Y910340D01*
X2821270Y895510D01*
X2813230Y880700D01*
X2801970Y870120D01*
X2790710Y868000D01*
X2779450Y872230D01*
X2771410Y882820D01*
G01X3021370Y1090580D02*
X3031020Y1084230D01*
X3042270Y1080000D01*
X3055140D01*
X3069620Y1086350D01*
X3080870Y1096930D01*
X3088920Y1109630D01*
X3095350Y1130800D01*
X3096960Y1149850D01*
X3093740Y1168900D01*
X3088920Y1181600D01*
X3079270Y1194300D01*
X3068010Y1202770D01*
X3056750Y1207000D01*
X3045490D01*
X3034230Y1202770D01*
X3024580Y1196420D01*
X3016540Y1187950D01*
G01X2962630Y1181600D02*
X2952990Y1196420D01*
X2940120Y1204880D01*
X2925640Y1207000D01*
X2912770Y1204880D01*
X2899910Y1194300D01*
X2891870Y1181600D01*
X2890260Y1168900D01*
X2893470Y1154090D01*
X2904730Y1143500D01*
X2915990Y1139270D01*
X2930470D01*
G01X2915990D02*
X2906340Y1132920D01*
X2898300Y1122340D01*
X2895080Y1109630D01*
X2898300Y1096930D01*
X2906340Y1086350D01*
X2920820Y1080000D01*
X2935290Y1082120D01*
X2949770Y1090580D01*
G01X2797750Y1207000D02*
Y1080000D01*
X2817050Y1105400D01*
G01Y1207000D02*
X2778450D01*
G01X2988920Y1208000D02*
Y1081000D01*
X2948710D01*
X2935840Y1087350D01*
X2927800Y1095820D01*
X2924580Y1112750D01*
X2927800Y1129680D01*
X2937450Y1140270D01*
X2948710Y1146620D01*
X2988920D01*
G01X2948710D02*
X2924580Y1208000D01*
G01X2807950D02*
Y1081000D01*
X2867460Y1172020D01*
X2787040D01*
G01X2733130Y1182600D02*
X2723490Y1197420D01*
X2710620Y1205880D01*
X2696140Y1208000D01*
X2683270Y1205880D01*
X2670410Y1195300D01*
X2662370Y1182600D01*
X2660760Y1169900D01*
X2663970Y1155090D01*
X2675230Y1144500D01*
X2686490Y1140270D01*
X2700970D01*
G01X2686490D02*
X2676840Y1133920D01*
X2668800Y1123340D01*
X2665580Y1110630D01*
X2668800Y1097930D01*
X2676840Y1087350D01*
X2691320Y1081000D01*
X2705790Y1083120D01*
X2720270Y1091580D01*
G01X3089920Y1075000D02*
Y948000D01*
X3049710D01*
X3036840Y954350D01*
X3028800Y962820D01*
X3025580Y979750D01*
X3028800Y996680D01*
X3038450Y1007270D01*
X3049710Y1013620D01*
X3089920D01*
G01X3049710D02*
X3025580Y1075000D01*
G01X2963630Y1049600D02*
X2953990Y1064420D01*
X2941120Y1072880D01*
X2926640Y1075000D01*
X2913770Y1072880D01*
X2900910Y1062300D01*
X2892870Y1049600D01*
X2891260Y1036900D01*
X2894470Y1022090D01*
X2905730Y1011500D01*
X2916990Y1007270D01*
X2931470D01*
G01X2916990D02*
X2907340Y1000920D01*
X2899300Y990340D01*
X2896080Y977630D01*
X2899300Y964930D01*
X2907340Y954350D01*
X2921820Y948000D01*
X2936290Y950120D01*
X2950770Y958580D01*
G01X2829310Y969170D02*
X2819660Y956470D01*
X2808400Y950120D01*
X2795530Y948000D01*
X2779450Y952230D01*
X2768190Y962820D01*
X2764970Y975510D01*
X2766580Y988220D01*
X2773020Y998800D01*
X2805180Y1019970D01*
X2819660Y1034780D01*
X2829310Y1055950D01*
X2832530Y1075000D01*
X2764970D01*
G01X3018370Y1243580D02*
X3028020Y1237230D01*
X3039270Y1233000D01*
X3052140D01*
X3066620Y1239350D01*
X3077870Y1249930D01*
X3085920Y1262630D01*
X3092350Y1283800D01*
X3093960Y1302850D01*
X3090740Y1321900D01*
X3085920Y1334600D01*
X3076270Y1347300D01*
X3065010Y1355770D01*
X3053750Y1360000D01*
X3042490D01*
X3031230Y1355770D01*
X3021580Y1349420D01*
X3013540Y1340950D01*
G01X2954810Y1254170D02*
X2945160Y1241470D01*
X2933900Y1235120D01*
X2921030Y1233000D01*
X2904950Y1237230D01*
X2893690Y1247820D01*
X2890470Y1260510D01*
X2892080Y1273220D01*
X2898520Y1283800D01*
X2930680Y1304970D01*
X2945160Y1319780D01*
X2954810Y1340950D01*
X2958030Y1360000D01*
X2890470D01*
G01X2825310Y1307090D02*
X2814050Y1292270D01*
X2804400Y1283800D01*
X2791530Y1279570D01*
X2780270Y1283800D01*
X2772230Y1292270D01*
X2765800Y1304970D01*
X2764190Y1319780D01*
X2765800Y1332490D01*
X2772230Y1345190D01*
X2781880Y1355770D01*
X2793140Y1360000D01*
X2806010Y1355770D01*
X2817270Y1343070D01*
X2823700Y1324020D01*
X2825310Y1302850D01*
X2822090Y1275340D01*
X2817270Y1260510D01*
X2809230Y1245700D01*
X2797970Y1235120D01*
X2786710Y1233000D01*
X2775450Y1237230D01*
X2767410Y1247820D01*
G01X3018370Y1152580D02*
X3028020Y1146230D01*
X3039270Y1142000D01*
X3052140D01*
X3066620Y1148350D01*
X3077870Y1158930D01*
X3085920Y1171630D01*
X3092350Y1192800D01*
X3093960Y1211850D01*
X3090740Y1230900D01*
X3085920Y1243600D01*
X3076270Y1256300D01*
X3065010Y1264770D01*
X3053750Y1269000D01*
X3042490D01*
X3031230Y1264770D01*
X3021580Y1258420D01*
X3013540Y1249950D01*
G01X2959630Y1243600D02*
X2949990Y1258420D01*
X2937120Y1266880D01*
X2922640Y1269000D01*
X2909770Y1266880D01*
X2896910Y1256300D01*
X2888870Y1243600D01*
X2887260Y1230900D01*
X2890470Y1216090D01*
X2901730Y1205500D01*
X2912990Y1201270D01*
X2927470D01*
G01X2912990D02*
X2903340Y1194920D01*
X2895300Y1184340D01*
X2892080Y1171630D01*
X2895300Y1158930D01*
X2903340Y1148350D01*
X2917820Y1142000D01*
X2932290Y1144120D01*
X2946770Y1152580D01*
G01X2794750Y1142000D02*
X2807620Y1146230D01*
X2817270Y1156820D01*
X2823700Y1169510D01*
X2828530Y1186450D01*
X2830130Y1205500D01*
X2828530Y1224550D01*
X2823700Y1241490D01*
X2817270Y1254190D01*
X2807620Y1264770D01*
X2794750Y1269000D01*
X2781880Y1264770D01*
X2772230Y1254190D01*
X2765800Y1241490D01*
X2760970Y1224550D01*
X2759370Y1205500D01*
X2760970Y1186450D01*
X2765800Y1169510D01*
X2772230Y1156820D01*
X2781880Y1146230D01*
X2794750Y1142000D01*
G01X2919420Y2112370D02*
X2925770Y2122020D01*
X2930000Y2133270D01*
Y2146140D01*
X2923650Y2160620D01*
X2913070Y2171870D01*
X2900370Y2179920D01*
X2879200Y2186350D01*
X2860150Y2187960D01*
X2841100Y2184740D01*
X2828400Y2179920D01*
X2815700Y2170270D01*
X2807230Y2159010D01*
X2803000Y2147750D01*
Y2136490D01*
X2807230Y2125230D01*
X2813580Y2115580D01*
X2822050Y2107540D01*
G01X2908830Y2048810D02*
X2921530Y2039160D01*
X2927880Y2027900D01*
X2930000Y2015030D01*
X2925770Y1998950D01*
X2915180Y1987690D01*
X2902490Y1984470D01*
X2889780Y1986080D01*
X2879200Y1992520D01*
X2858030Y2024680D01*
X2843220Y2039160D01*
X2822050Y2048810D01*
X2803000Y2052030D01*
Y1984470D01*
G01X2606580Y3666630D02*
X2600230Y3656980D01*
X2596000Y3645730D01*
Y3632860D01*
X2602350Y3618380D01*
X2612930Y3607130D01*
X2625630Y3599080D01*
X2646800Y3592650D01*
X2665850Y3591040D01*
X2684900Y3594260D01*
X2697600Y3599080D01*
X2710300Y3608730D01*
X2718770Y3619990D01*
X2723000Y3631250D01*
Y3642510D01*
X2718770Y3653770D01*
X2712420Y3663420D01*
X2703950Y3671460D01*
G01X2723000Y3760750D02*
X2596000D01*
X2621400Y3741450D01*
G01X2723000D02*
Y3780050D01*
G01X2670090Y3859690D02*
X2655270Y3870950D01*
X2646800Y3880600D01*
X2642570Y3893470D01*
X2646800Y3904730D01*
X2655270Y3912770D01*
X2667970Y3919200D01*
X2682780Y3920810D01*
X2695490Y3919200D01*
X2708190Y3912770D01*
X2718770Y3903120D01*
X2723000Y3891860D01*
X2718770Y3878990D01*
X2706070Y3867730D01*
X2687020Y3861300D01*
X2665850Y3859690D01*
X2638340Y3862910D01*
X2623510Y3867730D01*
X2608700Y3875770D01*
X2598120Y3887030D01*
X2596000Y3898290D01*
X2600230Y3909550D01*
X2610820Y3917590D01*
G01X2651580Y3668630D02*
X2645230Y3658980D01*
X2641000Y3647730D01*
Y3634860D01*
X2647350Y3620380D01*
X2657930Y3609130D01*
X2670630Y3601080D01*
X2691800Y3594650D01*
X2710850Y3593040D01*
X2729900Y3596260D01*
X2742600Y3601080D01*
X2755300Y3610730D01*
X2763770Y3621990D01*
X2768000Y3633250D01*
Y3644510D01*
X2763770Y3655770D01*
X2757420Y3665420D01*
X2748950Y3673460D01*
G01X2715090Y3732190D02*
X2700270Y3743450D01*
X2691800Y3753100D01*
X2687570Y3765970D01*
X2691800Y3777230D01*
X2700270Y3785270D01*
X2712970Y3791700D01*
X2727780Y3793310D01*
X2740490Y3791700D01*
X2753190Y3785270D01*
X2763770Y3775620D01*
X2768000Y3764360D01*
X2763770Y3751490D01*
X2751070Y3740230D01*
X2732020Y3733800D01*
X2710850Y3732190D01*
X2683340Y3735410D01*
X2668510Y3740230D01*
X2653700Y3748270D01*
X2643120Y3759530D01*
X2641000Y3770790D01*
X2645230Y3782050D01*
X2655820Y3790090D01*
G01X2715090Y3861690D02*
X2700270Y3872950D01*
X2691800Y3882600D01*
X2687570Y3895470D01*
X2691800Y3906730D01*
X2700270Y3914770D01*
X2712970Y3921200D01*
X2727780Y3922810D01*
X2740490Y3921200D01*
X2753190Y3914770D01*
X2763770Y3905120D01*
X2768000Y3893860D01*
X2763770Y3880990D01*
X2751070Y3869730D01*
X2732020Y3863300D01*
X2710850Y3861690D01*
X2683340Y3864910D01*
X2668510Y3869730D01*
X2653700Y3877770D01*
X2643120Y3889030D01*
X2641000Y3900290D01*
X2645230Y3911550D01*
X2655820Y3919590D01*
G01X2934920Y3764000D02*
Y3637000D01*
X2894710D01*
X2881840Y3643350D01*
X2873800Y3651820D01*
X2870580Y3668750D01*
X2873800Y3685680D01*
X2883450Y3696270D01*
X2894710Y3702620D01*
X2934920D01*
G01X2894710D02*
X2870580Y3764000D01*
G01X2773250D02*
Y3637000D01*
X2792550Y3662400D01*
G01Y3764000D02*
X2753950D01*
G01X2643750D02*
X2632490Y3761880D01*
X2619630Y3755540D01*
X2611580Y3744950D01*
X2608370Y3730130D01*
X2611580Y3715320D01*
X2621230Y3702620D01*
X2635710Y3696270D01*
X2651790D01*
X2661440Y3692030D01*
X2669490Y3681450D01*
X2672700Y3666630D01*
X2667870Y3651820D01*
X2656620Y3641230D01*
X2643750Y3637000D01*
X2630880Y3641230D01*
X2619630Y3651820D01*
X2614800Y3666630D01*
X2618020Y3681450D01*
X2626060Y3692030D01*
X2635710Y3696270D01*
X2651790D01*
X2666270Y3702620D01*
X2675920Y3715320D01*
X2679130Y3730130D01*
X2675920Y3744950D01*
X2667870Y3755540D01*
X2655010Y3761880D01*
X2643750Y3764000D01*
G01X2934920Y3814000D02*
Y3687000D01*
X2894710D01*
X2881840Y3693350D01*
X2873800Y3701820D01*
X2870580Y3718750D01*
X2873800Y3735680D01*
X2883450Y3746270D01*
X2894710Y3752620D01*
X2934920D01*
G01X2894710D02*
X2870580Y3814000D01*
G01X2773250D02*
Y3687000D01*
X2792550Y3712400D01*
G01Y3814000D02*
X2753950D01*
G01X2671090Y3799190D02*
X2659830Y3809770D01*
X2646970Y3814000D01*
X2634100Y3809770D01*
X2622840Y3797070D01*
X2614800Y3778020D01*
X2611580Y3758970D01*
Y3735680D01*
X2614800Y3716630D01*
X2622840Y3699700D01*
X2632490Y3691230D01*
X2643750Y3687000D01*
X2656620Y3691230D01*
X2666270Y3699700D01*
X2672700Y3712400D01*
X2675920Y3729340D01*
X2672700Y3744150D01*
X2664660Y3758970D01*
X2655010Y3767440D01*
X2643750Y3769550D01*
X2630880Y3765320D01*
X2621230Y3754730D01*
X2611580Y3735680D01*
G01X2903000Y902920D02*
X3030000D01*
Y862710D01*
X3023650Y849840D01*
X3015180Y841800D01*
X2998250Y838580D01*
X2981320Y841800D01*
X2970730Y851450D01*
X2964380Y862710D01*
Y902920D01*
G01Y862710D02*
X2903000Y838580D01*
G01Y744470D02*
X2930510Y741250D01*
X2953800Y736420D01*
X2974970Y729990D01*
X2998250Y721950D01*
X3030000Y709080D01*
Y773420D01*
G01Y611750D02*
X3025770Y624620D01*
X3015180Y634270D01*
X3002490Y640700D01*
X2985550Y645530D01*
X2966500Y647130D01*
X2947450Y645530D01*
X2930510Y640700D01*
X2917810Y634270D01*
X2907230Y624620D01*
X2903000Y611750D01*
X2907230Y598880D01*
X2917810Y589230D01*
X2930510Y582800D01*
X2947450Y577970D01*
X2966500Y576370D01*
X2985550Y577970D01*
X3002490Y582800D01*
X3015180Y589230D01*
X3025770Y598880D01*
X3030000Y611750D01*
G01X2834580Y999630D02*
X2828230Y989980D01*
X2824000Y978730D01*
Y965860D01*
X2830350Y951380D01*
X2840930Y940130D01*
X2853630Y932080D01*
X2874800Y925650D01*
X2893850Y924040D01*
X2912900Y927260D01*
X2925600Y932080D01*
X2938300Y941730D01*
X2946770Y952990D01*
X2951000Y964250D01*
Y975510D01*
X2946770Y986770D01*
X2940420Y996420D01*
X2931950Y1004460D01*
G01X2951000Y1090530D02*
X2923490Y1093750D01*
X2900200Y1098580D01*
X2879030Y1105010D01*
X2855750Y1113050D01*
X2824000Y1125920D01*
Y1061580D01*
G01X2845170Y1192690D02*
X2832470Y1202340D01*
X2826120Y1213600D01*
X2824000Y1226470D01*
X2828230Y1242550D01*
X2838820Y1253810D01*
X2851510Y1257030D01*
X2864220Y1255420D01*
X2874800Y1248980D01*
X2895970Y1216820D01*
X2910780Y1202340D01*
X2931950Y1192690D01*
X2951000Y1189470D01*
Y1257030D01*
G01X2926580Y1725630D02*
X2920230Y1715980D01*
X2916000Y1704730D01*
Y1691860D01*
X2922350Y1677380D01*
X2932930Y1666130D01*
X2945630Y1658080D01*
X2966800Y1651650D01*
X2985850Y1650040D01*
X3004900Y1653260D01*
X3017600Y1658080D01*
X3030300Y1667730D01*
X3038770Y1678990D01*
X3043000Y1690250D01*
Y1701510D01*
X3038770Y1712770D01*
X3032420Y1722420D01*
X3023950Y1730460D01*
G01X2937170Y1789190D02*
X2924470Y1798840D01*
X2918120Y1810100D01*
X2916000Y1822970D01*
X2920230Y1839050D01*
X2930820Y1850310D01*
X2943510Y1853530D01*
X2956220Y1851920D01*
X2966800Y1845480D01*
X2987970Y1813320D01*
X3002780Y1798840D01*
X3023950Y1789190D01*
X3043000Y1785970D01*
Y1853530D01*
G01X3023950Y1913870D02*
X3034540Y1923510D01*
X3040880Y1934770D01*
X3043000Y1949250D01*
X3038770Y1963730D01*
X3030300Y1974980D01*
X3015490Y1983030D01*
X2998550Y1984630D01*
X2981620Y1981420D01*
X2971030Y1973370D01*
X2962570Y1962120D01*
X2960450Y1950860D01*
X2962570Y1939600D01*
X2971030Y1925130D01*
X2916000Y1929950D01*
Y1973370D01*
G01X2929420Y3502370D02*
X2935770Y3512020D01*
X2940000Y3523270D01*
Y3536140D01*
X2933650Y3550620D01*
X2923070Y3561870D01*
X2910370Y3569920D01*
X2889200Y3576350D01*
X2870150Y3577960D01*
X2851100Y3574740D01*
X2838400Y3569920D01*
X2825700Y3560270D01*
X2817230Y3549010D01*
X2813000Y3537750D01*
Y3526490D01*
X2817230Y3515230D01*
X2823580Y3505580D01*
X2832050Y3497540D01*
G01X2865910Y3438810D02*
X2880730Y3427550D01*
X2889200Y3417900D01*
X2893430Y3405030D01*
X2889200Y3393770D01*
X2880730Y3385730D01*
X2868030Y3379300D01*
X2853220Y3377690D01*
X2840510Y3379300D01*
X2827810Y3385730D01*
X2817230Y3395380D01*
X2813000Y3406640D01*
X2817230Y3419510D01*
X2829930Y3430770D01*
X2848980Y3437200D01*
X2870150Y3438810D01*
X2897660Y3435590D01*
X2912490Y3430770D01*
X2927300Y3422730D01*
X2937880Y3411470D01*
X2940000Y3400210D01*
X2935770Y3388950D01*
X2925180Y3380910D01*
G01X2813000Y3281970D02*
X2840510Y3278750D01*
X2863800Y3273920D01*
X2884970Y3267490D01*
X2908250Y3259450D01*
X2940000Y3246580D01*
Y3310920D01*
G01X2845580Y3665630D02*
X2839230Y3655980D01*
X2835000Y3644730D01*
Y3631860D01*
X2841350Y3617380D01*
X2851930Y3606130D01*
X2864630Y3598080D01*
X2885800Y3591650D01*
X2904850Y3590040D01*
X2923900Y3593260D01*
X2936600Y3598080D01*
X2949300Y3607730D01*
X2957770Y3618990D01*
X2962000Y3630250D01*
Y3641510D01*
X2957770Y3652770D01*
X2951420Y3662420D01*
X2942950Y3670460D01*
G01X2909090Y3729190D02*
X2894270Y3740450D01*
X2885800Y3750100D01*
X2881570Y3762970D01*
X2885800Y3774230D01*
X2894270Y3782270D01*
X2906970Y3788700D01*
X2921780Y3790310D01*
X2934490Y3788700D01*
X2947190Y3782270D01*
X2957770Y3772620D01*
X2962000Y3761360D01*
X2957770Y3748490D01*
X2945070Y3737230D01*
X2926020Y3730800D01*
X2904850Y3729190D01*
X2877340Y3732410D01*
X2862510Y3737230D01*
X2847700Y3745270D01*
X2837120Y3756530D01*
X2835000Y3767790D01*
X2839230Y3779050D01*
X2849820Y3787090D01*
G01X2893580Y3665630D02*
X2887230Y3655980D01*
X2883000Y3644730D01*
Y3631860D01*
X2889350Y3617380D01*
X2899930Y3606130D01*
X2912630Y3598080D01*
X2933800Y3591650D01*
X2952850Y3590040D01*
X2971900Y3593260D01*
X2984600Y3598080D01*
X2997300Y3607730D01*
X3005770Y3618990D01*
X3010000Y3630250D01*
Y3641510D01*
X3005770Y3652770D01*
X2999420Y3662420D01*
X2990950Y3670460D01*
G01X3010000Y3759750D02*
X2883000D01*
X2908400Y3740450D01*
G01X3010000D02*
Y3779050D01*
G01X2990950Y3853870D02*
X3001540Y3863510D01*
X3007880Y3874770D01*
X3010000Y3889250D01*
X3005770Y3903730D01*
X2997300Y3914980D01*
X2982490Y3923030D01*
X2965550Y3924630D01*
X2948620Y3921420D01*
X2938030Y3913370D01*
X2929570Y3902120D01*
X2927450Y3890860D01*
X2929570Y3879600D01*
X2938030Y3865130D01*
X2883000Y3869950D01*
Y3913370D01*
G01X2992000Y1558920D02*
X3119000D01*
Y1518710D01*
X3112650Y1505840D01*
X3104180Y1497800D01*
X3087250Y1494580D01*
X3070320Y1497800D01*
X3059730Y1507450D01*
X3053380Y1518710D01*
Y1558920D01*
G01Y1518710D02*
X2992000Y1494580D01*
G01X3017400Y1432630D02*
X3002580Y1422990D01*
X2994120Y1410120D01*
X2992000Y1395640D01*
X2994120Y1382770D01*
X3004700Y1369910D01*
X3017400Y1361870D01*
X3030100Y1360260D01*
X3044910Y1363470D01*
X3055500Y1374730D01*
X3059730Y1385990D01*
Y1400470D01*
G01Y1385990D02*
X3066080Y1376340D01*
X3076660Y1368300D01*
X3089370Y1365080D01*
X3102070Y1368300D01*
X3112650Y1376340D01*
X3119000Y1390820D01*
X3116880Y1405290D01*
X3108420Y1419770D01*
G01X3119000Y1267750D02*
X3114770Y1280620D01*
X3104180Y1290270D01*
X3091490Y1296700D01*
X3074550Y1301530D01*
X3055500Y1303130D01*
X3036450Y1301530D01*
X3019510Y1296700D01*
X3006810Y1290270D01*
X2996230Y1280620D01*
X2992000Y1267750D01*
X2996230Y1254880D01*
X3006810Y1245230D01*
X3019510Y1238800D01*
X3036450Y1233970D01*
X3055500Y1232370D01*
X3074550Y1233970D01*
X3091490Y1238800D01*
X3104180Y1245230D01*
X3114770Y1254880D01*
X3119000Y1267750D01*
G01X3015580Y1539630D02*
X3009230Y1529980D01*
X3005000Y1518730D01*
Y1505860D01*
X3011350Y1491380D01*
X3021930Y1480130D01*
X3034630Y1472080D01*
X3055800Y1465650D01*
X3074850Y1464040D01*
X3093900Y1467260D01*
X3106600Y1472080D01*
X3119300Y1481730D01*
X3127770Y1492990D01*
X3132000Y1504250D01*
Y1515510D01*
X3127770Y1526770D01*
X3121420Y1536420D01*
X3112950Y1544460D01*
G01X3026170Y1603190D02*
X3013470Y1612840D01*
X3007120Y1624100D01*
X3005000Y1636970D01*
X3009230Y1653050D01*
X3019820Y1664310D01*
X3032510Y1667530D01*
X3045220Y1665920D01*
X3055800Y1659480D01*
X3076970Y1627320D01*
X3091780Y1612840D01*
X3112950Y1603190D01*
X3132000Y1599970D01*
Y1667530D01*
G01Y1760030D02*
X3104490Y1763250D01*
X3081200Y1768080D01*
X3060030Y1774510D01*
X3036750Y1782550D01*
X3005000Y1795420D01*
Y1731080D01*
G01X3080000Y1470080D02*
X2953000D01*
Y1510290D01*
X2959350Y1523160D01*
X2967820Y1531200D01*
X2984750Y1534420D01*
X3001680Y1531200D01*
X3012270Y1521550D01*
X3018620Y1510290D01*
Y1470080D01*
G01Y1510290D02*
X3080000Y1534420D01*
G01X2974170Y1601190D02*
X2961470Y1610840D01*
X2955120Y1622100D01*
X2953000Y1634970D01*
X2957230Y1651050D01*
X2967820Y1662310D01*
X2980510Y1665530D01*
X2993220Y1663920D01*
X3003800Y1657480D01*
X3024970Y1625320D01*
X3039780Y1610840D01*
X3060950Y1601190D01*
X3080000Y1597970D01*
Y1665530D01*
G01Y1761250D02*
X3077880Y1772510D01*
X3071540Y1785370D01*
X3060950Y1793420D01*
X3046130Y1796630D01*
X3031320Y1793420D01*
X3018620Y1783770D01*
X3012270Y1769290D01*
Y1753210D01*
X3008030Y1743560D01*
X2997450Y1735510D01*
X2982630Y1732300D01*
X2967820Y1737130D01*
X2957230Y1748380D01*
X2953000Y1761250D01*
X2957230Y1774120D01*
X2967820Y1785370D01*
X2982630Y1790200D01*
X2997450Y1786980D01*
X3008030Y1778940D01*
X3012270Y1769290D01*
Y1753210D01*
X3018620Y1738730D01*
X3031320Y1729080D01*
X3046130Y1725870D01*
X3060950Y1729080D01*
X3071540Y1737130D01*
X3077880Y1749990D01*
X3080000Y1761250D01*
G01X3016580Y1727630D02*
X3010230Y1717980D01*
X3006000Y1706730D01*
Y1693860D01*
X3012350Y1679380D01*
X3022930Y1668130D01*
X3035630Y1660080D01*
X3056800Y1653650D01*
X3075850Y1652040D01*
X3094900Y1655260D01*
X3107600Y1660080D01*
X3120300Y1669730D01*
X3128770Y1680990D01*
X3133000Y1692250D01*
Y1703510D01*
X3128770Y1714770D01*
X3122420Y1724420D01*
X3113950Y1732460D01*
G01X3027170Y1791190D02*
X3014470Y1800840D01*
X3008120Y1812100D01*
X3006000Y1824970D01*
X3010230Y1841050D01*
X3020820Y1852310D01*
X3033510Y1855530D01*
X3046220Y1853920D01*
X3056800Y1847480D01*
X3077970Y1815320D01*
X3092780Y1800840D01*
X3113950Y1791190D01*
X3133000Y1787970D01*
Y1855530D01*
G01X3107600Y1915870D02*
X3122420Y1925510D01*
X3130880Y1938380D01*
X3133000Y1952860D01*
X3130880Y1965730D01*
X3120300Y1978590D01*
X3107600Y1986630D01*
X3094900Y1988240D01*
X3080090Y1985030D01*
X3069500Y1973770D01*
X3065270Y1962510D01*
Y1948030D01*
G01Y1962510D02*
X3058920Y1972160D01*
X3048340Y1980200D01*
X3035630Y1983420D01*
X3022930Y1980200D01*
X3012350Y1972160D01*
X3006000Y1957680D01*
X3008120Y1943210D01*
X3016580Y1928730D01*
G01X2971580Y1725630D02*
X2965230Y1715980D01*
X2961000Y1704730D01*
Y1691860D01*
X2967350Y1677380D01*
X2977930Y1666130D01*
X2990630Y1658080D01*
X3011800Y1651650D01*
X3030850Y1650040D01*
X3049900Y1653260D01*
X3062600Y1658080D01*
X3075300Y1667730D01*
X3083770Y1678990D01*
X3088000Y1690250D01*
Y1701510D01*
X3083770Y1712770D01*
X3077420Y1722420D01*
X3068950Y1730460D01*
G01X2982170Y1789190D02*
X2969470Y1798840D01*
X2963120Y1810100D01*
X2961000Y1822970D01*
X2965230Y1839050D01*
X2975820Y1850310D01*
X2988510Y1853530D01*
X3001220Y1851920D01*
X3011800Y1845480D01*
X3032970Y1813320D01*
X3047780Y1798840D01*
X3068950Y1789190D01*
X3088000Y1785970D01*
Y1853530D01*
G01Y1968550D02*
X2961000D01*
X3052020Y1909040D01*
Y1989460D01*
G01X3291920Y2893000D02*
Y2766000D01*
X3251710D01*
X3238840Y2772350D01*
X3230800Y2780820D01*
X3227580Y2797750D01*
X3230800Y2814680D01*
X3240450Y2825270D01*
X3251710Y2831620D01*
X3291920D01*
G01X3251710D02*
X3227580Y2893000D01*
G01X3130250D02*
Y2766000D01*
X3149550Y2791400D01*
G01Y2893000D02*
X3110950D01*
G01X3291920Y2938000D02*
Y2811000D01*
X3251710D01*
X3238840Y2817350D01*
X3230800Y2825820D01*
X3227580Y2842750D01*
X3230800Y2859680D01*
X3240450Y2870270D01*
X3251710Y2876620D01*
X3291920D01*
G01X3251710D02*
X3227580Y2938000D01*
G01X3160810Y2832170D02*
X3151160Y2819470D01*
X3139900Y2813120D01*
X3127030Y2811000D01*
X3110950Y2815230D01*
X3099690Y2825820D01*
X3096470Y2838510D01*
X3098080Y2851220D01*
X3104520Y2861800D01*
X3136680Y2882970D01*
X3151160Y2897780D01*
X3160810Y2918950D01*
X3164030Y2938000D01*
X3096470D01*
G01X3290920Y2983000D02*
Y2856000D01*
X3250710D01*
X3237840Y2862350D01*
X3229800Y2870820D01*
X3226580Y2887750D01*
X3229800Y2904680D01*
X3239450Y2915270D01*
X3250710Y2921620D01*
X3290920D01*
G01X3250710D02*
X3226580Y2983000D01*
G01X3164630Y2957600D02*
X3154990Y2972420D01*
X3142120Y2980880D01*
X3127640Y2983000D01*
X3114770Y2980880D01*
X3101910Y2970300D01*
X3093870Y2957600D01*
X3092260Y2944900D01*
X3095470Y2930090D01*
X3106730Y2919500D01*
X3117990Y2915270D01*
X3132470D01*
G01X3117990D02*
X3108340Y2908920D01*
X3100300Y2898340D01*
X3097080Y2885630D01*
X3100300Y2872930D01*
X3108340Y2862350D01*
X3122820Y2856000D01*
X3137290Y2858120D01*
X3151770Y2866580D01*
G01X3471920Y3017000D02*
Y2890000D01*
X3431710D01*
X3418840Y2896350D01*
X3410800Y2904820D01*
X3407580Y2921750D01*
X3410800Y2938680D01*
X3420450Y2949270D01*
X3431710Y2955620D01*
X3471920D01*
G01X3431710D02*
X3407580Y3017000D01*
G01X3310250D02*
X3298990Y3014880D01*
X3286130Y3008540D01*
X3278080Y2997950D01*
X3274870Y2983130D01*
X3278080Y2968320D01*
X3287730Y2955620D01*
X3302210Y2949270D01*
X3318290D01*
X3327940Y2945030D01*
X3335990Y2934450D01*
X3339200Y2919630D01*
X3334370Y2904820D01*
X3323120Y2894230D01*
X3310250Y2890000D01*
X3297380Y2894230D01*
X3286130Y2904820D01*
X3281300Y2919630D01*
X3284520Y2934450D01*
X3292560Y2945030D01*
X3302210Y2949270D01*
X3318290D01*
X3332770Y2955620D01*
X3342420Y2968320D01*
X3345630Y2983130D01*
X3342420Y2997950D01*
X3334370Y3008540D01*
X3321510Y3014880D01*
X3310250Y3017000D01*
G01X3161450D02*
Y2890000D01*
X3220960Y2981020D01*
X3140540D01*
G01X3470920Y2967000D02*
Y2840000D01*
X3430710D01*
X3417840Y2846350D01*
X3409800Y2854820D01*
X3406580Y2871750D01*
X3409800Y2888680D01*
X3419450Y2899270D01*
X3430710Y2905620D01*
X3470920D01*
G01X3430710D02*
X3406580Y2967000D01*
G01X3309250D02*
X3297990Y2964880D01*
X3285130Y2958540D01*
X3277080Y2947950D01*
X3273870Y2933130D01*
X3277080Y2918320D01*
X3286730Y2905620D01*
X3301210Y2899270D01*
X3317290D01*
X3326940Y2895030D01*
X3334990Y2884450D01*
X3338200Y2869630D01*
X3333370Y2854820D01*
X3322120Y2844230D01*
X3309250Y2840000D01*
X3296380Y2844230D01*
X3285130Y2854820D01*
X3280300Y2869630D01*
X3283520Y2884450D01*
X3291560Y2895030D01*
X3301210Y2899270D01*
X3317290D01*
X3331770Y2905620D01*
X3341420Y2918320D01*
X3344630Y2933130D01*
X3341420Y2947950D01*
X3333370Y2958540D01*
X3320510Y2964880D01*
X3309250Y2967000D01*
G01X3215130Y2941600D02*
X3205490Y2956420D01*
X3192620Y2964880D01*
X3178140Y2967000D01*
X3165270Y2964880D01*
X3152410Y2954300D01*
X3144370Y2941600D01*
X3142760Y2928900D01*
X3145970Y2914090D01*
X3157230Y2903500D01*
X3168490Y2899270D01*
X3182970D01*
G01X3168490D02*
X3158840Y2892920D01*
X3150800Y2882340D01*
X3147580Y2869630D01*
X3150800Y2856930D01*
X3158840Y2846350D01*
X3173320Y2840000D01*
X3187790Y2842120D01*
X3202270Y2850580D01*
G01X3607920Y3159000D02*
Y3032000D01*
X3567710D01*
X3554840Y3038350D01*
X3546800Y3046820D01*
X3543580Y3063750D01*
X3546800Y3080680D01*
X3556450Y3091270D01*
X3567710Y3097620D01*
X3607920D01*
G01X3567710D02*
X3543580Y3159000D01*
G01X3446250D02*
X3434990Y3156880D01*
X3422130Y3150540D01*
X3414080Y3139950D01*
X3410870Y3125130D01*
X3414080Y3110320D01*
X3423730Y3097620D01*
X3438210Y3091270D01*
X3454290D01*
X3463940Y3087030D01*
X3471990Y3076450D01*
X3475200Y3061630D01*
X3470370Y3046820D01*
X3459120Y3036230D01*
X3446250Y3032000D01*
X3433380Y3036230D01*
X3422130Y3046820D01*
X3417300Y3061630D01*
X3420520Y3076450D01*
X3428560Y3087030D01*
X3438210Y3091270D01*
X3454290D01*
X3468770Y3097620D01*
X3478420Y3110320D01*
X3481630Y3125130D01*
X3478420Y3139950D01*
X3470370Y3150540D01*
X3457510Y3156880D01*
X3446250Y3159000D01*
G01X3347310Y3106090D02*
X3336050Y3091270D01*
X3326400Y3082800D01*
X3313530Y3078570D01*
X3302270Y3082800D01*
X3294230Y3091270D01*
X3287800Y3103970D01*
X3286190Y3118780D01*
X3287800Y3131490D01*
X3294230Y3144190D01*
X3303880Y3154770D01*
X3315140Y3159000D01*
X3328010Y3154770D01*
X3339270Y3142070D01*
X3345700Y3123020D01*
X3347310Y3101850D01*
X3344090Y3074340D01*
X3339270Y3059510D01*
X3331230Y3044700D01*
X3319970Y3034120D01*
X3308710Y3032000D01*
X3297450Y3036230D01*
X3289410Y3046820D01*
G01X3305080Y3684000D02*
Y3811000D01*
X3345290D01*
X3358160Y3804650D01*
X3366200Y3796180D01*
X3369420Y3779250D01*
X3366200Y3762320D01*
X3356550Y3751730D01*
X3345290Y3745380D01*
X3305080D01*
G01X3345290D02*
X3369420Y3684000D01*
G01X3466750D02*
Y3811000D01*
X3447450Y3785600D01*
G01Y3684000D02*
X3486050D01*
G01X3596250D02*
Y3811000D01*
X3576950Y3785600D01*
G01Y3684000D02*
X3615550D01*
G01X3307000Y3941080D02*
X3180000D01*
Y3981290D01*
X3186350Y3994160D01*
X3194820Y4002200D01*
X3211750Y4005420D01*
X3228680Y4002200D01*
X3239270Y3992550D01*
X3245620Y3981290D01*
Y3941080D01*
G01Y3981290D02*
X3307000Y4005420D01*
G01Y4102750D02*
X3304880Y4114010D01*
X3298540Y4126870D01*
X3287950Y4134920D01*
X3273130Y4138130D01*
X3258320Y4134920D01*
X3245620Y4125270D01*
X3239270Y4110790D01*
Y4094710D01*
X3235030Y4085060D01*
X3224450Y4077010D01*
X3209630Y4073800D01*
X3194820Y4078630D01*
X3184230Y4089880D01*
X3180000Y4102750D01*
X3184230Y4115620D01*
X3194820Y4126870D01*
X3209630Y4131700D01*
X3224450Y4128480D01*
X3235030Y4120440D01*
X3239270Y4110790D01*
Y4094710D01*
X3245620Y4080230D01*
X3258320Y4070580D01*
X3273130Y4067370D01*
X3287950Y4070580D01*
X3298540Y4078630D01*
X3304880Y4091490D01*
X3307000Y4102750D01*
G01X3379630Y2605420D02*
X3369980Y2611770D01*
X3358730Y2616000D01*
X3345860D01*
X3331380Y2609650D01*
X3320130Y2599070D01*
X3312080Y2586370D01*
X3305650Y2565200D01*
X3304040Y2546150D01*
X3307260Y2527100D01*
X3312080Y2514400D01*
X3321730Y2501700D01*
X3332990Y2493230D01*
X3344250Y2489000D01*
X3355510D01*
X3366770Y2493230D01*
X3376420Y2499580D01*
X3384460Y2508050D01*
G01X3438370Y2514400D02*
X3448010Y2499580D01*
X3460880Y2491120D01*
X3475360Y2489000D01*
X3488230Y2491120D01*
X3501090Y2501700D01*
X3509130Y2514400D01*
X3510740Y2527100D01*
X3507530Y2541910D01*
X3496270Y2552500D01*
X3485010Y2556730D01*
X3470530D01*
G01X3485010D02*
X3494660Y2563080D01*
X3502700Y2573660D01*
X3505920Y2586370D01*
X3502700Y2599070D01*
X3494660Y2609650D01*
X3480180Y2616000D01*
X3465710Y2613880D01*
X3451230Y2605420D01*
G01X3378630Y2684420D02*
X3368980Y2690770D01*
X3357730Y2695000D01*
X3344860D01*
X3330380Y2688650D01*
X3319130Y2678070D01*
X3311080Y2665370D01*
X3304650Y2644200D01*
X3303040Y2625150D01*
X3306260Y2606100D01*
X3311080Y2593400D01*
X3320730Y2580700D01*
X3331990Y2572230D01*
X3343250Y2568000D01*
X3354510D01*
X3365770Y2572230D01*
X3375420Y2578580D01*
X3383460Y2587050D01*
G01X3472750Y2568000D02*
Y2695000D01*
X3453450Y2669600D01*
G01Y2568000D02*
X3492050D01*
G01X3621550D02*
Y2695000D01*
X3562040Y2603980D01*
X3642460D01*
G01X3383630Y2962420D02*
X3373980Y2968770D01*
X3362730Y2973000D01*
X3349860D01*
X3335380Y2966650D01*
X3324130Y2956070D01*
X3316080Y2943370D01*
X3309650Y2922200D01*
X3308040Y2903150D01*
X3311260Y2884100D01*
X3316080Y2871400D01*
X3325730Y2858700D01*
X3336990Y2850230D01*
X3348250Y2846000D01*
X3359510D01*
X3370770Y2850230D01*
X3380420Y2856580D01*
X3388460Y2865050D01*
G01X3497050Y2846000D02*
Y2973000D01*
X3437540Y2881980D01*
X3517960D01*
G01X3384000Y3077920D02*
X3511000D01*
Y3037710D01*
X3504650Y3024840D01*
X3496180Y3016800D01*
X3479250Y3013580D01*
X3462320Y3016800D01*
X3451730Y3026450D01*
X3445380Y3037710D01*
Y3077920D01*
G01Y3037710D02*
X3384000Y3013580D01*
G01X3398810Y2943590D02*
X3388230Y2932330D01*
X3384000Y2919470D01*
X3388230Y2906600D01*
X3400930Y2895340D01*
X3419980Y2887300D01*
X3439030Y2884080D01*
X3462320D01*
X3481370Y2887300D01*
X3498300Y2895340D01*
X3506770Y2904990D01*
X3511000Y2916250D01*
X3506770Y2929120D01*
X3498300Y2938770D01*
X3485600Y2945200D01*
X3468660Y2948420D01*
X3453850Y2945200D01*
X3439030Y2937160D01*
X3430560Y2927510D01*
X3428450Y2916250D01*
X3432680Y2903380D01*
X3443270Y2893730D01*
X3462320Y2884080D01*
G01X3381630Y3166420D02*
X3371980Y3172770D01*
X3360730Y3177000D01*
X3347860D01*
X3333380Y3170650D01*
X3322130Y3160070D01*
X3314080Y3147370D01*
X3307650Y3126200D01*
X3306040Y3107150D01*
X3309260Y3088100D01*
X3314080Y3075400D01*
X3323730Y3062700D01*
X3334990Y3054230D01*
X3346250Y3050000D01*
X3357510D01*
X3368770Y3054230D01*
X3378420Y3060580D01*
X3386460Y3069050D01*
G01X3440370D02*
X3450010Y3058460D01*
X3461270Y3052120D01*
X3475750Y3050000D01*
X3490230Y3054230D01*
X3501480Y3062700D01*
X3509530Y3077510D01*
X3511130Y3094450D01*
X3507920Y3111380D01*
X3499870Y3121970D01*
X3488620Y3130430D01*
X3477360Y3132550D01*
X3466100Y3130430D01*
X3451630Y3121970D01*
X3456450Y3177000D01*
X3499870D01*
G01X3308080Y3214000D02*
Y3341000D01*
X3348290D01*
X3361160Y3334650D01*
X3369200Y3326180D01*
X3372420Y3309250D01*
X3369200Y3292320D01*
X3359550Y3281730D01*
X3348290Y3275380D01*
X3308080D01*
G01X3348290D02*
X3372420Y3214000D01*
G01X3469750D02*
Y3341000D01*
X3450450Y3315600D01*
G01Y3214000D02*
X3489050D01*
G01X3599250Y3341000D02*
X3586380Y3336770D01*
X3576730Y3326180D01*
X3570300Y3313490D01*
X3565470Y3296550D01*
X3563870Y3277500D01*
X3565470Y3258450D01*
X3570300Y3241510D01*
X3576730Y3228810D01*
X3586380Y3218230D01*
X3599250Y3214000D01*
X3612120Y3218230D01*
X3621770Y3228810D01*
X3628200Y3241510D01*
X3633030Y3258450D01*
X3634630Y3277500D01*
X3633030Y3296550D01*
X3628200Y3313490D01*
X3621770Y3326180D01*
X3612120Y3336770D01*
X3599250Y3341000D01*
G01X3974920Y1261000D02*
Y1134000D01*
X3934710D01*
X3921840Y1140350D01*
X3913800Y1148820D01*
X3910580Y1165750D01*
X3913800Y1182680D01*
X3923450Y1193270D01*
X3934710Y1199620D01*
X3974920D01*
G01X3934710D02*
X3910580Y1261000D01*
G01X3848630Y1235600D02*
X3838990Y1250420D01*
X3826120Y1258880D01*
X3811640Y1261000D01*
X3798770Y1258880D01*
X3785910Y1248300D01*
X3777870Y1235600D01*
X3776260Y1222900D01*
X3779470Y1208090D01*
X3790730Y1197500D01*
X3801990Y1193270D01*
X3816470D01*
G01X3801990D02*
X3792340Y1186920D01*
X3784300Y1176340D01*
X3781080Y1163630D01*
X3784300Y1150930D01*
X3792340Y1140350D01*
X3806820Y1134000D01*
X3821290Y1136120D01*
X3835770Y1144580D01*
G01X3686970Y1261000D02*
X3683750Y1233490D01*
X3678920Y1210200D01*
X3672490Y1189030D01*
X3664450Y1165750D01*
X3651580Y1134000D01*
X3715920D01*
G01X3765420Y2549370D02*
X3771770Y2559020D01*
X3776000Y2570270D01*
Y2583140D01*
X3769650Y2597620D01*
X3759070Y2608870D01*
X3746370Y2616920D01*
X3725200Y2623350D01*
X3706150Y2624960D01*
X3687100Y2621740D01*
X3674400Y2616920D01*
X3661700Y2607270D01*
X3653230Y2596010D01*
X3649000Y2584750D01*
Y2573490D01*
X3653230Y2562230D01*
X3659580Y2552580D01*
X3668050Y2544540D01*
G01X3649000Y2458470D02*
X3676510Y2455250D01*
X3699800Y2450420D01*
X3720970Y2443990D01*
X3744250Y2435950D01*
X3776000Y2423080D01*
Y2487420D01*
G01X3663810Y2353090D02*
X3653230Y2341830D01*
X3649000Y2328970D01*
X3653230Y2316100D01*
X3665930Y2304840D01*
X3684980Y2296800D01*
X3704030Y2293580D01*
X3727320D01*
X3746370Y2296800D01*
X3763300Y2304840D01*
X3771770Y2314490D01*
X3776000Y2325750D01*
X3771770Y2338620D01*
X3763300Y2348270D01*
X3750600Y2354700D01*
X3733660Y2357920D01*
X3718850Y2354700D01*
X3704030Y2346660D01*
X3695560Y2337010D01*
X3693450Y2325750D01*
X3697680Y2312880D01*
X3708270Y2303230D01*
X3727320Y2293580D01*
G01X3504080Y2923000D02*
Y3050000D01*
X3544290D01*
X3557160Y3043650D01*
X3565200Y3035180D01*
X3568420Y3018250D01*
X3565200Y3001320D01*
X3555550Y2990730D01*
X3544290Y2984380D01*
X3504080D01*
G01X3544290D02*
X3568420Y2923000D01*
G01X3665750D02*
X3677010Y2925120D01*
X3689870Y2931460D01*
X3697920Y2942050D01*
X3701130Y2956870D01*
X3697920Y2971680D01*
X3688270Y2984380D01*
X3673790Y2990730D01*
X3657710D01*
X3648060Y2994970D01*
X3640010Y3005550D01*
X3636800Y3020370D01*
X3641630Y3035180D01*
X3652880Y3045770D01*
X3665750Y3050000D01*
X3678620Y3045770D01*
X3689870Y3035180D01*
X3694700Y3020370D01*
X3691480Y3005550D01*
X3683440Y2994970D01*
X3673790Y2990730D01*
X3657710D01*
X3643230Y2984380D01*
X3633580Y2971680D01*
X3630370Y2956870D01*
X3633580Y2942050D01*
X3641630Y2931460D01*
X3654490Y2925120D01*
X3665750Y2923000D01*
G01X3792030D02*
X3795250Y2950510D01*
X3800080Y2973800D01*
X3806510Y2994970D01*
X3814550Y3018250D01*
X3827420Y3050000D01*
X3763080D01*
G01X3702000Y3196080D02*
X3575000D01*
Y3236290D01*
X3581350Y3249160D01*
X3589820Y3257200D01*
X3606750Y3260420D01*
X3623680Y3257200D01*
X3634270Y3247550D01*
X3640620Y3236290D01*
Y3196080D01*
G01Y3236290D02*
X3702000Y3260420D01*
G01X3687190Y3330410D02*
X3697770Y3341670D01*
X3702000Y3354530D01*
X3697770Y3367400D01*
X3685070Y3378660D01*
X3666020Y3386700D01*
X3646970Y3389920D01*
X3623680D01*
X3604630Y3386700D01*
X3587700Y3378660D01*
X3579230Y3369010D01*
X3575000Y3357750D01*
X3579230Y3344880D01*
X3587700Y3335230D01*
X3600400Y3328800D01*
X3617340Y3325580D01*
X3632150Y3328800D01*
X3646970Y3336840D01*
X3655440Y3346490D01*
X3657550Y3357750D01*
X3653320Y3370620D01*
X3642730Y3380270D01*
X3623680Y3389920D01*
G01X3575000Y3487250D02*
X3579230Y3474380D01*
X3589820Y3464730D01*
X3602510Y3458300D01*
X3619450Y3453470D01*
X3638500Y3451870D01*
X3657550Y3453470D01*
X3674490Y3458300D01*
X3687190Y3464730D01*
X3697770Y3474380D01*
X3702000Y3487250D01*
X3697770Y3500120D01*
X3687190Y3509770D01*
X3674490Y3516200D01*
X3657550Y3521030D01*
X3638500Y3522630D01*
X3619450Y3521030D01*
X3602510Y3516200D01*
X3589820Y3509770D01*
X3579230Y3500120D01*
X3575000Y3487250D01*
G01X3755000Y3198080D02*
X3628000D01*
Y3238290D01*
X3634350Y3251160D01*
X3642820Y3259200D01*
X3659750Y3262420D01*
X3676680Y3259200D01*
X3687270Y3249550D01*
X3693620Y3238290D01*
Y3198080D01*
G01Y3238290D02*
X3755000Y3262420D01*
G01X3740190Y3332410D02*
X3750770Y3343670D01*
X3755000Y3356530D01*
X3750770Y3369400D01*
X3738070Y3380660D01*
X3719020Y3388700D01*
X3699970Y3391920D01*
X3676680D01*
X3657630Y3388700D01*
X3640700Y3380660D01*
X3632230Y3371010D01*
X3628000Y3359750D01*
X3632230Y3346880D01*
X3640700Y3337230D01*
X3653400Y3330800D01*
X3670340Y3327580D01*
X3685150Y3330800D01*
X3699970Y3338840D01*
X3708440Y3348490D01*
X3710550Y3359750D01*
X3706320Y3372620D01*
X3695730Y3382270D01*
X3676680Y3391920D01*
G01X3755000Y3489250D02*
X3628000D01*
X3653400Y3469950D01*
G01X3755000D02*
Y3508550D01*
G01X3988920Y1007000D02*
Y880000D01*
X3948710D01*
X3935840Y886350D01*
X3927800Y894820D01*
X3924580Y911750D01*
X3927800Y928680D01*
X3937450Y939270D01*
X3948710Y945620D01*
X3988920D01*
G01X3948710D02*
X3924580Y1007000D01*
G01X3857810Y901170D02*
X3848160Y888470D01*
X3836900Y882120D01*
X3824030Y880000D01*
X3807950Y884230D01*
X3796690Y894820D01*
X3793470Y907510D01*
X3795080Y920220D01*
X3801520Y930800D01*
X3833680Y951970D01*
X3848160Y966780D01*
X3857810Y987950D01*
X3861030Y1007000D01*
X3793470D01*
G01X3700970D02*
X3697750Y979490D01*
X3692920Y956200D01*
X3686490Y935030D01*
X3678450Y911750D01*
X3665580Y880000D01*
X3729920D01*
G01X3924370Y1533580D02*
X3934020Y1527230D01*
X3945270Y1523000D01*
X3958140D01*
X3972620Y1529350D01*
X3983870Y1539930D01*
X3991920Y1552630D01*
X3998350Y1573800D01*
X3999960Y1592850D01*
X3996740Y1611900D01*
X3991920Y1624600D01*
X3982270Y1637300D01*
X3971010Y1645770D01*
X3959750Y1650000D01*
X3948490D01*
X3937230Y1645770D01*
X3927580Y1639420D01*
X3919540Y1630950D01*
G01X3860810Y1544170D02*
X3851160Y1531470D01*
X3839900Y1525120D01*
X3827030Y1523000D01*
X3810950Y1527230D01*
X3799690Y1537820D01*
X3796470Y1550510D01*
X3798080Y1563220D01*
X3804520Y1573800D01*
X3836680Y1594970D01*
X3851160Y1609780D01*
X3860810Y1630950D01*
X3864030Y1650000D01*
X3796470D01*
G01X3700750D02*
X3689490Y1647880D01*
X3676630Y1641540D01*
X3668580Y1630950D01*
X3665370Y1616130D01*
X3668580Y1601320D01*
X3678230Y1588620D01*
X3692710Y1582270D01*
X3708790D01*
X3718440Y1578030D01*
X3726490Y1567450D01*
X3729700Y1552630D01*
X3724870Y1537820D01*
X3713620Y1527230D01*
X3700750Y1523000D01*
X3687880Y1527230D01*
X3676630Y1537820D01*
X3671800Y1552630D01*
X3675020Y1567450D01*
X3683060Y1578030D01*
X3692710Y1582270D01*
X3708790D01*
X3723270Y1588620D01*
X3732920Y1601320D01*
X3736130Y1616130D01*
X3732920Y1630950D01*
X3724870Y1641540D01*
X3712010Y1647880D01*
X3700750Y1650000D01*
G01X3816420Y2550370D02*
X3822770Y2560020D01*
X3827000Y2571270D01*
Y2584140D01*
X3820650Y2598620D01*
X3810070Y2609870D01*
X3797370Y2617920D01*
X3776200Y2624350D01*
X3757150Y2625960D01*
X3738100Y2622740D01*
X3725400Y2617920D01*
X3712700Y2608270D01*
X3704230Y2597010D01*
X3700000Y2585750D01*
Y2574490D01*
X3704230Y2563230D01*
X3710580Y2553580D01*
X3719050Y2545540D01*
G01X3700000Y2456250D02*
X3702120Y2444990D01*
X3708460Y2432130D01*
X3719050Y2424080D01*
X3733870Y2420870D01*
X3748680Y2424080D01*
X3761380Y2433730D01*
X3767730Y2448210D01*
Y2464290D01*
X3771970Y2473940D01*
X3782550Y2481990D01*
X3797370Y2485200D01*
X3812180Y2480370D01*
X3822770Y2469120D01*
X3827000Y2456250D01*
X3822770Y2443380D01*
X3812180Y2432130D01*
X3797370Y2427300D01*
X3782550Y2430520D01*
X3771970Y2438560D01*
X3767730Y2448210D01*
Y2464290D01*
X3761380Y2478770D01*
X3748680Y2488420D01*
X3733870Y2491630D01*
X3719050Y2488420D01*
X3708460Y2480370D01*
X3702120Y2467510D01*
X3700000Y2456250D01*
G01X3827000Y2326750D02*
X3822770Y2339620D01*
X3812180Y2349270D01*
X3799490Y2355700D01*
X3782550Y2360530D01*
X3763500Y2362130D01*
X3744450Y2360530D01*
X3727510Y2355700D01*
X3714810Y2349270D01*
X3704230Y2339620D01*
X3700000Y2326750D01*
X3704230Y2313880D01*
X3714810Y2304230D01*
X3727510Y2297800D01*
X3744450Y2292970D01*
X3763500Y2291370D01*
X3782550Y2292970D01*
X3799490Y2297800D01*
X3812180Y2304230D01*
X3822770Y2313880D01*
X3827000Y2326750D01*
G01X3921420Y2547370D02*
X3927770Y2557020D01*
X3932000Y2568270D01*
Y2581140D01*
X3925650Y2595620D01*
X3915070Y2606870D01*
X3902370Y2614920D01*
X3881200Y2621350D01*
X3862150Y2622960D01*
X3843100Y2619740D01*
X3830400Y2614920D01*
X3817700Y2605270D01*
X3809230Y2594010D01*
X3805000Y2582750D01*
Y2571490D01*
X3809230Y2560230D01*
X3815580Y2550580D01*
X3824050Y2542540D01*
G01X3805000Y2453250D02*
X3807120Y2441990D01*
X3813460Y2429130D01*
X3824050Y2421080D01*
X3838870Y2417870D01*
X3853680Y2421080D01*
X3866380Y2430730D01*
X3872730Y2445210D01*
Y2461290D01*
X3876970Y2470940D01*
X3887550Y2478990D01*
X3902370Y2482200D01*
X3917180Y2477370D01*
X3927770Y2466120D01*
X3932000Y2453250D01*
X3927770Y2440380D01*
X3917180Y2429130D01*
X3902370Y2424300D01*
X3887550Y2427520D01*
X3876970Y2435560D01*
X3872730Y2445210D01*
Y2461290D01*
X3866380Y2475770D01*
X3853680Y2485420D01*
X3838870Y2488630D01*
X3824050Y2485420D01*
X3813460Y2477370D01*
X3807120Y2464510D01*
X3805000Y2453250D01*
G01Y2323750D02*
X3932000D01*
X3906600Y2343050D01*
G01X3805000D02*
Y2304450D01*
G01X3871420Y2548370D02*
X3877770Y2558020D01*
X3882000Y2569270D01*
Y2582140D01*
X3875650Y2596620D01*
X3865070Y2607870D01*
X3852370Y2615920D01*
X3831200Y2622350D01*
X3812150Y2623960D01*
X3793100Y2620740D01*
X3780400Y2615920D01*
X3767700Y2606270D01*
X3759230Y2595010D01*
X3755000Y2583750D01*
Y2572490D01*
X3759230Y2561230D01*
X3765580Y2551580D01*
X3774050Y2543540D01*
G01X3755000Y2454250D02*
X3757120Y2442990D01*
X3763460Y2430130D01*
X3774050Y2422080D01*
X3788870Y2418870D01*
X3803680Y2422080D01*
X3816380Y2431730D01*
X3822730Y2446210D01*
Y2462290D01*
X3826970Y2471940D01*
X3837550Y2479990D01*
X3852370Y2483200D01*
X3867180Y2478370D01*
X3877770Y2467120D01*
X3882000Y2454250D01*
X3877770Y2441380D01*
X3867180Y2430130D01*
X3852370Y2425300D01*
X3837550Y2428520D01*
X3826970Y2436560D01*
X3822730Y2446210D01*
Y2462290D01*
X3816380Y2476770D01*
X3803680Y2486420D01*
X3788870Y2489630D01*
X3774050Y2486420D01*
X3763460Y2478370D01*
X3757120Y2465510D01*
X3755000Y2454250D01*
G01X3780400Y2360130D02*
X3765580Y2350490D01*
X3757120Y2337620D01*
X3755000Y2323140D01*
X3757120Y2310270D01*
X3767700Y2297410D01*
X3780400Y2289370D01*
X3793100Y2287760D01*
X3807910Y2290970D01*
X3818500Y2302230D01*
X3822730Y2313490D01*
Y2327970D01*
G01Y2313490D02*
X3829080Y2303840D01*
X3839660Y2295800D01*
X3852370Y2292580D01*
X3865070Y2295800D01*
X3875650Y2303840D01*
X3882000Y2318320D01*
X3879880Y2332790D01*
X3871420Y2347270D01*
G01X4001920Y2951000D02*
Y2824000D01*
X3961710D01*
X3948840Y2830350D01*
X3940800Y2838820D01*
X3937580Y2855750D01*
X3940800Y2872680D01*
X3950450Y2883270D01*
X3961710Y2889620D01*
X4001920D01*
G01X3961710D02*
X3937580Y2951000D01*
G01X3840250D02*
X3828990Y2948880D01*
X3816130Y2942540D01*
X3808080Y2931950D01*
X3804870Y2917130D01*
X3808080Y2902320D01*
X3817730Y2889620D01*
X3832210Y2883270D01*
X3848290D01*
X3857940Y2879030D01*
X3865990Y2868450D01*
X3869200Y2853630D01*
X3864370Y2838820D01*
X3853120Y2828230D01*
X3840250Y2824000D01*
X3827380Y2828230D01*
X3816130Y2838820D01*
X3811300Y2853630D01*
X3814520Y2868450D01*
X3822560Y2879030D01*
X3832210Y2883270D01*
X3848290D01*
X3862770Y2889620D01*
X3872420Y2902320D01*
X3875630Y2917130D01*
X3872420Y2931950D01*
X3864370Y2942540D01*
X3851510Y2948880D01*
X3840250Y2951000D01*
G01X3746130Y2931950D02*
X3736490Y2942540D01*
X3725230Y2948880D01*
X3710750Y2951000D01*
X3696270Y2946770D01*
X3685020Y2938300D01*
X3676970Y2923490D01*
X3675370Y2906550D01*
X3678580Y2889620D01*
X3686630Y2879030D01*
X3697880Y2870570D01*
X3709140Y2868450D01*
X3720400Y2870570D01*
X3734870Y2879030D01*
X3730050Y2824000D01*
X3686630D01*
G01X4005630Y1001420D02*
X3995980Y1007770D01*
X3984730Y1012000D01*
X3971860D01*
X3957380Y1005650D01*
X3946130Y995070D01*
X3938080Y982370D01*
X3931650Y961200D01*
X3930040Y942150D01*
X3933260Y923100D01*
X3938080Y910400D01*
X3947730Y897700D01*
X3958990Y889230D01*
X3970250Y885000D01*
X3981510D01*
X3992770Y889230D01*
X4002420Y895580D01*
X4010460Y904050D01*
G01X4096530Y885000D02*
X4099750Y912510D01*
X4104580Y935800D01*
X4111010Y956970D01*
X4119050Y980250D01*
X4131920Y1012000D01*
X4067580D01*
G01X4193870Y910400D02*
X4203510Y895580D01*
X4216380Y887120D01*
X4230860Y885000D01*
X4243730Y887120D01*
X4256590Y897700D01*
X4264630Y910400D01*
X4266240Y923100D01*
X4263030Y937910D01*
X4251770Y948500D01*
X4240510Y952730D01*
X4226030D01*
G01X4240510D02*
X4250160Y959080D01*
X4258200Y969660D01*
X4261420Y982370D01*
X4258200Y995070D01*
X4250160Y1005650D01*
X4235680Y1012000D01*
X4221210Y1009880D01*
X4206730Y1001420D01*
G01X4260920Y2138000D02*
Y2011000D01*
X4220710D01*
X4207840Y2017350D01*
X4199800Y2025820D01*
X4196580Y2042750D01*
X4199800Y2059680D01*
X4209450Y2070270D01*
X4220710Y2076620D01*
X4260920D01*
G01X4220710D02*
X4196580Y2138000D01*
G01X4126590Y2123190D02*
X4115330Y2133770D01*
X4102470Y2138000D01*
X4089600Y2133770D01*
X4078340Y2121070D01*
X4070300Y2102020D01*
X4067080Y2082970D01*
Y2059680D01*
X4070300Y2040630D01*
X4078340Y2023700D01*
X4087990Y2015230D01*
X4099250Y2011000D01*
X4112120Y2015230D01*
X4121770Y2023700D01*
X4128200Y2036400D01*
X4131420Y2053340D01*
X4128200Y2068150D01*
X4120160Y2082970D01*
X4110510Y2091440D01*
X4099250Y2093550D01*
X4086380Y2089320D01*
X4076730Y2078730D01*
X4067080Y2059680D01*
G01X3950450Y2138000D02*
Y2011000D01*
X4009960Y2102020D01*
X3929540D01*
G01X3973420Y2548370D02*
X3979770Y2558020D01*
X3984000Y2569270D01*
Y2582140D01*
X3977650Y2596620D01*
X3967070Y2607870D01*
X3954370Y2615920D01*
X3933200Y2622350D01*
X3914150Y2623960D01*
X3895100Y2620740D01*
X3882400Y2615920D01*
X3869700Y2606270D01*
X3861230Y2595010D01*
X3857000Y2583750D01*
Y2572490D01*
X3861230Y2561230D01*
X3867580Y2551580D01*
X3876050Y2543540D01*
G01X3857000Y2454250D02*
X3859120Y2442990D01*
X3865460Y2430130D01*
X3876050Y2422080D01*
X3890870Y2418870D01*
X3905680Y2422080D01*
X3918380Y2431730D01*
X3924730Y2446210D01*
Y2462290D01*
X3928970Y2471940D01*
X3939550Y2479990D01*
X3954370Y2483200D01*
X3969180Y2478370D01*
X3979770Y2467120D01*
X3984000Y2454250D01*
X3979770Y2441380D01*
X3969180Y2430130D01*
X3954370Y2425300D01*
X3939550Y2428520D01*
X3928970Y2436560D01*
X3924730Y2446210D01*
Y2462290D01*
X3918380Y2476770D01*
X3905680Y2486420D01*
X3890870Y2489630D01*
X3876050Y2486420D01*
X3865460Y2478370D01*
X3859120Y2465510D01*
X3857000Y2454250D01*
G01X3962830Y2355310D02*
X3975530Y2345660D01*
X3981880Y2334400D01*
X3984000Y2321530D01*
X3979770Y2305450D01*
X3969180Y2294190D01*
X3956490Y2290970D01*
X3943780Y2292580D01*
X3933200Y2299020D01*
X3912030Y2331180D01*
X3897220Y2345660D01*
X3876050Y2355310D01*
X3857000Y2358530D01*
Y2290970D01*
G01X4254920Y2847000D02*
Y2720000D01*
X4214710D01*
X4201840Y2726350D01*
X4193800Y2734820D01*
X4190580Y2751750D01*
X4193800Y2768680D01*
X4203450Y2779270D01*
X4214710Y2785620D01*
X4254920D01*
G01X4214710D02*
X4190580Y2847000D01*
G01X4096470D02*
X4093250Y2819490D01*
X4088420Y2796200D01*
X4081990Y2775030D01*
X4073950Y2751750D01*
X4061080Y2720000D01*
X4125420D01*
G01X3944450Y2847000D02*
Y2720000D01*
X4003960Y2811020D01*
X3923540D01*
G01X3890080Y3158000D02*
Y3285000D01*
X3930290D01*
X3943160Y3278650D01*
X3951200Y3270180D01*
X3954420Y3253250D01*
X3951200Y3236320D01*
X3941550Y3225730D01*
X3930290Y3219380D01*
X3890080D01*
G01X3930290D02*
X3954420Y3158000D01*
G01X4051750D02*
X4063010Y3160120D01*
X4075870Y3166460D01*
X4083920Y3177050D01*
X4087130Y3191870D01*
X4083920Y3206680D01*
X4074270Y3219380D01*
X4059790Y3225730D01*
X4043710D01*
X4034060Y3229970D01*
X4026010Y3240550D01*
X4022800Y3255370D01*
X4027630Y3270180D01*
X4038880Y3280770D01*
X4051750Y3285000D01*
X4064620Y3280770D01*
X4075870Y3270180D01*
X4080700Y3255370D01*
X4077480Y3240550D01*
X4069440Y3229970D01*
X4059790Y3225730D01*
X4043710D01*
X4029230Y3219380D01*
X4019580Y3206680D01*
X4016370Y3191870D01*
X4019580Y3177050D01*
X4027630Y3166460D01*
X4040490Y3160120D01*
X4051750Y3158000D01*
G01X4153910Y3172810D02*
X4165170Y3162230D01*
X4178030Y3158000D01*
X4190900Y3162230D01*
X4202160Y3174930D01*
X4210200Y3193980D01*
X4213420Y3213030D01*
Y3236320D01*
X4210200Y3255370D01*
X4202160Y3272300D01*
X4192510Y3280770D01*
X4181250Y3285000D01*
X4168380Y3280770D01*
X4158730Y3272300D01*
X4152300Y3259600D01*
X4149080Y3242660D01*
X4152300Y3227850D01*
X4160340Y3213030D01*
X4169990Y3204560D01*
X4181250Y3202450D01*
X4194120Y3206680D01*
X4203770Y3217270D01*
X4213420Y3236320D01*
G01X4039080Y885000D02*
Y1012000D01*
X4079290D01*
X4092160Y1005650D01*
X4100200Y997180D01*
X4103420Y980250D01*
X4100200Y963320D01*
X4090550Y952730D01*
X4079290Y946380D01*
X4039080D01*
G01X4079290D02*
X4103420Y885000D01*
G01X4197530D02*
X4200750Y912510D01*
X4205580Y935800D01*
X4212010Y956970D01*
X4220050Y980250D01*
X4232920Y1012000D01*
X4168580D01*
G01X4330250Y885000D02*
Y1012000D01*
X4310950Y986600D01*
G01Y885000D02*
X4349550D01*
G01X4014080Y1141000D02*
Y1268000D01*
X4054290D01*
X4067160Y1261650D01*
X4075200Y1253180D01*
X4078420Y1236250D01*
X4075200Y1219320D01*
X4065550Y1208730D01*
X4054290Y1202380D01*
X4014080D01*
G01X4054290D02*
X4078420Y1141000D01*
G01X4145190Y1246830D02*
X4154840Y1259530D01*
X4166100Y1265880D01*
X4178970Y1268000D01*
X4195050Y1263770D01*
X4206310Y1253180D01*
X4209530Y1240490D01*
X4207920Y1227780D01*
X4201480Y1217200D01*
X4169320Y1196030D01*
X4154840Y1181220D01*
X4145190Y1160050D01*
X4141970Y1141000D01*
X4209530D01*
G01X4277910Y1155810D02*
X4289170Y1145230D01*
X4302030Y1141000D01*
X4314900Y1145230D01*
X4326160Y1157930D01*
X4334200Y1176980D01*
X4337420Y1196030D01*
Y1219320D01*
X4334200Y1238370D01*
X4326160Y1255300D01*
X4316510Y1263770D01*
X4305250Y1268000D01*
X4292380Y1263770D01*
X4282730Y1255300D01*
X4276300Y1242600D01*
X4273080Y1225660D01*
X4276300Y1210850D01*
X4284340Y1196030D01*
X4293990Y1187560D01*
X4305250Y1185450D01*
X4318120Y1189680D01*
X4327770Y1200270D01*
X4337420Y1219320D01*
G01X4016080Y1400000D02*
Y1527000D01*
X4056290D01*
X4069160Y1520650D01*
X4077200Y1512180D01*
X4080420Y1495250D01*
X4077200Y1478320D01*
X4067550Y1467730D01*
X4056290Y1461380D01*
X4016080D01*
G01X4056290D02*
X4080420Y1400000D01*
G01X4142370Y1425400D02*
X4152010Y1410580D01*
X4164880Y1402120D01*
X4179360Y1400000D01*
X4192230Y1402120D01*
X4205090Y1412700D01*
X4213130Y1425400D01*
X4214740Y1438100D01*
X4211530Y1452910D01*
X4200270Y1463500D01*
X4189010Y1467730D01*
X4174530D01*
G01X4189010D02*
X4198660Y1474080D01*
X4206700Y1484660D01*
X4209920Y1497370D01*
X4206700Y1510070D01*
X4198660Y1520650D01*
X4184180Y1527000D01*
X4169710Y1524880D01*
X4155230Y1516420D01*
G01X4271870Y1419050D02*
X4281510Y1408460D01*
X4292770Y1402120D01*
X4307250Y1400000D01*
X4321730Y1404230D01*
X4332980Y1412700D01*
X4341030Y1427510D01*
X4342630Y1444450D01*
X4339420Y1461380D01*
X4331370Y1471970D01*
X4320120Y1480430D01*
X4308860Y1482550D01*
X4297600Y1480430D01*
X4283130Y1471970D01*
X4287950Y1527000D01*
X4331370D01*
G01X4015080Y1530000D02*
Y1657000D01*
X4055290D01*
X4068160Y1650650D01*
X4076200Y1642180D01*
X4079420Y1625250D01*
X4076200Y1608320D01*
X4066550Y1597730D01*
X4055290Y1591380D01*
X4015080D01*
G01X4055290D02*
X4079420Y1530000D01*
G01X4141370Y1555400D02*
X4151010Y1540580D01*
X4163880Y1532120D01*
X4178360Y1530000D01*
X4191230Y1532120D01*
X4204090Y1542700D01*
X4212130Y1555400D01*
X4213740Y1568100D01*
X4210530Y1582910D01*
X4199270Y1593500D01*
X4188010Y1597730D01*
X4173530D01*
G01X4188010D02*
X4197660Y1604080D01*
X4205700Y1614660D01*
X4208920Y1627370D01*
X4205700Y1640070D01*
X4197660Y1650650D01*
X4183180Y1657000D01*
X4168710Y1654880D01*
X4154230Y1646420D01*
G01X4270870Y1555400D02*
X4280510Y1540580D01*
X4293380Y1532120D01*
X4307860Y1530000D01*
X4320730Y1532120D01*
X4333590Y1542700D01*
X4341630Y1555400D01*
X4343240Y1568100D01*
X4340030Y1582910D01*
X4328770Y1593500D01*
X4317510Y1597730D01*
X4303030D01*
G01X4317510D02*
X4327160Y1604080D01*
X4335200Y1614660D01*
X4338420Y1627370D01*
X4335200Y1640070D01*
X4327160Y1650650D01*
X4312680Y1657000D01*
X4298210Y1654880D01*
X4283730Y1646420D01*
G01X4016080Y1595000D02*
Y1722000D01*
X4056290D01*
X4069160Y1715650D01*
X4077200Y1707180D01*
X4080420Y1690250D01*
X4077200Y1673320D01*
X4067550Y1662730D01*
X4056290Y1656380D01*
X4016080D01*
G01X4056290D02*
X4080420Y1595000D01*
G01X4142370Y1620400D02*
X4152010Y1605580D01*
X4164880Y1597120D01*
X4179360Y1595000D01*
X4192230Y1597120D01*
X4205090Y1607700D01*
X4213130Y1620400D01*
X4214740Y1633100D01*
X4211530Y1647910D01*
X4200270Y1658500D01*
X4189010Y1662730D01*
X4174530D01*
G01X4189010D02*
X4198660Y1669080D01*
X4206700Y1679660D01*
X4209920Y1692370D01*
X4206700Y1705070D01*
X4198660Y1715650D01*
X4184180Y1722000D01*
X4169710Y1719880D01*
X4155230Y1711420D01*
G01X4326550Y1595000D02*
Y1722000D01*
X4267040Y1630980D01*
X4347460D01*
G01X4398920Y2282000D02*
Y2155000D01*
X4358710D01*
X4345840Y2161350D01*
X4337800Y2169820D01*
X4334580Y2186750D01*
X4337800Y2203680D01*
X4347450Y2214270D01*
X4358710Y2220620D01*
X4398920D01*
G01X4358710D02*
X4334580Y2282000D01*
G01X4264590Y2267190D02*
X4253330Y2277770D01*
X4240470Y2282000D01*
X4227600Y2277770D01*
X4216340Y2265070D01*
X4208300Y2246020D01*
X4205080Y2226970D01*
Y2203680D01*
X4208300Y2184630D01*
X4216340Y2167700D01*
X4225990Y2159230D01*
X4237250Y2155000D01*
X4250120Y2159230D01*
X4259770Y2167700D01*
X4266200Y2180400D01*
X4269420Y2197340D01*
X4266200Y2212150D01*
X4258160Y2226970D01*
X4248510Y2235440D01*
X4237250Y2237550D01*
X4224380Y2233320D01*
X4214730Y2222730D01*
X4205080Y2203680D01*
G01X4138310Y2229090D02*
X4127050Y2214270D01*
X4117400Y2205800D01*
X4104530Y2201570D01*
X4093270Y2205800D01*
X4085230Y2214270D01*
X4078800Y2226970D01*
X4077190Y2241780D01*
X4078800Y2254490D01*
X4085230Y2267190D01*
X4094880Y2277770D01*
X4106140Y2282000D01*
X4119010Y2277770D01*
X4130270Y2265070D01*
X4136700Y2246020D01*
X4138310Y2224850D01*
X4135090Y2197340D01*
X4130270Y2182510D01*
X4122230Y2167700D01*
X4110970Y2157120D01*
X4099710Y2155000D01*
X4088450Y2159230D01*
X4080410Y2169820D01*
G01X4033080Y2996000D02*
Y3123000D01*
X4073290D01*
X4086160Y3116650D01*
X4094200Y3108180D01*
X4097420Y3091250D01*
X4094200Y3074320D01*
X4084550Y3063730D01*
X4073290Y3057380D01*
X4033080D01*
G01X4073290D02*
X4097420Y2996000D01*
G01X4194750D02*
X4206010Y2998120D01*
X4218870Y3004460D01*
X4226920Y3015050D01*
X4230130Y3029870D01*
X4226920Y3044680D01*
X4217270Y3057380D01*
X4202790Y3063730D01*
X4186710D01*
X4177060Y3067970D01*
X4169010Y3078550D01*
X4165800Y3093370D01*
X4170630Y3108180D01*
X4181880Y3118770D01*
X4194750Y3123000D01*
X4207620Y3118770D01*
X4218870Y3108180D01*
X4223700Y3093370D01*
X4220480Y3078550D01*
X4212440Y3067970D01*
X4202790Y3063730D01*
X4186710D01*
X4172230Y3057380D01*
X4162580Y3044680D01*
X4159370Y3029870D01*
X4162580Y3015050D01*
X4170630Y3004460D01*
X4183490Y2998120D01*
X4194750Y2996000D01*
G01X4293690Y3101830D02*
X4303340Y3114530D01*
X4314600Y3120880D01*
X4327470Y3123000D01*
X4343550Y3118770D01*
X4354810Y3108180D01*
X4358030Y3095490D01*
X4356420Y3082780D01*
X4349980Y3072200D01*
X4317820Y3051030D01*
X4303340Y3036220D01*
X4293690Y3015050D01*
X4290470Y2996000D01*
X4358030D01*
G01X4375920Y2988000D02*
Y2861000D01*
X4335710D01*
X4322840Y2867350D01*
X4314800Y2875820D01*
X4311580Y2892750D01*
X4314800Y2909680D01*
X4324450Y2920270D01*
X4335710Y2926620D01*
X4375920D01*
G01X4335710D02*
X4311580Y2988000D01*
G01X4217470D02*
X4214250Y2960490D01*
X4209420Y2937200D01*
X4202990Y2916030D01*
X4194950Y2892750D01*
X4182080Y2861000D01*
X4246420D01*
G01X4115310Y2935090D02*
X4104050Y2920270D01*
X4094400Y2911800D01*
X4081530Y2907570D01*
X4070270Y2911800D01*
X4062230Y2920270D01*
X4055800Y2932970D01*
X4054190Y2947780D01*
X4055800Y2960490D01*
X4062230Y2973190D01*
X4071880Y2983770D01*
X4083140Y2988000D01*
X4096010Y2983770D01*
X4107270Y2971070D01*
X4113700Y2952020D01*
X4115310Y2930850D01*
X4112090Y2903340D01*
X4107270Y2888510D01*
X4099230Y2873700D01*
X4087970Y2863120D01*
X4076710Y2861000D01*
X4065450Y2865230D01*
X4057410Y2875820D01*
G01X4039080Y3047000D02*
Y3174000D01*
X4079290D01*
X4092160Y3167650D01*
X4100200Y3159180D01*
X4103420Y3142250D01*
X4100200Y3125320D01*
X4090550Y3114730D01*
X4079290Y3108380D01*
X4039080D01*
G01X4079290D02*
X4103420Y3047000D01*
G01X4200750D02*
X4212010Y3049120D01*
X4224870Y3055460D01*
X4232920Y3066050D01*
X4236130Y3080870D01*
X4232920Y3095680D01*
X4223270Y3108380D01*
X4208790Y3114730D01*
X4192710D01*
X4183060Y3118970D01*
X4175010Y3129550D01*
X4171800Y3144370D01*
X4176630Y3159180D01*
X4187880Y3169770D01*
X4200750Y3174000D01*
X4213620Y3169770D01*
X4224870Y3159180D01*
X4229700Y3144370D01*
X4226480Y3129550D01*
X4218440Y3118970D01*
X4208790Y3114730D01*
X4192710D01*
X4178230Y3108380D01*
X4168580Y3095680D01*
X4165370Y3080870D01*
X4168580Y3066050D01*
X4176630Y3055460D01*
X4189490Y3049120D01*
X4200750Y3047000D01*
G01X4330250D02*
X4341510Y3049120D01*
X4354370Y3055460D01*
X4362420Y3066050D01*
X4365630Y3080870D01*
X4362420Y3095680D01*
X4352770Y3108380D01*
X4338290Y3114730D01*
X4322210D01*
X4312560Y3118970D01*
X4304510Y3129550D01*
X4301300Y3144370D01*
X4306130Y3159180D01*
X4317380Y3169770D01*
X4330250Y3174000D01*
X4343120Y3169770D01*
X4354370Y3159180D01*
X4359200Y3144370D01*
X4355980Y3129550D01*
X4347940Y3118970D01*
X4338290Y3114730D01*
X4322210D01*
X4307730Y3108380D01*
X4298080Y3095680D01*
X4294870Y3080870D01*
X4298080Y3066050D01*
X4306130Y3055460D01*
X4318990Y3049120D01*
X4330250Y3047000D01*
G01X4124080Y3805000D02*
Y3932000D01*
X4164290D01*
X4177160Y3925650D01*
X4185200Y3917180D01*
X4188420Y3900250D01*
X4185200Y3883320D01*
X4175550Y3872730D01*
X4164290Y3866380D01*
X4124080D01*
G01X4164290D02*
X4188420Y3805000D01*
G01X4285750D02*
Y3932000D01*
X4266450Y3906600D01*
G01Y3805000D02*
X4305050D01*
G01X4384690Y3910830D02*
X4394340Y3923530D01*
X4405600Y3929880D01*
X4418470Y3932000D01*
X4434550Y3927770D01*
X4445810Y3917180D01*
X4449030Y3904490D01*
X4447420Y3891780D01*
X4440980Y3881200D01*
X4408820Y3860030D01*
X4394340Y3845220D01*
X4384690Y3824050D01*
X4381470Y3805000D01*
X4449030D01*
G01X4198630Y4031420D02*
X4188980Y4037770D01*
X4177730Y4042000D01*
X4164860D01*
X4150380Y4035650D01*
X4139130Y4025070D01*
X4131080Y4012370D01*
X4124650Y3991200D01*
X4123040Y3972150D01*
X4126260Y3953100D01*
X4131080Y3940400D01*
X4140730Y3927700D01*
X4151990Y3919230D01*
X4163250Y3915000D01*
X4174510D01*
X4185770Y3919230D01*
X4195420Y3925580D01*
X4203460Y3934050D01*
G01X4292750Y3915000D02*
Y4042000D01*
X4273450Y4016600D01*
G01Y3915000D02*
X4312050D01*
G01X4419030D02*
X4422250Y3942510D01*
X4427080Y3965800D01*
X4433510Y3986970D01*
X4441550Y4010250D01*
X4454420Y4042000D01*
X4390080D01*
G01X4118080Y4259000D02*
Y4386000D01*
X4158290D01*
X4171160Y4379650D01*
X4179200Y4371180D01*
X4182420Y4354250D01*
X4179200Y4337320D01*
X4169550Y4326730D01*
X4158290Y4320380D01*
X4118080D01*
G01X4158290D02*
X4182420Y4259000D01*
G01X4244370Y4278050D02*
X4254010Y4267460D01*
X4265270Y4261120D01*
X4279750Y4259000D01*
X4294230Y4263230D01*
X4305480Y4271700D01*
X4313530Y4286510D01*
X4315130Y4303450D01*
X4311920Y4320380D01*
X4303870Y4330970D01*
X4292620Y4339430D01*
X4281360Y4341550D01*
X4270100Y4339430D01*
X4255630Y4330970D01*
X4260450Y4386000D01*
X4303870D01*
G01X4409250Y4259000D02*
Y4386000D01*
X4389950Y4360600D01*
G01Y4259000D02*
X4428550D01*
G01X4290630Y1756420D02*
X4280980Y1762770D01*
X4269730Y1767000D01*
X4256860D01*
X4242380Y1760650D01*
X4231130Y1750070D01*
X4223080Y1737370D01*
X4216650Y1716200D01*
X4215040Y1697150D01*
X4218260Y1678100D01*
X4223080Y1665400D01*
X4232730Y1652700D01*
X4243990Y1644230D01*
X4255250Y1640000D01*
X4266510D01*
X4277770Y1644230D01*
X4287420Y1650580D01*
X4295460Y1659050D01*
G01X4349370Y1665400D02*
X4359010Y1650580D01*
X4371880Y1642120D01*
X4386360Y1640000D01*
X4399230Y1642120D01*
X4412090Y1652700D01*
X4420130Y1665400D01*
X4421740Y1678100D01*
X4418530Y1692910D01*
X4407270Y1703500D01*
X4396010Y1707730D01*
X4381530D01*
G01X4396010D02*
X4405660Y1714080D01*
X4413700Y1724660D01*
X4416920Y1737370D01*
X4413700Y1750070D01*
X4405660Y1760650D01*
X4391180Y1767000D01*
X4376710Y1764880D01*
X4362230Y1756420D01*
G01X4511030Y1640000D02*
X4514250Y1667510D01*
X4519080Y1690800D01*
X4525510Y1711970D01*
X4533550Y1735250D01*
X4546420Y1767000D01*
X4482080D01*
G01X4294080Y2037000D02*
Y2164000D01*
X4334290D01*
X4347160Y2157650D01*
X4355200Y2149180D01*
X4358420Y2132250D01*
X4355200Y2115320D01*
X4345550Y2104730D01*
X4334290Y2098380D01*
X4294080D01*
G01X4334290D02*
X4358420Y2037000D01*
G01X4428410Y2051810D02*
X4439670Y2041230D01*
X4452530Y2037000D01*
X4465400Y2041230D01*
X4476660Y2053930D01*
X4484700Y2072980D01*
X4487920Y2092030D01*
Y2115320D01*
X4484700Y2134370D01*
X4476660Y2151300D01*
X4467010Y2159770D01*
X4455750Y2164000D01*
X4442880Y2159770D01*
X4433230Y2151300D01*
X4426800Y2138600D01*
X4423580Y2121660D01*
X4426800Y2106850D01*
X4434840Y2092030D01*
X4444490Y2083560D01*
X4455750Y2081450D01*
X4468620Y2085680D01*
X4478270Y2096270D01*
X4487920Y2115320D01*
G01X4582030Y2037000D02*
X4585250Y2064510D01*
X4590080Y2087800D01*
X4596510Y2108970D01*
X4604550Y2132250D01*
X4617420Y2164000D01*
X4553080D01*
G01X4653920Y2328000D02*
Y2201000D01*
X4613710D01*
X4600840Y2207350D01*
X4592800Y2215820D01*
X4589580Y2232750D01*
X4592800Y2249680D01*
X4602450Y2260270D01*
X4613710Y2266620D01*
X4653920D01*
G01X4613710D02*
X4589580Y2328000D01*
G01X4519590Y2313190D02*
X4508330Y2323770D01*
X4495470Y2328000D01*
X4482600Y2323770D01*
X4471340Y2311070D01*
X4463300Y2292020D01*
X4460080Y2272970D01*
Y2249680D01*
X4463300Y2230630D01*
X4471340Y2213700D01*
X4480990Y2205230D01*
X4492250Y2201000D01*
X4505120Y2205230D01*
X4514770Y2213700D01*
X4521200Y2226400D01*
X4524420Y2243340D01*
X4521200Y2258150D01*
X4513160Y2272970D01*
X4503510Y2281440D01*
X4492250Y2283550D01*
X4479380Y2279320D01*
X4469730Y2268730D01*
X4460080Y2249680D01*
G01X4362750Y2328000D02*
X4351490Y2325880D01*
X4338630Y2319540D01*
X4330580Y2308950D01*
X4327370Y2294130D01*
X4330580Y2279320D01*
X4340230Y2266620D01*
X4354710Y2260270D01*
X4370790D01*
X4380440Y2256030D01*
X4388490Y2245450D01*
X4391700Y2230630D01*
X4386870Y2215820D01*
X4375620Y2205230D01*
X4362750Y2201000D01*
X4349880Y2205230D01*
X4338630Y2215820D01*
X4333800Y2230630D01*
X4337020Y2245450D01*
X4345060Y2256030D01*
X4354710Y2260270D01*
X4370790D01*
X4385270Y2266620D01*
X4394920Y2279320D01*
X4398130Y2294130D01*
X4394920Y2308950D01*
X4386870Y2319540D01*
X4374010Y2325880D01*
X4362750Y2328000D01*
G01X4285080Y2752000D02*
Y2879000D01*
X4325290D01*
X4338160Y2872650D01*
X4346200Y2864180D01*
X4349420Y2847250D01*
X4346200Y2830320D01*
X4336550Y2819730D01*
X4325290Y2813380D01*
X4285080D01*
G01X4325290D02*
X4349420Y2752000D01*
G01X4443530D02*
X4446750Y2779510D01*
X4451580Y2802800D01*
X4458010Y2823970D01*
X4466050Y2847250D01*
X4478920Y2879000D01*
X4414580D01*
G01X4573030Y2752000D02*
X4576250Y2779510D01*
X4581080Y2802800D01*
X4587510Y2823970D01*
X4595550Y2847250D01*
X4608420Y2879000D01*
X4544080D01*
G01X4295000Y2932080D02*
X4168000D01*
Y2972290D01*
X4174350Y2985160D01*
X4182820Y2993200D01*
X4199750Y2996420D01*
X4216680Y2993200D01*
X4227270Y2983550D01*
X4233620Y2972290D01*
Y2932080D01*
G01Y2972290D02*
X4295000Y2996420D01*
G01Y3090530D02*
X4267490Y3093750D01*
X4244200Y3098580D01*
X4223030Y3105010D01*
X4199750Y3113050D01*
X4168000Y3125920D01*
Y3061580D01*
G01X4269600Y3187870D02*
X4284420Y3197510D01*
X4292880Y3210380D01*
X4295000Y3224860D01*
X4292880Y3237730D01*
X4282300Y3250590D01*
X4269600Y3258630D01*
X4256900Y3260240D01*
X4242090Y3257030D01*
X4231500Y3245770D01*
X4227270Y3234510D01*
Y3220030D01*
G01Y3234510D02*
X4220920Y3244160D01*
X4210340Y3252200D01*
X4197630Y3255420D01*
X4184930Y3252200D01*
X4174350Y3244160D01*
X4168000Y3229680D01*
X4170120Y3215210D01*
X4178580Y3200730D01*
G01X4624920Y4225000D02*
Y4098000D01*
X4584710D01*
X4571840Y4104350D01*
X4563800Y4112820D01*
X4560580Y4129750D01*
X4563800Y4146680D01*
X4573450Y4157270D01*
X4584710Y4163620D01*
X4624920D01*
G01X4584710D02*
X4560580Y4225000D01*
G01X4498630Y4205950D02*
X4488990Y4216540D01*
X4477730Y4222880D01*
X4463250Y4225000D01*
X4448770Y4220770D01*
X4437520Y4212300D01*
X4429470Y4197490D01*
X4427870Y4180550D01*
X4431080Y4163620D01*
X4439130Y4153030D01*
X4450380Y4144570D01*
X4461640Y4142450D01*
X4472900Y4144570D01*
X4487370Y4153030D01*
X4482550Y4098000D01*
X4439130D01*
G01X4364310Y4172090D02*
X4353050Y4157270D01*
X4343400Y4148800D01*
X4330530Y4144570D01*
X4319270Y4148800D01*
X4311230Y4157270D01*
X4304800Y4169970D01*
X4303190Y4184780D01*
X4304800Y4197490D01*
X4311230Y4210190D01*
X4320880Y4220770D01*
X4332140Y4225000D01*
X4345010Y4220770D01*
X4356270Y4208070D01*
X4362700Y4189020D01*
X4364310Y4167850D01*
X4361090Y4140340D01*
X4356270Y4125510D01*
X4348230Y4110700D01*
X4336970Y4100120D01*
X4325710Y4098000D01*
X4314450Y4102230D01*
X4306410Y4112820D01*
G01X4299630Y4377420D02*
X4289980Y4383770D01*
X4278730Y4388000D01*
X4265860D01*
X4251380Y4381650D01*
X4240130Y4371070D01*
X4232080Y4358370D01*
X4225650Y4337200D01*
X4224040Y4318150D01*
X4227260Y4299100D01*
X4232080Y4286400D01*
X4241730Y4273700D01*
X4252990Y4265230D01*
X4264250Y4261000D01*
X4275510D01*
X4286770Y4265230D01*
X4296420Y4271580D01*
X4304460Y4280050D01*
G01X4413050Y4261000D02*
Y4388000D01*
X4353540Y4296980D01*
X4433960D01*
G01X4492690Y4313910D02*
X4503950Y4328730D01*
X4513600Y4337200D01*
X4526470Y4341430D01*
X4537730Y4337200D01*
X4545770Y4328730D01*
X4552200Y4316030D01*
X4553810Y4301220D01*
X4552200Y4288510D01*
X4545770Y4275810D01*
X4536120Y4265230D01*
X4524860Y4261000D01*
X4511990Y4265230D01*
X4500730Y4277930D01*
X4494300Y4296980D01*
X4492690Y4318150D01*
X4495910Y4345660D01*
X4500730Y4360490D01*
X4508770Y4375300D01*
X4520030Y4385880D01*
X4531290Y4388000D01*
X4542550Y4383770D01*
X4550590Y4373180D01*
G01X4683920Y1029000D02*
Y902000D01*
X4643710D01*
X4630840Y908350D01*
X4622800Y916820D01*
X4619580Y933750D01*
X4622800Y950680D01*
X4632450Y961270D01*
X4643710Y967620D01*
X4683920D01*
G01X4643710D02*
X4619580Y1029000D01*
G01X4557630Y1003600D02*
X4547990Y1018420D01*
X4535120Y1026880D01*
X4520640Y1029000D01*
X4507770Y1026880D01*
X4494910Y1016300D01*
X4486870Y1003600D01*
X4485260Y990900D01*
X4488470Y976090D01*
X4499730Y965500D01*
X4510990Y961270D01*
X4525470D01*
G01X4510990D02*
X4501340Y954920D01*
X4493300Y944340D01*
X4490080Y931630D01*
X4493300Y918930D01*
X4501340Y908350D01*
X4515820Y902000D01*
X4530290Y904120D01*
X4544770Y912580D01*
G01X4423310Y976090D02*
X4412050Y961270D01*
X4402400Y952800D01*
X4389530Y948570D01*
X4378270Y952800D01*
X4370230Y961270D01*
X4363800Y973970D01*
X4362190Y988780D01*
X4363800Y1001490D01*
X4370230Y1014190D01*
X4379880Y1024770D01*
X4391140Y1029000D01*
X4404010Y1024770D01*
X4415270Y1012070D01*
X4421700Y993020D01*
X4423310Y971850D01*
X4420090Y944340D01*
X4415270Y929510D01*
X4407230Y914700D01*
X4395970Y904120D01*
X4384710Y902000D01*
X4373450Y906230D01*
X4365410Y916820D01*
G01X4559420Y1668370D02*
X4565770Y1678020D01*
X4570000Y1689270D01*
Y1702140D01*
X4563650Y1716620D01*
X4553070Y1727870D01*
X4540370Y1735920D01*
X4519200Y1742350D01*
X4500150Y1743960D01*
X4481100Y1740740D01*
X4468400Y1735920D01*
X4455700Y1726270D01*
X4447230Y1715010D01*
X4443000Y1703750D01*
Y1692490D01*
X4447230Y1681230D01*
X4453580Y1671580D01*
X4462050Y1663540D01*
G01X4443000Y1574250D02*
X4445120Y1562990D01*
X4451460Y1550130D01*
X4462050Y1542080D01*
X4476870Y1538870D01*
X4491680Y1542080D01*
X4504380Y1551730D01*
X4510730Y1566210D01*
Y1582290D01*
X4514970Y1591940D01*
X4525550Y1599990D01*
X4540370Y1603200D01*
X4555180Y1598370D01*
X4565770Y1587120D01*
X4570000Y1574250D01*
X4565770Y1561380D01*
X4555180Y1550130D01*
X4540370Y1545300D01*
X4525550Y1548520D01*
X4514970Y1556560D01*
X4510730Y1566210D01*
Y1582290D01*
X4504380Y1596770D01*
X4491680Y1606420D01*
X4476870Y1609630D01*
X4462050Y1606420D01*
X4451460Y1598370D01*
X4445120Y1585510D01*
X4443000Y1574250D01*
G01Y1425450D02*
X4570000D01*
X4478980Y1484960D01*
Y1404540D01*
G01X4607420Y1670370D02*
X4613770Y1680020D01*
X4618000Y1691270D01*
Y1704140D01*
X4611650Y1718620D01*
X4601070Y1729870D01*
X4588370Y1737920D01*
X4567200Y1744350D01*
X4548150Y1745960D01*
X4529100Y1742740D01*
X4516400Y1737920D01*
X4503700Y1728270D01*
X4495230Y1717010D01*
X4491000Y1705750D01*
Y1694490D01*
X4495230Y1683230D01*
X4501580Y1673580D01*
X4510050Y1665540D01*
G01X4491000Y1576250D02*
X4493120Y1564990D01*
X4499460Y1552130D01*
X4510050Y1544080D01*
X4524870Y1540870D01*
X4539680Y1544080D01*
X4552380Y1553730D01*
X4558730Y1568210D01*
Y1584290D01*
X4562970Y1593940D01*
X4573550Y1601990D01*
X4588370Y1605200D01*
X4603180Y1600370D01*
X4613770Y1589120D01*
X4618000Y1576250D01*
X4613770Y1563380D01*
X4603180Y1552130D01*
X4588370Y1547300D01*
X4573550Y1550520D01*
X4562970Y1558560D01*
X4558730Y1568210D01*
Y1584290D01*
X4552380Y1598770D01*
X4539680Y1608420D01*
X4524870Y1611630D01*
X4510050Y1608420D01*
X4499460Y1600370D01*
X4493120Y1587510D01*
X4491000Y1576250D01*
G01X4510050Y1482130D02*
X4499460Y1472490D01*
X4493120Y1461230D01*
X4491000Y1446750D01*
X4495230Y1432270D01*
X4503700Y1421020D01*
X4518510Y1412970D01*
X4535450Y1411370D01*
X4552380Y1414580D01*
X4562970Y1422630D01*
X4571430Y1433880D01*
X4573550Y1445140D01*
X4571430Y1456400D01*
X4562970Y1470870D01*
X4618000Y1466050D01*
Y1422630D01*
G01X4659420Y1667370D02*
X4665770Y1677020D01*
X4670000Y1688270D01*
Y1701140D01*
X4663650Y1715620D01*
X4653070Y1726870D01*
X4640370Y1734920D01*
X4619200Y1741350D01*
X4600150Y1742960D01*
X4581100Y1739740D01*
X4568400Y1734920D01*
X4555700Y1725270D01*
X4547230Y1714010D01*
X4543000Y1702750D01*
Y1691490D01*
X4547230Y1680230D01*
X4553580Y1670580D01*
X4562050Y1662540D01*
G01X4543000Y1573250D02*
X4545120Y1561990D01*
X4551460Y1549130D01*
X4562050Y1541080D01*
X4576870Y1537870D01*
X4591680Y1541080D01*
X4604380Y1550730D01*
X4610730Y1565210D01*
Y1581290D01*
X4614970Y1590940D01*
X4625550Y1598990D01*
X4640370Y1602200D01*
X4655180Y1597370D01*
X4665770Y1586120D01*
X4670000Y1573250D01*
X4665770Y1560380D01*
X4655180Y1549130D01*
X4640370Y1544300D01*
X4625550Y1547520D01*
X4614970Y1555560D01*
X4610730Y1565210D01*
Y1581290D01*
X4604380Y1595770D01*
X4591680Y1605420D01*
X4576870Y1608630D01*
X4562050Y1605420D01*
X4551460Y1597370D01*
X4545120Y1584510D01*
X4543000Y1573250D01*
G01Y1443750D02*
X4545120Y1432490D01*
X4551460Y1419630D01*
X4562050Y1411580D01*
X4576870Y1408370D01*
X4591680Y1411580D01*
X4604380Y1421230D01*
X4610730Y1435710D01*
Y1451790D01*
X4614970Y1461440D01*
X4625550Y1469490D01*
X4640370Y1472700D01*
X4655180Y1467870D01*
X4665770Y1456620D01*
X4670000Y1443750D01*
X4665770Y1430880D01*
X4655180Y1419630D01*
X4640370Y1414800D01*
X4625550Y1418020D01*
X4614970Y1426060D01*
X4610730Y1435710D01*
Y1451790D01*
X4604380Y1466270D01*
X4591680Y1475920D01*
X4576870Y1479130D01*
X4562050Y1475920D01*
X4551460Y1467870D01*
X4545120Y1455010D01*
X4543000Y1443750D01*
G01X4784920Y2037000D02*
Y1910000D01*
X4744710D01*
X4731840Y1916350D01*
X4723800Y1924820D01*
X4720580Y1941750D01*
X4723800Y1958680D01*
X4733450Y1969270D01*
X4744710Y1975620D01*
X4784920D01*
G01X4744710D02*
X4720580Y2037000D01*
G01X4650590Y2022190D02*
X4639330Y2032770D01*
X4626470Y2037000D01*
X4613600Y2032770D01*
X4602340Y2020070D01*
X4594300Y2001020D01*
X4591080Y1981970D01*
Y1958680D01*
X4594300Y1939630D01*
X4602340Y1922700D01*
X4611990Y1914230D01*
X4623250Y1910000D01*
X4636120Y1914230D01*
X4645770Y1922700D01*
X4652200Y1935400D01*
X4655420Y1952340D01*
X4652200Y1967150D01*
X4644160Y1981970D01*
X4634510Y1990440D01*
X4623250Y1992550D01*
X4610380Y1988320D01*
X4600730Y1977730D01*
X4591080Y1958680D01*
G01X4529130Y2017950D02*
X4519490Y2028540D01*
X4508230Y2034880D01*
X4493750Y2037000D01*
X4479270Y2032770D01*
X4468020Y2024300D01*
X4459970Y2009490D01*
X4458370Y1992550D01*
X4461580Y1975620D01*
X4469630Y1965030D01*
X4480880Y1956570D01*
X4492140Y1954450D01*
X4503400Y1956570D01*
X4517870Y1965030D01*
X4513050Y1910000D01*
X4469630D01*
G01X4599420Y2397370D02*
X4605770Y2407020D01*
X4610000Y2418270D01*
Y2431140D01*
X4603650Y2445620D01*
X4593070Y2456870D01*
X4580370Y2464920D01*
X4559200Y2471350D01*
X4540150Y2472960D01*
X4521100Y2469740D01*
X4508400Y2464920D01*
X4495700Y2455270D01*
X4487230Y2444010D01*
X4483000Y2432750D01*
Y2421490D01*
X4487230Y2410230D01*
X4493580Y2400580D01*
X4502050Y2392540D01*
G01X4483000Y2306470D02*
X4510510Y2303250D01*
X4533800Y2298420D01*
X4554970Y2291990D01*
X4578250Y2283950D01*
X4610000Y2271080D01*
Y2335420D01*
G01X4535910Y2204310D02*
X4550730Y2193050D01*
X4559200Y2183400D01*
X4563430Y2170530D01*
X4559200Y2159270D01*
X4550730Y2151230D01*
X4538030Y2144800D01*
X4523220Y2143190D01*
X4510510Y2144800D01*
X4497810Y2151230D01*
X4487230Y2160880D01*
X4483000Y2172140D01*
X4487230Y2185010D01*
X4499930Y2196270D01*
X4518980Y2202700D01*
X4540150Y2204310D01*
X4567660Y2201090D01*
X4582490Y2196270D01*
X4597300Y2188230D01*
X4607880Y2176970D01*
X4610000Y2165710D01*
X4605770Y2154450D01*
X4595180Y2146410D01*
G01X4544420Y2397370D02*
X4550770Y2407020D01*
X4555000Y2418270D01*
Y2431140D01*
X4548650Y2445620D01*
X4538070Y2456870D01*
X4525370Y2464920D01*
X4504200Y2471350D01*
X4485150Y2472960D01*
X4466100Y2469740D01*
X4453400Y2464920D01*
X4440700Y2455270D01*
X4432230Y2444010D01*
X4428000Y2432750D01*
Y2421490D01*
X4432230Y2410230D01*
X4438580Y2400580D01*
X4447050Y2392540D01*
G01X4428000Y2306470D02*
X4455510Y2303250D01*
X4478800Y2298420D01*
X4499970Y2291990D01*
X4523250Y2283950D01*
X4555000Y2271080D01*
Y2335420D01*
G01X4428000Y2176970D02*
X4455510Y2173750D01*
X4478800Y2168920D01*
X4499970Y2162490D01*
X4523250Y2154450D01*
X4555000Y2141580D01*
Y2205920D01*
G01X4647420Y2394370D02*
X4653770Y2404020D01*
X4658000Y2415270D01*
Y2428140D01*
X4651650Y2442620D01*
X4641070Y2453870D01*
X4628370Y2461920D01*
X4607200Y2468350D01*
X4588150Y2469960D01*
X4569100Y2466740D01*
X4556400Y2461920D01*
X4543700Y2452270D01*
X4535230Y2441010D01*
X4531000Y2429750D01*
Y2418490D01*
X4535230Y2407230D01*
X4541580Y2397580D01*
X4550050Y2389540D01*
G01X4531000Y2303470D02*
X4558510Y2300250D01*
X4581800Y2295420D01*
X4602970Y2288990D01*
X4626250Y2280950D01*
X4658000Y2268080D01*
Y2332420D01*
G01X4531000Y2170750D02*
X4533120Y2159490D01*
X4539460Y2146630D01*
X4550050Y2138580D01*
X4564870Y2135370D01*
X4579680Y2138580D01*
X4592380Y2148230D01*
X4598730Y2162710D01*
Y2178790D01*
X4602970Y2188440D01*
X4613550Y2196490D01*
X4628370Y2199700D01*
X4643180Y2194870D01*
X4653770Y2183620D01*
X4658000Y2170750D01*
X4653770Y2157880D01*
X4643180Y2146630D01*
X4628370Y2141800D01*
X4613550Y2145020D01*
X4602970Y2153060D01*
X4598730Y2162710D01*
Y2178790D01*
X4592380Y2193270D01*
X4579680Y2202920D01*
X4564870Y2206130D01*
X4550050Y2202920D01*
X4539460Y2194870D01*
X4533120Y2182010D01*
X4531000Y2170750D01*
G01X4495000Y2314080D02*
X4368000D01*
Y2354290D01*
X4374350Y2367160D01*
X4382820Y2375200D01*
X4399750Y2378420D01*
X4416680Y2375200D01*
X4427270Y2365550D01*
X4433620Y2354290D01*
Y2314080D01*
G01Y2354290D02*
X4495000Y2378420D01*
G01Y2475750D02*
X4368000D01*
X4393400Y2456450D01*
G01X4495000D02*
Y2495050D01*
G01X4368000Y2605250D02*
X4372230Y2592380D01*
X4382820Y2582730D01*
X4395510Y2576300D01*
X4412450Y2571470D01*
X4431500Y2569870D01*
X4450550Y2571470D01*
X4467490Y2576300D01*
X4480190Y2582730D01*
X4490770Y2592380D01*
X4495000Y2605250D01*
X4490770Y2618120D01*
X4480190Y2627770D01*
X4467490Y2634200D01*
X4450550Y2639030D01*
X4431500Y2640630D01*
X4412450Y2639030D01*
X4395510Y2634200D01*
X4382820Y2627770D01*
X4372230Y2618120D01*
X4368000Y2605250D01*
G01Y2734750D02*
X4372230Y2721880D01*
X4382820Y2712230D01*
X4395510Y2705800D01*
X4412450Y2700970D01*
X4431500Y2699370D01*
X4450550Y2700970D01*
X4467490Y2705800D01*
X4480190Y2712230D01*
X4490770Y2721880D01*
X4495000Y2734750D01*
X4490770Y2747620D01*
X4480190Y2757270D01*
X4467490Y2763700D01*
X4450550Y2768530D01*
X4431500Y2770130D01*
X4412450Y2768530D01*
X4395510Y2763700D01*
X4382820Y2757270D01*
X4372230Y2747620D01*
X4368000Y2734750D01*
G01X4546000Y2315080D02*
X4419000D01*
Y2355290D01*
X4425350Y2368160D01*
X4433820Y2376200D01*
X4450750Y2379420D01*
X4467680Y2376200D01*
X4478270Y2366550D01*
X4484620Y2355290D01*
Y2315080D01*
G01Y2355290D02*
X4546000Y2379420D01*
G01Y2476750D02*
X4419000D01*
X4444400Y2457450D01*
G01X4546000D02*
Y2496050D01*
G01X4419000Y2606250D02*
X4423230Y2593380D01*
X4433820Y2583730D01*
X4446510Y2577300D01*
X4463450Y2572470D01*
X4482500Y2570870D01*
X4501550Y2572470D01*
X4518490Y2577300D01*
X4531190Y2583730D01*
X4541770Y2593380D01*
X4546000Y2606250D01*
X4541770Y2619120D01*
X4531190Y2628770D01*
X4518490Y2635200D01*
X4501550Y2640030D01*
X4482500Y2641630D01*
X4463450Y2640030D01*
X4446510Y2635200D01*
X4433820Y2628770D01*
X4423230Y2619120D01*
X4419000Y2606250D01*
G01X4546000Y2735750D02*
X4419000D01*
X4444400Y2716450D01*
G01X4546000D02*
Y2755050D01*
G01X4431080Y2332000D02*
Y2459000D01*
X4471290D01*
X4484160Y2452650D01*
X4492200Y2444180D01*
X4495420Y2427250D01*
X4492200Y2410320D01*
X4482550Y2399730D01*
X4471290Y2393380D01*
X4431080D01*
G01X4471290D02*
X4495420Y2332000D01*
G01X4565410Y2346810D02*
X4576670Y2336230D01*
X4589530Y2332000D01*
X4602400Y2336230D01*
X4613660Y2348930D01*
X4621700Y2367980D01*
X4624920Y2387030D01*
Y2410320D01*
X4621700Y2429370D01*
X4613660Y2446300D01*
X4604010Y2454770D01*
X4592750Y2459000D01*
X4579880Y2454770D01*
X4570230Y2446300D01*
X4563800Y2433600D01*
X4560580Y2416660D01*
X4563800Y2401850D01*
X4571840Y2387030D01*
X4581490Y2378560D01*
X4592750Y2376450D01*
X4605620Y2380680D01*
X4615270Y2391270D01*
X4624920Y2410320D01*
G01X4686870Y2357400D02*
X4696510Y2342580D01*
X4709380Y2334120D01*
X4723860Y2332000D01*
X4736730Y2334120D01*
X4749590Y2344700D01*
X4757630Y2357400D01*
X4759240Y2370100D01*
X4756030Y2384910D01*
X4744770Y2395500D01*
X4733510Y2399730D01*
X4719030D01*
G01X4733510D02*
X4743160Y2406080D01*
X4751200Y2416660D01*
X4754420Y2429370D01*
X4751200Y2442070D01*
X4743160Y2452650D01*
X4728680Y2459000D01*
X4714210Y2456880D01*
X4699730Y2448420D01*
G01X4771920Y2746000D02*
Y2619000D01*
X4731710D01*
X4718840Y2625350D01*
X4710800Y2633820D01*
X4707580Y2650750D01*
X4710800Y2667680D01*
X4720450Y2678270D01*
X4731710Y2684620D01*
X4771920D01*
G01X4731710D02*
X4707580Y2746000D01*
G01X4613470D02*
X4610250Y2718490D01*
X4605420Y2695200D01*
X4598990Y2674030D01*
X4590950Y2650750D01*
X4578080Y2619000D01*
X4642420D01*
G01X4516130Y2726950D02*
X4506490Y2737540D01*
X4495230Y2743880D01*
X4480750Y2746000D01*
X4466270Y2741770D01*
X4455020Y2733300D01*
X4446970Y2718490D01*
X4445370Y2701550D01*
X4448580Y2684620D01*
X4456630Y2674030D01*
X4467880Y2665570D01*
X4479140Y2663450D01*
X4490400Y2665570D01*
X4504870Y2674030D01*
X4500050Y2619000D01*
X4456630D01*
G01X4742370Y3146580D02*
X4752020Y3140230D01*
X4763270Y3136000D01*
X4776140D01*
X4790620Y3142350D01*
X4801870Y3152930D01*
X4809920Y3165630D01*
X4816350Y3186800D01*
X4817960Y3205850D01*
X4814740Y3224900D01*
X4809920Y3237600D01*
X4800270Y3250300D01*
X4789010Y3258770D01*
X4777750Y3263000D01*
X4766490D01*
X4755230Y3258770D01*
X4745580Y3252420D01*
X4737540Y3243950D01*
G01X4683630D02*
X4673990Y3254540D01*
X4662730Y3260880D01*
X4648250Y3263000D01*
X4633770Y3258770D01*
X4622520Y3250300D01*
X4614470Y3235490D01*
X4612870Y3218550D01*
X4616080Y3201620D01*
X4624130Y3191030D01*
X4635380Y3182570D01*
X4646640Y3180450D01*
X4657900Y3182570D01*
X4672370Y3191030D01*
X4667550Y3136000D01*
X4624130D01*
G01X4521970Y3263000D02*
X4518750Y3235490D01*
X4513920Y3212200D01*
X4507490Y3191030D01*
X4499450Y3167750D01*
X4486580Y3136000D01*
X4550920D01*
G01X4478000Y3025080D02*
X4351000D01*
Y3065290D01*
X4357350Y3078160D01*
X4365820Y3086200D01*
X4382750Y3089420D01*
X4399680Y3086200D01*
X4410270Y3076550D01*
X4416620Y3065290D01*
Y3025080D01*
G01Y3065290D02*
X4478000Y3089420D01*
G01Y3186750D02*
X4475880Y3198010D01*
X4469540Y3210870D01*
X4458950Y3218920D01*
X4444130Y3222130D01*
X4429320Y3218920D01*
X4416620Y3209270D01*
X4410270Y3194790D01*
Y3178710D01*
X4406030Y3169060D01*
X4395450Y3161010D01*
X4380630Y3157800D01*
X4365820Y3162630D01*
X4355230Y3173880D01*
X4351000Y3186750D01*
X4355230Y3199620D01*
X4365820Y3210870D01*
X4380630Y3215700D01*
X4395450Y3212480D01*
X4406030Y3204440D01*
X4410270Y3194790D01*
Y3178710D01*
X4416620Y3164230D01*
X4429320Y3154580D01*
X4444130Y3151370D01*
X4458950Y3154580D01*
X4469540Y3162630D01*
X4475880Y3175490D01*
X4478000Y3186750D01*
G01X4351000Y3316250D02*
X4355230Y3303380D01*
X4365820Y3293730D01*
X4378510Y3287300D01*
X4395450Y3282470D01*
X4414500Y3280870D01*
X4433550Y3282470D01*
X4450490Y3287300D01*
X4463190Y3293730D01*
X4473770Y3303380D01*
X4478000Y3316250D01*
X4473770Y3329120D01*
X4463190Y3338770D01*
X4450490Y3345200D01*
X4433550Y3350030D01*
X4414500Y3351630D01*
X4395450Y3350030D01*
X4378510Y3345200D01*
X4365820Y3338770D01*
X4355230Y3329120D01*
X4351000Y3316250D01*
G01X4531000Y3025080D02*
X4404000D01*
Y3065290D01*
X4410350Y3078160D01*
X4418820Y3086200D01*
X4435750Y3089420D01*
X4452680Y3086200D01*
X4463270Y3076550D01*
X4469620Y3065290D01*
Y3025080D01*
G01Y3065290D02*
X4531000Y3089420D01*
G01Y3186750D02*
X4528880Y3198010D01*
X4522540Y3210870D01*
X4511950Y3218920D01*
X4497130Y3222130D01*
X4482320Y3218920D01*
X4469620Y3209270D01*
X4463270Y3194790D01*
Y3178710D01*
X4459030Y3169060D01*
X4448450Y3161010D01*
X4433630Y3157800D01*
X4418820Y3162630D01*
X4408230Y3173880D01*
X4404000Y3186750D01*
X4408230Y3199620D01*
X4418820Y3210870D01*
X4433630Y3215700D01*
X4448450Y3212480D01*
X4459030Y3204440D01*
X4463270Y3194790D01*
Y3178710D01*
X4469620Y3164230D01*
X4482320Y3154580D01*
X4497130Y3151370D01*
X4511950Y3154580D01*
X4522540Y3162630D01*
X4528880Y3175490D01*
X4531000Y3186750D01*
G01Y3316250D02*
X4404000D01*
X4429400Y3296950D01*
G01X4531000D02*
Y3335550D01*
G01X4809920Y3433000D02*
Y3306000D01*
X4769710D01*
X4756840Y3312350D01*
X4748800Y3320820D01*
X4745580Y3337750D01*
X4748800Y3354680D01*
X4758450Y3365270D01*
X4769710Y3371620D01*
X4809920D01*
G01X4769710D02*
X4745580Y3433000D01*
G01X4683630Y3413950D02*
X4673990Y3424540D01*
X4662730Y3430880D01*
X4648250Y3433000D01*
X4633770Y3428770D01*
X4622520Y3420300D01*
X4614470Y3405490D01*
X4612870Y3388550D01*
X4616080Y3371620D01*
X4624130Y3361030D01*
X4635380Y3352570D01*
X4646640Y3350450D01*
X4657900Y3352570D01*
X4672370Y3361030D01*
X4667550Y3306000D01*
X4624130D01*
G01X4546090Y3418190D02*
X4534830Y3428770D01*
X4521970Y3433000D01*
X4509100Y3428770D01*
X4497840Y3416070D01*
X4489800Y3397020D01*
X4486580Y3377970D01*
Y3354680D01*
X4489800Y3335630D01*
X4497840Y3318700D01*
X4507490Y3310230D01*
X4518750Y3306000D01*
X4531620Y3310230D01*
X4541270Y3318700D01*
X4547700Y3331400D01*
X4550920Y3348340D01*
X4547700Y3363150D01*
X4539660Y3377970D01*
X4530010Y3386440D01*
X4518750Y3388550D01*
X4505880Y3384320D01*
X4496230Y3373730D01*
X4486580Y3354680D01*
G01X4380080Y3753000D02*
Y3880000D01*
X4420290D01*
X4433160Y3873650D01*
X4441200Y3865180D01*
X4444420Y3848250D01*
X4441200Y3831320D01*
X4431550Y3820730D01*
X4420290Y3814380D01*
X4380080D01*
G01X4420290D02*
X4444420Y3753000D01*
G01X4506370Y3772050D02*
X4516010Y3761460D01*
X4527270Y3755120D01*
X4541750Y3753000D01*
X4556230Y3757230D01*
X4567480Y3765700D01*
X4575530Y3780510D01*
X4577130Y3797450D01*
X4573920Y3814380D01*
X4565870Y3824970D01*
X4554620Y3833430D01*
X4543360Y3835550D01*
X4532100Y3833430D01*
X4517630Y3824970D01*
X4522450Y3880000D01*
X4565870D01*
G01X4671250Y3753000D02*
X4682510Y3755120D01*
X4695370Y3761460D01*
X4703420Y3772050D01*
X4706630Y3786870D01*
X4703420Y3801680D01*
X4693770Y3814380D01*
X4679290Y3820730D01*
X4663210D01*
X4653560Y3824970D01*
X4645510Y3835550D01*
X4642300Y3850370D01*
X4647130Y3865180D01*
X4658380Y3875770D01*
X4671250Y3880000D01*
X4684120Y3875770D01*
X4695370Y3865180D01*
X4700200Y3850370D01*
X4696980Y3835550D01*
X4688940Y3824970D01*
X4679290Y3820730D01*
X4663210D01*
X4648730Y3814380D01*
X4639080Y3801680D01*
X4635870Y3786870D01*
X4639080Y3772050D01*
X4647130Y3761460D01*
X4659990Y3755120D01*
X4671250Y3753000D01*
G01X4433630Y4520420D02*
X4423980Y4526770D01*
X4412730Y4531000D01*
X4399860D01*
X4385380Y4524650D01*
X4374130Y4514070D01*
X4366080Y4501370D01*
X4359650Y4480200D01*
X4358040Y4461150D01*
X4361260Y4442100D01*
X4366080Y4429400D01*
X4375730Y4416700D01*
X4386990Y4408230D01*
X4398250Y4404000D01*
X4409510D01*
X4420770Y4408230D01*
X4430420Y4414580D01*
X4438460Y4423050D01*
G01X4492370D02*
X4502010Y4412460D01*
X4513270Y4406120D01*
X4527750Y4404000D01*
X4542230Y4408230D01*
X4553480Y4416700D01*
X4561530Y4431510D01*
X4563130Y4448450D01*
X4559920Y4465380D01*
X4551870Y4475970D01*
X4540620Y4484430D01*
X4529360Y4486550D01*
X4518100Y4484430D01*
X4503630Y4475970D01*
X4508450Y4531000D01*
X4551870D01*
G01X4621870Y4429400D02*
X4631510Y4414580D01*
X4644380Y4406120D01*
X4658860Y4404000D01*
X4671730Y4406120D01*
X4684590Y4416700D01*
X4692630Y4429400D01*
X4694240Y4442100D01*
X4691030Y4456910D01*
X4679770Y4467500D01*
X4668510Y4471730D01*
X4654030D01*
G01X4668510D02*
X4678160Y4478080D01*
X4686200Y4488660D01*
X4689420Y4501370D01*
X4686200Y4514070D01*
X4678160Y4524650D01*
X4663680Y4531000D01*
X4649210Y4528880D01*
X4634730Y4520420D01*
G01X4366080Y4351000D02*
Y4478000D01*
X4406290D01*
X4419160Y4471650D01*
X4427200Y4463180D01*
X4430420Y4446250D01*
X4427200Y4429320D01*
X4417550Y4418730D01*
X4406290Y4412380D01*
X4366080D01*
G01X4406290D02*
X4430420Y4351000D01*
G01X4492370Y4370050D02*
X4502010Y4359460D01*
X4513270Y4353120D01*
X4527750Y4351000D01*
X4542230Y4355230D01*
X4553480Y4363700D01*
X4561530Y4378510D01*
X4563130Y4395450D01*
X4559920Y4412380D01*
X4551870Y4422970D01*
X4540620Y4431430D01*
X4529360Y4433550D01*
X4518100Y4431430D01*
X4503630Y4422970D01*
X4508450Y4478000D01*
X4551870D01*
G01X4654030Y4351000D02*
X4657250Y4378510D01*
X4662080Y4401800D01*
X4668510Y4422970D01*
X4676550Y4446250D01*
X4689420Y4478000D01*
X4625080D01*
G01X4507000Y4877920D02*
X4634000D01*
Y4837710D01*
X4627650Y4824840D01*
X4619180Y4816800D01*
X4602250Y4813580D01*
X4585320Y4816800D01*
X4574730Y4826450D01*
X4568380Y4837710D01*
Y4877920D01*
G01Y4837710D02*
X4507000Y4813580D01*
G01X4526050Y4751630D02*
X4515460Y4741990D01*
X4509120Y4730730D01*
X4507000Y4716250D01*
X4511230Y4701770D01*
X4519700Y4690520D01*
X4534510Y4682470D01*
X4551450Y4680870D01*
X4568380Y4684080D01*
X4578970Y4692130D01*
X4587430Y4703380D01*
X4589550Y4714640D01*
X4587430Y4725900D01*
X4578970Y4740370D01*
X4634000Y4735550D01*
Y4692130D01*
G01X4507000Y4567450D02*
X4634000D01*
X4542980Y4626960D01*
Y4546540D01*
G01X4443580Y4978630D02*
X4437230Y4968980D01*
X4433000Y4957730D01*
Y4944860D01*
X4439350Y4930380D01*
X4449930Y4919130D01*
X4462630Y4911080D01*
X4483800Y4904650D01*
X4502850Y4903040D01*
X4521900Y4906260D01*
X4534600Y4911080D01*
X4547300Y4920730D01*
X4555770Y4931990D01*
X4560000Y4943250D01*
Y4954510D01*
X4555770Y4965770D01*
X4549420Y4975420D01*
X4540950Y4983460D01*
G01Y5037370D02*
X4551540Y5047010D01*
X4557880Y5058270D01*
X4560000Y5072750D01*
X4555770Y5087230D01*
X4547300Y5098480D01*
X4532490Y5106530D01*
X4515550Y5108130D01*
X4498620Y5104920D01*
X4488030Y5096870D01*
X4479570Y5085620D01*
X4477450Y5074360D01*
X4479570Y5063100D01*
X4488030Y5048630D01*
X4433000Y5053450D01*
Y5096870D01*
G01X4454170Y5171690D02*
X4441470Y5181340D01*
X4435120Y5192600D01*
X4433000Y5205470D01*
X4437230Y5221550D01*
X4447820Y5232810D01*
X4460510Y5236030D01*
X4473220Y5234420D01*
X4483800Y5227980D01*
X4504970Y5195820D01*
X4519780Y5181340D01*
X4540950Y5171690D01*
X4560000Y5168470D01*
Y5236030D01*
G01X4705420Y1670370D02*
X4711770Y1680020D01*
X4716000Y1691270D01*
Y1704140D01*
X4709650Y1718620D01*
X4699070Y1729870D01*
X4686370Y1737920D01*
X4665200Y1744350D01*
X4646150Y1745960D01*
X4627100Y1742740D01*
X4614400Y1737920D01*
X4601700Y1728270D01*
X4593230Y1717010D01*
X4589000Y1705750D01*
Y1694490D01*
X4593230Y1683230D01*
X4599580Y1673580D01*
X4608050Y1665540D01*
G01X4589000Y1576250D02*
X4591120Y1564990D01*
X4597460Y1552130D01*
X4608050Y1544080D01*
X4622870Y1540870D01*
X4637680Y1544080D01*
X4650380Y1553730D01*
X4656730Y1568210D01*
Y1584290D01*
X4660970Y1593940D01*
X4671550Y1601990D01*
X4686370Y1605200D01*
X4701180Y1600370D01*
X4711770Y1589120D01*
X4716000Y1576250D01*
X4711770Y1563380D01*
X4701180Y1552130D01*
X4686370Y1547300D01*
X4671550Y1550520D01*
X4660970Y1558560D01*
X4656730Y1568210D01*
Y1584290D01*
X4650380Y1598770D01*
X4637680Y1608420D01*
X4622870Y1611630D01*
X4608050Y1608420D01*
X4597460Y1600370D01*
X4591120Y1587510D01*
X4589000Y1576250D01*
G01X4641910Y1477310D02*
X4656730Y1466050D01*
X4665200Y1456400D01*
X4669430Y1443530D01*
X4665200Y1432270D01*
X4656730Y1424230D01*
X4644030Y1417800D01*
X4629220Y1416190D01*
X4616510Y1417800D01*
X4603810Y1424230D01*
X4593230Y1433880D01*
X4589000Y1445140D01*
X4593230Y1458010D01*
X4605930Y1469270D01*
X4624980Y1475700D01*
X4646150Y1477310D01*
X4673660Y1474090D01*
X4688490Y1469270D01*
X4703300Y1461230D01*
X4713880Y1449970D01*
X4716000Y1438710D01*
X4711770Y1427450D01*
X4701180Y1419410D01*
G01X4758420Y1668370D02*
X4764770Y1678020D01*
X4769000Y1689270D01*
Y1702140D01*
X4762650Y1716620D01*
X4752070Y1727870D01*
X4739370Y1735920D01*
X4718200Y1742350D01*
X4699150Y1743960D01*
X4680100Y1740740D01*
X4667400Y1735920D01*
X4654700Y1726270D01*
X4646230Y1715010D01*
X4642000Y1703750D01*
Y1692490D01*
X4646230Y1681230D01*
X4652580Y1671580D01*
X4661050Y1663540D01*
G01X4642000Y1574250D02*
X4644120Y1562990D01*
X4650460Y1550130D01*
X4661050Y1542080D01*
X4675870Y1538870D01*
X4690680Y1542080D01*
X4703380Y1551730D01*
X4709730Y1566210D01*
Y1582290D01*
X4713970Y1591940D01*
X4724550Y1599990D01*
X4739370Y1603200D01*
X4754180Y1598370D01*
X4764770Y1587120D01*
X4769000Y1574250D01*
X4764770Y1561380D01*
X4754180Y1550130D01*
X4739370Y1545300D01*
X4724550Y1548520D01*
X4713970Y1556560D01*
X4709730Y1566210D01*
Y1582290D01*
X4703380Y1596770D01*
X4690680Y1606420D01*
X4675870Y1609630D01*
X4661050Y1606420D01*
X4650460Y1598370D01*
X4644120Y1585510D01*
X4642000Y1574250D01*
G01Y1447970D02*
X4669510Y1444750D01*
X4692800Y1439920D01*
X4713970Y1433490D01*
X4737250Y1425450D01*
X4769000Y1412580D01*
Y1476920D01*
G01X4747420Y2393370D02*
X4753770Y2403020D01*
X4758000Y2414270D01*
Y2427140D01*
X4751650Y2441620D01*
X4741070Y2452870D01*
X4728370Y2460920D01*
X4707200Y2467350D01*
X4688150Y2468960D01*
X4669100Y2465740D01*
X4656400Y2460920D01*
X4643700Y2451270D01*
X4635230Y2440010D01*
X4631000Y2428750D01*
Y2417490D01*
X4635230Y2406230D01*
X4641580Y2396580D01*
X4650050Y2388540D01*
G01X4631000Y2302470D02*
X4658510Y2299250D01*
X4681800Y2294420D01*
X4702970Y2287990D01*
X4726250Y2279950D01*
X4758000Y2267080D01*
Y2331420D01*
G01X4650050Y2205130D02*
X4639460Y2195490D01*
X4633120Y2184230D01*
X4631000Y2169750D01*
X4635230Y2155270D01*
X4643700Y2144020D01*
X4658510Y2135970D01*
X4675450Y2134370D01*
X4692380Y2137580D01*
X4702970Y2145630D01*
X4711430Y2156880D01*
X4713550Y2168140D01*
X4711430Y2179400D01*
X4702970Y2193870D01*
X4758000Y2189050D01*
Y2145630D01*
G01X4698420Y2394370D02*
X4704770Y2404020D01*
X4709000Y2415270D01*
Y2428140D01*
X4702650Y2442620D01*
X4692070Y2453870D01*
X4679370Y2461920D01*
X4658200Y2468350D01*
X4639150Y2469960D01*
X4620100Y2466740D01*
X4607400Y2461920D01*
X4594700Y2452270D01*
X4586230Y2441010D01*
X4582000Y2429750D01*
Y2418490D01*
X4586230Y2407230D01*
X4592580Y2397580D01*
X4601050Y2389540D01*
G01X4582000Y2303470D02*
X4609510Y2300250D01*
X4632800Y2295420D01*
X4653970Y2288990D01*
X4677250Y2280950D01*
X4709000Y2268080D01*
Y2332420D01*
G01X4582000Y2151450D02*
X4709000D01*
X4617980Y2210960D01*
Y2130540D01*
G01X4685080Y2280000D02*
Y2407000D01*
X4725290D01*
X4738160Y2400650D01*
X4746200Y2392180D01*
X4749420Y2375250D01*
X4746200Y2358320D01*
X4736550Y2347730D01*
X4725290Y2341380D01*
X4685080D01*
G01X4725290D02*
X4749420Y2280000D01*
G01X4819410Y2294810D02*
X4830670Y2284230D01*
X4843530Y2280000D01*
X4856400Y2284230D01*
X4867660Y2296930D01*
X4875700Y2315980D01*
X4878920Y2335030D01*
Y2358320D01*
X4875700Y2377370D01*
X4867660Y2394300D01*
X4858010Y2402770D01*
X4846750Y2407000D01*
X4833880Y2402770D01*
X4824230Y2394300D01*
X4817800Y2381600D01*
X4814580Y2364660D01*
X4817800Y2349850D01*
X4825840Y2335030D01*
X4835490Y2326560D01*
X4846750Y2324450D01*
X4859620Y2328680D01*
X4869270Y2339270D01*
X4878920Y2358320D01*
G01X4948910Y2294810D02*
X4960170Y2284230D01*
X4973030Y2280000D01*
X4985900Y2284230D01*
X4997160Y2296930D01*
X5005200Y2315980D01*
X5008420Y2335030D01*
Y2358320D01*
X5005200Y2377370D01*
X4997160Y2394300D01*
X4987510Y2402770D01*
X4976250Y2407000D01*
X4963380Y2402770D01*
X4953730Y2394300D01*
X4947300Y2381600D01*
X4944080Y2364660D01*
X4947300Y2349850D01*
X4955340Y2335030D01*
X4964990Y2326560D01*
X4976250Y2324450D01*
X4989120Y2328680D01*
X4998770Y2339270D01*
X5008420Y2358320D01*
G01X4765000Y2928080D02*
X4638000D01*
Y2968290D01*
X4644350Y2981160D01*
X4652820Y2989200D01*
X4669750Y2992420D01*
X4686680Y2989200D01*
X4697270Y2979550D01*
X4703620Y2968290D01*
Y2928080D01*
G01Y2968290D02*
X4765000Y2992420D01*
G01Y3086530D02*
X4737490Y3089750D01*
X4714200Y3094580D01*
X4693030Y3101010D01*
X4669750Y3109050D01*
X4638000Y3121920D01*
Y3057580D01*
G01X4659170Y3188690D02*
X4646470Y3198340D01*
X4640120Y3209600D01*
X4638000Y3222470D01*
X4642230Y3238550D01*
X4652820Y3249810D01*
X4665510Y3253030D01*
X4678220Y3251420D01*
X4688800Y3244980D01*
X4709970Y3212820D01*
X4724780Y3198340D01*
X4745950Y3188690D01*
X4765000Y3185470D01*
Y3253030D01*
G01X4680080Y2987000D02*
Y3114000D01*
X4720290D01*
X4733160Y3107650D01*
X4741200Y3099180D01*
X4744420Y3082250D01*
X4741200Y3065320D01*
X4731550Y3054730D01*
X4720290Y3048380D01*
X4680080D01*
G01X4720290D02*
X4744420Y2987000D01*
G01X4838530D02*
X4841750Y3014510D01*
X4846580Y3037800D01*
X4853010Y3058970D01*
X4861050Y3082250D01*
X4873920Y3114000D01*
X4809580D01*
G01X4943910Y3001810D02*
X4955170Y2991230D01*
X4968030Y2987000D01*
X4980900Y2991230D01*
X4992160Y3003930D01*
X5000200Y3022980D01*
X5003420Y3042030D01*
Y3065320D01*
X5000200Y3084370D01*
X4992160Y3101300D01*
X4982510Y3109770D01*
X4971250Y3114000D01*
X4958380Y3109770D01*
X4948730Y3101300D01*
X4942300Y3088600D01*
X4939080Y3071660D01*
X4942300Y3056850D01*
X4950340Y3042030D01*
X4959990Y3033560D01*
X4971250Y3031450D01*
X4984120Y3035680D01*
X4993770Y3046270D01*
X5003420Y3065320D01*
G01X4589000Y3965920D02*
X4716000D01*
Y3925710D01*
X4709650Y3912840D01*
X4701180Y3904800D01*
X4684250Y3901580D01*
X4667320Y3904800D01*
X4656730Y3914450D01*
X4650380Y3925710D01*
Y3965920D01*
G01Y3925710D02*
X4589000Y3901580D01*
G01X4608050Y3839630D02*
X4597460Y3829990D01*
X4591120Y3818730D01*
X4589000Y3804250D01*
X4593230Y3789770D01*
X4601700Y3778520D01*
X4616510Y3770470D01*
X4633450Y3768870D01*
X4650380Y3772080D01*
X4660970Y3780130D01*
X4669430Y3791380D01*
X4671550Y3802640D01*
X4669430Y3813900D01*
X4660970Y3828370D01*
X4716000Y3823550D01*
Y3780130D01*
G01X4694830Y3705310D02*
X4707530Y3695660D01*
X4713880Y3684400D01*
X4716000Y3671530D01*
X4711770Y3655450D01*
X4701180Y3644190D01*
X4688490Y3640970D01*
X4675780Y3642580D01*
X4665200Y3649020D01*
X4644030Y3681180D01*
X4629220Y3695660D01*
X4608050Y3705310D01*
X4589000Y3708530D01*
Y3640970D01*
G01X4638580Y4155630D02*
X4632230Y4145980D01*
X4628000Y4134730D01*
Y4121860D01*
X4634350Y4107380D01*
X4644930Y4096130D01*
X4657630Y4088080D01*
X4678800Y4081650D01*
X4697850Y4080040D01*
X4716900Y4083260D01*
X4729600Y4088080D01*
X4742300Y4097730D01*
X4750770Y4108990D01*
X4755000Y4120250D01*
Y4131510D01*
X4750770Y4142770D01*
X4744420Y4152420D01*
X4735950Y4160460D01*
G01X4755000Y4269050D02*
X4628000D01*
X4719020Y4209540D01*
Y4289960D01*
G01X4755000Y4376030D02*
X4727490Y4379250D01*
X4704200Y4384080D01*
X4683030Y4390510D01*
X4659750Y4398550D01*
X4628000Y4411420D01*
Y4347080D01*
G01X4539080Y4226000D02*
Y4353000D01*
X4579290D01*
X4592160Y4346650D01*
X4600200Y4338180D01*
X4603420Y4321250D01*
X4600200Y4304320D01*
X4590550Y4293730D01*
X4579290Y4287380D01*
X4539080D01*
G01X4579290D02*
X4603420Y4226000D01*
G01X4665370Y4245050D02*
X4675010Y4234460D01*
X4686270Y4228120D01*
X4700750Y4226000D01*
X4715230Y4230230D01*
X4726480Y4238700D01*
X4734530Y4253510D01*
X4736130Y4270450D01*
X4732920Y4287380D01*
X4724870Y4297970D01*
X4713620Y4306430D01*
X4702360Y4308550D01*
X4691100Y4306430D01*
X4676630Y4297970D01*
X4681450Y4353000D01*
X4724870D01*
G01X4794870Y4245050D02*
X4804510Y4234460D01*
X4815770Y4228120D01*
X4830250Y4226000D01*
X4844730Y4230230D01*
X4855980Y4238700D01*
X4864030Y4253510D01*
X4865630Y4270450D01*
X4862420Y4287380D01*
X4854370Y4297970D01*
X4843120Y4306430D01*
X4831860Y4308550D01*
X4820600Y4306430D01*
X4806130Y4297970D01*
X4810950Y4353000D01*
X4854370D01*
G01X4732630Y5045420D02*
X4722980Y5051770D01*
X4711730Y5056000D01*
X4698860D01*
X4684380Y5049650D01*
X4673130Y5039070D01*
X4665080Y5026370D01*
X4658650Y5005200D01*
X4657040Y4986150D01*
X4660260Y4967100D01*
X4665080Y4954400D01*
X4674730Y4941700D01*
X4685990Y4933230D01*
X4697250Y4929000D01*
X4708510D01*
X4719770Y4933230D01*
X4729420Y4939580D01*
X4737460Y4948050D01*
G01X4791370D02*
X4801010Y4937460D01*
X4812270Y4931120D01*
X4826750Y4929000D01*
X4841230Y4933230D01*
X4852480Y4941700D01*
X4860530Y4956510D01*
X4862130Y4973450D01*
X4858920Y4990380D01*
X4850870Y5000970D01*
X4839620Y5009430D01*
X4828360Y5011550D01*
X4817100Y5009430D01*
X4802630Y5000970D01*
X4807450Y5056000D01*
X4850870D01*
G01X4975550Y4929000D02*
Y5056000D01*
X4916040Y4964980D01*
X4996460D01*
G01X4820000Y1219920D02*
X4947000D01*
Y1179710D01*
X4940650Y1166840D01*
X4932180Y1158800D01*
X4915250Y1155580D01*
X4898320Y1158800D01*
X4887730Y1168450D01*
X4881380Y1179710D01*
Y1219920D01*
G01Y1179710D02*
X4820000Y1155580D01*
G01Y1038950D02*
X4947000D01*
X4855980Y1098460D01*
Y1018040D01*
G01X4820000Y928750D02*
X4947000D01*
X4921600Y948050D01*
G01X4820000D02*
Y909450D01*
G01X4789630Y1203420D02*
X4779980Y1209770D01*
X4768730Y1214000D01*
X4755860D01*
X4741380Y1207650D01*
X4730130Y1197070D01*
X4722080Y1184370D01*
X4715650Y1163200D01*
X4714040Y1144150D01*
X4717260Y1125100D01*
X4722080Y1112400D01*
X4731730Y1099700D01*
X4742990Y1091230D01*
X4754250Y1087000D01*
X4765510D01*
X4776770Y1091230D01*
X4786420Y1097580D01*
X4794460Y1106050D01*
G01X4853190Y1192830D02*
X4862840Y1205530D01*
X4874100Y1211880D01*
X4886970Y1214000D01*
X4903050Y1209770D01*
X4914310Y1199180D01*
X4917530Y1186490D01*
X4915920Y1173780D01*
X4909480Y1163200D01*
X4877320Y1142030D01*
X4862840Y1127220D01*
X4853190Y1106050D01*
X4849970Y1087000D01*
X4917530D01*
G01X4985910Y1101810D02*
X4997170Y1091230D01*
X5010030Y1087000D01*
X5022900Y1091230D01*
X5034160Y1103930D01*
X5042200Y1122980D01*
X5045420Y1142030D01*
Y1165320D01*
X5042200Y1184370D01*
X5034160Y1201300D01*
X5024510Y1209770D01*
X5013250Y1214000D01*
X5000380Y1209770D01*
X4990730Y1201300D01*
X4984300Y1188600D01*
X4981080Y1171660D01*
X4984300Y1156850D01*
X4992340Y1142030D01*
X5001990Y1133560D01*
X5013250Y1131450D01*
X5026120Y1135680D01*
X5035770Y1146270D01*
X5045420Y1165320D01*
G01X4772000Y1336920D02*
X4899000D01*
Y1296710D01*
X4892650Y1283840D01*
X4884180Y1275800D01*
X4867250Y1272580D01*
X4850320Y1275800D01*
X4839730Y1285450D01*
X4833380Y1296710D01*
Y1336920D01*
G01Y1296710D02*
X4772000Y1272580D01*
G01X4797400Y1210630D02*
X4782580Y1200990D01*
X4774120Y1188120D01*
X4772000Y1173640D01*
X4774120Y1160770D01*
X4784700Y1147910D01*
X4797400Y1139870D01*
X4810100Y1138260D01*
X4824910Y1141470D01*
X4835500Y1152730D01*
X4839730Y1163990D01*
Y1178470D01*
G01Y1163990D02*
X4846080Y1154340D01*
X4856660Y1146300D01*
X4869370Y1143080D01*
X4882070Y1146300D01*
X4892650Y1154340D01*
X4899000Y1168820D01*
X4896880Y1183290D01*
X4888420Y1197770D01*
G01X4786810Y1073090D02*
X4776230Y1061830D01*
X4772000Y1048970D01*
X4776230Y1036100D01*
X4788930Y1024840D01*
X4807980Y1016800D01*
X4827030Y1013580D01*
X4850320D01*
X4869370Y1016800D01*
X4886300Y1024840D01*
X4894770Y1034490D01*
X4899000Y1045750D01*
X4894770Y1058620D01*
X4886300Y1068270D01*
X4873600Y1074700D01*
X4856660Y1077920D01*
X4841850Y1074700D01*
X4827030Y1066660D01*
X4818560Y1057010D01*
X4816450Y1045750D01*
X4820680Y1032880D01*
X4831270Y1023230D01*
X4850320Y1013580D01*
G01X4815000Y1336920D02*
X4942000D01*
Y1296710D01*
X4935650Y1283840D01*
X4927180Y1275800D01*
X4910250Y1272580D01*
X4893320Y1275800D01*
X4882730Y1285450D01*
X4876380Y1296710D01*
Y1336920D01*
G01Y1296710D02*
X4815000Y1272580D01*
G01Y1155950D02*
X4942000D01*
X4850980Y1215460D01*
Y1135040D01*
G01X4942000Y1045750D02*
X4937770Y1058620D01*
X4927180Y1068270D01*
X4914490Y1074700D01*
X4897550Y1079530D01*
X4878500Y1081130D01*
X4859450Y1079530D01*
X4842510Y1074700D01*
X4829810Y1068270D01*
X4819230Y1058620D01*
X4815000Y1045750D01*
X4819230Y1032880D01*
X4829810Y1023230D01*
X4842510Y1016800D01*
X4859450Y1011970D01*
X4878500Y1010370D01*
X4897550Y1011970D01*
X4914490Y1016800D01*
X4927180Y1023230D01*
X4937770Y1032880D01*
X4942000Y1045750D01*
G01X4821080Y2136000D02*
Y2263000D01*
X4861290D01*
X4874160Y2256650D01*
X4882200Y2248180D01*
X4885420Y2231250D01*
X4882200Y2214320D01*
X4872550Y2203730D01*
X4861290Y2197380D01*
X4821080D01*
G01X4861290D02*
X4885420Y2136000D01*
G01X4955410Y2150810D02*
X4966670Y2140230D01*
X4979530Y2136000D01*
X4992400Y2140230D01*
X5003660Y2152930D01*
X5011700Y2171980D01*
X5014920Y2191030D01*
Y2214320D01*
X5011700Y2233370D01*
X5003660Y2250300D01*
X4994010Y2258770D01*
X4982750Y2263000D01*
X4969880Y2258770D01*
X4960230Y2250300D01*
X4953800Y2237600D01*
X4950580Y2220660D01*
X4953800Y2205850D01*
X4961840Y2191030D01*
X4971490Y2182560D01*
X4982750Y2180450D01*
X4995620Y2184680D01*
X5005270Y2195270D01*
X5014920Y2214320D01*
G01X5081690Y2241830D02*
X5091340Y2254530D01*
X5102600Y2260880D01*
X5115470Y2263000D01*
X5131550Y2258770D01*
X5142810Y2248180D01*
X5146030Y2235490D01*
X5144420Y2222780D01*
X5137980Y2212200D01*
X5105820Y2191030D01*
X5091340Y2176220D01*
X5081690Y2155050D01*
X5078470Y2136000D01*
X5146030D01*
G01X4807080Y2845000D02*
Y2972000D01*
X4847290D01*
X4860160Y2965650D01*
X4868200Y2957180D01*
X4871420Y2940250D01*
X4868200Y2923320D01*
X4858550Y2912730D01*
X4847290Y2906380D01*
X4807080D01*
G01X4847290D02*
X4871420Y2845000D01*
G01X4965530D02*
X4968750Y2872510D01*
X4973580Y2895800D01*
X4980010Y2916970D01*
X4988050Y2940250D01*
X5000920Y2972000D01*
X4936580D01*
G01X5098250Y2845000D02*
X5109510Y2847120D01*
X5122370Y2853460D01*
X5130420Y2864050D01*
X5133630Y2878870D01*
X5130420Y2893680D01*
X5120770Y2906380D01*
X5106290Y2912730D01*
X5090210D01*
X5080560Y2916970D01*
X5072510Y2927550D01*
X5069300Y2942370D01*
X5074130Y2957180D01*
X5085380Y2967770D01*
X5098250Y2972000D01*
X5111120Y2967770D01*
X5122370Y2957180D01*
X5127200Y2942370D01*
X5123980Y2927550D01*
X5115940Y2916970D01*
X5106290Y2912730D01*
X5090210D01*
X5075730Y2906380D01*
X5066080Y2893680D01*
X5062870Y2878870D01*
X5066080Y2864050D01*
X5074130Y2853460D01*
X5086990Y2847120D01*
X5098250Y2845000D01*
G01X4836080Y3218000D02*
Y3345000D01*
X4876290D01*
X4889160Y3338650D01*
X4897200Y3330180D01*
X4900420Y3313250D01*
X4897200Y3296320D01*
X4887550Y3285730D01*
X4876290Y3279380D01*
X4836080D01*
G01X4876290D02*
X4900420Y3218000D01*
G01X4967190Y3270910D02*
X4978450Y3285730D01*
X4988100Y3294200D01*
X5000970Y3298430D01*
X5012230Y3294200D01*
X5020270Y3285730D01*
X5026700Y3273030D01*
X5028310Y3258220D01*
X5026700Y3245510D01*
X5020270Y3232810D01*
X5010620Y3222230D01*
X4999360Y3218000D01*
X4986490Y3222230D01*
X4975230Y3234930D01*
X4968800Y3253980D01*
X4967190Y3275150D01*
X4970410Y3302660D01*
X4975230Y3317490D01*
X4983270Y3332300D01*
X4994530Y3342880D01*
X5005790Y3345000D01*
X5017050Y3340770D01*
X5025090Y3330180D01*
G01X5127250Y3218000D02*
Y3345000D01*
X5107950Y3319600D01*
G01Y3218000D02*
X5146550D01*
G01X4832080Y3311000D02*
Y3438000D01*
X4872290D01*
X4885160Y3431650D01*
X4893200Y3423180D01*
X4896420Y3406250D01*
X4893200Y3389320D01*
X4883550Y3378730D01*
X4872290Y3372380D01*
X4832080D01*
G01X4872290D02*
X4896420Y3311000D01*
G01X4963190Y3363910D02*
X4974450Y3378730D01*
X4984100Y3387200D01*
X4996970Y3391430D01*
X5008230Y3387200D01*
X5016270Y3378730D01*
X5022700Y3366030D01*
X5024310Y3351220D01*
X5022700Y3338510D01*
X5016270Y3325810D01*
X5006620Y3315230D01*
X4995360Y3311000D01*
X4982490Y3315230D01*
X4971230Y3327930D01*
X4964800Y3346980D01*
X4963190Y3368150D01*
X4966410Y3395660D01*
X4971230Y3410490D01*
X4979270Y3425300D01*
X4990530Y3435880D01*
X5001790Y3438000D01*
X5013050Y3433770D01*
X5021090Y3423180D01*
G01X5123250Y3438000D02*
X5110380Y3433770D01*
X5100730Y3423180D01*
X5094300Y3410490D01*
X5089470Y3393550D01*
X5087870Y3374500D01*
X5089470Y3355450D01*
X5094300Y3338510D01*
X5100730Y3325810D01*
X5110380Y3315230D01*
X5123250Y3311000D01*
X5136120Y3315230D01*
X5145770Y3325810D01*
X5152200Y3338510D01*
X5157030Y3355450D01*
X5158630Y3374500D01*
X5157030Y3393550D01*
X5152200Y3410490D01*
X5145770Y3423180D01*
X5136120Y3433770D01*
X5123250Y3438000D01*
G01X4907630Y3635420D02*
X4897980Y3641770D01*
X4886730Y3646000D01*
X4873860D01*
X4859380Y3639650D01*
X4848130Y3629070D01*
X4840080Y3616370D01*
X4833650Y3595200D01*
X4832040Y3576150D01*
X4835260Y3557100D01*
X4840080Y3544400D01*
X4849730Y3531700D01*
X4860990Y3523230D01*
X4872250Y3519000D01*
X4883510D01*
X4894770Y3523230D01*
X4904420Y3529580D01*
X4912460Y3538050D01*
G01X4966370D02*
X4976010Y3527460D01*
X4987270Y3521120D01*
X5001750Y3519000D01*
X5016230Y3523230D01*
X5027480Y3531700D01*
X5035530Y3546510D01*
X5037130Y3563450D01*
X5033920Y3580380D01*
X5025870Y3590970D01*
X5014620Y3599430D01*
X5003360Y3601550D01*
X4992100Y3599430D01*
X4977630Y3590970D01*
X4982450Y3646000D01*
X5025870D01*
G01X5100690Y3571910D02*
X5111950Y3586730D01*
X5121600Y3595200D01*
X5134470Y3599430D01*
X5145730Y3595200D01*
X5153770Y3586730D01*
X5160200Y3574030D01*
X5161810Y3559220D01*
X5160200Y3546510D01*
X5153770Y3533810D01*
X5144120Y3523230D01*
X5132860Y3519000D01*
X5119990Y3523230D01*
X5108730Y3535930D01*
X5102300Y3554980D01*
X5100690Y3576150D01*
X5103910Y3603660D01*
X5108730Y3618490D01*
X5116770Y3633300D01*
X5128030Y3643880D01*
X5139290Y3646000D01*
X5150550Y3641770D01*
X5158590Y3631180D01*
G01X4907630Y3709420D02*
X4897980Y3715770D01*
X4886730Y3720000D01*
X4873860D01*
X4859380Y3713650D01*
X4848130Y3703070D01*
X4840080Y3690370D01*
X4833650Y3669200D01*
X4832040Y3650150D01*
X4835260Y3631100D01*
X4840080Y3618400D01*
X4849730Y3605700D01*
X4860990Y3597230D01*
X4872250Y3593000D01*
X4883510D01*
X4894770Y3597230D01*
X4904420Y3603580D01*
X4912460Y3612050D01*
G01X4966370D02*
X4976010Y3601460D01*
X4987270Y3595120D01*
X5001750Y3593000D01*
X5016230Y3597230D01*
X5027480Y3605700D01*
X5035530Y3620510D01*
X5037130Y3637450D01*
X5033920Y3654380D01*
X5025870Y3664970D01*
X5014620Y3673430D01*
X5003360Y3675550D01*
X4992100Y3673430D01*
X4977630Y3664970D01*
X4982450Y3720000D01*
X5025870D01*
G01X5095870Y3612050D02*
X5105510Y3601460D01*
X5116770Y3595120D01*
X5131250Y3593000D01*
X5145730Y3597230D01*
X5156980Y3605700D01*
X5165030Y3620510D01*
X5166630Y3637450D01*
X5163420Y3654380D01*
X5155370Y3664970D01*
X5144120Y3673430D01*
X5132860Y3675550D01*
X5121600Y3673430D01*
X5107130Y3664970D01*
X5111950Y3720000D01*
X5155370D01*
G01X4812000Y4056920D02*
X4939000D01*
Y4016710D01*
X4932650Y4003840D01*
X4924180Y3995800D01*
X4907250Y3992580D01*
X4890320Y3995800D01*
X4879730Y4005450D01*
X4873380Y4016710D01*
Y4056920D01*
G01Y4016710D02*
X4812000Y3992580D01*
G01X4831050Y3930630D02*
X4820460Y3920990D01*
X4814120Y3909730D01*
X4812000Y3895250D01*
X4816230Y3880770D01*
X4824700Y3869520D01*
X4839510Y3861470D01*
X4856450Y3859870D01*
X4873380Y3863080D01*
X4883970Y3871130D01*
X4892430Y3882380D01*
X4894550Y3893640D01*
X4892430Y3904900D01*
X4883970Y3919370D01*
X4939000Y3914550D01*
Y3871130D01*
G01X4837400Y3801130D02*
X4822580Y3791490D01*
X4814120Y3778620D01*
X4812000Y3764140D01*
X4814120Y3751270D01*
X4824700Y3738410D01*
X4837400Y3730370D01*
X4850100Y3728760D01*
X4864910Y3731970D01*
X4875500Y3743230D01*
X4879730Y3754490D01*
Y3768970D01*
G01Y3754490D02*
X4886080Y3744840D01*
X4896660Y3736800D01*
X4909370Y3733580D01*
X4922070Y3736800D01*
X4932650Y3744840D01*
X4939000Y3759320D01*
X4936880Y3773790D01*
X4928420Y3788270D01*
G01X4847630Y5046420D02*
X4837980Y5052770D01*
X4826730Y5057000D01*
X4813860D01*
X4799380Y5050650D01*
X4788130Y5040070D01*
X4780080Y5027370D01*
X4773650Y5006200D01*
X4772040Y4987150D01*
X4775260Y4968100D01*
X4780080Y4955400D01*
X4789730Y4942700D01*
X4800990Y4934230D01*
X4812250Y4930000D01*
X4823510D01*
X4834770Y4934230D01*
X4844420Y4940580D01*
X4852460Y4949050D01*
G01X4961050Y4930000D02*
Y5057000D01*
X4901540Y4965980D01*
X4981960D01*
G01X5035870Y4949050D02*
X5045510Y4938460D01*
X5056770Y4932120D01*
X5071250Y4930000D01*
X5085730Y4934230D01*
X5096980Y4942700D01*
X5105030Y4957510D01*
X5106630Y4974450D01*
X5103420Y4991380D01*
X5095370Y5001970D01*
X5084120Y5010430D01*
X5072860Y5012550D01*
X5061600Y5010430D01*
X5047130Y5001970D01*
X5051950Y5057000D01*
X5095370D01*
G01X4836080Y4884000D02*
Y5011000D01*
X4876290D01*
X4889160Y5004650D01*
X4897200Y4996180D01*
X4900420Y4979250D01*
X4897200Y4962320D01*
X4887550Y4951730D01*
X4876290Y4945380D01*
X4836080D01*
G01X4876290D02*
X4900420Y4884000D01*
G01X4962370Y4903050D02*
X4972010Y4892460D01*
X4983270Y4886120D01*
X4997750Y4884000D01*
X5012230Y4888230D01*
X5023480Y4896700D01*
X5031530Y4911510D01*
X5033130Y4928450D01*
X5029920Y4945380D01*
X5021870Y4955970D01*
X5010620Y4964430D01*
X4999360Y4966550D01*
X4988100Y4964430D01*
X4973630Y4955970D01*
X4978450Y5011000D01*
X5021870D01*
G01X5127250D02*
X5114380Y5006770D01*
X5104730Y4996180D01*
X5098300Y4983490D01*
X5093470Y4966550D01*
X5091870Y4947500D01*
X5093470Y4928450D01*
X5098300Y4911510D01*
X5104730Y4898810D01*
X5114380Y4888230D01*
X5127250Y4884000D01*
X5140120Y4888230D01*
X5149770Y4898810D01*
X5156200Y4911510D01*
X5161030Y4928450D01*
X5162630Y4947500D01*
X5161030Y4966550D01*
X5156200Y4983490D01*
X5149770Y4996180D01*
X5140120Y5006770D01*
X5127250Y5011000D01*
G01X4905080Y1212000D02*
Y1339000D01*
X4945290D01*
X4958160Y1332650D01*
X4966200Y1324180D01*
X4969420Y1307250D01*
X4966200Y1290320D01*
X4956550Y1279730D01*
X4945290Y1273380D01*
X4905080D01*
G01X4945290D02*
X4969420Y1212000D01*
G01X5086050D02*
Y1339000D01*
X5026540Y1247980D01*
X5106960D01*
G01X5165690Y1317830D02*
X5175340Y1330530D01*
X5186600Y1336880D01*
X5199470Y1339000D01*
X5215550Y1334770D01*
X5226810Y1324180D01*
X5230030Y1311490D01*
X5228420Y1298780D01*
X5221980Y1288200D01*
X5189820Y1267030D01*
X5175340Y1252220D01*
X5165690Y1231050D01*
X5162470Y1212000D01*
X5230030D01*
G01X4986630Y1499420D02*
X4976980Y1505770D01*
X4965730Y1510000D01*
X4952860D01*
X4938380Y1503650D01*
X4927130Y1493070D01*
X4919080Y1480370D01*
X4912650Y1459200D01*
X4911040Y1440150D01*
X4914260Y1421100D01*
X4919080Y1408400D01*
X4928730Y1395700D01*
X4939990Y1387230D01*
X4951250Y1383000D01*
X4962510D01*
X4973770Y1387230D01*
X4983420Y1393580D01*
X4991460Y1402050D01*
G01X5045370Y1408400D02*
X5055010Y1393580D01*
X5067880Y1385120D01*
X5082360Y1383000D01*
X5095230Y1385120D01*
X5108090Y1395700D01*
X5116130Y1408400D01*
X5117740Y1421100D01*
X5114530Y1435910D01*
X5103270Y1446500D01*
X5092010Y1450730D01*
X5077530D01*
G01X5092010D02*
X5101660Y1457080D01*
X5109700Y1467660D01*
X5112920Y1480370D01*
X5109700Y1493070D01*
X5101660Y1503650D01*
X5087180Y1510000D01*
X5072710Y1507880D01*
X5058230Y1499420D01*
G01X5229550Y1383000D02*
Y1510000D01*
X5170040Y1418980D01*
X5250460D01*
G01X4986630Y1453420D02*
X4976980Y1459770D01*
X4965730Y1464000D01*
X4952860D01*
X4938380Y1457650D01*
X4927130Y1447070D01*
X4919080Y1434370D01*
X4912650Y1413200D01*
X4911040Y1394150D01*
X4914260Y1375100D01*
X4919080Y1362400D01*
X4928730Y1349700D01*
X4939990Y1341230D01*
X4951250Y1337000D01*
X4962510D01*
X4973770Y1341230D01*
X4983420Y1347580D01*
X4991460Y1356050D01*
G01X5045370Y1362400D02*
X5055010Y1347580D01*
X5067880Y1339120D01*
X5082360Y1337000D01*
X5095230Y1339120D01*
X5108090Y1349700D01*
X5116130Y1362400D01*
X5117740Y1375100D01*
X5114530Y1389910D01*
X5103270Y1400500D01*
X5092010Y1404730D01*
X5077530D01*
G01X5092010D02*
X5101660Y1411080D01*
X5109700Y1421660D01*
X5112920Y1434370D01*
X5109700Y1447070D01*
X5101660Y1457650D01*
X5087180Y1464000D01*
X5072710Y1461880D01*
X5058230Y1453420D01*
G01X5174870Y1362400D02*
X5184510Y1347580D01*
X5197380Y1339120D01*
X5211860Y1337000D01*
X5224730Y1339120D01*
X5237590Y1349700D01*
X5245630Y1362400D01*
X5247240Y1375100D01*
X5244030Y1389910D01*
X5232770Y1400500D01*
X5221510Y1404730D01*
X5207030D01*
G01X5221510D02*
X5231160Y1411080D01*
X5239200Y1421660D01*
X5242420Y1434370D01*
X5239200Y1447070D01*
X5231160Y1457650D01*
X5216680Y1464000D01*
X5202210Y1461880D01*
X5187730Y1453420D01*
G54D14*
G01X-197000Y1593130D02*
X-288020D01*
X-307070Y1586700D01*
X-319770Y1573830D01*
X-324000Y1557740D01*
X-319770Y1541650D01*
X-307070Y1528780D01*
X-288020Y1522350D01*
X-197000D01*
G01X-307070Y1461980D02*
X-317650Y1449110D01*
X-324000Y1434630D01*
Y1421770D01*
X-317650Y1408900D01*
X-307070Y1399240D01*
X-292250Y1394420D01*
X-277440Y1397630D01*
X-264730Y1405680D01*
X-256270Y1420160D01*
X-252030Y1439460D01*
X-243570Y1450720D01*
X-228750Y1455550D01*
X-213930Y1452330D01*
X-203350Y1444290D01*
X-197000Y1433030D01*
Y1421770D01*
X-201230Y1410500D01*
X-211820Y1400850D01*
G01X-256270Y1285790D02*
X-249920Y1279360D01*
X-239340Y1274530D01*
X-224510Y1271310D01*
X-211820Y1274530D01*
X-203350Y1280960D01*
X-197000Y1292230D01*
Y1335660D01*
X-324000D01*
Y1282570D01*
X-315540Y1271310D01*
X-302830Y1264880D01*
X-288020Y1261660D01*
X-273200Y1264880D01*
X-260500Y1274530D01*
X-256270Y1285790D01*
Y1335660D01*
G01X-324000Y1169120D02*
X-197000D01*
X-222400Y1188420D01*
G01X-324000D02*
Y1149820D01*
G01X-197000Y1039580D02*
X-201230Y1052450D01*
X-211820Y1062100D01*
X-224510Y1068540D01*
X-241450Y1073360D01*
X-260500Y1074970D01*
X-279550Y1073360D01*
X-296490Y1068540D01*
X-309190Y1062100D01*
X-319770Y1052450D01*
X-324000Y1039580D01*
X-319770Y1026710D01*
X-309190Y1017060D01*
X-296490Y1010620D01*
X-279550Y1005800D01*
X-260500Y1004190D01*
X-241450Y1005800D01*
X-224510Y1010620D01*
X-211820Y1017060D01*
X-201230Y1026710D01*
X-197000Y1039580D01*
G01X-324000Y910040D02*
X-321880Y898780D01*
X-315540Y885910D01*
X-304950Y877870D01*
X-290130Y874650D01*
X-275320Y877870D01*
X-262620Y887520D01*
X-256270Y902000D01*
Y918080D01*
X-252030Y927740D01*
X-241450Y935780D01*
X-226630Y939000D01*
X-211820Y934170D01*
X-201230Y922910D01*
X-197000Y910040D01*
X-201230Y897170D01*
X-211820Y885910D01*
X-226630Y881080D01*
X-241450Y884300D01*
X-252030Y892340D01*
X-256270Y902000D01*
Y918080D01*
X-262620Y932560D01*
X-275320Y942210D01*
X-290130Y945430D01*
X-304950Y942210D01*
X-315540Y934170D01*
X-321880Y921300D01*
X-324000Y910040D01*
G01X-271090Y811070D02*
X-256270Y799800D01*
X-247800Y790150D01*
X-243570Y777280D01*
X-247800Y766020D01*
X-256270Y757980D01*
X-268970Y751540D01*
X-283780Y749930D01*
X-296490Y751540D01*
X-309190Y757980D01*
X-319770Y767630D01*
X-324000Y778890D01*
X-319770Y791760D01*
X-307070Y803020D01*
X-288020Y809460D01*
X-266850Y811070D01*
X-239340Y807850D01*
X-224510Y803020D01*
X-209700Y794980D01*
X-199120Y783720D01*
X-197000Y772460D01*
X-201230Y761200D01*
X-211820Y753150D01*
G01X-281670Y671870D02*
Y630050D01*
G01X-260500Y511770D02*
Y479590D01*
X-298600D01*
X-311300Y489250D01*
X-319770Y500510D01*
X-324000Y516590D01*
X-319770Y532680D01*
X-311300Y543940D01*
X-298600Y553590D01*
X-283780Y560030D01*
X-266850Y563250D01*
X-252030D01*
X-239340Y560030D01*
X-224510Y553590D01*
X-211820Y543940D01*
X-203350Y534290D01*
X-197000Y521420D01*
Y510160D01*
X-201230Y497290D01*
X-209700Y487640D01*
G01X-324000Y422450D02*
X-197000D01*
Y361310D01*
G01X-258380Y383840D02*
Y422450D01*
G01X-281670Y283250D02*
Y241430D01*
G01X-256270Y119930D02*
X-249920Y113500D01*
X-239340Y108670D01*
X-224510Y105450D01*
X-211820Y108670D01*
X-203350Y115100D01*
X-197000Y126370D01*
Y169800D01*
X-324000D01*
Y116710D01*
X-315540Y105450D01*
X-302830Y99020D01*
X-288020Y95800D01*
X-273200Y99020D01*
X-260500Y108670D01*
X-256270Y119930D01*
Y169800D01*
G01X-366330Y51520D02*
Y-45000D01*
G01X-324000Y-94110D02*
X-197000D01*
Y-134320D01*
X-203350Y-147190D01*
X-211820Y-155240D01*
X-228750Y-158450D01*
X-245680Y-155240D01*
X-256270Y-145580D01*
X-262620Y-134320D01*
Y-94110D01*
G01Y-134320D02*
X-324000Y-158450D01*
G01Y-287990D02*
Y-223650D01*
X-197000D01*
Y-287990D01*
G01X-258380Y-262250D02*
Y-223650D01*
G01X-197000Y-345140D02*
X-324000Y-385360D01*
X-197000Y-425580D01*
G01X-324000Y-474680D02*
X-197000Y-514900D01*
X-324000Y-555120D01*
G01X-279550Y-540640D02*
Y-489160D01*
G01X-316000Y4536000D02*
Y3710000D01*
X404000D01*
Y4536000D01*
X-316000D01*
G01X418050Y2662260D02*
X410170Y2657390D01*
X404920Y2651550D01*
X402300Y2644740D01*
X404920Y2636950D01*
X410170Y2631110D01*
X418050Y2625260D01*
X428550Y2623320D01*
X481040D01*
G01X414110Y2585470D02*
X407550Y2579630D01*
X403610Y2572810D01*
X402300Y2564050D01*
X404920Y2555290D01*
X410170Y2548470D01*
X419360Y2543600D01*
X429860Y2542630D01*
X440360Y2544580D01*
X446920Y2549450D01*
X452170Y2556260D01*
X453480Y2563080D01*
X452170Y2569890D01*
X446920Y2578650D01*
X481040Y2575730D01*
Y2549450D01*
G01X641400Y1589910D02*
X628700Y1581870D01*
X620230Y1572220D01*
X616000Y1560960D01*
X620230Y1548090D01*
X628700Y1538440D01*
X641400Y1528780D01*
X658330Y1525570D01*
X743000D01*
G01X721830Y1458770D02*
X734530Y1449110D01*
X740880Y1437850D01*
X743000Y1424980D01*
X738770Y1408900D01*
X728180Y1397630D01*
X715490Y1394420D01*
X702780Y1396030D01*
X692200Y1402460D01*
X671030Y1434630D01*
X656220Y1449110D01*
X635050Y1458770D01*
X616000Y1461980D01*
Y1394420D01*
G01X699800Y4618930D02*
X608780D01*
X589730Y4612500D01*
X577030Y4599630D01*
X572800Y4583550D01*
X577030Y4567470D01*
X589730Y4554600D01*
X608780Y4548170D01*
X699800D01*
G01X572800Y4434750D02*
X699800D01*
X608780Y4494260D01*
Y4413840D01*
G01X1016740Y1811260D02*
X938000D01*
Y1772320D01*
G01Y1713050D02*
X939310Y1706230D01*
X943250Y1698450D01*
X949810Y1693580D01*
X959000Y1691630D01*
X968180Y1693580D01*
X976060Y1699420D01*
X980000Y1708180D01*
Y1717920D01*
X982620Y1723760D01*
X989180Y1728630D01*
X998370Y1730580D01*
X1007550Y1727650D01*
X1014120Y1720840D01*
X1016740Y1713050D01*
X1014120Y1705260D01*
X1007550Y1698450D01*
X998370Y1695520D01*
X989180Y1697470D01*
X982620Y1702340D01*
X980000Y1708180D01*
Y1717920D01*
X976060Y1726680D01*
X968180Y1732520D01*
X959000Y1734470D01*
X949810Y1732520D01*
X943250Y1727650D01*
X939310Y1719870D01*
X938000Y1713050D01*
G01X1181870Y24000D02*
Y-67020D01*
X1188300Y-86070D01*
X1201170Y-98770D01*
X1217260Y-103000D01*
X1233350Y-98770D01*
X1246220Y-86070D01*
X1252650Y-67020D01*
Y24000D01*
G01X1313020Y-86070D02*
X1325890Y-96650D01*
X1340370Y-103000D01*
X1353230D01*
X1366100Y-96650D01*
X1375760Y-86070D01*
X1380580Y-71250D01*
X1377370Y-56440D01*
X1369320Y-43730D01*
X1354840Y-35270D01*
X1335540Y-31030D01*
X1324280Y-22570D01*
X1319450Y-7750D01*
X1322670Y7070D01*
X1330710Y17650D01*
X1341970Y24000D01*
X1353230D01*
X1364500Y19770D01*
X1374150Y9180D01*
G01X1489210Y-35270D02*
X1495640Y-28920D01*
X1500470Y-18340D01*
X1503690Y-3510D01*
X1500470Y9180D01*
X1494040Y17650D01*
X1482770Y24000D01*
X1439340D01*
Y-103000D01*
X1492430D01*
X1503690Y-94540D01*
X1510120Y-81830D01*
X1513340Y-67020D01*
X1510120Y-52200D01*
X1500470Y-39500D01*
X1489210Y-35270D01*
X1439340D01*
G01X1605880Y-103000D02*
Y24000D01*
X1586580Y-1400D01*
G01Y-103000D02*
X1625180D01*
G01X1735420Y24000D02*
X1722550Y19770D01*
X1712900Y9180D01*
X1706460Y-3510D01*
X1701640Y-20450D01*
X1700030Y-39500D01*
X1701640Y-58550D01*
X1706460Y-75490D01*
X1712900Y-88190D01*
X1722550Y-98770D01*
X1735420Y-103000D01*
X1748290Y-98770D01*
X1757940Y-88190D01*
X1764380Y-75490D01*
X1769200Y-58550D01*
X1770810Y-39500D01*
X1769200Y-20450D01*
X1764380Y-3510D01*
X1757940Y9180D01*
X1748290Y19770D01*
X1735420Y24000D01*
G01X1864960Y-103000D02*
X1876220Y-100880D01*
X1889090Y-94540D01*
X1897130Y-83950D01*
X1900350Y-69130D01*
X1897130Y-54320D01*
X1887480Y-41620D01*
X1873000Y-35270D01*
X1856920D01*
X1847260Y-31030D01*
X1839220Y-20450D01*
X1836000Y-5630D01*
X1840830Y9180D01*
X1852090Y19770D01*
X1864960Y24000D01*
X1877830Y19770D01*
X1889090Y9180D01*
X1893920Y-5630D01*
X1890700Y-20450D01*
X1882660Y-31030D01*
X1873000Y-35270D01*
X1856920D01*
X1842440Y-41620D01*
X1832790Y-54320D01*
X1829570Y-69130D01*
X1832790Y-83950D01*
X1840830Y-94540D01*
X1853700Y-100880D01*
X1864960Y-103000D01*
G01X1963930Y-50090D02*
X1975200Y-35270D01*
X1984850Y-26800D01*
X1997720Y-22570D01*
X2008980Y-26800D01*
X2017020Y-35270D01*
X2023460Y-47970D01*
X2025070Y-62780D01*
X2023460Y-75490D01*
X2017020Y-88190D01*
X2007370Y-98770D01*
X1996110Y-103000D01*
X1983240Y-98770D01*
X1971980Y-86070D01*
X1965540Y-67020D01*
X1963930Y-45850D01*
X1967150Y-18340D01*
X1971980Y-3510D01*
X1980020Y11300D01*
X1991280Y21880D01*
X2002540Y24000D01*
X2013800Y19770D01*
X2021850Y9180D01*
G01X2103130Y-60670D02*
X2144950D01*
G01X2263230Y-39500D02*
X2295410D01*
Y-77600D01*
X2285750Y-90300D01*
X2274490Y-98770D01*
X2258410Y-103000D01*
X2242320Y-98770D01*
X2231060Y-90300D01*
X2221410Y-77600D01*
X2214970Y-62780D01*
X2211750Y-45850D01*
Y-31030D01*
X2214970Y-18340D01*
X2221410Y-3510D01*
X2231060Y9180D01*
X2240710Y17650D01*
X2253580Y24000D01*
X2264840D01*
X2277710Y19770D01*
X2287360Y11300D01*
G01X2352550Y-103000D02*
Y24000D01*
X2413690D01*
G01X2391160Y-37380D02*
X2352550D01*
G01X2491750Y-60670D02*
X2533570D01*
G01X2655070Y-35270D02*
X2661500Y-28920D01*
X2666330Y-18340D01*
X2669550Y-3510D01*
X2666330Y9180D01*
X2659900Y17650D01*
X2648630Y24000D01*
X2605200D01*
Y-103000D01*
X2658290D01*
X2669550Y-94540D01*
X2675980Y-81830D01*
X2679200Y-67020D01*
X2675980Y-52200D01*
X2666330Y-39500D01*
X2655070Y-35270D01*
X2605200D01*
G01X2723480Y-145330D02*
X2820000D01*
G01X2869110Y-103000D02*
Y24000D01*
X2909320D01*
X2922190Y17650D01*
X2930240Y9180D01*
X2933450Y-7750D01*
X2930240Y-24680D01*
X2920580Y-35270D01*
X2909320Y-41620D01*
X2869110D01*
G01X2909320D02*
X2933450Y-103000D01*
G01X3062990D02*
X2998650D01*
Y24000D01*
X3062990D01*
G01X3037250Y-37380D02*
X2998650D01*
G01X3120140Y24000D02*
X3160360Y-103000D01*
X3200580Y24000D01*
G01X3249680Y-103000D02*
X3289900Y24000D01*
X3330120Y-103000D01*
G01X3315640Y-58550D02*
X3264160D01*
G01X1185090Y862400D02*
X1193130Y849700D01*
X1202780Y841230D01*
X1214040Y837000D01*
X1226910Y841230D01*
X1236560Y849700D01*
X1246220Y862400D01*
X1249430Y879330D01*
Y964000D01*
G01X1311410Y862400D02*
X1321060Y847580D01*
X1333930Y839120D01*
X1348410Y837000D01*
X1361280Y839120D01*
X1374150Y849700D01*
X1382190Y862400D01*
X1383800Y875100D01*
X1380580Y889910D01*
X1369320Y900500D01*
X1358060Y904730D01*
X1343580D01*
G01X1358060D02*
X1367710Y911080D01*
X1375760Y921660D01*
X1378970Y934370D01*
X1375760Y947070D01*
X1367710Y957650D01*
X1353230Y964000D01*
X1338760Y961880D01*
X1324280Y953420D01*
G01X1279530Y1820740D02*
X1302890D01*
G01X1291210D02*
Y1742000D01*
G01X1279530D02*
X1302890D01*
G01X1391370Y1814180D02*
X1385530Y1818120D01*
X1378710Y1820740D01*
X1370920D01*
X1362160Y1816800D01*
X1355350Y1810240D01*
X1350480Y1802370D01*
X1346580Y1789240D01*
X1345610Y1777430D01*
X1347560Y1765620D01*
X1350480Y1757750D01*
X1356320Y1749870D01*
X1363130Y1744620D01*
X1369950Y1742000D01*
X1376770D01*
X1383580Y1744620D01*
X1389420Y1748560D01*
X1394290Y1753810D01*
G01X1430190Y1774810D02*
X1437010Y1784000D01*
X1442850Y1789240D01*
X1450640Y1791870D01*
X1457450Y1789240D01*
X1462320Y1784000D01*
X1466220Y1776120D01*
X1467190Y1766930D01*
X1466220Y1759060D01*
X1462320Y1751180D01*
X1456480Y1744620D01*
X1449660Y1742000D01*
X1441870Y1744620D01*
X1435060Y1752500D01*
X1431160Y1764310D01*
X1430190Y1777430D01*
X1432140Y1794490D01*
X1435060Y1803680D01*
X1439930Y1812870D01*
X1446740Y1819430D01*
X1453560Y1820740D01*
X1460370Y1818120D01*
X1465240Y1811550D01*
G01X1411740Y2290260D02*
X1333000D01*
Y2251320D01*
G01Y2194000D02*
X1350060Y2192050D01*
X1364490Y2189130D01*
X1377620Y2185230D01*
X1392050Y2180370D01*
X1411740Y2172580D01*
Y2211520D01*
G01X1533790Y2374740D02*
Y2318310D01*
X1537680Y2306500D01*
X1545470Y2298620D01*
X1555210Y2296000D01*
X1564950Y2298620D01*
X1572740Y2306500D01*
X1576630Y2318310D01*
Y2374740D01*
G01X1612530Y2311750D02*
X1618370Y2302560D01*
X1626160Y2297310D01*
X1634920Y2296000D01*
X1642710Y2297310D01*
X1650500Y2303870D01*
X1655370Y2311750D01*
X1656340Y2319620D01*
X1654400Y2328810D01*
X1647580Y2335370D01*
X1640770Y2338000D01*
X1632000D01*
G01X1640770D02*
X1646610Y2341930D01*
X1651480Y2348490D01*
X1653420Y2356370D01*
X1651480Y2364240D01*
X1646610Y2370800D01*
X1637840Y2374740D01*
X1629080Y2373430D01*
X1620320Y2368180D01*
G01X1661260Y5107250D02*
X1656390Y5115130D01*
X1650550Y5120380D01*
X1643740Y5123000D01*
X1635950Y5120380D01*
X1630110Y5115130D01*
X1624260Y5107250D01*
X1622320Y5096750D01*
Y5044260D01*
G01X1563050Y5123000D02*
Y5044260D01*
X1574730Y5060010D01*
G01Y5123000D02*
X1551370D01*
G01X1821210Y3802000D02*
Y3837430D01*
X1801740Y3880740D01*
G01X1840680D02*
X1821210Y3837430D01*
G01X1899950Y3802000D02*
Y3880740D01*
X1888270Y3864990D01*
G01Y3802000D02*
X1911630D01*
G01X1915870Y3715000D02*
Y3623980D01*
X1922300Y3604930D01*
X1935170Y3592230D01*
X1951250Y3588000D01*
X1967330Y3592230D01*
X1980200Y3604930D01*
X1986630Y3623980D01*
Y3715000D01*
G01X2077530Y3588000D02*
X2080750Y3615510D01*
X2085580Y3638800D01*
X2092010Y3659970D01*
X2100050Y3683250D01*
X2112920Y3715000D01*
X2048580D01*
G01X4182130Y5201000D02*
Y5292020D01*
X4175700Y5311070D01*
X4162830Y5323770D01*
X4146740Y5328000D01*
X4130650Y5323770D01*
X4117780Y5311070D01*
X4111350Y5292020D01*
Y5201000D01*
G01X4050980Y5311070D02*
X4038110Y5321650D01*
X4023630Y5328000D01*
X4010770D01*
X3997900Y5321650D01*
X3988240Y5311070D01*
X3983420Y5296250D01*
X3986630Y5281440D01*
X3994680Y5268730D01*
X4009160Y5260270D01*
X4028460Y5256030D01*
X4039720Y5247570D01*
X4044550Y5232750D01*
X4041330Y5217930D01*
X4033290Y5207350D01*
X4022030Y5201000D01*
X4010770D01*
X3999500Y5205230D01*
X3989850Y5215820D01*
G01X3874790Y5260270D02*
X3868360Y5253920D01*
X3863530Y5243340D01*
X3860310Y5228510D01*
X3863530Y5215820D01*
X3869960Y5207350D01*
X3881230Y5201000D01*
X3924660D01*
Y5328000D01*
X3871570D01*
X3860310Y5319540D01*
X3853880Y5306830D01*
X3850660Y5292020D01*
X3853880Y5277200D01*
X3863530Y5264500D01*
X3874790Y5260270D01*
X3924660D01*
G01X3758120Y5328000D02*
Y5201000D01*
X3777420Y5226400D01*
G01Y5328000D02*
X3738820D01*
G01X3628580Y5201000D02*
X3641450Y5205230D01*
X3651100Y5215820D01*
X3657540Y5228510D01*
X3662360Y5245450D01*
X3663970Y5264500D01*
X3662360Y5283550D01*
X3657540Y5300490D01*
X3651100Y5313190D01*
X3641450Y5323770D01*
X3628580Y5328000D01*
X3615710Y5323770D01*
X3606060Y5313190D01*
X3599620Y5300490D01*
X3594800Y5283550D01*
X3593190Y5264500D01*
X3594800Y5245450D01*
X3599620Y5228510D01*
X3606060Y5215820D01*
X3615710Y5205230D01*
X3628580Y5201000D01*
G01X3499040Y5328000D02*
X3487780Y5325880D01*
X3474910Y5319540D01*
X3466870Y5308950D01*
X3463650Y5294130D01*
X3466870Y5279320D01*
X3476520Y5266620D01*
X3491000Y5260270D01*
X3507080D01*
X3516740Y5256030D01*
X3524780Y5245450D01*
X3528000Y5230630D01*
X3523170Y5215820D01*
X3511910Y5205230D01*
X3499040Y5201000D01*
X3486170Y5205230D01*
X3474910Y5215820D01*
X3470080Y5230630D01*
X3473300Y5245450D01*
X3481340Y5256030D01*
X3491000Y5260270D01*
X3507080D01*
X3521560Y5266620D01*
X3531210Y5279320D01*
X3534430Y5294130D01*
X3531210Y5308950D01*
X3523170Y5319540D01*
X3510300Y5325880D01*
X3499040Y5328000D01*
G01X3400070Y5275090D02*
X3388800Y5260270D01*
X3379150Y5251800D01*
X3366280Y5247570D01*
X3355020Y5251800D01*
X3346980Y5260270D01*
X3340540Y5272970D01*
X3338930Y5287780D01*
X3340540Y5300490D01*
X3346980Y5313190D01*
X3356630Y5323770D01*
X3367890Y5328000D01*
X3380760Y5323770D01*
X3392020Y5311070D01*
X3398460Y5292020D01*
X3400070Y5270850D01*
X3396850Y5243340D01*
X3392020Y5228510D01*
X3383980Y5213700D01*
X3372720Y5203120D01*
X3361460Y5201000D01*
X3350200Y5205230D01*
X3342150Y5215820D01*
G01X3260870Y5285670D02*
X3219050D01*
G01X3100770Y5264500D02*
X3068590D01*
Y5302600D01*
X3078250Y5315300D01*
X3089510Y5323770D01*
X3105590Y5328000D01*
X3121680Y5323770D01*
X3132940Y5315300D01*
X3142590Y5302600D01*
X3149030Y5287780D01*
X3152250Y5270850D01*
Y5256030D01*
X3149030Y5243340D01*
X3142590Y5228510D01*
X3132940Y5215820D01*
X3123290Y5207350D01*
X3110420Y5201000D01*
X3099160D01*
X3086290Y5205230D01*
X3076640Y5213700D01*
G01X3011450Y5328000D02*
Y5201000D01*
X2950310D01*
G01X2972840Y5262380D02*
X3011450D01*
G01X2872250Y5285670D02*
X2830430D01*
G01X2708930Y5260270D02*
X2702500Y5253920D01*
X2697670Y5243340D01*
X2694450Y5228510D01*
X2697670Y5215820D01*
X2704100Y5207350D01*
X2715370Y5201000D01*
X2758800D01*
Y5328000D01*
X2705710D01*
X2694450Y5319540D01*
X2688020Y5306830D01*
X2684800Y5292020D01*
X2688020Y5277200D01*
X2697670Y5264500D01*
X2708930Y5260270D01*
X2758800D01*
G01X2640520Y5370330D02*
X2544000D01*
G01X2494890Y5328000D02*
Y5201000D01*
X2454680D01*
X2441810Y5207350D01*
X2433760Y5215820D01*
X2430550Y5232750D01*
X2433760Y5249680D01*
X2443420Y5260270D01*
X2454680Y5266620D01*
X2494890D01*
G01X2454680D02*
X2430550Y5328000D01*
G01X2301010D02*
X2365350D01*
Y5201000D01*
X2301010D01*
G01X2326750Y5262380D02*
X2365350D01*
G01X2243860Y5201000D02*
X2203640Y5328000D01*
X2163420Y5201000D01*
G01X2114320Y5328000D02*
X2074100Y5201000D01*
X2033880Y5328000D01*
G01X2048360Y5283550D02*
X2099840D01*
G01X2180000Y2461000D02*
X3030000D01*
Y3311000D01*
X2180000D01*
Y2461000D01*
G01X3569530Y1381740D02*
X3592890D01*
G01X3581210D02*
Y1303000D01*
G01X3569530D02*
X3592890D01*
G01X3681370Y1375180D02*
X3675530Y1379120D01*
X3668710Y1381740D01*
X3660920D01*
X3652160Y1377800D01*
X3645350Y1371240D01*
X3640480Y1363370D01*
X3636580Y1350240D01*
X3635610Y1338430D01*
X3637560Y1326620D01*
X3640480Y1318750D01*
X3646320Y1310870D01*
X3653130Y1305620D01*
X3659950Y1303000D01*
X3666770D01*
X3673580Y1305620D01*
X3679420Y1309560D01*
X3684290Y1314810D01*
G01X3717270D02*
X3723110Y1308250D01*
X3729930Y1304310D01*
X3738690Y1303000D01*
X3747450Y1305620D01*
X3754270Y1310870D01*
X3759140Y1320060D01*
X3760110Y1330560D01*
X3758160Y1341060D01*
X3753290Y1347620D01*
X3746480Y1352870D01*
X3739660Y1354180D01*
X3732850Y1352870D01*
X3724090Y1347620D01*
X3727010Y1381740D01*
X3753290D01*
G01X3683740Y476050D02*
X3688610Y468170D01*
X3694450Y462920D01*
X3701260Y460300D01*
X3709050Y462920D01*
X3714890Y468170D01*
X3720740Y476050D01*
X3722680Y486550D01*
Y539040D01*
G01X3763450Y493110D02*
X3770270Y502300D01*
X3776110Y507540D01*
X3783900Y510170D01*
X3790710Y507540D01*
X3795580Y502300D01*
X3799480Y494420D01*
X3800450Y485230D01*
X3799480Y477360D01*
X3795580Y469480D01*
X3789740Y462920D01*
X3782920Y460300D01*
X3775130Y462920D01*
X3768320Y470800D01*
X3764420Y482610D01*
X3763450Y495730D01*
X3765400Y512790D01*
X3768320Y521980D01*
X3773190Y531170D01*
X3780000Y537730D01*
X3786820Y539040D01*
X3793630Y536420D01*
X3798500Y529850D01*
G01X3800000Y2046790D02*
X3721260D01*
Y2066260D01*
X3725200Y2074050D01*
X3730450Y2079890D01*
X3738320Y2084760D01*
X3747510Y2088660D01*
X3760630Y2089630D01*
X3773750Y2088660D01*
X3782940Y2084760D01*
X3790820Y2079890D01*
X3796060Y2074050D01*
X3800000Y2066260D01*
Y2046790D01*
G01Y2146950D02*
X3798690Y2153770D01*
X3794750Y2161550D01*
X3788190Y2166420D01*
X3779000Y2168370D01*
X3769820Y2166420D01*
X3761940Y2160580D01*
X3758000Y2151820D01*
Y2142080D01*
X3755380Y2136240D01*
X3748820Y2131370D01*
X3739630Y2129420D01*
X3730450Y2132350D01*
X3723880Y2139160D01*
X3721260Y2146950D01*
X3723880Y2154740D01*
X3730450Y2161550D01*
X3739630Y2164480D01*
X3748820Y2162530D01*
X3755380Y2157660D01*
X3758000Y2151820D01*
Y2142080D01*
X3761940Y2133320D01*
X3769820Y2127480D01*
X3779000Y2125530D01*
X3788190Y2127480D01*
X3794750Y2132350D01*
X3798690Y2140130D01*
X3800000Y2146950D01*
G01X3767530Y2999740D02*
X3790890D01*
G01X3779210D02*
Y2921000D01*
G01X3767530D02*
X3790890D01*
G01X3879370Y2993180D02*
X3873530Y2997120D01*
X3866710Y2999740D01*
X3858920D01*
X3850160Y2995800D01*
X3843350Y2989240D01*
X3838480Y2981370D01*
X3834580Y2968240D01*
X3833610Y2956430D01*
X3835560Y2944620D01*
X3838480Y2936750D01*
X3844320Y2928870D01*
X3851130Y2923620D01*
X3857950Y2921000D01*
X3864770D01*
X3871580Y2923620D01*
X3877420Y2927560D01*
X3882290Y2932810D01*
G01X3934740Y2921000D02*
X3936690Y2938060D01*
X3939610Y2952490D01*
X3943510Y2965620D01*
X3948370Y2980050D01*
X3956160Y2999740D01*
X3917220D01*
G01X3716530Y3826740D02*
X3739890D01*
G01X3728210D02*
Y3748000D01*
G01X3716530D02*
X3739890D01*
G01X3828370Y3820180D02*
X3822530Y3824120D01*
X3815710Y3826740D01*
X3807920D01*
X3799160Y3822800D01*
X3792350Y3816240D01*
X3787480Y3808370D01*
X3783580Y3795240D01*
X3782610Y3783430D01*
X3784560Y3771620D01*
X3787480Y3763750D01*
X3793320Y3755870D01*
X3800130Y3750620D01*
X3806950Y3748000D01*
X3813770D01*
X3820580Y3750620D01*
X3826420Y3754560D01*
X3831290Y3759810D01*
G01X3885690Y3748000D02*
Y3826740D01*
X3874010Y3810990D01*
G01Y3748000D02*
X3897370D01*
G01X4178910Y4362600D02*
X4170870Y4375300D01*
X4161220Y4383770D01*
X4149960Y4388000D01*
X4137090Y4383770D01*
X4127440Y4375300D01*
X4117780Y4362600D01*
X4114570Y4345670D01*
Y4261000D01*
G01X3997900Y4388000D02*
Y4261000D01*
X4057420Y4352020D01*
X3976980D01*
G01X4239000Y1450210D02*
X4237690Y1442420D01*
X4232440Y1435610D01*
X4224570Y1429760D01*
X4215380Y1425870D01*
X4204880Y1423920D01*
X4194380D01*
X4183880Y1425870D01*
X4174690Y1429760D01*
X4166820Y1435610D01*
X4161570Y1442420D01*
X4160260Y1450210D01*
X4161570Y1458000D01*
X4166820Y1464810D01*
X4174690Y1470660D01*
X4183880Y1474550D01*
X4194380Y1476500D01*
X4204880D01*
X4215380Y1474550D01*
X4224570Y1470660D01*
X4232440Y1464810D01*
X4237690Y1458000D01*
X4239000Y1450210D01*
G01X4218000Y1458000D02*
X4239000Y1469680D01*
G01X4229820Y1512400D02*
X4236380Y1519210D01*
X4239000Y1527000D01*
X4236380Y1534790D01*
X4228500Y1541610D01*
X4216690Y1546480D01*
X4204880Y1548420D01*
X4190440D01*
X4178630Y1546480D01*
X4168130Y1541610D01*
X4162880Y1535770D01*
X4160260Y1528950D01*
X4162880Y1521160D01*
X4168130Y1515320D01*
X4176010Y1511420D01*
X4186510Y1509480D01*
X4195690Y1511420D01*
X4204880Y1516290D01*
X4210130Y1522130D01*
X4211440Y1528950D01*
X4208820Y1536740D01*
X4202260Y1542580D01*
X4190440Y1548420D01*
G01X4479210Y1041000D02*
X4471420Y1042310D01*
X4464610Y1047560D01*
X4458760Y1055430D01*
X4454870Y1064620D01*
X4452920Y1075120D01*
Y1085620D01*
X4454870Y1096120D01*
X4458760Y1105310D01*
X4464610Y1113180D01*
X4471420Y1118430D01*
X4479210Y1119740D01*
X4487000Y1118430D01*
X4493810Y1113180D01*
X4499660Y1105310D01*
X4503550Y1096120D01*
X4505500Y1085620D01*
Y1075120D01*
X4503550Y1064620D01*
X4499660Y1055430D01*
X4493810Y1047560D01*
X4487000Y1042310D01*
X4479210Y1041000D01*
G01X4487000Y1062000D02*
X4498680Y1041000D01*
G01X4557950D02*
Y1119740D01*
X4546270Y1103990D01*
G01Y1041000D02*
X4569630D01*
G01X4636690Y1119740D02*
X4628900Y1117120D01*
X4623060Y1110550D01*
X4619160Y1102680D01*
X4616240Y1092180D01*
X4615270Y1080370D01*
X4616240Y1068560D01*
X4619160Y1058060D01*
X4623060Y1050180D01*
X4628900Y1043620D01*
X4636690Y1041000D01*
X4644480Y1043620D01*
X4650320Y1050180D01*
X4654220Y1058060D01*
X4657140Y1068560D01*
X4658110Y1080370D01*
X4657140Y1092180D01*
X4654220Y1102680D01*
X4650320Y1110550D01*
X4644480Y1117120D01*
X4636690Y1119740D01*
G01X4603740Y1433740D02*
Y1355000D01*
X4642680D01*
G01X4683450Y1387810D02*
X4690270Y1397000D01*
X4696110Y1402240D01*
X4703900Y1404870D01*
X4710710Y1402240D01*
X4715580Y1397000D01*
X4719480Y1389120D01*
X4720450Y1379930D01*
X4719480Y1372060D01*
X4715580Y1364180D01*
X4709740Y1357620D01*
X4702920Y1355000D01*
X4695130Y1357620D01*
X4688320Y1365500D01*
X4684420Y1377310D01*
X4683450Y1390430D01*
X4685400Y1407490D01*
X4688320Y1416680D01*
X4693190Y1425870D01*
X4700000Y1432430D01*
X4706820Y1433740D01*
X4713630Y1431120D01*
X4718500Y1424550D01*
G01X4559530Y2116740D02*
X4582890D01*
G01X4571210D02*
Y2038000D01*
G01X4559530D02*
X4582890D01*
G01X4671370Y2110180D02*
X4665530Y2114120D01*
X4658710Y2116740D01*
X4650920D01*
X4642160Y2112800D01*
X4635350Y2106240D01*
X4630480Y2098370D01*
X4626580Y2085240D01*
X4625610Y2073430D01*
X4627560Y2061620D01*
X4630480Y2053750D01*
X4636320Y2045870D01*
X4643130Y2040620D01*
X4649950Y2038000D01*
X4656770D01*
X4663580Y2040620D01*
X4669420Y2044560D01*
X4674290Y2049810D01*
G01X4728690Y2038000D02*
X4735510Y2039310D01*
X4743290Y2043250D01*
X4748160Y2049810D01*
X4750110Y2059000D01*
X4748160Y2068180D01*
X4742320Y2076060D01*
X4733560Y2080000D01*
X4723820D01*
X4717980Y2082620D01*
X4713110Y2089180D01*
X4711160Y2098370D01*
X4714090Y2107550D01*
X4720900Y2114120D01*
X4728690Y2116740D01*
X4736480Y2114120D01*
X4743290Y2107550D01*
X4746220Y2098370D01*
X4744270Y2089180D01*
X4739400Y2082620D01*
X4733560Y2080000D01*
X4723820D01*
X4715060Y2076060D01*
X4709220Y2068180D01*
X4707270Y2059000D01*
X4709220Y2049810D01*
X4714090Y2043250D01*
X4721870Y2039310D01*
X4728690Y2038000D01*
G01X4546530Y2827740D02*
X4569890D01*
G01X4558210D02*
Y2749000D01*
G01X4546530D02*
X4569890D01*
G01X4658370Y2821180D02*
X4652530Y2825120D01*
X4645710Y2827740D01*
X4637920D01*
X4629160Y2823800D01*
X4622350Y2817240D01*
X4617480Y2809370D01*
X4613580Y2796240D01*
X4612610Y2784430D01*
X4614560Y2772620D01*
X4617480Y2764750D01*
X4623320Y2756870D01*
X4630130Y2751620D01*
X4636950Y2749000D01*
X4643770D01*
X4650580Y2751620D01*
X4656420Y2755560D01*
X4661290Y2760810D01*
G01X4697190Y2814620D02*
X4703030Y2822490D01*
X4709850Y2826430D01*
X4717640Y2827740D01*
X4727370Y2825120D01*
X4734190Y2818550D01*
X4736140Y2810680D01*
X4735160Y2802800D01*
X4731270Y2796240D01*
X4711800Y2783120D01*
X4703030Y2773930D01*
X4697190Y2760810D01*
X4695240Y2749000D01*
X4736140D01*
G01X4585000Y3514210D02*
X4663740D01*
Y3494740D01*
X4659800Y3486950D01*
X4654550Y3481110D01*
X4646680Y3476240D01*
X4637490Y3472340D01*
X4624370Y3471370D01*
X4611250Y3472340D01*
X4602060Y3476240D01*
X4594180Y3481110D01*
X4588940Y3486950D01*
X4585000Y3494740D01*
Y3514210D01*
G01Y3414050D02*
X4663740D01*
X4647990Y3425730D01*
G01X4585000D02*
Y3402370D01*
G01X4650620Y3353810D02*
X4658490Y3347970D01*
X4662430Y3341150D01*
X4663740Y3333360D01*
X4661120Y3323630D01*
X4654550Y3316810D01*
X4646680Y3314860D01*
X4638800Y3315840D01*
X4632240Y3319730D01*
X4619120Y3339200D01*
X4609930Y3347970D01*
X4596810Y3353810D01*
X4585000Y3355760D01*
Y3314860D01*
G01X4580000Y4588790D02*
X4501260D01*
Y4608260D01*
X4505200Y4616050D01*
X4510450Y4621890D01*
X4518320Y4626760D01*
X4527510Y4630660D01*
X4540630Y4631630D01*
X4553750Y4630660D01*
X4562940Y4626760D01*
X4570820Y4621890D01*
X4576060Y4616050D01*
X4580000Y4608260D01*
Y4588790D01*
G01Y4688950D02*
X4501260D01*
X4517010Y4677270D01*
G01X4580000D02*
Y4700630D01*
G01Y4767690D02*
X4501260D01*
X4517010Y4756010D01*
G01X4580000D02*
Y4779370D01*
M02*
