G04 ================== begin FILE IDENTIFICATION RECORD ==================*
G04 Layout Name:  c:/candencecircuits/parcial2_2025/allegro/parcial2_ks.brd*
G04 Film Name:    INTERNAL_2*
G04 File Format:  Gerber RS274X*
G04 File Origin:  Cadence Allegro 24.1-S006*
G04 Origin Date:  Mon Nov 10 14:52:36 2025*
G04 *
G04 Layer:  VIA CLASS/INTERNAL_2*
G04 Layer:  PIN/INTERNAL_2*
G04 Layer:  ETCH/INTERNAL_2*
G04 *
G04 Offset:    (0.0000 0.0000)*
G04 Mirror:    No*
G04 Mode:      Positive*
G04 Rotation:  0*
G04 FullContactRelief:  No*
G04 UndefLineWidth:     0.1524*
G04 ================== end FILE IDENTIFICATION RECORD ====================*
%FSLAX25Y25*MOMM*%
%IR0*IPPOS*OFA0.00000B0.00000*MIA0B0*SFA1.00000B1.00000*%
%ADD14C,.2*%
%ADD12C,.4*%
%ADD15C,.6096*%
%ADD18C,1.2*%
%ADD16C,1.4*%
%ADD17C,2.7*%
%ADD11C,3.45*%
%ADD13C,1.238*%
%ADD10C,2.925*%
%LPD*%
G75*
G54D10*
X236000Y229000D03*
Y1543000D03*
X1232000Y457000D03*
X2546000D03*
X2818000Y4768000D03*
X4132000D03*
G54D11*
X278000Y2015000D03*
X231500Y2704500D03*
X278000Y3329000D03*
X3017000Y336000D03*
X3641500Y289500D03*
X4331000Y336000D03*
G54D12*
X164290Y4233000D03*
X85710D03*
X353000Y3944000D03*
X648000Y1441000D03*
X702000Y1553000D03*
X619000Y3773000D03*
X538000D03*
X701000Y4040000D03*
X649110Y4236180D03*
X570530D03*
X786000Y671000D03*
X770000Y2867000D03*
X843210Y3759080D03*
X764630D03*
X873000Y4040000D03*
X864200Y4109000D03*
X1048000Y373000D03*
X1037000Y1841000D03*
X1040710Y2546000D03*
X942780Y4109000D03*
X1151000Y1934000D03*
X1119290Y2546000D03*
X1059000Y4040000D03*
X1222000Y4770000D03*
X1381000Y2915000D03*
X1383290Y3101990D03*
X1304710D03*
X1249000Y4040000D03*
X1321000Y4645000D03*
X1509000Y1748000D03*
X1562000Y2484000D03*
X1554290Y2687000D03*
X1475710D03*
X1614000Y2144000D03*
X1599000Y2445000D03*
X1664290Y3125000D03*
X1585710D03*
X1705000Y3462000D03*
X1671000Y4498000D03*
X1758000Y1774000D03*
X1853000Y3353000D03*
X1893000Y3419000D03*
X1896000Y3579000D03*
X2087000Y1858000D03*
X2040000Y2216000D03*
X2015000Y2403300D03*
X2082000Y2686000D03*
X1933000Y3321000D03*
X1996000Y3892000D03*
X2251000Y162000D03*
X2121000Y2886000D03*
X2112000Y3047000D03*
X2349000Y889000D03*
X2355000Y959000D03*
X2320000Y4152000D03*
X2491000Y4218000D03*
X2625000Y2387000D03*
X2754000Y3337000D03*
X2962000Y1208000D03*
X2887000Y1579000D03*
X2925000Y2187000D03*
X2799000Y2228000D03*
X2879000Y3365000D03*
X2928000Y3861000D03*
X3014000Y866000D03*
X3081000Y1025000D03*
X3043000Y1269000D03*
X3072000Y1341000D03*
X3132000Y1499000D03*
X3043000Y1707000D03*
X3045000Y2424000D03*
X3136000Y2333000D03*
X3099000Y2603000D03*
X3093500Y2864500D03*
X2980000Y3358000D03*
X3101000Y3291000D03*
X3132000Y3631000D03*
X3054000Y3890000D03*
X3038000Y3831000D03*
X3127710Y4369000D03*
X3228000Y607000D03*
X3286000Y1402000D03*
X3265000Y1701000D03*
X3303500Y2301500D03*
X3307000Y2645000D03*
X3301000Y3138000D03*
X3241000Y3811000D03*
X3285940Y3740000D03*
X3262000Y3950000D03*
X3206290Y4369000D03*
X3354500Y1140500D03*
X3382000Y2279000D03*
X3464000D03*
Y2679000D03*
X3432000Y2842000D03*
X3440000Y3017000D03*
X3371000Y3241000D03*
Y3376000D03*
X3552000Y1365000D03*
X3497000Y2346000D03*
X3557000Y2703000D03*
X3495000Y3441000D03*
X3827000Y866000D03*
X3760500Y1335500D03*
X3678000Y3531000D03*
X3992000Y1059000D03*
X3991000Y1196000D03*
X3980000Y1323000D03*
X3999500Y1465500D03*
X3975000Y1653000D03*
X3857000Y2573000D03*
X4030000Y954000D03*
X4166000Y1160000D03*
X4153000Y1462000D03*
X4025000Y1351000D03*
X4123000Y1640000D03*
X4079000Y2392000D03*
X4132000Y2333000D03*
X4089000Y2814000D03*
X4129000Y3133000D03*
X4053000Y4047000D03*
X4113000Y4161000D03*
X4250000Y946000D03*
X4245000Y2671000D03*
X4254000Y2526000D03*
X4292000Y2947000D03*
X4288520Y3724520D03*
X4293000Y3790000D03*
X4313000Y4148000D03*
X4286540Y4301070D03*
X4185000Y4260000D03*
X4443000Y1695000D03*
X4382000Y2451000D03*
X4668000Y1336000D03*
X4650000Y1505000D03*
X4627000Y1945000D03*
X4586000Y2324000D03*
X4665000Y2547000D03*
X4695000Y3653000D03*
X4585000Y3589000D03*
X4589000Y3893000D03*
X4588000Y4013000D03*
X4611000Y4219640D03*
X4541000Y4188000D03*
X4576000Y4283000D03*
X4626000Y4737000D03*
X4560000Y4865000D03*
X4618000Y4929000D03*
X4775000Y1087000D03*
X4725000Y994000D03*
X4772000Y1287000D03*
X4777000Y1162000D03*
X4728000Y1378000D03*
X4824000Y1881000D03*
X4741000Y2513000D03*
X4816000Y2812000D03*
X4765000Y2976000D03*
X4801000Y3129000D03*
X4707000Y3239000D03*
X4801000Y3480000D03*
X4762000Y3498000D03*
X4856000Y3592000D03*
X4817000Y3691000D03*
X4804000Y3976000D03*
X4756000Y4103000D03*
X4838000Y4206000D03*
X4801000Y4254000D03*
X4805000Y4635000D03*
Y4680000D03*
X4914000Y1267000D03*
X4919000Y3218000D03*
X4929000Y3628000D03*
G54D13*
X386000Y486000D03*
X236000Y536000D03*
X386000Y686000D03*
X236000Y786000D03*
X386000Y886000D03*
Y1086000D03*
X236000Y986000D03*
X386000Y1286000D03*
X236000Y1236000D03*
X1539000Y457000D03*
X1489000Y607000D03*
X1789000Y457000D03*
X1689000Y607000D03*
X1889000D03*
X1989000Y457000D03*
X2089000Y607000D03*
X2239000Y457000D03*
X2289000Y607000D03*
X3075000Y4618000D03*
X3125000Y4768000D03*
X3275000Y4618000D03*
X3475000D03*
X3375000Y4768000D03*
X3675000Y4618000D03*
X3575000Y4768000D03*
X3875000Y4618000D03*
X3825000Y4768000D03*
G54D14*
X277000Y3773000D03*
X203000Y4172000D03*
X314000Y4469000D03*
X443000Y2322000D03*
X365000Y4474000D03*
X827000Y671000D03*
X1019000Y1580000D03*
X919000Y1585000D03*
X1018000Y1445000D03*
X1098000Y1492000D03*
X1051000Y1681000D03*
X1043000Y1759000D03*
X1262000Y1798000D03*
X1503000Y1531000D03*
X1517000Y1677000D03*
X1441000Y2103000D03*
X1531000Y2148000D03*
X1683000Y1836000D03*
X1675000Y2259000D03*
X1595000Y2321000D03*
X1735000Y1835000D03*
X1760000Y2469000D03*
X1858000Y2574000D03*
X1841000Y2689000D03*
X1837000Y3050000D03*
X1869000Y3458000D03*
X1891120Y3370120D03*
X1769000Y3697000D03*
X1789000Y4040000D03*
X2056000Y903000D03*
X2005500Y844500D03*
X1940000Y2370000D03*
X2136000Y843000D03*
X2122000Y2136000D03*
X2083000Y3601000D03*
X2289000Y843000D03*
X2321000Y2129000D03*
X2401000Y3650000D03*
X2390000Y4081000D03*
X2346000Y4066000D03*
X2602000Y2130000D03*
X2697000Y3398000D03*
X2602000Y3642000D03*
X2723000Y3641000D03*
X2941000Y1473000D03*
X2803000Y2136000D03*
X3003000Y928060D03*
X3022000Y1430000D03*
X2962000Y3639000D03*
X3010000Y3641000D03*
X3234000Y3454000D03*
X3257000Y3583000D03*
X3375000Y2489000D03*
X3378000Y2568000D03*
X3330000Y2827000D03*
X3435000Y2923000D03*
X3456000Y2968000D03*
X3409000Y3069000D03*
X3398000Y3027000D03*
X3335000Y3214000D03*
X3322000Y3324000D03*
X3339000Y3580000D03*
X3507000Y2500000D03*
X3588000D03*
X3635000Y2981000D03*
X3468000Y3334230D03*
X3702000Y3225000D03*
X3676500Y3669500D03*
X3908000Y918000D03*
X3940000Y2667000D03*
X3870000Y2957560D03*
X3908000Y3644000D03*
X4046000Y884000D03*
X4048000Y2746000D03*
X4133000Y2773000D03*
X4006000Y2751000D03*
X4024000Y2913650D03*
X4048000Y3051000D03*
X4317000Y2089000D03*
X4253000Y2069000D03*
X4244000Y2792000D03*
X4181000Y3915000D03*
X4178000Y4154000D03*
X4478000Y3067000D03*
X4380000Y4436000D03*
X4674000Y221000D03*
X4644000Y2326000D03*
X4594000Y2992000D03*
X4778000Y2088000D03*
X4749950Y2411950D03*
X4758000Y2784000D03*
X4698800Y4929000D03*
G54D15*
X321000Y4339000D03*
Y4337000D03*
X548000Y3955000D03*
X490930Y4652000D03*
X585070D03*
X1312930Y3817000D03*
X1407070D03*
X2605000Y2925000D03*
X2508000Y4770000D03*
G54D16*
X549000Y2322000D03*
Y2572000D03*
Y2772000D03*
Y3022000D03*
X3324000Y607000D03*
X3574000D03*
X3774000D03*
X4024000D03*
G54D17*
X1014000Y4770000D03*
X2328000D03*
G54D18*
X1271000Y4420000D03*
X1321000Y4570000D03*
X1471000Y4420000D03*
X1571000Y4570000D03*
X1671000Y4420000D03*
X1771000Y4570000D03*
X1871000Y4420000D03*
X2071000D03*
X2021000Y4570000D03*
M02*
