G04 ================== begin FILE IDENTIFICATION RECORD ==================*
G04 Layout Name:  c:/candencecircuits/parcial2_2025/allegro/parcial2_ks.brd*
G04 Film Name:    NCLEGEND-1-6*
G04 File Format:  Gerber RS274X*
G04 File Origin:  Cadence Allegro 24.1-S006*
G04 Origin Date:  Mon Nov 10 14:52:36 2025*
G04 *
G04 Layer:  MANUFACTURING/NCLEGEND-1-6*
G04 Layer:  BOARD GEOMETRY/CUTOUT*
G04 Layer:  BOARD GEOMETRY/DESIGN_OUTLINE*
G04 Layer:  BOARD GEOMETRY/DIMENSION*
G04 *
G04 Offset:    (0.0000 0.0000)*
G04 Mirror:    No*
G04 Mode:      Positive*
G04 Rotation:  0*
G04 FullContactRelief:  No*
G04 UndefLineWidth:     0.1524*
G04 ================== end FILE IDENTIFICATION RECORD ====================*
%FSLAX25Y25*MOMM*%
%IR0*IPPOS*OFA0.00000B0.00000*MIA0B0*SFA1.00000B1.00000*%
%AMMACRO13*
1,1,.1524,.25,0.0*
20,1,.1524,.25,0.0,.246202,-.043412,0.0*
1,1,.1524,.246202,-.043412*
20,1,.1524,.246202,-.043412,.234923,-.085505,0.0*
1,1,.1524,.234923,-.085505*
20,1,.1524,.234923,-.085505,.216506,-.125,0.0*
1,1,.1524,.216506,-.125*
20,1,.1524,.216506,-.125,.191511,-.160697,0.0*
1,1,.1524,.191511,-.160697*
20,1,.1524,.191511,-.160697,.160697,-.191511,0.0*
1,1,.1524,.160697,-.191511*
20,1,.1524,.160697,-.191511,.125,-.216506,0.0*
1,1,.1524,.125,-.216506*
20,1,.1524,.125,-.216506,.085505,-.234923,0.0*
1,1,.1524,.085505,-.234923*
20,1,.1524,.085505,-.234923,.043412,-.246202,0.0*
1,1,.1524,.043412,-.246202*
20,1,.1524,.043412,-.246202,0.0,-.25,0.0*
1,1,.1524,0.0,-.25*
20,1,.1524,0.0,-.25,-.043412,-.246202,0.0*
1,1,.1524,-.043412,-.246202*
20,1,.1524,-.043412,-.246202,-.085505,-.234923,0.0*
1,1,.1524,-.085505,-.234923*
20,1,.1524,-.085505,-.234923,-.125,-.216506,0.0*
1,1,.1524,-.125,-.216506*
20,1,.1524,-.125,-.216506,-.160697,-.191511,0.0*
1,1,.1524,-.160697,-.191511*
20,1,.1524,-.160697,-.191511,-.191511,-.160697,0.0*
1,1,.1524,-.191511,-.160697*
20,1,.1524,-.191511,-.160697,-.216506,-.125,0.0*
1,1,.1524,-.216506,-.125*
20,1,.1524,-.216506,-.125,-.234923,-.085505,0.0*
1,1,.1524,-.234923,-.085505*
20,1,.1524,-.234923,-.085505,-.246202,-.043412,0.0*
1,1,.1524,-.246202,-.043412*
20,1,.1524,-.246202,-.043412,-.25,0.0,0.0*
1,1,.1524,-.25,0.0*
20,1,.1524,-.25,0.0,-.246202,.043412,0.0*
1,1,.1524,-.246202,.043412*
20,1,.1524,-.246202,.043412,-.234923,.085505,0.0*
1,1,.1524,-.234923,.085505*
20,1,.1524,-.234923,.085505,-.216506,.125,0.0*
1,1,.1524,-.216506,.125*
20,1,.1524,-.216506,.125,-.191511,.160697,0.0*
1,1,.1524,-.191511,.160697*
20,1,.1524,-.191511,.160697,-.160697,.191511,0.0*
1,1,.1524,-.160697,.191511*
20,1,.1524,-.160697,.191511,-.125,.216506,0.0*
1,1,.1524,-.125,.216506*
20,1,.1524,-.125,.216506,-.085505,.234923,0.0*
1,1,.1524,-.085505,.234923*
20,1,.1524,-.085505,.234923,-.043412,.246202,0.0*
1,1,.1524,-.043412,.246202*
20,1,.1524,-.043412,.246202,0.0,.25,0.0*
1,1,.1524,0.0,.25*
20,1,.1524,0.0,.25,.043412,.246202,0.0*
1,1,.1524,.043412,.246202*
20,1,.1524,.043412,.246202,.085505,.234923,0.0*
1,1,.1524,.085505,.234923*
20,1,.1524,.085505,.234923,.125,.216506,0.0*
1,1,.1524,.125,.216506*
20,1,.1524,.125,.216506,.160697,.191511,0.0*
1,1,.1524,.160697,.191511*
20,1,.1524,.160697,.191511,.191511,.160697,0.0*
1,1,.1524,.191511,.160697*
20,1,.1524,.191511,.160697,.216506,.125,0.0*
1,1,.1524,.216506,.125*
20,1,.1524,.216506,.125,.234923,.085505,0.0*
1,1,.1524,.234923,.085505*
20,1,.1524,.234923,.085505,.246202,.043412,0.0*
1,1,.1524,.246202,.043412*
20,1,.1524,.246202,.043412,.25,0.0,0.0*
1,1,.1524,.25,0.0*
%
%ADD13MACRO13*%
%AMMACRO12*
1,1,.1524,.635,0.0*
20,1,.1524,.635,0.0,.625353,-.110267,0.0*
1,1,.1524,.625353,-.110267*
20,1,.1524,.625353,-.110267,.596705,-.217183,0.0*
1,1,.1524,.596705,-.217183*
20,1,.1524,.596705,-.217183,.549926,-.3175,0.0*
1,1,.1524,.549926,-.3175*
20,1,.1524,.549926,-.3175,.486438,-.40817,0.0*
1,1,.1524,.486438,-.40817*
20,1,.1524,.486438,-.40817,.40817,-.486438,0.0*
1,1,.1524,.40817,-.486438*
20,1,.1524,.40817,-.486438,.3175,-.549926,0.0*
1,1,.1524,.3175,-.549926*
20,1,.1524,.3175,-.549926,.217183,-.596705,0.0*
1,1,.1524,.217183,-.596705*
20,1,.1524,.217183,-.596705,.110267,-.625353,0.0*
1,1,.1524,.110267,-.625353*
20,1,.1524,.110267,-.625353,0.0,-.635,0.0*
1,1,.1524,0.0,-.635*
20,1,.1524,0.0,-.635,-.110267,-.625353,0.0*
1,1,.1524,-.110267,-.625353*
20,1,.1524,-.110267,-.625353,-.217183,-.596705,0.0*
1,1,.1524,-.217183,-.596705*
20,1,.1524,-.217183,-.596705,-.3175,-.549926,0.0*
1,1,.1524,-.3175,-.549926*
20,1,.1524,-.3175,-.549926,-.40817,-.486438,0.0*
1,1,.1524,-.40817,-.486438*
20,1,.1524,-.40817,-.486438,-.486438,-.40817,0.0*
1,1,.1524,-.486438,-.40817*
20,1,.1524,-.486438,-.40817,-.549926,-.3175,0.0*
1,1,.1524,-.549926,-.3175*
20,1,.1524,-.549926,-.3175,-.596705,-.217183,0.0*
1,1,.1524,-.596705,-.217183*
20,1,.1524,-.596705,-.217183,-.625353,-.110267,0.0*
1,1,.1524,-.625353,-.110267*
20,1,.1524,-.625353,-.110267,-.635,0.0,0.0*
1,1,.1524,-.635,0.0*
20,1,.1524,-.635,0.0,-.625353,.110267,0.0*
1,1,.1524,-.625353,.110267*
20,1,.1524,-.625353,.110267,-.596705,.217183,0.0*
1,1,.1524,-.596705,.217183*
20,1,.1524,-.596705,.217183,-.549926,.3175,0.0*
1,1,.1524,-.549926,.3175*
20,1,.1524,-.549926,.3175,-.486438,.40817,0.0*
1,1,.1524,-.486438,.40817*
20,1,.1524,-.486438,.40817,-.40817,.486438,0.0*
1,1,.1524,-.40817,.486438*
20,1,.1524,-.40817,.486438,-.3175,.549926,0.0*
1,1,.1524,-.3175,.549926*
20,1,.1524,-.3175,.549926,-.217183,.596705,0.0*
1,1,.1524,-.217183,.596705*
20,1,.1524,-.217183,.596705,-.110267,.625353,0.0*
1,1,.1524,-.110267,.625353*
20,1,.1524,-.110267,.625353,0.0,.635,0.0*
1,1,.1524,0.0,.635*
20,1,.1524,0.0,.635,.110267,.625353,0.0*
1,1,.1524,.110267,.625353*
20,1,.1524,.110267,.625353,.217183,.596705,0.0*
1,1,.1524,.217183,.596705*
20,1,.1524,.217183,.596705,.3175,.549926,0.0*
1,1,.1524,.3175,.549926*
20,1,.1524,.3175,.549926,.40817,.486438,0.0*
1,1,.1524,.40817,.486438*
20,1,.1524,.40817,.486438,.486438,.40817,0.0*
1,1,.1524,.486438,.40817*
20,1,.1524,.486438,.40817,.549926,.3175,0.0*
1,1,.1524,.549926,.3175*
20,1,.1524,.549926,.3175,.596705,.217183,0.0*
1,1,.1524,.596705,.217183*
20,1,.1524,.596705,.217183,.625353,.110267,0.0*
1,1,.1524,.625353,.110267*
20,1,.1524,.625353,.110267,.635,0.0,0.0*
1,1,.1524,.635,0.0*
%
%ADD12MACRO12*%
%AMMACRO14*
1,1,.1524,.635,0.0*
20,1,.1524,.635,0.0,.625353,-.110267,0.0*
1,1,.1524,.625353,-.110267*
20,1,.1524,.625353,-.110267,.596705,-.217183,0.0*
1,1,.1524,.596705,-.217183*
20,1,.1524,.596705,-.217183,.549926,-.3175,0.0*
1,1,.1524,.549926,-.3175*
20,1,.1524,.549926,-.3175,.486438,-.40817,0.0*
1,1,.1524,.486438,-.40817*
20,1,.1524,.486438,-.40817,.40817,-.486438,0.0*
1,1,.1524,.40817,-.486438*
20,1,.1524,.40817,-.486438,.3175,-.549926,0.0*
1,1,.1524,.3175,-.549926*
20,1,.1524,.3175,-.549926,.217183,-.596705,0.0*
1,1,.1524,.217183,-.596705*
20,1,.1524,.217183,-.596705,.110267,-.625353,0.0*
1,1,.1524,.110267,-.625353*
20,1,.1524,.110267,-.625353,0.0,-.635,0.0*
1,1,.1524,0.0,-.635*
20,1,.1524,0.0,-.635,-.110267,-.625353,0.0*
1,1,.1524,-.110267,-.625353*
20,1,.1524,-.110267,-.625353,-.217183,-.596705,0.0*
1,1,.1524,-.217183,-.596705*
20,1,.1524,-.217183,-.596705,-.3175,-.549926,0.0*
1,1,.1524,-.3175,-.549926*
20,1,.1524,-.3175,-.549926,-.40817,-.486438,0.0*
1,1,.1524,-.40817,-.486438*
20,1,.1524,-.40817,-.486438,-.486438,-.40817,0.0*
1,1,.1524,-.486438,-.40817*
20,1,.1524,-.486438,-.40817,-.549926,-.3175,0.0*
1,1,.1524,-.549926,-.3175*
20,1,.1524,-.549926,-.3175,-.596705,-.217183,0.0*
1,1,.1524,-.596705,-.217183*
20,1,.1524,-.596705,-.217183,-.625353,-.110267,0.0*
1,1,.1524,-.625353,-.110267*
20,1,.1524,-.625353,-.110267,-.635,0.0,0.0*
1,1,.1524,-.635,0.0*
20,1,.1524,-.635,0.0,-.625353,.110267,0.0*
1,1,.1524,-.625353,.110267*
20,1,.1524,-.625353,.110267,-.596705,.217183,0.0*
1,1,.1524,-.596705,.217183*
20,1,.1524,-.596705,.217183,-.549926,.3175,0.0*
1,1,.1524,-.549926,.3175*
20,1,.1524,-.549926,.3175,-.486438,.40817,0.0*
1,1,.1524,-.486438,.40817*
20,1,.1524,-.486438,.40817,-.40817,.486438,0.0*
1,1,.1524,-.40817,.486438*
20,1,.1524,-.40817,.486438,-.3175,.549926,0.0*
1,1,.1524,-.3175,.549926*
20,1,.1524,-.3175,.549926,-.217183,.596705,0.0*
1,1,.1524,-.217183,.596705*
20,1,.1524,-.217183,.596705,-.110267,.625353,0.0*
1,1,.1524,-.110267,.625353*
20,1,.1524,-.110267,.625353,0.0,.635,0.0*
1,1,.1524,0.0,.635*
20,1,.1524,0.0,.635,.110267,.625353,0.0*
1,1,.1524,.110267,.625353*
20,1,.1524,.110267,.625353,.217183,.596705,0.0*
1,1,.1524,.217183,.596705*
20,1,.1524,.217183,.596705,.3175,.549926,0.0*
1,1,.1524,.3175,.549926*
20,1,.1524,.3175,.549926,.40817,.486438,0.0*
1,1,.1524,.40817,.486438*
20,1,.1524,.40817,.486438,.486438,.40817,0.0*
1,1,.1524,.486438,.40817*
20,1,.1524,.486438,.40817,.549926,.3175,0.0*
1,1,.1524,.549926,.3175*
20,1,.1524,.549926,.3175,.596705,.217183,0.0*
1,1,.1524,.596705,.217183*
20,1,.1524,.596705,.217183,.625353,.110267,0.0*
1,1,.1524,.625353,.110267*
20,1,.1524,.625353,.110267,.635,0.0,0.0*
1,1,.1524,.635,0.0*
1,1,.1524,.3175,0.0*
20,1,.1524,.3175,0.0,-.3175,0.0,0.0*
1,1,.1524,-.3175,0.0*
1,1,.1524,0.0,.3175*
20,1,.1524,0.0,.3175,0.0,-.3175,0.0*
1,1,.1524,0.0,-.3175*
%
%ADD14MACRO14*%
%AMMACRO11*
1,1,.1524,1.15,0.0*
20,1,.1524,1.15,0.0,0.0,-1.15,0.0*
1,1,.1524,0.0,-1.15*
20,1,.1524,0.0,-1.15,-1.15,0.0,0.0*
1,1,.1524,-1.15,0.0*
20,1,.1524,-1.15,0.0,0.0,1.15,0.0*
1,1,.1524,0.0,1.15*
20,1,.1524,0.0,1.15,1.15,0.0,0.0*
1,1,.1524,1.15,0.0*
1,1,.1524,.4217,.4792*
20,1,.1524,.4217,.4792,.3067,.5367,0.0*
1,1,.1524,.3067,.5367*
20,1,.1524,.3067,.5367,.1725,.575,0.0*
1,1,.1524,.1725,.575*
20,1,.1524,.1725,.575,.0192,.575,0.0*
1,1,.1524,.0192,.575*
20,1,.1524,.0192,.575,-.1534,.5175,0.0*
1,1,.1524,-.1534,.5175*
20,1,.1524,-.1534,.5175,-.2875,.4217,0.0*
1,1,.1524,-.2875,.4217*
20,1,.1524,-.2875,.4217,-.3833,.3067,0.0*
1,1,.1524,-.3833,.3067*
20,1,.1524,-.3833,.3067,-.46,.115,0.0*
1,1,.1524,-.46,.115*
20,1,.1524,-.46,.115,-.4792,-.0575,0.0*
1,1,.1524,-.4792,-.0575*
20,1,.1524,-.4792,-.0575,-.4408,-.23,0.0*
1,1,.1524,-.4408,-.23*
20,1,.1524,-.4408,-.23,-.3833,-.345,0.0*
1,1,.1524,-.3833,-.345*
20,1,.1524,-.3833,-.345,-.2683,-.46,0.0*
1,1,.1524,-.2683,-.46*
20,1,.1524,-.2683,-.46,-.1342,-.5367,0.0*
1,1,.1524,-.1342,-.5367*
20,1,.1524,-.1342,-.5367,0.0,-.575,0.0*
1,1,.1524,0.0,-.575*
20,1,.1524,0.0,-.575,.1342,-.575,0.0*
1,1,.1524,.1342,-.575*
20,1,.1524,.1342,-.575,.2683,-.5367,0.0*
1,1,.1524,.2683,-.5367*
20,1,.1524,.2683,-.5367,.3833,-.4792,0.0*
1,1,.1524,.3833,-.4792*
20,1,.1524,.3833,-.4792,.4792,-.4025,0.0*
1,1,.1524,.4792,-.4025*
%
%ADD11MACRO11*%
%AMMACRO17*
1,1,.1524,.35,0.0*
20,1,.1524,.35,0.0,0.0,-.35,0.0*
1,1,.1524,0.0,-.35*
20,1,.1524,0.0,-.35,-.35,0.0,0.0*
1,1,.1524,-.35,0.0*
20,1,.1524,-.35,0.0,0.0,.35,0.0*
1,1,.1524,0.0,.35*
20,1,.1524,0.0,.35,.35,0.0,0.0*
1,1,.1524,.35,0.0*
1,1,.1524,-.1458,-.175*
20,1,.1524,-.1458,-.175,0.0,.175,0.0*
1,1,.1524,0.0,.175*
20,1,.1524,0.0,.175,.1458,-.175,0.0*
1,1,.1524,.1458,-.175*
1,1,.1524,.0933,-.0525*
20,1,.1524,.0933,-.0525,-.0933,-.0525,0.0*
1,1,.1524,-.0933,-.0525*
%
%ADD17MACRO17*%
%AMMACRO18*
1,1,.1524,.35,0.0*
20,1,.1524,.35,0.0,0.0,-.35,0.0*
1,1,.1524,0.0,-.35*
20,1,.1524,0.0,-.35,-.35,0.0,0.0*
1,1,.1524,-.35,0.0*
20,1,.1524,-.35,0.0,0.0,.35,0.0*
1,1,.1524,0.0,.35*
20,1,.1524,0.0,.35,.35,0.0,0.0*
1,1,.1524,.35,0.0*
1,1,.1524,.0467,.0117*
20,1,.1524,.0467,.0117,.07,.0292,0.0*
1,1,.1524,.07,.0292*
20,1,.1524,.07,.0292,.0875,.0583,0.0*
1,1,.1524,.0875,.0583*
20,1,.1524,.0875,.0583,.0992,.0992,0.0*
1,1,.1524,.0992,.0992*
20,1,.1524,.0992,.0992,.0875,.1342,0.0*
1,1,.1524,.0875,.1342*
20,1,.1524,.0875,.1342,.0642,.1575,0.0*
1,1,.1524,.0642,.1575*
20,1,.1524,.0642,.1575,.0233,.175,0.0*
1,1,.1524,.0233,.175*
20,1,.1524,.0233,.175,-.1342,.175,0.0*
1,1,.1524,-.1342,.175*
20,1,.1524,-.1342,.175,-.1342,-.175,0.0*
1,1,.1524,-.1342,-.175*
20,1,.1524,-.1342,-.175,.0583,-.175,0.0*
1,1,.1524,.0583,-.175*
20,1,.1524,.0583,-.175,.0992,-.1517,0.0*
1,1,.1524,.0992,-.1517*
20,1,.1524,.0992,-.1517,.1225,-.1167,0.0*
1,1,.1524,.1225,-.1167*
20,1,.1524,.1225,-.1167,.1342,-.0758,0.0*
1,1,.1524,.1342,-.0758*
20,1,.1524,.1342,-.0758,.1225,-.035,0.0*
1,1,.1524,.1225,-.035*
20,1,.1524,.1225,-.035,.0875,0.0,0.0*
1,1,.1524,.0875,0.0*
20,1,.1524,.0875,0.0,.0467,.0117,0.0*
1,1,.1524,.0467,.0117*
20,1,.1524,.0467,.0117,-.1342,.0117,0.0*
1,1,.1524,-.1342,.0117*
%
%ADD18MACRO18*%
%AMMACRO15*
1,1,.1524,.45,0.0*
20,1,.1524,.45,0.0,0.0,-.45,0.0*
1,1,.1524,0.0,-.45*
20,1,.1524,0.0,-.45,-.45,0.0,0.0*
1,1,.1524,-.45,0.0*
20,1,.1524,-.45,0.0,0.0,.45,0.0*
1,1,.1524,0.0,.45*
20,1,.1524,0.0,.45,.45,0.0,0.0*
1,1,.1524,.45,0.0*
1,1,.1524,-.1875,-.225*
20,1,.1524,-.1875,-.225,0.0,.225,0.0*
1,1,.1524,0.0,.225*
20,1,.1524,0.0,.225,.1875,-.225,0.0*
1,1,.1524,.1875,-.225*
1,1,.1524,.12,-.0675*
20,1,.1524,.12,-.0675,-.12,-.0675,0.0*
1,1,.1524,-.12,-.0675*
%
%ADD15MACRO15*%
%AMMACRO16*
1,1,.1524,.45,0.0*
20,1,.1524,.45,0.0,0.0,-.45,0.0*
1,1,.1524,0.0,-.45*
20,1,.1524,0.0,-.45,-.45,0.0,0.0*
1,1,.1524,-.45,0.0*
20,1,.1524,-.45,0.0,0.0,.45,0.0*
1,1,.1524,0.0,.45*
20,1,.1524,0.0,.45,.45,0.0,0.0*
1,1,.1524,.45,0.0*
1,1,.1524,.06,.015*
20,1,.1524,.06,.015,.09,.0375,0.0*
1,1,.1524,.09,.0375*
20,1,.1524,.09,.0375,.1125,.075,0.0*
1,1,.1524,.1125,.075*
20,1,.1524,.1125,.075,.1275,.1275,0.0*
1,1,.1524,.1275,.1275*
20,1,.1524,.1275,.1275,.1125,.1725,0.0*
1,1,.1524,.1125,.1725*
20,1,.1524,.1125,.1725,.0825,.2025,0.0*
1,1,.1524,.0825,.2025*
20,1,.1524,.0825,.2025,.03,.225,0.0*
1,1,.1524,.03,.225*
20,1,.1524,.03,.225,-.1725,.225,0.0*
1,1,.1524,-.1725,.225*
20,1,.1524,-.1725,.225,-.1725,-.225,0.0*
1,1,.1524,-.1725,-.225*
20,1,.1524,-.1725,-.225,.075,-.225,0.0*
1,1,.1524,.075,-.225*
20,1,.1524,.075,-.225,.1275,-.195,0.0*
1,1,.1524,.1275,-.195*
20,1,.1524,.1275,-.195,.1575,-.15,0.0*
1,1,.1524,.1575,-.15*
20,1,.1524,.1575,-.15,.1725,-.0975,0.0*
1,1,.1524,.1725,-.0975*
20,1,.1524,.1725,-.0975,.1575,-.045,0.0*
1,1,.1524,.1575,-.045*
20,1,.1524,.1575,-.045,.1125,0.0,0.0*
1,1,.1524,.1125,0.0*
20,1,.1524,.1125,0.0,.06,.015,0.0*
1,1,.1524,.06,.015*
20,1,.1524,.06,.015,-.1725,.015,0.0*
1,1,.1524,-.1725,.015*
%
%ADD16MACRO16*%
%AMMACRO10*
1,1,.1524,.5,0.0*
20,1,.1524,.5,0.0,-.5,0.0,0.0*
1,1,.1524,-.5,0.0*
1,1,.1524,0.0,.5*
20,1,.1524,0.0,.5,0.0,-.5,0.0*
1,1,.1524,0.0,-.5*
%
%ADD10MACRO10*%
%ADD19C,.1524*%
G75*
%LPD*%
G75*
G54D10*
X236000Y229000D03*
Y1543000D03*
X386000Y486000D03*
X236000Y536000D03*
X386000Y686000D03*
X236000Y786000D03*
X386000Y886000D03*
Y1086000D03*
X236000Y986000D03*
X386000Y1286000D03*
X236000Y1236000D03*
X1232000Y457000D03*
X1539000D03*
X1489000Y607000D03*
X1789000Y457000D03*
X1689000Y607000D03*
X1889000D03*
X1989000Y457000D03*
X2089000Y607000D03*
X2239000Y457000D03*
X2289000Y607000D03*
X2546000Y457000D03*
X2818000Y4768000D03*
X3075000Y4618000D03*
X3125000Y4768000D03*
X3275000Y4618000D03*
X3475000D03*
X3375000Y4768000D03*
X3675000Y4618000D03*
X3575000Y4768000D03*
X3875000Y4618000D03*
X3825000Y4768000D03*
X4132000D03*
X6151730Y12375000D03*
Y14280000D03*
G54D11*
X278000Y2015000D03*
X231500Y2704500D03*
X278000Y3329000D03*
X1014000Y4770000D03*
X2328000D03*
X3017000Y336000D03*
X3641500Y289500D03*
X4331000Y336000D03*
X6151730Y11740000D03*
G54D12*
X164290Y4233000D03*
X85710D03*
X353000Y3944000D03*
X648000Y1441000D03*
X702000Y1553000D03*
X619000Y3773000D03*
X538000D03*
X701000Y4040000D03*
X649110Y4236180D03*
X570530D03*
X786000Y671000D03*
X770000Y2867000D03*
X843210Y3759080D03*
X764630D03*
X873000Y4040000D03*
X864200Y4109000D03*
X1048000Y373000D03*
X1037000Y1841000D03*
X1040710Y2546000D03*
X942780Y4109000D03*
X1151000Y1934000D03*
X1119290Y2546000D03*
X1059000Y4040000D03*
X1222000Y4770000D03*
X1381000Y2915000D03*
X1383290Y3101990D03*
X1304710D03*
X1249000Y4040000D03*
X1321000Y4645000D03*
X1509000Y1748000D03*
X1562000Y2484000D03*
X1554290Y2687000D03*
X1475710D03*
X1614000Y2144000D03*
X1599000Y2445000D03*
X1664290Y3125000D03*
X1585710D03*
X1705000Y3462000D03*
X1671000Y4498000D03*
X1758000Y1774000D03*
X1853000Y3353000D03*
X1893000Y3419000D03*
X1896000Y3579000D03*
X2087000Y1858000D03*
X2040000Y2216000D03*
X2015000Y2403300D03*
X2082000Y2686000D03*
X1933000Y3321000D03*
X1996000Y3892000D03*
X2251000Y162000D03*
X2121000Y2886000D03*
X2112000Y3047000D03*
X2349000Y889000D03*
X2355000Y959000D03*
X2320000Y4152000D03*
X2491000Y4218000D03*
X2625000Y2387000D03*
X2754000Y3337000D03*
X2962000Y1208000D03*
X2887000Y1579000D03*
X2925000Y2187000D03*
X2799000Y2228000D03*
X2879000Y3365000D03*
X2928000Y3861000D03*
X3014000Y866000D03*
X3081000Y1025000D03*
X3043000Y1269000D03*
X3072000Y1341000D03*
X3132000Y1499000D03*
X3043000Y1707000D03*
X3045000Y2424000D03*
X3136000Y2333000D03*
X3099000Y2603000D03*
X3093500Y2864500D03*
X2980000Y3358000D03*
X3101000Y3291000D03*
X3132000Y3631000D03*
X3054000Y3890000D03*
X3038000Y3831000D03*
X3127710Y4369000D03*
X3228000Y607000D03*
X3286000Y1402000D03*
X3265000Y1701000D03*
X3303500Y2301500D03*
X3307000Y2645000D03*
X3301000Y3138000D03*
X3241000Y3811000D03*
X3285940Y3740000D03*
X3262000Y3950000D03*
X3206290Y4369000D03*
X3354500Y1140500D03*
X3382000Y2279000D03*
X3464000D03*
Y2679000D03*
X3432000Y2842000D03*
X3440000Y3017000D03*
X3371000Y3241000D03*
Y3376000D03*
X3552000Y1365000D03*
X3497000Y2346000D03*
X3557000Y2703000D03*
X3495000Y3441000D03*
X3827000Y866000D03*
X3760500Y1335500D03*
X3678000Y3531000D03*
X3992000Y1059000D03*
X3991000Y1196000D03*
X3980000Y1323000D03*
X3999500Y1465500D03*
X3975000Y1653000D03*
X3857000Y2573000D03*
X4030000Y954000D03*
X4166000Y1160000D03*
X4153000Y1462000D03*
X4025000Y1351000D03*
X4123000Y1640000D03*
X4079000Y2392000D03*
X4132000Y2333000D03*
X4089000Y2814000D03*
X4129000Y3133000D03*
X4053000Y4047000D03*
X4113000Y4161000D03*
X4250000Y946000D03*
X4245000Y2671000D03*
X4254000Y2526000D03*
X4292000Y2947000D03*
X4288520Y3724520D03*
X4293000Y3790000D03*
X4313000Y4148000D03*
X4286540Y4301070D03*
X4185000Y4260000D03*
X4443000Y1695000D03*
X4382000Y2451000D03*
X4668000Y1336000D03*
X4650000Y1505000D03*
X4627000Y1945000D03*
X4586000Y2324000D03*
X4665000Y2547000D03*
X4695000Y3653000D03*
X4585000Y3589000D03*
X4589000Y3893000D03*
X4588000Y4013000D03*
X4611000Y4219640D03*
X4541000Y4188000D03*
X4576000Y4283000D03*
X4626000Y4737000D03*
X4560000Y4865000D03*
X4618000Y4929000D03*
X4775000Y1087000D03*
X4725000Y994000D03*
X4772000Y1287000D03*
X4777000Y1162000D03*
X4728000Y1378000D03*
X4824000Y1881000D03*
X4741000Y2513000D03*
X4816000Y2812000D03*
X4765000Y2976000D03*
X4801000Y3129000D03*
X4707000Y3239000D03*
X4801000Y3480000D03*
X4762000Y3498000D03*
X4856000Y3592000D03*
X4817000Y3691000D03*
X4804000Y3976000D03*
X4756000Y4103000D03*
X4838000Y4206000D03*
X4801000Y4254000D03*
X4805000Y4635000D03*
Y4680000D03*
X4914000Y1267000D03*
X4919000Y3218000D03*
X4929000Y3628000D03*
X6151730Y16820000D03*
G54D13*
X277000Y3773000D03*
X203000Y4172000D03*
X314000Y4469000D03*
X443000Y2322000D03*
X365000Y4474000D03*
X827000Y671000D03*
X1019000Y1580000D03*
X919000Y1585000D03*
X1018000Y1445000D03*
X1098000Y1492000D03*
X1051000Y1681000D03*
X1043000Y1759000D03*
X1262000Y1798000D03*
X1503000Y1531000D03*
X1517000Y1677000D03*
X1441000Y2103000D03*
X1531000Y2148000D03*
X1683000Y1836000D03*
X1675000Y2259000D03*
X1595000Y2321000D03*
X1735000Y1835000D03*
X1760000Y2469000D03*
X1858000Y2574000D03*
X1841000Y2689000D03*
X1837000Y3050000D03*
X1869000Y3458000D03*
X1891120Y3370120D03*
X1769000Y3697000D03*
X1789000Y4040000D03*
X2056000Y903000D03*
X2005500Y844500D03*
X1940000Y2370000D03*
X2136000Y843000D03*
X2122000Y2136000D03*
X2083000Y3601000D03*
X2289000Y843000D03*
X2321000Y2129000D03*
X2401000Y3650000D03*
X2390000Y4081000D03*
X2346000Y4066000D03*
X2602000Y2130000D03*
X2697000Y3398000D03*
X2602000Y3642000D03*
X2723000Y3641000D03*
X2941000Y1473000D03*
X2803000Y2136000D03*
X3003000Y928060D03*
X3022000Y1430000D03*
X2962000Y3639000D03*
X3010000Y3641000D03*
X3234000Y3454000D03*
X3257000Y3583000D03*
X3375000Y2489000D03*
X3378000Y2568000D03*
X3330000Y2827000D03*
X3435000Y2923000D03*
X3456000Y2968000D03*
X3409000Y3069000D03*
X3398000Y3027000D03*
X3335000Y3214000D03*
X3322000Y3324000D03*
X3339000Y3580000D03*
X3507000Y2500000D03*
X3588000D03*
X3635000Y2981000D03*
X3468000Y3334230D03*
X3702000Y3225000D03*
X3676500Y3669500D03*
X3908000Y918000D03*
X3940000Y2667000D03*
X3870000Y2957560D03*
X3908000Y3644000D03*
X4046000Y884000D03*
X4048000Y2746000D03*
X4133000Y2773000D03*
X4006000Y2751000D03*
X4024000Y2913650D03*
X4048000Y3051000D03*
X4317000Y2089000D03*
X4253000Y2069000D03*
X4244000Y2792000D03*
X4181000Y3915000D03*
X4178000Y4154000D03*
X4478000Y3067000D03*
X4380000Y4436000D03*
X4674000Y221000D03*
X4644000Y2326000D03*
X4594000Y2992000D03*
X4778000Y2088000D03*
X4749950Y2411950D03*
X4758000Y2784000D03*
X4698800Y4929000D03*
X6151730Y17455000D03*
G54D14*
X321000Y4339000D03*
Y4337000D03*
X548000Y3955000D03*
X490930Y4652000D03*
X585070D03*
X1312930Y3817000D03*
X1407070D03*
X2605000Y2925000D03*
X2508000Y4770000D03*
X6151730Y16185000D03*
G54D15*
X549000Y2322000D03*
Y2572000D03*
Y2772000D03*
X3574000Y607000D03*
X3774000D03*
X4024000D03*
X6151730Y13645000D03*
G54D16*
X549000Y3022000D03*
X3324000Y607000D03*
X6151730Y13010000D03*
G54D17*
X1271000Y4420000D03*
X1321000Y4570000D03*
X1471000Y4420000D03*
X1571000Y4570000D03*
X1671000Y4420000D03*
X1771000Y4570000D03*
X1871000Y4420000D03*
X2071000D03*
X6151730Y15550000D03*
G54D18*
X2021000Y4570000D03*
X6151730Y14915000D03*
G54D19*
G01X0Y0D02*
Y5000000D01*
X5000000D01*
Y0D01*
X0D01*
G01X5010000Y11422500D02*
Y19692500D01*
X22726500D01*
Y11422500D01*
X5010000D01*
G01Y12057500D02*
X22726500D01*
G01X5010000Y12692500D02*
X22726500D01*
G01X5010000Y13327500D02*
X22726500D01*
G01X5010000Y13962500D02*
X22726500D01*
G01X5010000Y14597500D02*
X22726500D01*
G01X5010000Y15232500D02*
X22726500D01*
G01X5010000Y15867500D02*
X22726500D01*
G01X5010000Y16502500D02*
X22726500D01*
G01X5010000Y17137500D02*
X22726500D01*
G01X5010000Y17772500D02*
X22726500D01*
G01X5010000Y18407500D02*
X22726500D01*
G01X5010000Y19042500D02*
X22726500D01*
G01X5289520Y17931250D02*
Y18248750D01*
X5439140D01*
G01X5384010Y18095300D02*
X5289520D01*
G01X5632050Y18248750D02*
X5726530D01*
G01X5679290D02*
Y17931250D01*
G01X5632050D02*
X5726530D01*
G01X6017870Y18090000D02*
X6096620D01*
Y17994750D01*
X6072990Y17962990D01*
X6045430Y17941830D01*
X6006060Y17931250D01*
X5966690Y17941830D01*
X5939130Y17962990D01*
X5915510Y17994750D01*
X5899760Y18031790D01*
X5891880Y18074120D01*
Y18111170D01*
X5899760Y18142910D01*
X5915510Y18179960D01*
X5939130Y18211710D01*
X5962750Y18232870D01*
X5994250Y18248750D01*
X6021810D01*
X6053300Y18238170D01*
X6076930Y18217000D01*
G01X6222600Y18248750D02*
Y18021210D01*
X6238340Y17973570D01*
X6269840Y17941830D01*
X6309210Y17931250D01*
X6348580Y17941830D01*
X6380080Y17973570D01*
X6395820Y18021210D01*
Y18248750D01*
G01X6545430Y17931250D02*
Y18248750D01*
X6643850D01*
X6675350Y18232870D01*
X6695040Y18211710D01*
X6702910Y18169370D01*
X6695040Y18127040D01*
X6671410Y18100590D01*
X6643850Y18084700D01*
X6545430D01*
G01X6643850D02*
X6702910Y17931250D01*
G01X7017870D02*
X6860390D01*
Y18248750D01*
X7017870D01*
G01X6954880Y18095300D02*
X6860390D01*
G01X7293460Y18407500D02*
Y11422500D01*
G01X7887940Y17931250D02*
Y18248750D01*
X8037560D01*
G01X7982430Y18095300D02*
X7887940D01*
G01X8230470Y18248750D02*
X8324950D01*
G01X8277710D02*
Y17931250D01*
G01X8230470D02*
X8324950D01*
G01X8502120D02*
Y18248750D01*
X8683220Y17931250D01*
Y18248750D01*
G01X8860390D02*
X8954870D01*
G01X8907630D02*
Y17931250D01*
G01X8860390D02*
X8954870D01*
G01X9139910Y17973570D02*
X9171410Y17947120D01*
X9206840Y17931250D01*
X9238340D01*
X9269830Y17947120D01*
X9293460Y17973570D01*
X9305270Y18010630D01*
X9297400Y18047660D01*
X9277710Y18079410D01*
X9242270Y18100590D01*
X9195030Y18111170D01*
X9167470Y18132330D01*
X9155660Y18169370D01*
X9163540Y18206420D01*
X9183220Y18232870D01*
X9210780Y18248750D01*
X9238340D01*
X9265900Y18238170D01*
X9289520Y18211710D01*
G01X9454870Y17931250D02*
Y18248750D01*
G01X9620230D02*
Y17931250D01*
G01Y18090000D02*
X9454870D01*
G01X9931250Y17931250D02*
X9773770D01*
Y18248750D01*
X9931250D01*
G01X9868260Y18095300D02*
X9773770D01*
G01X10080860Y17931250D02*
Y18248750D01*
X10159590D01*
X10191090Y18232870D01*
X10214710Y18211710D01*
X10234400Y18179960D01*
X10250150Y18142910D01*
X10254080Y18090000D01*
X10250150Y18037080D01*
X10234400Y18000040D01*
X10214710Y17968280D01*
X10191090Y17947120D01*
X10159590Y17931250D01*
X10080860D01*
G01X10364320Y17825420D02*
X10600540D01*
G01X10714710Y17973570D02*
X10746210Y17947120D01*
X10781640Y17931250D01*
X10813140D01*
X10844630Y17947120D01*
X10868260Y17973570D01*
X10880070Y18010630D01*
X10872200Y18047660D01*
X10852510Y18079410D01*
X10817070Y18100590D01*
X10769830Y18111170D01*
X10742270Y18132330D01*
X10730460Y18169370D01*
X10738340Y18206420D01*
X10758020Y18232870D01*
X10785580Y18248750D01*
X10813140D01*
X10840700Y18238170D01*
X10864320Y18211710D01*
G01X11065110Y18248750D02*
X11159590D01*
G01X11112350D02*
Y17931250D01*
G01X11065110D02*
X11159590D01*
G01X11352500Y18248750D02*
X11502120D01*
X11352500Y17931250D01*
X11502120D01*
G01X11821010D02*
X11663530D01*
Y18248750D01*
X11821010D01*
G01X11758020Y18095300D02*
X11663530D01*
G01X9065110Y16343750D02*
X9033610Y16333170D01*
X9009990Y16306710D01*
X8994240Y16274960D01*
X8982430Y16232620D01*
X8978500Y16185000D01*
X8982430Y16137370D01*
X8994240Y16095040D01*
X9009990Y16063280D01*
X9033610Y16036830D01*
X9065110Y16026250D01*
X9096600Y16036830D01*
X9120230Y16063280D01*
X9135980Y16095040D01*
X9147790Y16137370D01*
X9151720Y16185000D01*
X9147790Y16232620D01*
X9135980Y16274960D01*
X9120230Y16306710D01*
X9096600Y16333170D01*
X9065110Y16343750D01*
G01X9380070Y16015670D02*
X9372190Y16020960D01*
Y16031540D01*
X9380070Y16036830D01*
X9387950Y16031540D01*
Y16020960D01*
X9380070Y16015670D01*
G01X9608420Y16089750D02*
X9632030Y16052700D01*
X9663530Y16031540D01*
X9698970Y16026250D01*
X9730470Y16031540D01*
X9761960Y16057990D01*
X9781640Y16089750D01*
X9785580Y16121500D01*
X9777710Y16158530D01*
X9750150Y16185000D01*
X9722590Y16195590D01*
X9687150D01*
G01X9722590D02*
X9746210Y16211460D01*
X9765900Y16237910D01*
X9773770Y16269660D01*
X9765900Y16301420D01*
X9746210Y16327870D01*
X9710780Y16343750D01*
X9675350Y16338460D01*
X9639910Y16317290D01*
G01X9923380Y16089750D02*
X9946990Y16052700D01*
X9978490Y16031540D01*
X10013930Y16026250D01*
X10045430Y16031540D01*
X10076920Y16057990D01*
X10096600Y16089750D01*
X10100540Y16121500D01*
X10092670Y16158530D01*
X10065110Y16185000D01*
X10037550Y16195590D01*
X10002110D01*
G01X10037550D02*
X10061170Y16211460D01*
X10080860Y16237910D01*
X10088730Y16269660D01*
X10080860Y16301420D01*
X10061170Y16327870D01*
X10025740Y16343750D01*
X9990310Y16338460D01*
X9954870Y16317290D01*
G01X10324950Y16343750D02*
X10293450Y16333170D01*
X10269830Y16306710D01*
X10254080Y16274960D01*
X10242270Y16232620D01*
X10238340Y16185000D01*
X10242270Y16137370D01*
X10254080Y16095040D01*
X10269830Y16063280D01*
X10293450Y16036830D01*
X10324950Y16026250D01*
X10356440Y16036830D01*
X10380070Y16063280D01*
X10395820Y16095040D01*
X10407630Y16137370D01*
X10411560Y16185000D01*
X10407630Y16232620D01*
X10395820Y16274960D01*
X10380070Y16306710D01*
X10356440Y16333170D01*
X10324950Y16343750D01*
G01X10565100Y16290830D02*
X10588730Y16322580D01*
X10616290Y16338460D01*
X10647790Y16343750D01*
X10687150Y16333170D01*
X10714720Y16306710D01*
X10722590Y16274960D01*
X10718650Y16243200D01*
X10702900Y16216750D01*
X10624160Y16163830D01*
X10588730Y16126790D01*
X10565100Y16073860D01*
X10557230Y16026250D01*
X10722590D01*
G01X9380070Y12216250D02*
Y12533750D01*
X9332830Y12470250D01*
G01Y12216250D02*
X9427310D01*
G01X9695030Y12205670D02*
X9687150Y12210960D01*
Y12221540D01*
X9695030Y12226830D01*
X9702910Y12221540D01*
Y12210960D01*
X9695030Y12205670D01*
G01X9943060Y12253280D02*
X9970620Y12226830D01*
X10002110Y12216250D01*
X10033610Y12226830D01*
X10061170Y12258570D01*
X10080860Y12306210D01*
X10088730Y12353830D01*
Y12412040D01*
X10080860Y12459660D01*
X10061170Y12502000D01*
X10037550Y12523170D01*
X10009990Y12533750D01*
X9978490Y12523170D01*
X9954870Y12502000D01*
X9939120Y12470250D01*
X9931250Y12427910D01*
X9939120Y12390880D01*
X9958810Y12353830D01*
X9982430Y12332660D01*
X10009990Y12327370D01*
X10041480Y12337950D01*
X10065110Y12364410D01*
X10088730Y12412040D01*
G01X10238340Y12263860D02*
X10261950Y12237410D01*
X10289510Y12221540D01*
X10324950Y12216250D01*
X10360390Y12226830D01*
X10387940Y12247990D01*
X10407630Y12285040D01*
X10411560Y12327370D01*
X10403690Y12369700D01*
X10384000Y12396170D01*
X10356440Y12417330D01*
X10328890Y12422620D01*
X10301330Y12417330D01*
X10265900Y12396170D01*
X10277710Y12533750D01*
X10384000D01*
G01X9380070Y14438750D02*
X9348570Y14428170D01*
X9324950Y14401710D01*
X9309200Y14369960D01*
X9297390Y14327620D01*
X9293460Y14280000D01*
X9297390Y14232370D01*
X9309200Y14190040D01*
X9324950Y14158280D01*
X9348570Y14131830D01*
X9380070Y14121250D01*
X9411560Y14131830D01*
X9435190Y14158280D01*
X9450940Y14190040D01*
X9462750Y14232370D01*
X9466680Y14280000D01*
X9462750Y14327620D01*
X9450940Y14369960D01*
X9435190Y14401710D01*
X9411560Y14428170D01*
X9380070Y14438750D01*
G01X9695030Y14110670D02*
X9687150Y14115960D01*
Y14126540D01*
X9695030Y14131830D01*
X9702910Y14126540D01*
Y14115960D01*
X9695030Y14110670D01*
G01X10002110Y14121250D02*
X10009990Y14190040D01*
X10021800Y14248240D01*
X10037550Y14301170D01*
X10057230Y14359370D01*
X10088730Y14438750D01*
X9931250D01*
G01X10238340Y14184750D02*
X10261950Y14147700D01*
X10293450Y14126540D01*
X10328890Y14121250D01*
X10360390Y14126540D01*
X10391880Y14152990D01*
X10411560Y14184750D01*
X10415500Y14216500D01*
X10407630Y14253530D01*
X10380070Y14280000D01*
X10352510Y14290590D01*
X10317070D01*
G01X10352510D02*
X10376130Y14306460D01*
X10395820Y14332910D01*
X10403690Y14364660D01*
X10395820Y14396420D01*
X10376130Y14422870D01*
X10340700Y14438750D01*
X10305270Y14433460D01*
X10269830Y14412290D01*
G01X9462740Y11845830D02*
X9486370Y11877580D01*
X9513930Y11893460D01*
X9545430Y11898750D01*
X9584790Y11888170D01*
X9612360Y11861710D01*
X9620230Y11829960D01*
X9616290Y11798200D01*
X9600540Y11771750D01*
X9521800Y11718830D01*
X9486370Y11681790D01*
X9462740Y11628860D01*
X9454870Y11581250D01*
X9620230D01*
G01X9852510Y11570670D02*
X9844630Y11575960D01*
Y11586540D01*
X9852510Y11591830D01*
X9860390Y11586540D01*
Y11575960D01*
X9852510Y11570670D01*
G01X10080860Y11644750D02*
X10104470Y11607700D01*
X10135970Y11586540D01*
X10171410Y11581250D01*
X10202910Y11586540D01*
X10234400Y11612990D01*
X10254080Y11644750D01*
X10258020Y11676500D01*
X10250150Y11713530D01*
X10222590Y11740000D01*
X10195030Y11750590D01*
X10159590D01*
G01X10195030D02*
X10218650Y11766460D01*
X10238340Y11792910D01*
X10246210Y11824660D01*
X10238340Y11856420D01*
X10218650Y11882870D01*
X10183220Y11898750D01*
X10147790Y11893460D01*
X10112350Y11872290D01*
G01X9537550Y13168750D02*
X9506050Y13158170D01*
X9482430Y13131710D01*
X9466680Y13099960D01*
X9454870Y13057620D01*
X9450940Y13010000D01*
X9454870Y12962370D01*
X9466680Y12920040D01*
X9482430Y12888280D01*
X9506050Y12861830D01*
X9537550Y12851250D01*
X9569040Y12861830D01*
X9592670Y12888280D01*
X9608420Y12920040D01*
X9620230Y12962370D01*
X9624160Y13010000D01*
X9620230Y13057620D01*
X9608420Y13099960D01*
X9592670Y13131710D01*
X9569040Y13158170D01*
X9537550Y13168750D01*
G01X9852510Y12840670D02*
X9844630Y12845960D01*
Y12856540D01*
X9852510Y12861830D01*
X9860390Y12856540D01*
Y12845960D01*
X9852510Y12840670D01*
G01X10100540Y12888280D02*
X10128100Y12861830D01*
X10159590Y12851250D01*
X10191090Y12861830D01*
X10218650Y12893570D01*
X10238340Y12941210D01*
X10246210Y12988830D01*
Y13047040D01*
X10238340Y13094660D01*
X10218650Y13137000D01*
X10195030Y13158170D01*
X10167470Y13168750D01*
X10135970Y13158170D01*
X10112350Y13137000D01*
X10096600Y13105250D01*
X10088730Y13062910D01*
X10096600Y13025880D01*
X10116290Y12988830D01*
X10139910Y12967660D01*
X10167470Y12962370D01*
X10198960Y12972950D01*
X10222590Y12999410D01*
X10246210Y13047040D01*
G01X9537550Y13803750D02*
X9506050Y13793170D01*
X9482430Y13766710D01*
X9466680Y13734960D01*
X9454870Y13692620D01*
X9450940Y13645000D01*
X9454870Y13597370D01*
X9466680Y13555040D01*
X9482430Y13523280D01*
X9506050Y13496830D01*
X9537550Y13486250D01*
X9569040Y13496830D01*
X9592670Y13523280D01*
X9608420Y13555040D01*
X9620230Y13597370D01*
X9624160Y13645000D01*
X9620230Y13692620D01*
X9608420Y13734960D01*
X9592670Y13766710D01*
X9569040Y13793170D01*
X9537550Y13803750D01*
G01X9852510Y13475670D02*
X9844630Y13480960D01*
Y13491540D01*
X9852510Y13496830D01*
X9860390Y13491540D01*
Y13480960D01*
X9852510Y13475670D01*
G01X10100540Y13523280D02*
X10128100Y13496830D01*
X10159590Y13486250D01*
X10191090Y13496830D01*
X10218650Y13528570D01*
X10238340Y13576210D01*
X10246210Y13623830D01*
Y13682040D01*
X10238340Y13729660D01*
X10218650Y13772000D01*
X10195030Y13793170D01*
X10167470Y13803750D01*
X10135970Y13793170D01*
X10112350Y13772000D01*
X10096600Y13740250D01*
X10088730Y13697910D01*
X10096600Y13660880D01*
X10116290Y13623830D01*
X10139910Y13602660D01*
X10167470Y13597370D01*
X10198960Y13607950D01*
X10222590Y13634410D01*
X10246210Y13682040D01*
G01X9537550Y15073750D02*
X9506050Y15063170D01*
X9482430Y15036710D01*
X9466680Y15004960D01*
X9454870Y14962620D01*
X9450940Y14915000D01*
X9454870Y14867370D01*
X9466680Y14825040D01*
X9482430Y14793280D01*
X9506050Y14766830D01*
X9537550Y14756250D01*
X9569040Y14766830D01*
X9592670Y14793280D01*
X9608420Y14825040D01*
X9620230Y14867370D01*
X9624160Y14915000D01*
X9620230Y14962620D01*
X9608420Y15004960D01*
X9592670Y15036710D01*
X9569040Y15063170D01*
X9537550Y15073750D01*
G01X9852510Y14745670D02*
X9844630Y14750960D01*
Y14761540D01*
X9852510Y14766830D01*
X9860390Y14761540D01*
Y14750960D01*
X9852510Y14745670D01*
G01X10159590Y14756250D02*
X10167470Y14825040D01*
X10179280Y14883240D01*
X10195030Y14936170D01*
X10214710Y14994370D01*
X10246210Y15073750D01*
X10088730D01*
G01X9537550Y15708750D02*
X9506050Y15698170D01*
X9482430Y15671710D01*
X9466680Y15639960D01*
X9454870Y15597620D01*
X9450940Y15550000D01*
X9454870Y15502370D01*
X9466680Y15460040D01*
X9482430Y15428280D01*
X9506050Y15401830D01*
X9537550Y15391250D01*
X9569040Y15401830D01*
X9592670Y15428280D01*
X9608420Y15460040D01*
X9620230Y15502370D01*
X9624160Y15550000D01*
X9620230Y15597620D01*
X9608420Y15639960D01*
X9592670Y15671710D01*
X9569040Y15698170D01*
X9537550Y15708750D01*
G01X9852510Y15380670D02*
X9844630Y15385960D01*
Y15396540D01*
X9852510Y15401830D01*
X9860390Y15396540D01*
Y15385960D01*
X9852510Y15380670D01*
G01X10159590Y15391250D02*
X10167470Y15460040D01*
X10179280Y15518240D01*
X10195030Y15571170D01*
X10214710Y15629370D01*
X10246210Y15708750D01*
X10088730D01*
G01X9537550Y16978750D02*
X9506050Y16968170D01*
X9482430Y16941710D01*
X9466680Y16909960D01*
X9454870Y16867620D01*
X9450940Y16820000D01*
X9454870Y16772370D01*
X9466680Y16730040D01*
X9482430Y16698280D01*
X9506050Y16671830D01*
X9537550Y16661250D01*
X9569040Y16671830D01*
X9592670Y16698280D01*
X9608420Y16730040D01*
X9620230Y16772370D01*
X9624160Y16820000D01*
X9620230Y16867620D01*
X9608420Y16909960D01*
X9592670Y16941710D01*
X9569040Y16968170D01*
X9537550Y16978750D01*
G01X9852510Y16650670D02*
X9844630Y16655960D01*
Y16666540D01*
X9852510Y16671830D01*
X9860390Y16666540D01*
Y16655960D01*
X9852510Y16650670D01*
G01X10092660Y16925830D02*
X10116290Y16957580D01*
X10143850Y16973460D01*
X10175350Y16978750D01*
X10214710Y16968170D01*
X10242280Y16941710D01*
X10250150Y16909960D01*
X10246210Y16878200D01*
X10230460Y16851750D01*
X10151720Y16798830D01*
X10116290Y16761790D01*
X10092660Y16708860D01*
X10084790Y16661250D01*
X10250150D01*
G01X9537550Y17613750D02*
X9506050Y17603170D01*
X9482430Y17576710D01*
X9466680Y17544960D01*
X9454870Y17502620D01*
X9450940Y17455000D01*
X9454870Y17407370D01*
X9466680Y17365040D01*
X9482430Y17333280D01*
X9506050Y17306830D01*
X9537550Y17296250D01*
X9569040Y17306830D01*
X9592670Y17333280D01*
X9608420Y17365040D01*
X9620230Y17407370D01*
X9624160Y17455000D01*
X9620230Y17502620D01*
X9608420Y17544960D01*
X9592670Y17576710D01*
X9569040Y17603170D01*
X9537550Y17613750D01*
G01X9852510Y17285670D02*
X9844630Y17290960D01*
Y17301540D01*
X9852510Y17306830D01*
X9860390Y17301540D01*
Y17290960D01*
X9852510Y17285670D01*
G01X10167470Y17296250D02*
Y17613750D01*
X10120230Y17550250D01*
G01Y17296250D02*
X10214710D01*
G01X9517860Y18566250D02*
X9616290Y18883750D01*
X9714720Y18566250D01*
G01X9679280Y18677370D02*
X9553290D01*
G01X9852510Y18883750D02*
Y18566250D01*
X10009990D01*
G01X10167470Y18883750D02*
Y18566250D01*
X10324950D01*
G01X10789520Y18883750D02*
Y18656210D01*
X10805260Y18608570D01*
X10836760Y18576830D01*
X10876130Y18566250D01*
X10915500Y18576830D01*
X10947000Y18608570D01*
X10962740Y18656210D01*
Y18883750D01*
G01X11100540Y18566250D02*
Y18883750D01*
X11281640Y18566250D01*
Y18883750D01*
G01X11458810D02*
X11553290D01*
G01X11506050D02*
Y18566250D01*
G01X11458810D02*
X11553290D01*
G01X11821010Y18883750D02*
Y18566250D01*
G01X11730460Y18883750D02*
X11911560D01*
G01X12053290Y18608570D02*
X12084790Y18582120D01*
X12120220Y18566250D01*
X12151720D01*
X12183210Y18582120D01*
X12206840Y18608570D01*
X12218650Y18645630D01*
X12210780Y18682660D01*
X12191090Y18714410D01*
X12155650Y18735590D01*
X12108410Y18746170D01*
X12080850Y18767330D01*
X12069040Y18804370D01*
X12076920Y18841420D01*
X12096600Y18867870D01*
X12124160Y18883750D01*
X12151720D01*
X12179280Y18873170D01*
X12202900Y18846710D01*
G01X12667460Y18566250D02*
X12765890Y18883750D01*
X12864320Y18566250D01*
G01X12828880Y18677370D02*
X12702890D01*
G01X13002110Y18566250D02*
Y18883750D01*
X13100530D01*
X13132030Y18867870D01*
X13151720Y18846710D01*
X13159590Y18804370D01*
X13151720Y18762040D01*
X13128090Y18735590D01*
X13100530Y18719700D01*
X13002110D01*
G01X13100530D02*
X13159590Y18566250D01*
G01X13474550D02*
X13317070D01*
Y18883750D01*
X13474550D01*
G01X13411560Y18730300D02*
X13317070D01*
G01X13978490Y18883750D02*
X14072970D01*
G01X14025730D02*
Y18566250D01*
G01X13978490D02*
X14072970D01*
G01X14250140D02*
Y18883750D01*
X14431240Y18566250D01*
Y18883750D01*
G01X14868240Y18566250D02*
Y18883750D01*
X14970610Y18619170D01*
X15072980Y18883750D01*
Y18566250D01*
G01X15238330Y18883750D02*
X15332810D01*
G01X15285570D02*
Y18566250D01*
G01X15238330D02*
X15332810D01*
G01X15521790Y18883750D02*
Y18566250D01*
X15679270D01*
G01X15836750Y18883750D02*
Y18566250D01*
X15994230D01*
G01X16183210Y18883750D02*
X16277690D01*
G01X16230450D02*
Y18566250D01*
G01X16183210D02*
X16277690D01*
G01X16443040D02*
Y18883750D01*
X16545410Y18619170D01*
X16647780Y18883750D01*
Y18566250D01*
G01X16939110D02*
X16781630D01*
Y18883750D01*
X16939110D01*
G01X16876120Y18730300D02*
X16781630D01*
G01X17175330Y18883750D02*
Y18566250D01*
G01X17084780Y18883750D02*
X17265880D01*
G01X17569030Y18566250D02*
X17411550D01*
Y18883750D01*
X17569030D01*
G01X17506040Y18730300D02*
X17411550D01*
G01X17726510Y18566250D02*
Y18883750D01*
X17824930D01*
X17856430Y18867870D01*
X17876120Y18846710D01*
X17883990Y18804370D01*
X17876120Y18762040D01*
X17852490Y18735590D01*
X17824930Y18719700D01*
X17726510D01*
G01X17824930D02*
X17883990Y18566250D01*
G01X18037530Y18608570D02*
X18069030Y18582120D01*
X18104460Y18566250D01*
X18135960D01*
X18167450Y18582120D01*
X18191080Y18608570D01*
X18202890Y18645630D01*
X18195020Y18682660D01*
X18175330Y18714410D01*
X18139890Y18735590D01*
X18092650Y18746170D01*
X18065090Y18767330D01*
X18053280Y18804370D01*
X18061160Y18841420D01*
X18080840Y18867870D01*
X18108400Y18883750D01*
X18135960D01*
X18163520Y18873170D01*
X18187140Y18846710D01*
G01X9844640Y19216250D02*
Y19533750D01*
X9923370D01*
X9954870Y19517870D01*
X9978490Y19496710D01*
X9998180Y19464960D01*
X10013930Y19427910D01*
X10017860Y19375000D01*
X10013930Y19322080D01*
X9998180Y19285040D01*
X9978490Y19253280D01*
X9954870Y19232120D01*
X9923370Y19216250D01*
X9844640D01*
G01X10167470D02*
Y19533750D01*
X10265890D01*
X10297390Y19517870D01*
X10317080Y19496710D01*
X10324950Y19454370D01*
X10317080Y19412040D01*
X10293450Y19385590D01*
X10265890Y19369700D01*
X10167470D01*
G01X10265890D02*
X10324950Y19216250D01*
G01X10513930Y19533750D02*
X10608410D01*
G01X10561170D02*
Y19216250D01*
G01X10513930D02*
X10608410D01*
G01X10797390Y19533750D02*
Y19216250D01*
X10954870D01*
G01X11112350Y19533750D02*
Y19216250D01*
X11269830D01*
G01X11907620Y19507290D02*
X11884000Y19523170D01*
X11856450Y19533750D01*
X11824950D01*
X11789510Y19517870D01*
X11761960Y19491420D01*
X11742270Y19459660D01*
X11726520Y19406750D01*
X11722580Y19359120D01*
X11730460Y19311500D01*
X11742270Y19279750D01*
X11765890Y19247990D01*
X11793450Y19226830D01*
X11821010Y19216250D01*
X11848570D01*
X11876130Y19226830D01*
X11899750Y19242700D01*
X11919440Y19263860D01*
G01X12053290Y19216250D02*
Y19533750D01*
G01X12218650D02*
Y19216250D01*
G01Y19375000D02*
X12053290D01*
G01X12352500Y19216250D02*
X12450930Y19533750D01*
X12549360Y19216250D01*
G01X12513920Y19327370D02*
X12387930D01*
G01X12687150Y19216250D02*
Y19533750D01*
X12785570D01*
X12817070Y19517870D01*
X12836760Y19496710D01*
X12844630Y19454370D01*
X12836760Y19412040D01*
X12813130Y19385590D01*
X12785570Y19369700D01*
X12687150D01*
G01X12785570D02*
X12844630Y19216250D01*
G01X13080850Y19533750D02*
Y19216250D01*
G01X12990300Y19533750D02*
X13171400D01*
G01X13395810Y19205670D02*
X13387930Y19210960D01*
Y19221540D01*
X13395810Y19226830D01*
X13403690Y19221540D01*
Y19210960D01*
X13395810Y19205670D01*
G01Y19348530D02*
X13387930Y19353830D01*
Y19364410D01*
X13395810Y19369700D01*
X13403690Y19364410D01*
Y19353830D01*
X13395810Y19348530D01*
G01X14025730Y19533750D02*
Y19216250D01*
G01X13935180Y19533750D02*
X14116280D01*
G01X14340690Y19216250D02*
X14309190Y19221540D01*
X14281640Y19242700D01*
X14258010Y19274460D01*
X14242260Y19311500D01*
X14234390Y19353830D01*
Y19396170D01*
X14242260Y19438500D01*
X14258010Y19475540D01*
X14281640Y19507290D01*
X14309190Y19528460D01*
X14340690Y19533750D01*
X14372180Y19528460D01*
X14399740Y19507290D01*
X14423370Y19475540D01*
X14439120Y19438500D01*
X14446990Y19396170D01*
Y19353830D01*
X14439120Y19311500D01*
X14423370Y19274460D01*
X14399740Y19242700D01*
X14372180Y19221540D01*
X14340690Y19216250D01*
G01X14576910D02*
Y19533750D01*
X14671400D01*
X14702890Y19517870D01*
X14726520Y19480830D01*
X14734390Y19438500D01*
X14726520Y19396170D01*
X14706830Y19364410D01*
X14671400Y19348530D01*
X14576910D01*
G01X15285570Y19533750D02*
Y19216250D01*
G01X15230450Y19427910D02*
X15340690D01*
G01X15600530Y19216250D02*
X15576910Y19221540D01*
X15553290Y19242700D01*
X15537530Y19279750D01*
X15529660Y19322080D01*
X15537530Y19364410D01*
X15553290Y19401460D01*
X15576910Y19422620D01*
X15600530Y19427910D01*
X15624150Y19422620D01*
X15647770Y19401460D01*
X15663520Y19364410D01*
X15667460Y19322080D01*
X15663520Y19279750D01*
X15647770Y19242700D01*
X15624150Y19221540D01*
X15600530Y19216250D01*
G01X16261940Y19385590D02*
X16277690Y19401460D01*
X16289500Y19427910D01*
X16297380Y19464960D01*
X16289500Y19496710D01*
X16273760Y19517870D01*
X16246200Y19533750D01*
X16139900D01*
Y19216250D01*
X16269820D01*
X16297380Y19237410D01*
X16313130Y19269170D01*
X16321000Y19306210D01*
X16313130Y19343240D01*
X16289500Y19375000D01*
X16261940Y19385590D01*
X16139900D01*
G01X16545410Y19216250D02*
X16513910Y19221540D01*
X16486360Y19242700D01*
X16462730Y19274460D01*
X16446980Y19311500D01*
X16439110Y19353830D01*
Y19396170D01*
X16446980Y19438500D01*
X16462730Y19475540D01*
X16486360Y19507290D01*
X16513910Y19528460D01*
X16545410Y19533750D01*
X16576900Y19528460D01*
X16604460Y19507290D01*
X16628090Y19475540D01*
X16643840Y19438500D01*
X16651710Y19396170D01*
Y19353830D01*
X16643840Y19311500D01*
X16628090Y19274460D01*
X16604460Y19242700D01*
X16576900Y19221540D01*
X16545410Y19216250D01*
G01X16860370Y19533750D02*
Y19216250D01*
G01X16769820Y19533750D02*
X16950920D01*
G01X17175330D02*
Y19216250D01*
G01X17084780Y19533750D02*
X17265880D01*
G01X17490290Y19216250D02*
X17458790Y19221540D01*
X17431240Y19242700D01*
X17407610Y19274460D01*
X17391860Y19311500D01*
X17383990Y19353830D01*
Y19396170D01*
X17391860Y19438500D01*
X17407610Y19475540D01*
X17431240Y19507290D01*
X17458790Y19528460D01*
X17490290Y19533750D01*
X17521780Y19528460D01*
X17549340Y19507290D01*
X17572970Y19475540D01*
X17588720Y19438500D01*
X17596590Y19396170D01*
Y19353830D01*
X17588720Y19311500D01*
X17572970Y19274460D01*
X17549340Y19242700D01*
X17521780Y19221540D01*
X17490290Y19216250D01*
G01X17702880D02*
Y19533750D01*
X17805250Y19269170D01*
X17907620Y19533750D01*
Y19216250D01*
G01X12411560Y18407500D02*
Y11422500D01*
G01X13151720Y17931250D02*
Y18248750D01*
X13230450D01*
X13261950Y18232870D01*
X13285570Y18211710D01*
X13305260Y18179960D01*
X13321010Y18142910D01*
X13324940Y18090000D01*
X13321010Y18037080D01*
X13305260Y18000040D01*
X13285570Y17968280D01*
X13261950Y17947120D01*
X13230450Y17931250D01*
X13151720D01*
G01X13474550D02*
Y18248750D01*
X13572970D01*
X13604470Y18232870D01*
X13624160Y18211710D01*
X13632030Y18169370D01*
X13624160Y18127040D01*
X13600530Y18100590D01*
X13572970Y18084700D01*
X13474550D01*
G01X13572970D02*
X13632030Y17931250D01*
G01X13821010Y18248750D02*
X13915490D01*
G01X13868250D02*
Y17931250D01*
G01X13821010D02*
X13915490D01*
G01X14104470Y18248750D02*
Y17931250D01*
X14261950D01*
G01X14419430Y18248750D02*
Y17931250D01*
X14576910D01*
G01X14891870D02*
X14734390D01*
Y18248750D01*
X14891870D01*
G01X14828880Y18095300D02*
X14734390D01*
G01X15041480Y17931250D02*
Y18248750D01*
X15120210D01*
X15151710Y18232870D01*
X15175330Y18211710D01*
X15195020Y18179960D01*
X15210770Y18142910D01*
X15214700Y18090000D01*
X15210770Y18037080D01*
X15195020Y18000040D01*
X15175330Y17968280D01*
X15151710Y17947120D01*
X15120210Y17931250D01*
X15041480D01*
G01X15324940Y17825420D02*
X15561160D01*
G01X15675330Y17973570D02*
X15706830Y17947120D01*
X15742260Y17931250D01*
X15773760D01*
X15805250Y17947120D01*
X15828880Y17973570D01*
X15840690Y18010630D01*
X15832820Y18047660D01*
X15813130Y18079410D01*
X15777690Y18100590D01*
X15730450Y18111170D01*
X15702890Y18132330D01*
X15691080Y18169370D01*
X15698960Y18206420D01*
X15718640Y18232870D01*
X15746200Y18248750D01*
X15773760D01*
X15801320Y18238170D01*
X15824940Y18211710D01*
G01X16025730Y18248750D02*
X16120210D01*
G01X16072970D02*
Y17931250D01*
G01X16025730D02*
X16120210D01*
G01X16313120Y18248750D02*
X16462740D01*
X16313120Y17931250D01*
X16462740D01*
G01X16781630D02*
X16624150D01*
Y18248750D01*
X16781630D01*
G01X16718640Y18095300D02*
X16624150D01*
G01X14919430Y11687080D02*
X15021790D01*
G01X14919430Y12322080D02*
X15021790D01*
G01X14919430Y12957080D02*
X15021790D01*
G01X14919430Y13592080D02*
X15021790D01*
G01X14919430Y14227080D02*
X15021790D01*
G01X14919430Y14862080D02*
X15021790D01*
G01X14919430Y15497080D02*
X15021790D01*
G01X14919430Y16132080D02*
X15021790D01*
G01X14919430Y16767080D02*
X15021790D01*
G01X14919430Y17402080D02*
X15021790D01*
G01X17529660Y18407500D02*
Y11422500D01*
G01X18277690Y11581250D02*
Y11898750D01*
X18372180D01*
X18403670Y11882870D01*
X18427300Y11845830D01*
X18435170Y11803500D01*
X18427300Y11761170D01*
X18407610Y11729410D01*
X18372180Y11713530D01*
X18277690D01*
G01X18592650Y11898750D02*
Y11581250D01*
X18750130D01*
G01X18887920D02*
X18986350Y11898750D01*
X19084780Y11581250D01*
G01X19049340Y11692370D02*
X18923350D01*
G01X19301310Y11898750D02*
Y11581250D01*
G01X19210760Y11898750D02*
X19391860D01*
G01X19695010Y11581250D02*
X19537530D01*
Y11898750D01*
X19695010D01*
G01X19632020Y11745300D02*
X19537530D01*
G01X19844620Y11581250D02*
Y11898750D01*
X19923350D01*
X19954850Y11882870D01*
X19978470Y11861710D01*
X19998160Y11829960D01*
X20013910Y11792910D01*
X20017840Y11740000D01*
X20013910Y11687080D01*
X19998160Y11650040D01*
X19978470Y11618280D01*
X19954850Y11597120D01*
X19923350Y11581250D01*
X19844620D01*
G01X18277690Y12216250D02*
Y12533750D01*
X18372180D01*
X18403670Y12517870D01*
X18427300Y12480830D01*
X18435170Y12438500D01*
X18427300Y12396170D01*
X18407610Y12364410D01*
X18372180Y12348530D01*
X18277690D01*
G01X18592650Y12533750D02*
Y12216250D01*
X18750130D01*
G01X18887920D02*
X18986350Y12533750D01*
X19084780Y12216250D01*
G01X19049340Y12327370D02*
X18923350D01*
G01X19301310Y12533750D02*
Y12216250D01*
G01X19210760Y12533750D02*
X19391860D01*
G01X19695010Y12216250D02*
X19537530D01*
Y12533750D01*
X19695010D01*
G01X19632020Y12380300D02*
X19537530D01*
G01X19844620Y12216250D02*
Y12533750D01*
X19923350D01*
X19954850Y12517870D01*
X19978470Y12496710D01*
X19998160Y12464960D01*
X20013910Y12427910D01*
X20017840Y12375000D01*
X20013910Y12322080D01*
X19998160Y12285040D01*
X19978470Y12253280D01*
X19954850Y12232120D01*
X19923350Y12216250D01*
X19844620D01*
G01X18277690Y12851250D02*
Y13168750D01*
X18372180D01*
X18403670Y13152870D01*
X18427300Y13115830D01*
X18435170Y13073500D01*
X18427300Y13031170D01*
X18407610Y12999410D01*
X18372180Y12983530D01*
X18277690D01*
G01X18592650Y13168750D02*
Y12851250D01*
X18750130D01*
G01X18887920D02*
X18986350Y13168750D01*
X19084780Y12851250D01*
G01X19049340Y12962370D02*
X18923350D01*
G01X19301310Y13168750D02*
Y12851250D01*
G01X19210760Y13168750D02*
X19391860D01*
G01X19695010Y12851250D02*
X19537530D01*
Y13168750D01*
X19695010D01*
G01X19632020Y13015300D02*
X19537530D01*
G01X19844620Y12851250D02*
Y13168750D01*
X19923350D01*
X19954850Y13152870D01*
X19978470Y13131710D01*
X19998160Y13099960D01*
X20013910Y13062910D01*
X20017840Y13010000D01*
X20013910Y12957080D01*
X19998160Y12920040D01*
X19978470Y12888280D01*
X19954850Y12867120D01*
X19923350Y12851250D01*
X19844620D01*
G01X18277690Y13486250D02*
Y13803750D01*
X18372180D01*
X18403670Y13787870D01*
X18427300Y13750830D01*
X18435170Y13708500D01*
X18427300Y13666170D01*
X18407610Y13634410D01*
X18372180Y13618530D01*
X18277690D01*
G01X18592650Y13803750D02*
Y13486250D01*
X18750130D01*
G01X18887920D02*
X18986350Y13803750D01*
X19084780Y13486250D01*
G01X19049340Y13597370D02*
X18923350D01*
G01X19301310Y13803750D02*
Y13486250D01*
G01X19210760Y13803750D02*
X19391860D01*
G01X19695010Y13486250D02*
X19537530D01*
Y13803750D01*
X19695010D01*
G01X19632020Y13650300D02*
X19537530D01*
G01X19844620Y13486250D02*
Y13803750D01*
X19923350D01*
X19954850Y13787870D01*
X19978470Y13766710D01*
X19998160Y13734960D01*
X20013910Y13697910D01*
X20017840Y13645000D01*
X20013910Y13592080D01*
X19998160Y13555040D01*
X19978470Y13523280D01*
X19954850Y13502120D01*
X19923350Y13486250D01*
X19844620D01*
G01X18277690Y14121250D02*
Y14438750D01*
X18372180D01*
X18403670Y14422870D01*
X18427300Y14385830D01*
X18435170Y14343500D01*
X18427300Y14301170D01*
X18407610Y14269410D01*
X18372180Y14253530D01*
X18277690D01*
G01X18592650Y14438750D02*
Y14121250D01*
X18750130D01*
G01X18887920D02*
X18986350Y14438750D01*
X19084780Y14121250D01*
G01X19049340Y14232370D02*
X18923350D01*
G01X19301310Y14438750D02*
Y14121250D01*
G01X19210760Y14438750D02*
X19391860D01*
G01X19695010Y14121250D02*
X19537530D01*
Y14438750D01*
X19695010D01*
G01X19632020Y14285300D02*
X19537530D01*
G01X19844620Y14121250D02*
Y14438750D01*
X19923350D01*
X19954850Y14422870D01*
X19978470Y14401710D01*
X19998160Y14369960D01*
X20013910Y14332910D01*
X20017840Y14280000D01*
X20013910Y14227080D01*
X19998160Y14190040D01*
X19978470Y14158280D01*
X19954850Y14137120D01*
X19923350Y14121250D01*
X19844620D01*
G01X18277690Y14756250D02*
Y15073750D01*
X18372180D01*
X18403670Y15057870D01*
X18427300Y15020830D01*
X18435170Y14978500D01*
X18427300Y14936170D01*
X18407610Y14904410D01*
X18372180Y14888530D01*
X18277690D01*
G01X18592650Y15073750D02*
Y14756250D01*
X18750130D01*
G01X18887920D02*
X18986350Y15073750D01*
X19084780Y14756250D01*
G01X19049340Y14867370D02*
X18923350D01*
G01X19301310Y15073750D02*
Y14756250D01*
G01X19210760Y15073750D02*
X19391860D01*
G01X19695010Y14756250D02*
X19537530D01*
Y15073750D01*
X19695010D01*
G01X19632020Y14920300D02*
X19537530D01*
G01X19844620Y14756250D02*
Y15073750D01*
X19923350D01*
X19954850Y15057870D01*
X19978470Y15036710D01*
X19998160Y15004960D01*
X20013910Y14967910D01*
X20017840Y14915000D01*
X20013910Y14862080D01*
X19998160Y14825040D01*
X19978470Y14793280D01*
X19954850Y14772120D01*
X19923350Y14756250D01*
X19844620D01*
G01X18277690Y15391250D02*
Y15708750D01*
X18372180D01*
X18403670Y15692870D01*
X18427300Y15655830D01*
X18435170Y15613500D01*
X18427300Y15571170D01*
X18407610Y15539410D01*
X18372180Y15523530D01*
X18277690D01*
G01X18592650Y15708750D02*
Y15391250D01*
X18750130D01*
G01X18887920D02*
X18986350Y15708750D01*
X19084780Y15391250D01*
G01X19049340Y15502370D02*
X18923350D01*
G01X19301310Y15708750D02*
Y15391250D01*
G01X19210760Y15708750D02*
X19391860D01*
G01X19695010Y15391250D02*
X19537530D01*
Y15708750D01*
X19695010D01*
G01X19632020Y15555300D02*
X19537530D01*
G01X19844620Y15391250D02*
Y15708750D01*
X19923350D01*
X19954850Y15692870D01*
X19978470Y15671710D01*
X19998160Y15639960D01*
X20013910Y15602910D01*
X20017840Y15550000D01*
X20013910Y15497080D01*
X19998160Y15460040D01*
X19978470Y15428280D01*
X19954850Y15407120D01*
X19923350Y15391250D01*
X19844620D01*
G01X18277690Y16026250D02*
Y16343750D01*
X18372180D01*
X18403670Y16327870D01*
X18427300Y16290830D01*
X18435170Y16248500D01*
X18427300Y16206170D01*
X18407610Y16174410D01*
X18372180Y16158530D01*
X18277690D01*
G01X18592650Y16343750D02*
Y16026250D01*
X18750130D01*
G01X18887920D02*
X18986350Y16343750D01*
X19084780Y16026250D01*
G01X19049340Y16137370D02*
X18923350D01*
G01X19301310Y16343750D02*
Y16026250D01*
G01X19210760Y16343750D02*
X19391860D01*
G01X19695010Y16026250D02*
X19537530D01*
Y16343750D01*
X19695010D01*
G01X19632020Y16190300D02*
X19537530D01*
G01X19844620Y16026250D02*
Y16343750D01*
X19923350D01*
X19954850Y16327870D01*
X19978470Y16306710D01*
X19998160Y16274960D01*
X20013910Y16237910D01*
X20017840Y16185000D01*
X20013910Y16132080D01*
X19998160Y16095040D01*
X19978470Y16063280D01*
X19954850Y16042120D01*
X19923350Y16026250D01*
X19844620D01*
G01X18277690Y16661250D02*
Y16978750D01*
X18372180D01*
X18403670Y16962870D01*
X18427300Y16925830D01*
X18435170Y16883500D01*
X18427300Y16841170D01*
X18407610Y16809410D01*
X18372180Y16793530D01*
X18277690D01*
G01X18592650Y16978750D02*
Y16661250D01*
X18750130D01*
G01X18887920D02*
X18986350Y16978750D01*
X19084780Y16661250D01*
G01X19049340Y16772370D02*
X18923350D01*
G01X19301310Y16978750D02*
Y16661250D01*
G01X19210760Y16978750D02*
X19391860D01*
G01X19695010Y16661250D02*
X19537530D01*
Y16978750D01*
X19695010D01*
G01X19632020Y16825300D02*
X19537530D01*
G01X19844620Y16661250D02*
Y16978750D01*
X19923350D01*
X19954850Y16962870D01*
X19978470Y16941710D01*
X19998160Y16909960D01*
X20013910Y16872910D01*
X20017840Y16820000D01*
X20013910Y16767080D01*
X19998160Y16730040D01*
X19978470Y16698280D01*
X19954850Y16677120D01*
X19923350Y16661250D01*
X19844620D01*
G01X18277690Y17296250D02*
Y17613750D01*
X18372180D01*
X18403670Y17597870D01*
X18427300Y17560830D01*
X18435170Y17518500D01*
X18427300Y17476170D01*
X18407610Y17444410D01*
X18372180Y17428530D01*
X18277690D01*
G01X18592650Y17613750D02*
Y17296250D01*
X18750130D01*
G01X18887920D02*
X18986350Y17613750D01*
X19084780Y17296250D01*
G01X19049340Y17407370D02*
X18923350D01*
G01X19301310Y17613750D02*
Y17296250D01*
G01X19210760Y17613750D02*
X19391860D01*
G01X19695010Y17296250D02*
X19537530D01*
Y17613750D01*
X19695010D01*
G01X19632020Y17460300D02*
X19537530D01*
G01X19844620Y17296250D02*
Y17613750D01*
X19923350D01*
X19954850Y17597870D01*
X19978470Y17576710D01*
X19998160Y17544960D01*
X20013910Y17507910D01*
X20017840Y17455000D01*
X20013910Y17402080D01*
X19998160Y17365040D01*
X19978470Y17333280D01*
X19954850Y17312120D01*
X19923350Y17296250D01*
X19844620D01*
G01X18277690Y17931250D02*
Y18248750D01*
X18372180D01*
X18403670Y18232870D01*
X18427300Y18195830D01*
X18435170Y18153500D01*
X18427300Y18111170D01*
X18407610Y18079410D01*
X18372180Y18063530D01*
X18277690D01*
G01X18592650Y18248750D02*
Y17931250D01*
X18750130D01*
G01X18887920D02*
X18986350Y18248750D01*
X19084780Y17931250D01*
G01X19049340Y18042370D02*
X18923350D01*
G01X19301310Y18248750D02*
Y17931250D01*
G01X19210760Y18248750D02*
X19391860D01*
G01X19695010Y17931250D02*
X19537530D01*
Y18248750D01*
X19695010D01*
G01X19632020Y18095300D02*
X19537530D01*
G01X19844620Y17931250D02*
Y18248750D01*
X19923350D01*
X19954850Y18232870D01*
X19978470Y18211710D01*
X19998160Y18179960D01*
X20013910Y18142910D01*
X20017840Y18090000D01*
X20013910Y18037080D01*
X19998160Y18000040D01*
X19978470Y17968280D01*
X19954850Y17947120D01*
X19923350Y17931250D01*
X19844620D01*
G01X20758000Y18407500D02*
Y11422500D01*
G01X21427290Y16661250D02*
Y16978750D01*
X21380050Y16915250D01*
G01Y16661250D02*
X21474530D01*
G01X21734370D02*
X21742250Y16730040D01*
X21754060Y16788240D01*
X21769810Y16841170D01*
X21789490Y16899370D01*
X21820990Y16978750D01*
X21663510D01*
G01X21982400Y16925830D02*
X22006030Y16957580D01*
X22033590Y16973460D01*
X22065090Y16978750D01*
X22104450Y16968170D01*
X22132020Y16941710D01*
X22139890Y16909960D01*
X22135950Y16878200D01*
X22120200Y16851750D01*
X22041460Y16798830D01*
X22006030Y16761790D01*
X21982400Y16708860D01*
X21974530Y16661250D01*
X22139890D01*
G01X21427290Y17931250D02*
X21395790Y17936540D01*
X21368240Y17957700D01*
X21344610Y17989460D01*
X21328860Y18026500D01*
X21320990Y18068830D01*
Y18111170D01*
X21328860Y18153500D01*
X21344610Y18190540D01*
X21368240Y18222290D01*
X21395790Y18243460D01*
X21427290Y18248750D01*
X21458780Y18243460D01*
X21486340Y18222290D01*
X21509970Y18190540D01*
X21525720Y18153500D01*
X21533590Y18111170D01*
Y18068830D01*
X21525720Y18026500D01*
X21509970Y17989460D01*
X21486340Y17957700D01*
X21458780Y17936540D01*
X21427290Y17931250D01*
G01X21458780Y18015920D02*
X21506030Y17931250D01*
G01X21742250Y18248750D02*
Y17931250D01*
G01X21651700Y18248750D02*
X21832800D01*
G01X22057210Y17931250D02*
Y18074120D01*
X21978470Y18248750D01*
G01X22135950D02*
X22057210Y18074120D01*
G01X21509960Y14385830D02*
X21533590Y14417580D01*
X21561150Y14433460D01*
X21592650Y14438750D01*
X21632010Y14428170D01*
X21659580Y14401710D01*
X21667450Y14369960D01*
X21663510Y14338200D01*
X21647760Y14311750D01*
X21569020Y14258830D01*
X21533590Y14221790D01*
X21509960Y14168860D01*
X21502090Y14121250D01*
X21667450D01*
G01X21891850D02*
X21899730Y14190040D01*
X21911540Y14248240D01*
X21927290Y14301170D01*
X21946970Y14359370D01*
X21978470Y14438750D01*
X21820990D01*
G01X21517840Y17333280D02*
X21545400Y17306830D01*
X21576890Y17296250D01*
X21608390Y17306830D01*
X21635950Y17338570D01*
X21655640Y17386210D01*
X21663510Y17433830D01*
Y17492040D01*
X21655640Y17539660D01*
X21635950Y17582000D01*
X21612330Y17603170D01*
X21584770Y17613750D01*
X21553270Y17603170D01*
X21529650Y17582000D01*
X21513900Y17550250D01*
X21506030Y17507910D01*
X21513900Y17470880D01*
X21533590Y17433830D01*
X21557210Y17412660D01*
X21584770Y17407370D01*
X21616260Y17417950D01*
X21639890Y17444410D01*
X21663510Y17492040D01*
G01X21824920Y17560830D02*
X21848550Y17592580D01*
X21876110Y17608460D01*
X21907610Y17613750D01*
X21946970Y17603170D01*
X21974540Y17576710D01*
X21982410Y17544960D01*
X21978470Y17513200D01*
X21962720Y17486750D01*
X21883980Y17433830D01*
X21848550Y17396790D01*
X21824920Y17343860D01*
X21817050Y17296250D01*
X21982410D01*
G01X21742250Y11581250D02*
X21769810Y11586540D01*
X21801300Y11602410D01*
X21820990Y11628860D01*
X21828860Y11665920D01*
X21820990Y11702950D01*
X21797370Y11734700D01*
X21761930Y11750590D01*
X21722570D01*
X21698940Y11761170D01*
X21679250Y11787620D01*
X21671380Y11824660D01*
X21683200Y11861710D01*
X21710750Y11888170D01*
X21742250Y11898750D01*
X21773740Y11888170D01*
X21801300Y11861710D01*
X21813120Y11824660D01*
X21805240Y11787620D01*
X21785560Y11761170D01*
X21761930Y11750590D01*
X21722570D01*
X21687130Y11734700D01*
X21663510Y11702950D01*
X21655640Y11665920D01*
X21663510Y11628860D01*
X21683200Y11602410D01*
X21714690Y11586540D01*
X21742250Y11581250D01*
G01X21667440Y12348530D02*
X21695010Y12385590D01*
X21718630Y12406750D01*
X21750130Y12417330D01*
X21777690Y12406750D01*
X21797370Y12385590D01*
X21813120Y12353830D01*
X21817060Y12316790D01*
X21813120Y12285040D01*
X21797370Y12253280D01*
X21773740Y12226830D01*
X21746190Y12216250D01*
X21714690Y12226830D01*
X21687130Y12258570D01*
X21671380Y12306210D01*
X21667440Y12359120D01*
X21675320Y12427910D01*
X21687130Y12464960D01*
X21706810Y12502000D01*
X21734370Y12528460D01*
X21761930Y12533750D01*
X21789490Y12523170D01*
X21809180Y12496710D01*
G01X21667440Y13115830D02*
X21691070Y13147580D01*
X21718630Y13163460D01*
X21750130Y13168750D01*
X21789490Y13158170D01*
X21817060Y13131710D01*
X21824930Y13099960D01*
X21820990Y13068200D01*
X21805240Y13041750D01*
X21726500Y12988830D01*
X21691070Y12951790D01*
X21667440Y12898860D01*
X21659570Y12851250D01*
X21824930D01*
G01X21667440Y13618530D02*
X21695010Y13655590D01*
X21718630Y13676750D01*
X21750130Y13687330D01*
X21777690Y13676750D01*
X21797370Y13655590D01*
X21813120Y13623830D01*
X21817060Y13586790D01*
X21813120Y13555040D01*
X21797370Y13523280D01*
X21773740Y13496830D01*
X21746190Y13486250D01*
X21714690Y13496830D01*
X21687130Y13528570D01*
X21671380Y13576210D01*
X21667440Y13629120D01*
X21675320Y13697910D01*
X21687130Y13734960D01*
X21706810Y13772000D01*
X21734370Y13798460D01*
X21761930Y13803750D01*
X21789490Y13793170D01*
X21809180Y13766710D01*
G01X21742250Y14756250D02*
Y15073750D01*
X21695010Y15010250D01*
G01Y14756250D02*
X21789490D01*
G01X21742250Y15391250D02*
X21769810Y15396540D01*
X21801300Y15412410D01*
X21820990Y15438860D01*
X21828860Y15475920D01*
X21820990Y15512950D01*
X21797370Y15544700D01*
X21761930Y15560590D01*
X21722570D01*
X21698940Y15571170D01*
X21679250Y15597620D01*
X21671380Y15634660D01*
X21683200Y15671710D01*
X21710750Y15698170D01*
X21742250Y15708750D01*
X21773740Y15698170D01*
X21801300Y15671710D01*
X21813120Y15634660D01*
X21805240Y15597620D01*
X21785560Y15571170D01*
X21761930Y15560590D01*
X21722570D01*
X21687130Y15544700D01*
X21663510Y15512950D01*
X21655640Y15475920D01*
X21663510Y15438860D01*
X21683200Y15412410D01*
X21714690Y15396540D01*
X21742250Y15391250D01*
G01X21675320Y16063280D02*
X21702880Y16036830D01*
X21734370Y16026250D01*
X21765870Y16036830D01*
X21793430Y16068570D01*
X21813120Y16116210D01*
X21820990Y16163830D01*
Y16222040D01*
X21813120Y16269660D01*
X21793430Y16312000D01*
X21769810Y16333170D01*
X21742250Y16343750D01*
X21710750Y16333170D01*
X21687130Y16312000D01*
X21671380Y16280250D01*
X21663510Y16237910D01*
X21671380Y16200880D01*
X21691070Y16163830D01*
X21714690Y16142660D01*
X21742250Y16137370D01*
X21773740Y16147950D01*
X21797370Y16174410D01*
X21820990Y16222040D01*
M02*
