G04 ================== begin FILE IDENTIFICATION RECORD ==================*
G04 Layout Name:  c:/candencecircuits/parcial2_2025/allegro/parcial2_ks.brd*
G04 Film Name:    SMBT*
G04 File Format:  Gerber RS274X*
G04 File Origin:  Cadence Allegro 24.1-S006*
G04 Origin Date:  Mon Nov 10 14:52:36 2025*
G04 *
G04 Layer:  PACKAGE GEOMETRY/SOLDERMASK_BOTTOM*
G04 Layer:  BOARD GEOMETRY/SOLDERMASK_BOTTOM*
G04 Layer:  VIA CLASS/SOLDERMASK_BOTTOM*
G04 Layer:  PIN/SOLDERMASK_BOTTOM*
G04 *
G04 Offset:    (0.0000 0.0000)*
G04 Mirror:    No*
G04 Mode:      Positive*
G04 Rotation:  0*
G04 FullContactRelief:  No*
G04 UndefLineWidth:     0.1524*
G04 ================== end FILE IDENTIFICATION RECORD ====================*
%FSLAX25Y25*MOMM*%
%IR0*IPPOS*OFA0.00000B0.00000*MIA0B0*SFA1.00000B1.00000*%
%ADD17R,.4X.4*%
%ADD15C,1.4*%
%ADD10C,3.125*%
%ADD16R,1.4X1.4*%
%ADD11C,3.45*%
%ADD14C,1.1176*%
%ADD12C,1.438*%
%ADD13R,1.438X1.438*%
G75*
%LPD*%
G75*
G36*
G01X1118000Y1472000D02*
X1078000D01*
Y1562000D01*
X1118000D01*
Y1472000D01*
G37*
G36*
G01X1521000Y1799000D02*
Y1759000D01*
X1431000D01*
Y1799000D01*
X1521000D01*
G37*
G36*
G01X3782000Y4889000D02*
X3822000D01*
Y4799000D01*
X3782000D01*
Y4889000D01*
G37*
G36*
G01X4095000Y4659000D02*
X4135000D01*
Y4569000D01*
X4095000D01*
Y4659000D01*
G37*
G36*
G01X4648000Y1362000D02*
Y1402000D01*
X4738000D01*
Y1362000D01*
X4648000D01*
G37*
G54D10*
X236000Y229000D03*
Y1543000D03*
X1232000Y457000D03*
X2546000D03*
X2818000Y4768000D03*
X4132000D03*
G54D11*
X278000Y2015000D03*
X231500Y2704500D03*
X278000Y3329000D03*
X3017000Y336000D03*
X3641500Y289500D03*
X4331000Y336000D03*
G54D12*
X386000Y486000D03*
X236000Y536000D03*
X386000Y686000D03*
X236000Y786000D03*
X386000Y886000D03*
Y1086000D03*
X236000Y986000D03*
X386000Y1286000D03*
X1489000Y607000D03*
X1789000Y457000D03*
X1689000Y607000D03*
X1889000D03*
X1989000Y457000D03*
X2089000Y607000D03*
X2239000Y457000D03*
X2289000Y607000D03*
X3075000Y4618000D03*
X3125000Y4768000D03*
X3275000Y4618000D03*
X3475000D03*
X3375000Y4768000D03*
X3675000Y4618000D03*
X3575000Y4768000D03*
X3875000Y4618000D03*
G54D13*
X236000Y1236000D03*
X1539000Y457000D03*
X3825000Y4768000D03*
G54D14*
X321000Y4339000D03*
Y4337000D03*
X548000Y3955000D03*
X490930Y4652000D03*
X585070D03*
X1312930Y3817000D03*
X1407070D03*
X2605000Y2925000D03*
X2508000Y4770000D03*
G54D15*
X549000Y2322000D03*
Y2572000D03*
Y2772000D03*
X3574000Y607000D03*
X3774000D03*
X4024000D03*
G54D16*
X549000Y3022000D03*
X3324000Y607000D03*
G54D17*
X1098000Y1492000D03*
Y1542000D03*
X1501000Y1779000D03*
X1451000D03*
X2286000Y4104000D03*
X2346000D03*
X3802000Y4869000D03*
Y4819000D03*
X3854000Y4814000D03*
Y4874000D03*
X4162000Y4584000D03*
X4115000Y4589000D03*
X4162000Y4644000D03*
X4115000Y4639000D03*
X4668000Y1382000D03*
X4718000D03*
M02*
