G04 ================== begin FILE IDENTIFICATION RECORD ==================*
G04 Layout Name:  c:/candencecircuits/parcial2_2025/allegro/parcial2_ks.brd*
G04 Film Name:    SMTP*
G04 File Format:  Gerber RS274X*
G04 File Origin:  Cadence Allegro 24.1-S006*
G04 Origin Date:  Mon Nov 10 14:52:36 2025*
G04 *
G04 Layer:  PACKAGE GEOMETRY/SOLDERMASK_TOP*
G04 Layer:  BOARD GEOMETRY/SOLDERMASK_TOP*
G04 Layer:  VIA CLASS/SOLDERMASK_TOP*
G04 Layer:  PIN/SOLDERMASK_TOP*
G04 *
G04 Offset:    (0.0000 0.0000)*
G04 Mirror:    No*
G04 Mode:      Positive*
G04 Rotation:  0*
G04 FullContactRelief:  No*
G04 UndefLineWidth:     0.1524*
G04 ================== end FILE IDENTIFICATION RECORD ====================*
%FSLAX25Y25*MOMM*%
%IR0*IPPOS*OFA0.00000B0.00000*MIA0B0*SFA1.00000B1.00000*%
%ADD24O,.27X1.11*%
%ADD23O,1.11X.27*%
%ADD22R,1.X.9*%
%ADD20R,1.27X.64*%
%ADD12C,.33*%
%ADD26R,.64X1.27*%
%ADD19R,.4X.4*%
%ADD18R,.63X.23*%
%ADD16C,1.4*%
%ADD21R,.475X.3*%
%ADD10C,3.125*%
%ADD17R,1.4X1.4*%
%ADD11C,3.45*%
%ADD15C,1.1176*%
%ADD13C,1.438*%
%ADD25R,8.17X8.17*%
%ADD14R,1.438X1.438*%
G75*
%LPD*%
G75*
G36*
G01X623000Y667000D02*
X663000D01*
Y757000D01*
X623000D01*
Y667000D01*
G37*
G36*
G01X625000Y1664000D02*
Y1624000D01*
X715000D01*
Y1664000D01*
X625000D01*
G37*
G36*
G01X819000Y3071000D02*
X859000D01*
Y3161000D01*
X819000D01*
Y3071000D01*
G37*
G36*
G01X968000Y232000D02*
X1008000D01*
Y322000D01*
X968000D01*
Y232000D01*
G37*
G36*
G01X1038000Y1649000D02*
X998000D01*
Y1559000D01*
X1038000D01*
Y1649000D01*
G37*
G36*
G01X1037000Y1550000D02*
X997000D01*
Y1460000D01*
X1037000D01*
Y1550000D01*
G37*
G36*
G01X899000Y2990000D02*
X859000D01*
Y2900000D01*
X899000D01*
Y2990000D01*
G37*
G36*
G01X1695000Y2347000D02*
X1655000D01*
Y2257000D01*
X1695000D01*
Y2347000D01*
G37*
G36*
G01Y2442000D02*
X1655000D01*
Y2352000D01*
X1695000D01*
Y2442000D01*
G37*
G36*
G01X1958000Y2468000D02*
Y2508000D01*
X1868000D01*
Y2468000D01*
X1958000D01*
G37*
G36*
G01X1870000Y2465000D02*
Y2425000D01*
X1960000D01*
Y2465000D01*
X1870000D01*
G37*
G36*
G01X1959000Y2511000D02*
Y2551000D01*
X1869000D01*
Y2511000D01*
X1959000D01*
G37*
G36*
G01Y2554000D02*
Y2594000D01*
X1869000D01*
Y2554000D01*
X1959000D01*
G37*
G36*
G01X1868000Y3390000D02*
Y3350000D01*
X1958000D01*
Y3390000D01*
X1868000D01*
G37*
G36*
G01X1754000Y3387000D02*
X1794000D01*
Y3477000D01*
X1754000D01*
Y3387000D01*
G37*
G36*
G01X1843000Y3478000D02*
X1803000D01*
Y3388000D01*
X1843000D01*
Y3478000D01*
G37*
G36*
G01X2026000Y918000D02*
X1986000D01*
Y828000D01*
X2026000D01*
Y918000D01*
G37*
G36*
G01X2139000Y3621000D02*
X2099000D01*
Y3531000D01*
X2139000D01*
Y3621000D01*
G37*
G36*
G01X2459000Y4123000D02*
Y4163000D01*
X2369000D01*
Y4123000D01*
X2459000D01*
G37*
G36*
G01X2370000Y4118000D02*
Y4078000D01*
X2460000D01*
Y4118000D01*
X2370000D01*
G37*
G36*
G01X2923000Y964000D02*
X2883000D01*
Y874000D01*
X2923000D01*
Y964000D01*
G37*
G36*
G01X2957000Y1526000D02*
Y1566000D01*
X2867000D01*
Y1526000D01*
X2957000D01*
G37*
G36*
G01X2995000Y3673000D02*
Y3713000D01*
X2905000D01*
Y3673000D01*
X2995000D01*
G37*
G36*
G01X2996000Y3744000D02*
Y3784000D01*
X2906000D01*
Y3744000D01*
X2996000D01*
G37*
G36*
G01Y3794000D02*
Y3834000D01*
X2906000D01*
Y3794000D01*
X2996000D01*
G37*
G36*
G01X3151000Y975000D02*
Y1015000D01*
X3061000D01*
Y975000D01*
X3151000D01*
G37*
G36*
G01Y1055000D02*
Y1095000D01*
X3061000D01*
Y1055000D01*
X3151000D01*
G37*
G36*
G01X3050000Y1188000D02*
Y1228000D01*
X2960000D01*
Y1188000D01*
X3050000D01*
G37*
G36*
G01X3060000Y1409000D02*
X3100000D01*
Y1499000D01*
X3060000D01*
Y1409000D01*
G37*
G36*
G01X3012000Y1620000D02*
X2972000D01*
Y1530000D01*
X3012000D01*
Y1620000D01*
G37*
G36*
G01X3353000Y2873000D02*
Y2913000D01*
X3263000D01*
Y2873000D01*
X3353000D01*
G37*
G36*
G01Y2918000D02*
Y2958000D01*
X3263000D01*
Y2918000D01*
X3353000D01*
G37*
G36*
G01X3352000Y2963000D02*
Y3003000D01*
X3262000D01*
Y2963000D01*
X3352000D01*
G37*
G36*
G01X3247000Y3234000D02*
Y3194000D01*
X3337000D01*
Y3234000D01*
X3247000D01*
G37*
G36*
G01X3244000Y3704000D02*
Y3664000D01*
X3334000D01*
Y3704000D01*
X3244000D01*
G37*
G36*
G01X3532000Y2947000D02*
Y2987000D01*
X3442000D01*
Y2947000D01*
X3532000D01*
G37*
G36*
G01X3443000Y2943000D02*
Y2903000D01*
X3533000D01*
Y2943000D01*
X3443000D01*
G37*
G36*
G01X3404000Y3139000D02*
X3364000D01*
Y3049000D01*
X3404000D01*
Y3139000D01*
G37*
G36*
G01X3533000Y2997000D02*
Y3037000D01*
X3443000D01*
Y2997000D01*
X3533000D01*
G37*
G36*
G01X3287000Y3880000D02*
X3327000D01*
Y3970000D01*
X3287000D01*
Y3880000D01*
G37*
G36*
G01X3669000Y3139000D02*
Y3179000D01*
X3579000D01*
Y3139000D01*
X3669000D01*
G37*
G36*
G01X3682000Y3135000D02*
X3722000D01*
Y3225000D01*
X3682000D01*
Y3135000D01*
G37*
G36*
G01X3735000Y3137000D02*
X3775000D01*
Y3227000D01*
X3735000D01*
Y3137000D01*
G37*
G36*
G01X4050000Y987000D02*
Y1027000D01*
X3960000D01*
Y987000D01*
X4050000D01*
G37*
G36*
G01X3953000Y1161000D02*
Y1121000D01*
X4043000D01*
Y1161000D01*
X3953000D01*
G37*
G36*
G01X4036000Y1241000D02*
Y1281000D01*
X3946000D01*
Y1241000D01*
X4036000D01*
G37*
G36*
G01X3955000Y1420000D02*
Y1380000D01*
X4045000D01*
Y1420000D01*
X3955000D01*
G37*
G36*
G01X3954000Y1550000D02*
Y1510000D01*
X4044000D01*
Y1550000D01*
X3954000D01*
G37*
G36*
G01X3955000Y1615000D02*
Y1575000D01*
X4045000D01*
Y1615000D01*
X3955000D01*
G37*
G36*
G01X3972000Y3016000D02*
Y2976000D01*
X4062000D01*
Y3016000D01*
X3972000D01*
G37*
G36*
G01X4063000Y2931000D02*
Y2971000D01*
X3973000D01*
Y2931000D01*
X4063000D01*
G37*
G36*
G01X3829000Y3178000D02*
Y3138000D01*
X3919000D01*
Y3178000D01*
X3829000D01*
G37*
G36*
G01X3978000Y905000D02*
Y865000D01*
X4068000D01*
Y905000D01*
X3978000D01*
G37*
G36*
G01Y3067000D02*
Y3027000D01*
X4068000D01*
Y3067000D01*
X3978000D01*
G37*
G36*
G01X4063000Y3825000D02*
Y3785000D01*
X4153000D01*
Y3825000D01*
X4063000D01*
G37*
G36*
G01X4057000Y4279000D02*
Y4239000D01*
X4147000D01*
Y4279000D01*
X4057000D01*
G37*
G36*
G01X4322000Y2118000D02*
Y2158000D01*
X4232000D01*
Y2118000D01*
X4322000D01*
G37*
G36*
G01X4233000Y2057000D02*
Y2017000D01*
X4323000D01*
Y2057000D01*
X4233000D01*
G37*
G36*
G01X4224000Y2772000D02*
Y2732000D01*
X4314000D01*
Y2772000D01*
X4224000D01*
G37*
G36*
G01X4316000Y2827000D02*
Y2867000D01*
X4226000D01*
Y2827000D01*
X4316000D01*
G37*
G36*
G01X4275000Y2871000D02*
X4315000D01*
Y2961000D01*
X4275000D01*
Y2871000D01*
G37*
G36*
G01X4319000Y3773000D02*
Y3733000D01*
X4409000D01*
Y3773000D01*
X4319000D01*
G37*
G36*
G01X4305000Y4371000D02*
Y4331000D01*
X4395000D01*
Y4371000D01*
X4305000D01*
G37*
G36*
G01X4460000Y2262000D02*
Y2302000D01*
X4370000D01*
Y2262000D01*
X4460000D01*
G37*
G36*
G01X4475000Y2253000D02*
X4515000D01*
Y2343000D01*
X4475000D01*
Y2253000D01*
G37*
G36*
G01X4370000Y2352000D02*
Y2312000D01*
X4460000D01*
Y2352000D01*
X4370000D01*
G37*
G36*
G01X4458000Y2964000D02*
X4498000D01*
Y3054000D01*
X4458000D01*
Y2964000D01*
G37*
G36*
G01X4437000Y2968000D02*
Y3008000D01*
X4347000D01*
Y2968000D01*
X4437000D01*
G37*
G36*
G01X4478000Y4246000D02*
Y4206000D01*
X4568000D01*
Y4246000D01*
X4478000D01*
G37*
G36*
G01X4527000Y4939000D02*
X4487000D01*
Y4849000D01*
X4527000D01*
Y4939000D01*
G37*
G36*
G01X4745000Y1009000D02*
Y1049000D01*
X4655000D01*
Y1009000D01*
X4745000D01*
G37*
G36*
G01X4624000Y2300000D02*
Y2260000D01*
X4714000D01*
Y2300000D01*
X4624000D01*
G37*
G36*
G01X4526000Y2254000D02*
X4566000D01*
Y2344000D01*
X4526000D01*
Y2254000D01*
G37*
G36*
G01X4715000Y2308000D02*
Y2348000D01*
X4625000D01*
Y2308000D01*
X4715000D01*
G37*
G36*
G01X4511000Y2964000D02*
X4551000D01*
Y3054000D01*
X4511000D01*
Y2964000D01*
G37*
G36*
G01X4619000Y3007000D02*
Y2967000D01*
X4709000D01*
Y3007000D01*
X4619000D01*
G37*
G36*
G01X4609000Y4027000D02*
X4569000D01*
Y3937000D01*
X4609000D01*
Y4027000D01*
G37*
G36*
G01X4686000Y4205000D02*
Y4245000D01*
X4596000D01*
Y4205000D01*
X4686000D01*
G37*
G36*
G01X4840000Y1281000D02*
X4800000D01*
Y1191000D01*
X4840000D01*
Y1281000D01*
G37*
G36*
G01X4844000Y1232000D02*
Y1192000D01*
X4934000D01*
Y1232000D01*
X4844000D01*
G37*
G36*
G01X4792000Y1398000D02*
X4752000D01*
Y1308000D01*
X4792000D01*
Y1398000D01*
G37*
G36*
G01X4835000D02*
X4795000D01*
Y1308000D01*
X4835000D01*
Y1398000D01*
G37*
G36*
G01X4846000Y2017000D02*
Y2057000D01*
X4756000D01*
Y2017000D01*
X4846000D01*
G37*
G36*
G01X4760000Y2156000D02*
Y2116000D01*
X4850000D01*
Y2156000D01*
X4760000D01*
G37*
G36*
G01X4833000Y2726000D02*
Y2766000D01*
X4743000D01*
Y2726000D01*
X4833000D01*
G37*
G36*
G01X4746000Y2865000D02*
Y2825000D01*
X4836000D01*
Y2865000D01*
X4746000D01*
G37*
G36*
G01X4745000Y2867000D02*
X4785000D01*
Y2957000D01*
X4745000D01*
Y2867000D01*
G37*
G36*
G01X4771000Y3331000D02*
Y3291000D01*
X4861000D01*
Y3331000D01*
X4771000D01*
G37*
G36*
G01X4775000Y3238000D02*
Y3198000D01*
X4865000D01*
Y3238000D01*
X4775000D01*
G37*
G36*
G01X4871000Y3413000D02*
Y3453000D01*
X4781000D01*
Y3413000D01*
X4871000D01*
G37*
G36*
G01X4832000Y4118000D02*
X4792000D01*
Y4028000D01*
X4832000D01*
Y4118000D01*
G37*
G36*
G01X4775000Y4904000D02*
Y4864000D01*
X4865000D01*
Y4904000D01*
X4775000D01*
G37*
G54D10*
X236000Y229000D03*
Y1543000D03*
X1232000Y457000D03*
X2546000D03*
X2818000Y4768000D03*
X4132000D03*
G54D11*
X278000Y2015000D03*
X231500Y2704500D03*
X278000Y3329000D03*
X3017000Y336000D03*
X3641500Y289500D03*
X4331000Y336000D03*
G54D20*
X938000Y1757000D03*
Y1885000D03*
X1333000Y2236000D03*
Y2364000D03*
G54D21*
X1442200Y2221000D03*
Y2271000D03*
Y2321000D03*
Y2371000D03*
X1609800Y2271000D03*
Y2221000D03*
Y2371000D03*
Y2321000D03*
G54D12*
X164000Y4133000D03*
X244000Y3853000D03*
X314000Y3773000D03*
Y4013000D03*
X244000D03*
Y3933000D03*
X314000Y4173000D03*
Y4093000D03*
X244000Y4333000D03*
Y4253000D03*
X314000D03*
Y4493000D03*
X244000Y4413000D03*
G54D13*
X386000Y486000D03*
X236000Y536000D03*
X386000Y686000D03*
X236000Y786000D03*
X386000Y886000D03*
Y1086000D03*
X236000Y986000D03*
X386000Y1286000D03*
X1489000Y607000D03*
X1789000Y457000D03*
X1689000Y607000D03*
X1889000D03*
X1989000Y457000D03*
X2089000Y607000D03*
X2239000Y457000D03*
X2289000Y607000D03*
X3075000Y4618000D03*
X3125000Y4768000D03*
X3275000Y4618000D03*
X3475000D03*
X3375000Y4768000D03*
X3675000Y4618000D03*
X3575000Y4768000D03*
X3875000Y4618000D03*
G54D22*
X1697000Y3697000D03*
Y3907000D03*
X1887000Y3697000D03*
Y3907000D03*
G54D14*
X236000Y1236000D03*
X1539000Y457000D03*
X3825000Y4768000D03*
G54D23*
X2020000Y2406000D03*
Y2446000D03*
Y2486000D03*
Y2526000D03*
Y2566000D03*
Y2606000D03*
Y2646000D03*
Y2686000D03*
Y2726000D03*
Y2766000D03*
Y2806000D03*
Y2846000D03*
Y2886000D03*
Y2926000D03*
Y2966000D03*
Y3006000D03*
Y3046000D03*
Y3086000D03*
Y3126000D03*
Y3166000D03*
Y3206000D03*
Y3246000D03*
Y3286000D03*
Y3326000D03*
Y3366000D03*
X3190000Y2486000D03*
Y2446000D03*
Y2406000D03*
Y2646000D03*
Y2606000D03*
Y2566000D03*
Y2526000D03*
Y2806000D03*
Y2766000D03*
Y2726000D03*
Y2686000D03*
Y3006000D03*
Y2966000D03*
Y2926000D03*
Y2886000D03*
Y2846000D03*
Y3166000D03*
Y3126000D03*
Y3086000D03*
Y3046000D03*
Y3326000D03*
Y3286000D03*
Y3246000D03*
Y3206000D03*
Y3366000D03*
G54D15*
X321000Y4339000D03*
Y4337000D03*
X548000Y3955000D03*
X490930Y4652000D03*
X585070D03*
X1312930Y3817000D03*
X1407070D03*
X2605000Y2925000D03*
X2508000Y4770000D03*
G54D24*
X2245000Y2301000D03*
X2205000D03*
X2165000D03*
X2125000D03*
Y3471000D03*
X2165000D03*
X2205000D03*
X2245000D03*
X2405000Y2301000D03*
X2365000D03*
X2325000D03*
X2285000D03*
Y3471000D03*
X2325000D03*
X2365000D03*
X2405000D03*
X2565000Y2301000D03*
X2525000D03*
X2485000D03*
X2445000D03*
Y3471000D03*
X2485000D03*
X2525000D03*
X2565000D03*
X2765000Y2301000D03*
X2725000D03*
X2685000D03*
X2645000D03*
X2605000D03*
Y3471000D03*
X2645000D03*
X2685000D03*
X2725000D03*
X2765000D03*
X2925000Y2301000D03*
X2885000D03*
X2845000D03*
X2805000D03*
Y3471000D03*
X2845000D03*
X2885000D03*
X2925000D03*
X3085000Y2301000D03*
X3045000D03*
X3005000D03*
X2965000D03*
Y3471000D03*
X3005000D03*
X3045000D03*
X3085000D03*
G54D25*
X2605000Y2886000D03*
G54D16*
X549000Y2322000D03*
Y2572000D03*
Y2772000D03*
X3574000Y607000D03*
X3774000D03*
X4024000D03*
G54D17*
X549000Y3022000D03*
X3324000Y607000D03*
G54D26*
X4530000Y1355000D03*
X4658000D03*
G54D18*
X415000Y3775500D03*
Y3839000D03*
Y3902500D03*
Y3966000D03*
Y4029500D03*
Y4093000D03*
Y4156500D03*
Y4220000D03*
Y4283500D03*
Y4347000D03*
Y4410500D03*
Y4474000D03*
G54D19*
X690000Y742000D03*
Y682000D03*
X643000Y687000D03*
Y737000D03*
X705000Y1690000D03*
X645000D03*
Y1644000D03*
X695000D03*
X831000Y2914000D03*
Y2974000D03*
X879000Y2970000D03*
Y2920000D03*
X839000Y3091000D03*
Y3141000D03*
X1035000Y250000D03*
X988000Y252000D03*
X1035000Y310000D03*
X988000Y302000D03*
X966000Y1616000D03*
X919000D03*
X1018000Y1629000D03*
Y1579000D03*
X1017000Y1530000D03*
Y1480000D03*
X966000Y1676000D03*
X919000D03*
X889000Y3145000D03*
Y3085000D03*
X1503000Y1622000D03*
Y1562000D03*
Y1778000D03*
X1557000Y1777000D03*
X1503000Y1838000D03*
X1557000Y1837000D03*
X1443000Y2148000D03*
X1503000D03*
X1604000Y1777000D03*
X1651000Y1776000D03*
X1604000Y1837000D03*
X1651000Y1836000D03*
X1675000Y2327000D03*
Y2277000D03*
Y2469000D03*
X1735000D03*
X1675000Y2422000D03*
Y2372000D03*
X1691000Y4040000D03*
X1751000D03*
X1880000Y2402000D03*
X1888000Y2488000D03*
X1890000Y2445000D03*
X1889000Y2531000D03*
Y2574000D03*
X1875000Y2689000D03*
X1878000Y2733000D03*
X1928000Y2776000D03*
X1868000D03*
X1872000Y3050000D03*
X1875000Y3138000D03*
X1876000Y3095000D03*
X1888000Y3370000D03*
X1774000Y3407000D03*
Y3457000D03*
X1823000Y3458000D03*
Y3408000D03*
X2053000Y843000D03*
Y903000D03*
X2006000Y898000D03*
Y848000D03*
X1940000Y2402000D03*
X1938000Y2488000D03*
X1940000Y2445000D03*
X1939000Y2531000D03*
Y2574000D03*
X1935000Y2689000D03*
X1938000Y2733000D03*
X1932000Y3050000D03*
X1935000Y3138000D03*
X1936000Y3095000D03*
X1938000Y3370000D03*
X2122000Y2166000D03*
X2235000Y2162000D03*
X2122000Y2226000D03*
X2235000Y2222000D03*
X2162000Y3551000D03*
X2119000D03*
X2162000Y3611000D03*
X2119000Y3601000D03*
X2321000Y2164000D03*
X2278000Y2163000D03*
X2321000Y2224000D03*
X2278000Y2223000D03*
X2401000Y3553000D03*
Y3613000D03*
X2439000Y4143000D03*
X2389000D03*
X2390000Y4098000D03*
X2440000D03*
X2602000Y2165000D03*
X2556000Y2161000D03*
X2510000Y2158000D03*
X2602000Y2225000D03*
X2556000Y2221000D03*
X2510000Y2218000D03*
X2602000Y3552000D03*
Y3612000D03*
X2723000Y3553000D03*
X2768000Y3555000D03*
X2723000Y3613000D03*
X2768000Y3615000D03*
X2951000Y886000D03*
Y946000D03*
X2903000Y944000D03*
Y894000D03*
X2937000Y1546000D03*
X2887000D03*
X2803000Y2166000D03*
Y2226000D03*
X2962000Y3552000D03*
Y3612000D03*
X2813000Y3616000D03*
Y3556000D03*
X2925000Y3693000D03*
X2926000Y3764000D03*
Y3814000D03*
X3131000Y995000D03*
X3081000D03*
X3131000Y1075000D03*
X3081000D03*
X3132000Y1269000D03*
X3072000D03*
X3135000Y1207000D03*
X3075000D03*
X3030000Y1208000D03*
X2980000D03*
X3132000Y1360000D03*
X3072000D03*
X3132000Y1426000D03*
X3080000Y1429000D03*
X3133000Y1614000D03*
X3088000Y1612000D03*
X3043000D03*
X3132000Y1486000D03*
X3080000Y1479000D03*
X2992000Y1600000D03*
Y1550000D03*
X3133000Y1674000D03*
X3088000Y1672000D03*
X3043000D03*
X3010000Y3552000D03*
Y3612000D03*
X2975000Y3693000D03*
X2976000Y3764000D03*
Y3814000D03*
X3266000Y2489000D03*
X3265000Y2568000D03*
X3270000Y2846000D03*
X3283000Y2893000D03*
Y2938000D03*
X3282000Y2983000D03*
X3268000Y3050000D03*
X3267000Y3214000D03*
X3317000D03*
X3264000Y3684000D03*
X3314000D03*
X3307000Y3900000D03*
Y3950000D03*
X3326000Y2489000D03*
X3325000Y2568000D03*
X3330000Y2846000D03*
X3333000Y2893000D03*
Y2938000D03*
X3332000Y2983000D03*
X3463000Y3017000D03*
X3462000Y2967000D03*
X3463000Y2923000D03*
X3328000Y3050000D03*
X3384000Y3119000D03*
Y3069000D03*
X3649000Y2663000D03*
Y2603000D03*
X3513000Y3017000D03*
X3512000Y2967000D03*
X3513000Y2923000D03*
X3649000Y3159000D03*
X3599000D03*
X3700000Y2664000D03*
Y2604000D03*
X3805000Y2661000D03*
Y2601000D03*
X3755000Y2662000D03*
Y2602000D03*
X3702000Y3155000D03*
Y3205000D03*
X3755000Y3157000D03*
Y3207000D03*
X3892000Y885000D03*
X3952000D03*
X3998000D03*
X3980000Y1007000D03*
X3973000Y1141000D03*
X3966000Y1261000D03*
X3975000Y1400000D03*
X3974000Y1530000D03*
X3975000Y1595000D03*
X3978000Y1650000D03*
X3857000Y2662000D03*
Y2602000D03*
X3992000Y2996000D03*
X3993000Y2951000D03*
X3849000Y3158000D03*
X3899000D03*
X3998000Y3047000D03*
X4048000Y885000D03*
X4030000Y1007000D03*
X4023000Y1141000D03*
X4016000Y1261000D03*
X4025000Y1400000D03*
X4177000Y1640000D03*
X4024000Y1530000D03*
X4025000Y1595000D03*
X4038000Y1650000D03*
X4042000Y2996000D03*
X4043000Y2951000D03*
X4048000Y3047000D03*
X4083000Y3805000D03*
X4133000D03*
X4085000Y3915000D03*
X4145000D03*
X4186000Y4261000D03*
X4077000Y4259000D03*
X4127000D03*
X4237000Y1640000D03*
X4302000Y2138000D03*
X4252000D03*
X4253000Y2037000D03*
X4303000D03*
X4296000Y2847000D03*
X4246000D03*
X4244000Y2752000D03*
X4294000D03*
X4295000Y2891000D03*
Y2941000D03*
X4339000Y3753000D03*
X4320000Y4404000D03*
X4246000Y4261000D03*
X4325000Y4351000D03*
X4443000Y1782000D03*
Y1722000D03*
X4491000Y1784000D03*
Y1724000D03*
X4440000Y2282000D03*
X4390000D03*
X4495000Y2273000D03*
Y2323000D03*
X4390000Y2332000D03*
X4440000D03*
X4483000Y2511000D03*
Y2451000D03*
X4428000Y2511000D03*
Y2451000D03*
X4531000Y2508000D03*
Y2448000D03*
X4478000Y2984000D03*
Y3034000D03*
X4531000Y2984000D03*
Y3034000D03*
X4417000Y2988000D03*
X4367000D03*
X4389000Y3753000D03*
X4498000Y4226000D03*
X4380000Y4404000D03*
X4375000Y4351000D03*
X4507000Y4919000D03*
Y4869000D03*
X4676000Y1087000D03*
X4675000Y1029000D03*
X4589000Y1784000D03*
Y1724000D03*
X4642000Y1782000D03*
Y1722000D03*
X4543000Y1781000D03*
Y1721000D03*
X4644000Y2280000D03*
X4694000D03*
X4546000Y2274000D03*
Y2324000D03*
X4695000Y2328000D03*
X4645000D03*
X4631000Y2507000D03*
Y2447000D03*
X4582000Y2508000D03*
Y2448000D03*
X4639000Y2987000D03*
X4689000D03*
X4589000Y4007000D03*
Y3957000D03*
X4548000Y4226000D03*
X4666000Y4225000D03*
X4616000D03*
X4560000Y4865000D03*
Y4925000D03*
X4619000Y4929000D03*
X4679000D03*
X4736000Y1087000D03*
X4725000Y1029000D03*
X4820000Y1261000D03*
Y1211000D03*
X4864000Y1212000D03*
X4873000Y1383000D03*
Y1337000D03*
X4772000Y1378000D03*
Y1328000D03*
X4815000Y1378000D03*
Y1328000D03*
X4826000Y2037000D03*
X4776000D03*
X4780000Y2136000D03*
X4830000D03*
X4766000Y2845000D03*
X4816000D03*
X4813000Y2746000D03*
X4763000D03*
X4765000Y2887000D03*
Y2937000D03*
X4856000Y3263000D03*
X4796000D03*
X4791000Y3311000D03*
X4841000D03*
X4795000Y3218000D03*
X4845000D03*
X4794000Y3519000D03*
X4854000D03*
X4851000Y3433000D03*
X4801000D03*
X4794000Y3593000D03*
X4854000D03*
X4755000Y4042000D03*
X4812000Y4048000D03*
X4755000Y4102000D03*
X4812000Y4098000D03*
X4734000Y4930000D03*
X4794000D03*
X4795000Y4884000D03*
X4845000D03*
X4914000Y1212000D03*
X4933000Y1383000D03*
Y1337000D03*
M02*
