G04 ================== begin FILE IDENTIFICATION RECORD ==================*
G04 Layout Name:  c:/candencecircuits/parcial2_2025/allegro/parcial2_ks.brd*
G04 Film Name:    SPTP*
G04 File Format:  Gerber RS274X*
G04 File Origin:  Cadence Allegro 24.1-S006*
G04 Origin Date:  Mon Nov 10 14:52:36 2025*
G04 *
G04 Layer:  PACKAGE GEOMETRY/PASTEMASK_TOP*
G04 Layer:  VIA CLASS/PASTEMASK_TOP*
G04 Layer:  PIN/PASTEMASK_TOP*
G04 *
G04 Offset:    (0.0000 0.0000)*
G04 Mirror:    No*
G04 Mode:      Positive*
G04 Rotation:  0*
G04 FullContactRelief:  No*
G04 UndefLineWidth:     0.1524*
G04 ================== end FILE IDENTIFICATION RECORD ====================*
%FSLAX25Y25*MOMM*%
%IR0*IPPOS*OFA0.00000B0.00000*MIA0B0*SFA1.00000B1.00000*%
%ADD15R,1.X.9*%
%ADD13R,1.27X.64*%
%ADD19R,.64X1.27*%
%ADD12R,.3X.3*%
%ADD10C,.47*%
%ADD17O,.13X.98*%
%ADD16O,.98X.13*%
%ADD14R,.475X.3*%
%ADD11R,.77X.37*%
%ADD18R,8.03X8.03*%
%LPD*%
G75*
G54D10*
X164000Y4133000D03*
X244000Y3853000D03*
X314000Y3773000D03*
Y4013000D03*
X244000D03*
Y3933000D03*
X314000Y4173000D03*
Y4093000D03*
X244000Y4333000D03*
Y4253000D03*
X314000D03*
Y4493000D03*
X244000Y4413000D03*
G54D11*
X415000Y3775500D03*
Y3839000D03*
Y3902500D03*
Y3966000D03*
Y4029500D03*
Y4093000D03*
Y4156500D03*
Y4220000D03*
Y4283500D03*
Y4347000D03*
Y4410500D03*
Y4474000D03*
G54D12*
X690000Y742000D03*
Y682000D03*
X643000Y687000D03*
Y737000D03*
X705000Y1690000D03*
X645000D03*
Y1644000D03*
X695000D03*
X831000Y2914000D03*
Y2974000D03*
X879000Y2970000D03*
Y2920000D03*
X839000Y3091000D03*
Y3141000D03*
X1035000Y250000D03*
X988000Y252000D03*
X1035000Y310000D03*
X988000Y302000D03*
X966000Y1616000D03*
X919000D03*
X1018000Y1629000D03*
Y1579000D03*
X1017000Y1530000D03*
Y1480000D03*
X966000Y1676000D03*
X919000D03*
X889000Y3145000D03*
Y3085000D03*
X1503000Y1622000D03*
Y1562000D03*
Y1778000D03*
X1557000Y1777000D03*
X1503000Y1838000D03*
X1557000Y1837000D03*
X1443000Y2148000D03*
X1503000D03*
X1604000Y1777000D03*
X1651000Y1776000D03*
X1604000Y1837000D03*
X1651000Y1836000D03*
X1675000Y2327000D03*
Y2277000D03*
Y2469000D03*
X1735000D03*
X1675000Y2422000D03*
Y2372000D03*
X1691000Y4040000D03*
X1751000D03*
X1880000Y2402000D03*
X1888000Y2488000D03*
X1890000Y2445000D03*
X1889000Y2531000D03*
Y2574000D03*
X1875000Y2689000D03*
X1878000Y2733000D03*
X1928000Y2776000D03*
X1868000D03*
X1872000Y3050000D03*
X1875000Y3138000D03*
X1876000Y3095000D03*
X1888000Y3370000D03*
X1774000Y3407000D03*
Y3457000D03*
X1823000Y3458000D03*
Y3408000D03*
X2053000Y843000D03*
Y903000D03*
X2006000Y898000D03*
Y848000D03*
X1940000Y2402000D03*
X1938000Y2488000D03*
X1940000Y2445000D03*
X1939000Y2531000D03*
Y2574000D03*
X1935000Y2689000D03*
X1938000Y2733000D03*
X1932000Y3050000D03*
X1935000Y3138000D03*
X1936000Y3095000D03*
X1938000Y3370000D03*
X2122000Y2166000D03*
X2235000Y2162000D03*
X2122000Y2226000D03*
X2235000Y2222000D03*
X2162000Y3551000D03*
X2119000D03*
X2162000Y3611000D03*
X2119000Y3601000D03*
X2321000Y2164000D03*
X2278000Y2163000D03*
X2321000Y2224000D03*
X2278000Y2223000D03*
X2401000Y3553000D03*
Y3613000D03*
X2439000Y4143000D03*
X2389000D03*
X2390000Y4098000D03*
X2440000D03*
X2602000Y2165000D03*
X2556000Y2161000D03*
X2510000Y2158000D03*
X2602000Y2225000D03*
X2556000Y2221000D03*
X2510000Y2218000D03*
X2602000Y3552000D03*
Y3612000D03*
X2723000Y3553000D03*
X2768000Y3555000D03*
X2723000Y3613000D03*
X2768000Y3615000D03*
X2951000Y886000D03*
Y946000D03*
X2903000Y944000D03*
Y894000D03*
X2937000Y1546000D03*
X2887000D03*
X2803000Y2166000D03*
Y2226000D03*
X2962000Y3552000D03*
Y3612000D03*
X2813000Y3616000D03*
Y3556000D03*
X2925000Y3693000D03*
X2926000Y3764000D03*
Y3814000D03*
X3131000Y995000D03*
X3081000D03*
X3131000Y1075000D03*
X3081000D03*
X3132000Y1269000D03*
X3072000D03*
X3135000Y1207000D03*
X3075000D03*
X3030000Y1208000D03*
X2980000D03*
X3132000Y1360000D03*
X3072000D03*
X3132000Y1426000D03*
X3080000Y1429000D03*
X3133000Y1614000D03*
X3088000Y1612000D03*
X3043000D03*
X3132000Y1486000D03*
X3080000Y1479000D03*
X2992000Y1600000D03*
Y1550000D03*
X3133000Y1674000D03*
X3088000Y1672000D03*
X3043000D03*
X3010000Y3552000D03*
Y3612000D03*
X2975000Y3693000D03*
X2976000Y3764000D03*
Y3814000D03*
X3266000Y2489000D03*
X3265000Y2568000D03*
X3270000Y2846000D03*
X3283000Y2893000D03*
Y2938000D03*
X3282000Y2983000D03*
X3268000Y3050000D03*
X3267000Y3214000D03*
X3317000D03*
X3264000Y3684000D03*
X3314000D03*
X3307000Y3900000D03*
Y3950000D03*
X3326000Y2489000D03*
X3325000Y2568000D03*
X3330000Y2846000D03*
X3333000Y2893000D03*
Y2938000D03*
X3332000Y2983000D03*
X3463000Y3017000D03*
X3462000Y2967000D03*
X3463000Y2923000D03*
X3328000Y3050000D03*
X3384000Y3119000D03*
Y3069000D03*
X3649000Y2663000D03*
Y2603000D03*
X3513000Y3017000D03*
X3512000Y2967000D03*
X3513000Y2923000D03*
X3649000Y3159000D03*
X3599000D03*
X3700000Y2664000D03*
Y2604000D03*
X3805000Y2661000D03*
Y2601000D03*
X3755000Y2662000D03*
Y2602000D03*
X3702000Y3155000D03*
Y3205000D03*
X3755000Y3157000D03*
Y3207000D03*
X3892000Y885000D03*
X3952000D03*
X3998000D03*
X3980000Y1007000D03*
X3973000Y1141000D03*
X3966000Y1261000D03*
X3975000Y1400000D03*
X3974000Y1530000D03*
X3975000Y1595000D03*
X3978000Y1650000D03*
X3857000Y2662000D03*
Y2602000D03*
X3992000Y2996000D03*
X3993000Y2951000D03*
X3849000Y3158000D03*
X3899000D03*
X3998000Y3047000D03*
X4048000Y885000D03*
X4030000Y1007000D03*
X4023000Y1141000D03*
X4016000Y1261000D03*
X4025000Y1400000D03*
X4177000Y1640000D03*
X4024000Y1530000D03*
X4025000Y1595000D03*
X4038000Y1650000D03*
X4042000Y2996000D03*
X4043000Y2951000D03*
X4048000Y3047000D03*
X4083000Y3805000D03*
X4133000D03*
X4085000Y3915000D03*
X4145000D03*
X4186000Y4261000D03*
X4077000Y4259000D03*
X4127000D03*
X4237000Y1640000D03*
X4302000Y2138000D03*
X4252000D03*
X4253000Y2037000D03*
X4303000D03*
X4296000Y2847000D03*
X4246000D03*
X4244000Y2752000D03*
X4294000D03*
X4295000Y2891000D03*
Y2941000D03*
X4339000Y3753000D03*
X4320000Y4404000D03*
X4246000Y4261000D03*
X4325000Y4351000D03*
X4443000Y1782000D03*
Y1722000D03*
X4491000Y1784000D03*
Y1724000D03*
X4440000Y2282000D03*
X4390000D03*
X4495000Y2273000D03*
Y2323000D03*
X4390000Y2332000D03*
X4440000D03*
X4483000Y2511000D03*
Y2451000D03*
X4428000Y2511000D03*
Y2451000D03*
X4531000Y2508000D03*
Y2448000D03*
X4478000Y2984000D03*
Y3034000D03*
X4531000Y2984000D03*
Y3034000D03*
X4417000Y2988000D03*
X4367000D03*
X4389000Y3753000D03*
X4498000Y4226000D03*
X4380000Y4404000D03*
X4375000Y4351000D03*
X4507000Y4919000D03*
Y4869000D03*
X4676000Y1087000D03*
X4675000Y1029000D03*
X4589000Y1784000D03*
Y1724000D03*
X4642000Y1782000D03*
Y1722000D03*
X4543000Y1781000D03*
Y1721000D03*
X4644000Y2280000D03*
X4694000D03*
X4546000Y2274000D03*
Y2324000D03*
X4695000Y2328000D03*
X4645000D03*
X4631000Y2507000D03*
Y2447000D03*
X4582000Y2508000D03*
Y2448000D03*
X4639000Y2987000D03*
X4689000D03*
X4589000Y4007000D03*
Y3957000D03*
X4548000Y4226000D03*
X4666000Y4225000D03*
X4616000D03*
X4560000Y4865000D03*
Y4925000D03*
X4619000Y4929000D03*
X4679000D03*
X4736000Y1087000D03*
X4725000Y1029000D03*
X4820000Y1261000D03*
Y1211000D03*
X4864000Y1212000D03*
X4873000Y1383000D03*
Y1337000D03*
X4772000Y1378000D03*
Y1328000D03*
X4815000Y1378000D03*
Y1328000D03*
X4826000Y2037000D03*
X4776000D03*
X4780000Y2136000D03*
X4830000D03*
X4766000Y2845000D03*
X4816000D03*
X4813000Y2746000D03*
X4763000D03*
X4765000Y2887000D03*
Y2937000D03*
X4856000Y3263000D03*
X4796000D03*
X4791000Y3311000D03*
X4841000D03*
X4795000Y3218000D03*
X4845000D03*
X4794000Y3519000D03*
X4854000D03*
X4851000Y3433000D03*
X4801000D03*
X4794000Y3593000D03*
X4854000D03*
X4755000Y4042000D03*
X4812000Y4048000D03*
X4755000Y4102000D03*
X4812000Y4098000D03*
X4734000Y4930000D03*
X4794000D03*
X4795000Y4884000D03*
X4845000D03*
X4914000Y1212000D03*
X4933000Y1383000D03*
Y1337000D03*
G54D13*
X938000Y1757000D03*
Y1885000D03*
X1333000Y2236000D03*
Y2364000D03*
G54D14*
X1442200Y2221000D03*
Y2271000D03*
Y2321000D03*
Y2371000D03*
X1609800Y2271000D03*
Y2221000D03*
Y2371000D03*
Y2321000D03*
G54D15*
X1697000Y3697000D03*
Y3907000D03*
X1887000Y3697000D03*
Y3907000D03*
G54D16*
X2020000Y2406000D03*
Y2446000D03*
Y2486000D03*
Y2526000D03*
Y2566000D03*
Y2606000D03*
Y2646000D03*
Y2686000D03*
Y2726000D03*
Y2766000D03*
Y2806000D03*
Y2846000D03*
Y2886000D03*
Y2926000D03*
Y2966000D03*
Y3006000D03*
Y3046000D03*
Y3086000D03*
Y3126000D03*
Y3166000D03*
Y3206000D03*
Y3246000D03*
Y3286000D03*
Y3326000D03*
Y3366000D03*
X3190000Y2486000D03*
Y2446000D03*
Y2406000D03*
Y2646000D03*
Y2606000D03*
Y2566000D03*
Y2526000D03*
Y2806000D03*
Y2766000D03*
Y2726000D03*
Y2686000D03*
Y3006000D03*
Y2966000D03*
Y2926000D03*
Y2886000D03*
Y2846000D03*
Y3166000D03*
Y3126000D03*
Y3086000D03*
Y3046000D03*
Y3326000D03*
Y3286000D03*
Y3246000D03*
Y3206000D03*
Y3366000D03*
G54D17*
X2245000Y2301000D03*
X2205000D03*
X2165000D03*
X2125000D03*
Y3471000D03*
X2165000D03*
X2205000D03*
X2245000D03*
X2405000Y2301000D03*
X2365000D03*
X2325000D03*
X2285000D03*
Y3471000D03*
X2325000D03*
X2365000D03*
X2405000D03*
X2565000Y2301000D03*
X2525000D03*
X2485000D03*
X2445000D03*
Y3471000D03*
X2485000D03*
X2525000D03*
X2565000D03*
X2765000Y2301000D03*
X2725000D03*
X2685000D03*
X2645000D03*
X2605000D03*
Y3471000D03*
X2645000D03*
X2685000D03*
X2725000D03*
X2765000D03*
X2925000Y2301000D03*
X2885000D03*
X2845000D03*
X2805000D03*
Y3471000D03*
X2845000D03*
X2885000D03*
X2925000D03*
X3085000Y2301000D03*
X3045000D03*
X3005000D03*
X2965000D03*
Y3471000D03*
X3005000D03*
X3045000D03*
X3085000D03*
G54D18*
X2605000Y2886000D03*
G54D19*
X4530000Y1355000D03*
X4658000D03*
M02*
